<svg version="1.2" xmlns="http://www.w3.org/2000/svg" viewBox="0 0 740 736" width="740" height="736">
	<title>OBJECTS</title>
	<style>
		.s0 { fill: #ffeb78 } 
		.s1 { fill: #e4c86a } 
		.s2 { fill: #efd88f } 
		.s3 { opacity: .1;mix-blend-mode: overlay;fill: #ffffff } 
	</style>
	<g id="OBJECTS">
		<g id="&lt;Group&gt;">
			<g id="-e-">
				<g id="&lt;Group&gt;">
					<path id="&lt;Path&gt;" class="s0" d="m737.3 369.3c0 149-88.9 277.3-216.5 334.8-45.9 20.7-96.9 32.2-150.6 32.2-13.2 0-26.4-0.7-39.2-2.2-13.8-1.4-27.3-3.6-40.5-6.6-164.3-36.3-287.3-182.9-287.3-358.2 0-166.6 110.9-307.2 263-352.1 28.1-8.3 57.6-13.4 88.2-14.7 3.8-0.1 7.7-0.2 11.6-0.3h4.2c68.8 0 133.1 18.9 188 51.8 3.2 1.8 6.3 3.7 9.3 5.7 102.1 65.2 169.8 179.5 169.8 309.6z"/>
					<path id="&lt;Path&gt;" class="s1" d="m495.5 516.1c-66.5 0-120.2-53.8-120.2-120.3 0-66.5 53.7-120.2 120.2-120.2 66.5 0 120.3 53.7 120.3 120.2 0 66.5-53.8 120.3-120.3 120.3z"/>
					<path id="&lt;Path&gt;" class="s2" d="m496.7 511.5c-61.3 0-110.9-49.5-110.9-110.8 0-61.4 49.6-110.9 110.9-110.9 61.3 0 110.8 49.5 110.8 110.9 0 61.3-49.5 110.8-110.8 110.8z"/>
					<path id="&lt;Path&gt;" class="s1" d="m82.4 446.6c34.7-29.3 97.6-12 140.5 38.6 42.9 50.7 49.6 115.6 14.9 145-34.7 29.3-97.6 12-140.5-38.7-42.9-50.6-49.5-115.5-14.9-144.9z"/>
					<path id="&lt;Path&gt;" class="s2" d="m90.2 450.8c32-27.1 90-11.2 129.6 35.6 39.5 46.7 45.7 106.5 13.7 133.6-32 27-89.9 11.1-129.5-35.6-39.6-46.8-45.7-106.6-13.8-133.6z"/>
					<path id="&lt;Path&gt;" class="s1" d="m221.5 108.3c17.9 21.4 7.1 59.9-24.1 85.9-31.1 26.1-70.9 29.9-88.8 8.5-17.9-21.4-7.2-59.9 24-86 31.2-26 71-29.8 88.9-8.4z"/>
					<path id="&lt;Path&gt;" class="s2" d="m218.9 113c16.5 19.8 6.6 55.3-22.1 79.3-28.8 24.1-65.5 27.6-82 7.8-16.5-19.7-6.6-55.2 22.2-79.2 28.7-24.1 65.4-27.6 81.9-7.9z"/>
					<path id="&lt;Path&gt;" class="s1" d="m340.8 202.1c-20.6 0-37.3-16.6-37.3-37.2 0-20.6 16.7-37.3 37.3-37.3 20.6 0 37.3 16.7 37.3 37.3 0 20.6-16.7 37.2-37.3 37.2z"/>
					<path id="&lt;Path&gt;" class="s1" d="m618.2 200.1c-18.3 0-33.1-14.8-33.1-33.2 0-18.3 14.8-33.1 33.1-33.1 18.3 0 33.1 14.8 33.1 33.1 0 18.4-14.8 33.2-33.1 33.2z"/>
					<path id="&lt;Path&gt;" class="s1" d="m560.2 616.2c-13.7 0-24.8-11.1-24.8-24.8 0-13.8 11.1-24.9 24.8-24.9 13.8 0 24.9 11.1 24.9 24.9 0 13.7-11.1 24.8-24.9 24.8z"/>
					<path id="&lt;Path&gt;" class="s1" d="m527.1 668c-11.4 0-20.7-9.3-20.7-20.7 0-11.5 9.3-20.7 20.7-20.7 11.5 0 20.7 9.2 20.7 20.7 0 11.4-9.2 20.7-20.7 20.7z"/>
					<path id="&lt;Path&gt;" class="s1" d="m90.3 388.5c-11.5 0-20.7-9.3-20.7-20.7 0-11.5 9.2-20.7 20.7-20.7 11.4 0 20.7 9.2 20.7 20.7 0 11.4-9.3 20.7-20.7 20.7z"/>
					<path id="&lt;Path&gt;" class="s1" d="m62.3 431.9c-7.4 0-13.4-6-13.4-13.4 0-7.5 6-13.5 13.4-13.5 7.5 0 13.5 6 13.5 13.5 0 7.4-6 13.4-13.5 13.4z"/>
					<path id="&lt;Path&gt;" class="s1" d="m237.3 264.2c-12.6 0-22.8-10.1-22.8-22.7 0-12.6 10.2-22.8 22.8-22.8 12.6 0 22.7 10.2 22.7 22.8 0 12.6-10.1 22.7-22.7 22.7z"/>
					<path id="&lt;Path&gt;" class="s1" d="m175.2 245.6c-4.6 0-8.3-3.7-8.3-8.3 0-4.6 3.7-8.3 8.3-8.3 4.5 0 8.2 3.7 8.2 8.3 0 4.6-3.7 8.3-8.2 8.3z"/>
					<path id="&lt;Path&gt;" class="s1" d="m209.3 307.7c-8.6 0-15.5-6.9-15.5-15.5 0-8.6 6.9-15.5 15.5-15.5 8.6 0 15.5 6.9 15.5 15.5 0 8.6-6.9 15.5-15.5 15.5z"/>
					<path id="&lt;Path&gt;" class="s1" d="m285.9 59.3c-4 0-7.2-3.3-7.2-7.3 0-4 3.2-7.2 7.2-7.2 4 0 7.3 3.2 7.3 7.2 0 4-3.3 7.3-7.3 7.3z"/>
					<path id="&lt;Path&gt;" class="s1" d="m343.9 34.4c-4 0-7.3-3.2-7.3-7.2 0-4 3.3-7.3 7.3-7.3 4 0 7.2 3.3 7.2 7.3 0 4-3.2 7.2-7.2 7.2z"/>
					<path id="&lt;Path&gt;" class="s1" d="m568.5 96.5c-4.6 0-8.3-3.7-8.3-8.2 0-4.6 3.7-8.3 8.3-8.3 4.6 0 8.3 3.7 8.3 8.3 0 4.5-3.7 8.2-8.3 8.2z"/>
					<path id="&lt;Path&gt;" class="s1" d="m677.2 253.9c-5.1 0-9.3-4.2-9.3-9.3 0-5.2 4.2-9.3 9.3-9.3 5.2 0 9.3 4.1 9.3 9.3 0 5.1-4.1 9.3-9.3 9.3z"/>
					<path id="&lt;Path&gt;" class="s1" d="m487.8 237.3c-5.7 0-10.4-4.6-10.4-10.3 0-5.7 4.7-10.4 10.4-10.4 5.7 0 10.3 4.7 10.3 10.4 0 5.7-4.6 10.3-10.3 10.3z"/>
					<path id="&lt;Path&gt;" class="s1" d="m342.9 525.1c-9.2 0-16.6-7.4-16.6-16.6 0-9.1 7.4-16.5 16.6-16.5 9.1 0 16.5 7.4 16.5 16.5 0 9.2-7.4 16.6-16.5 16.6z"/>
					<path id="&lt;Path&gt;" class="s1" d="m398.8 521c-5.8 0-10.4-4.7-10.4-10.4 0-5.7 4.6-10.3 10.4-10.3 5.7 0 10.3 4.6 10.3 10.3 0 5.7-4.6 10.4-10.3 10.4z"/>
					<path id="&lt;Path&gt;" class="s1" d="m311.1 677.3c-10.9 0-19.7-8.8-19.7-19.6 0-10.9 8.8-19.7 19.7-19.7 10.8 0 19.6 8.8 19.6 19.7 0 10.8-8.8 19.6-19.6 19.6z"/>
					<path id="&lt;Path&gt;" class="s1" d="m277.9 696c-4 0-7.2-3.3-7.2-7.3 0-4 3.2-7.2 7.2-7.2 4 0 7.3 3.2 7.3 7.2 0 4-3.3 7.3-7.3 7.3z"/>
					<path id="&lt;Path&gt;" class="s1" d="m567.5 59.7c-25.1 42.8-85.2 58.7-139.8 34.9-41.9-18.1-69.1-54.5-73.3-92.1 3.8-0.1 7.7-0.2 11.6-0.3h4.2c68.8 0 133.1 18.9 188 51.8 3.2 1.8 6.3 3.7 9.3 5.7z"/>
					<path id="&lt;Path&gt;" class="s2" d="m558.2 54c-20.5 41.3-76.2 57.3-126.7 35.4-39.3-16.9-64.1-52.1-65.5-87.2h4.2c68.8 0 133.1 18.9 188 51.8z"/>
					<path id="&lt;Path&gt;" class="s1" d="m520.8 704.1c-45.9 20.7-96.9 32.2-150.6 32.2-13.2 0-26.4-0.7-39.2-2.2 5.3-46.2 47.8-82.3 99.5-82.3 39.7 0 74.1 21.4 90.3 52.3z"/>
					<path id="&lt;Path&gt;" class="s2" d="m513.6 706.4c-42.2 19.1-89 29.6-138.3 29.6-12.1 0-24.2-0.6-36-1.9 4.9-42.5 43.9-75.6 91.4-75.6 36.5 0 68 19.6 82.9 47.9z"/>
					<path id="&lt;Path&gt;" class="s1" d="m685.1 470.7c-10.3 0-18.5-8.3-18.5-18.5 0-10.3 8.2-18.5 18.5-18.5 10.2 0 18.5 8.2 18.5 18.5 0 10.2-8.3 18.5-18.5 18.5z"/>
					<path id="&lt;Path&gt;" class="s1" d="m712.1 424.4c-4.7 0-8.5-3.8-8.5-8.5 0-4.7 3.8-8.5 8.5-8.5 4.7 0 8.4 3.8 8.4 8.5 0 4.7-3.7 8.5-8.4 8.5z"/>
				</g>
				<path id="&lt;Path&gt;" class="s3" d="m479.8 659.2c-132.9 0-240.4-130.7-240.4-292.4 0-161.6 107.5-292.3 240.4-292.3 133 0 240.5 130.7 240.5 292.3 0 161.7-107.5 292.4-240.5 292.4z"/>
				<path id="&lt;Path&gt;" class="s3" d="m607.4 568.9c-59.9 0-108.4-88.3-108.4-197.5 0-109.3 48.5-197.6 108.4-197.6 59.9 0 108.4 88.3 108.4 197.6 0 109.2-48.5 197.5-108.4 197.5z"/>
			</g>
		</g>
	</g>
</svg>