<svg version="1.2" xmlns="http://www.w3.org/2000/svg" viewBox="0 0 1080 1080" width="1080" height="1080">
	<title>OBJECTS</title>
	<style>
		.s0 { opacity: .2;fill: #c151ba } 
		.s1 { fill: #ff6f6f } 
		.s2 { fill: #c151ba } 
		.s3 { opacity: .4;mix-blend-mode: overlay;fill: #ffffff } 
		.s4 { fill: #ffffff } 
	</style>
	<g id="OBJECTS">
		<g id="&lt;Group&gt;">
			<g id="-e-">
				<path id="&lt;Path&gt;" class="s0" d="m538.9 1078.1c-297.9 0-538.7-240.8-538.7-538.7 0-297.9 240.8-538.7 538.7-538.7 297.8 0 538.6 240.8 538.6 538.7 0 297.9-240.8 538.7-538.6 538.7z"/>
				<path id="&lt;Path&gt;" class="s0" d="m538.9 1034.8c-274 0-495.5-221.4-495.5-495.4 0-274 221.5-495.4 495.5-495.4 273.9 0 495.4 221.4 495.4 495.4 0 274-221.5 495.4-495.4 495.4z"/>
				<g id="&lt;Group&gt;">
					<g id="&lt;Group&gt;">
						<path id="&lt;Path&gt;" class="s1" d="m991 539.4c0 21.6-1.5 42.9-4.5 63.7-6.1 43.9-18.6 85.7-36.4 124.6-35 76.3-90.6 141.1-159.6 187.4-49.9 33.5-106.7 57.2-168 68.7-27.1 5.1-55.1 7.7-83.6 7.7-79.8 0-154.6-20.6-219.6-56.8-138.8-77.2-232.6-225.3-232.6-395.3 0-59.6 11.5-116.6 32.6-168.7 15.2-37.9 35.5-73.2 60-105.3 6.4-8.4 13.2-16.7 20.1-24.6 49.5-56.3 112.8-100.1 184.7-126.3 33.4-12.2 68.6-20.6 105.2-24.5 16.3-1.8 32.8-2.7 49.6-2.7 98.2 0 189.1 31.4 263.2 84.6 59.6 42.5 108.2 99.2 141.2 165.2 30.5 60.9 47.7 129.6 47.7 202.3z"/>
						<path id="&lt;Path&gt;" class="s2" d="m753.9 603.2c22.2 25.9-171.1 160.2-317.4 256-46.7 30.7-88.7 57.5-117.2 75.5-138.8-77.2-232.6-225.3-232.6-395.3 0-59.6 11.5-116.6 32.6-168.7 11.1-4.5 27.8-11.2 47.7-19 77.1-29.8 201.4-73.9 231.3-60 44.1 20.6-229.2 182.2-149.8 191 79.3 8.8 487.8-235.1 528.9-179.2 41.1 55.8-517.2 379-487.8 420.2 29.4 41.1 429-161.7 464.3-120.5z"/>
						<path id="&lt;Path&gt;" class="s2" d="m802.1 171.9c-62 34-154.3 81.2-204 90.4-79.3 14.7 76.4-79.4 73.6-123.5-3-44.1-232.2 67.6-276.3 38.3-22.6-15.1 33.7-53.4 93.9-87.1 0 0 0-0.1 0 0 16.3-1.8 32.8-2.7 49.6-2.7 98.2 0 189.1 31.4 263.2 84.6z"/>
						<path id="&lt;Path&gt;" class="s2" d="m991 539.4c0 21.6-1.5 42.9-4.5 63.7-46.3 12.1-112.5 27.7-153.2 29.5-67.6 2.9 5.9-73.5 11.7-135.2 5.9-61.7-135.2 38.2-185.1 11.7-38.8-20.5 182.2-125.7 283.4-172 30.5 60.9 47.7 129.6 47.7 202.3z"/>
						<path id="&lt;Path&gt;" class="s2" d="m950.1 727.7c-35 76.3-90.6 141.1-159.6 187.4-49.9 33.5-106.7 57.2-168 68.7-6.3-14.4-12.7-30-18.4-45.6-5.4-14.7-3.3-24.4 3.6-31.6 19.3-20.4 77-20.3 113.9-50.7 50-41.2-85.2-11.7-61.7-61.7 20.2-42.9 230.9-61.9 290.2-66.5z"/>
						<path id="&lt;Path&gt;" class="s2" d="m384.1 114.5c-49.7 61.2-121.1 141.9-153.3 141.9-13.1 0-23.5-6.3-31.4-15.6 49.5-56.3 112.8-100.1 184.7-126.3z"/>
						<g id="&lt;Group&gt;">
							<path id="&lt;Path&gt;" class="s2" d="m391.2 129.7c-24.9 23-66.8 81-11.1 92.4 31.1 6.4 68.3-5.5 98.5-11.5 40.3-8.1 83-14.4 120.7-30.9 3.6-1.5 1.9-8-2-7.5-43.4 5.6-85.7 20.6-128.7 29.3-22.1 4.5-48.6 13.5-71 11.3-61-6.1-15.4-56.5 0.8-77.5 3.3-4.3-3.5-8.9-7.2-5.6z"/>
						</g>
						<g id="&lt;Group&gt;">
							<path id="&lt;Path&gt;" class="s2" d="m555.5 207.6c-31.1 33.2-64.5 90.6 2.4 99.4 92.5 12.1 167.7-91.9 260.8-48.5 8.8 4.1 14.3-8.8 5.2-12.4-42.3-16.3-83-5.5-123.2 12-29.3 12.8-57.4 28.9-88.7 36.5-13.5 3.2-51.4 10.8-65.6 0.7-32.5-23.1 2.8-63.1 17.3-79.5 4.9-5.5-3.1-13.7-8.2-8.2z"/>
						</g>
						<g id="&lt;Group&gt;">
							<path id="&lt;Path&gt;" class="s2" d="m811.8 296.3c5.9 56.4-55.9 92.3-97 117.4-31.9 19.6-64.4 41-89.7 68.8-3.8 4.2 2.1 10.2 6.2 6.2 54.1-51.5 204.6-96.9 193-192.4-0.9-7.9-13.4-8.1-12.5 0z"/>
						</g>
						<g id="&lt;Group&gt;">
							<path id="&lt;Path&gt;" class="s2" d="m576.5 522.5c-73.1 43.4-156.9 88.4-212.4 154.4-3.9 4.6 2.3 11 6.8 6.7 62.2-59.6 141.9-100.5 211.6-150.8 6.2-4.4 0.8-14.4-6-10.3z"/>
						</g>
						<g id="&lt;Group&gt;">
							<path id="&lt;Path&gt;" class="s2" d="m420.6 672.5c102.8-31.3 187.6-102.6 298.3-108.2 6.8-0.4 6.9-10.5 0-10.5-109.6-0.1-202.4 72.4-299.9 112.7-3.6 1.5-2.3 7.2 1.6 6z"/>
						</g>
						<g id="&lt;Group&gt;">
							<path id="&lt;Path&gt;" class="s2" d="m737.2 536.4c9.3-3.6 31.9-15.7 41.8-13.3 14.4 3.6 12.6 22.9 11.5 32.3-0.9 7.8-4.9 16.2-7 23.8-4.8 17.2-19.2 50.5-9.2 67.9 7.2 12.6 22.9 13.5 36 14.3 31 1.8 64.1-1.1 93.7-10.7 5.6-1.8 3.2-9.5-2.4-8.7-32.2 4.8-111.1 30.7-115.2-23.5-2-27 21.1-55.6 20-82.8-1.7-41.4-49.3-17.4-72.6-7.4-4.5 2-1.3 9.9 3.4 8.1z"/>
						</g>
						<g id="&lt;Group&gt;">
							<path id="&lt;Path&gt;" class="s2" d="m947.1 641.7c0.3 0 0.3-0.4 0-0.4-0.2 0-0.2 0.4 0 0.4z"/>
						</g>
						<g id="&lt;Group&gt;">
							<path id="&lt;Path&gt;" class="s2" d="m910.7 695.2c-66.2 3.3-134.8 12.7-198.7 30.7-34.3 9.8-102.3 31.1-112.3 72.2-2.8 11.7-0.8 22.2 7.8 30.7 4.7 4.7 10.9 5.8 16.2 9.3q7.4 2.7 14.8 5.4 9.3 34.5-17.5 32.2c-21.3 10.8-41.6 6-58.4 27.9-11.2 14.4-13 29.2-9.1 46.4 1.7 7.1 14.1 5.8 13.1-1.8-10.1-76.2 76.7-40.5 96.4-85 8.6-19.4-9.1-29.2-24.2-35.6q-8.2-2.8-16.2-6.4 0.1-16.5 0.2-33c4.2-9.9 27.1-20.1 37.4-25.4 25.2-12.9 53-20.6 80.3-27.4 56.6-14.2 113.8-22.8 171.4-31.1 5.2-0.8 3.9-9.3-1.2-9.1z"/>
						</g>
						<g id="&lt;Group&gt;">
							<path id="&lt;Path&gt;" class="s2" d="m545.9 816.1c-54.2 37-116.3 79.3-180.1 97-9.2 2.5-5.1 15.3 3.8 13.9 32.6-4.9 59.2-22.1 86.8-39.4 32-20.1 63.8-40.7 95-61.9 5.9-4 0.4-13.6-5.5-9.6z"/>
						</g>
						<g id="&lt;Group&gt;">
							<path id="&lt;Path&gt;" class="s2" d="m436.2 954.1c36.7-20.6 70.8-44.6 102-72.9 4.9-4.5-2.2-11.2-7.1-7.2-31.9 25.9-65.7 48.9-101.7 68.5-7.7 4.1-0.8 15.9 6.8 11.6z"/>
						</g>
						<g id="&lt;Group&gt;">
							<path id="&lt;Path&gt;" class="s2" d="m422.2 277.4c24.3 74.8-86.4 107.4-116.7 163.7-1.6 2.8 0.3 6.5 3.7 6.4 36.8-0.3 65.8-23.1 96.7-40.9 41-23.6 85.9-38.2 127-60.9 5.2-2.8 1.6-10.6-3.9-9.3-38.6 9.3-75 30.3-109.9 48.7-19.6 10.4-38.4 21.5-57.2 33.2-10.3 6.3-18.1 11.8-30.7 13.3q-23 9.4-6-6.3 9.9-14.7 25.4-23.9c41.6-30.1 106-64.8 80.3-126.4-2.1-5.2-10.5-3.3-8.7 2.4z"/>
						</g>
						<g id="&lt;Group&gt;">
							<path id="&lt;Path&gt;" class="s2" d="m463.3 254.2c-7.4 18.5-10.2 43.4 2.7 60.2 3.3 4.2 11.1 0.7 10.7-4.5-1.3-18.6-6.2-33.4-0.2-52 2.7-8.6-10-11.6-13.2-3.7z"/>
						</g>
						<g id="&lt;Group&gt;">
							<path id="&lt;Path&gt;" class="s2" d="m365.5 249c-35.6 4.3-67.9 15.4-100.7 29.6-21 9.1-41.9 18.6-63.3 26.8-16.3 6.2-19.2 11.3-15.3-3.9 1.5-5.7-6.7-9.5-9.5-4.1-5.1 9.8-6.8 7.7-8.7 16.9-0.7 2.9 0.5 5.2 2.8 6.8 17.6 13 49.2-6.7 66.3-13.9 42.7-18 84-39.2 129.8-48.1 5.6-1.1 4.4-10.8-1.4-10.1z"/>
						</g>
						<g id="&lt;Group&gt;">
							<path id="&lt;Path&gt;" class="s2" d="m800.4 209.2c23.9 7.1 42.5 24.4 53.7 46.4 1.7 3.4 7.4 1 6.2-2.6-9.2-26.2-31.1-44.5-57.9-51-4.7-1.2-6.6 5.8-2 7.2z"/>
						</g>
						<g id="&lt;Group&gt;">
							<path id="&lt;Path&gt;" class="s2" d="m863.5 308.2c-6.5 20.6-18.5 34.6-31.9 50.8-2.2 2.7 0.6 7 3.9 5 18.7-11 31.3-33.1 38.3-53 2.3-6.4-8.2-9.4-10.3-2.8z"/>
						</g>
						<g id="&lt;Group&gt;">
							<path id="&lt;Path&gt;" class="s2" d="m944.3 652.2c-5.8 12.5-14.4 23.3-20.5 35.6-3.3 6.8 5 14.1 10.8 8.3 10.2-10.4 15.6-25.9 19.8-39.7 1.8-5.8-7.5-10-10.1-4.2z"/>
						</g>
					</g>
					<path id="&lt;Path&gt;" class="s3" d="m841 254.9c143.9 147.7 168.9 356.7 55.9 466.8-113 110.1-321.3 79.6-465.1-68.1-143.9-147.6-168.9-356.6-55.9-466.7 113-110.1 321.3-79.7 465.1 68z"/>
					<path id="&lt;Path&gt;" class="s3" d="m834.2 253.1c104.6 107.3 123.6 258.4 42.4 337.4-81.1 79.1-231.6 56.1-336.2-51.2-104.6-107.3-123.5-258.4-42.4-337.4 81.1-79.1 231.7-56.1 336.2 51.2z"/>
					<g id="&lt;Group&gt;" style="opacity: .4;mix-blend-mode: overlay">
						<path id="&lt;Path&gt;" class="s4" d="m604.4 294.2c41.7 28 78.9 52.4 110.6 92.5 28.9 36.6 41.4 80.9 52 125.6 17.5 74 124.7 54.1 128.1-17.3 6.6-137-122.8-295.7-267-288.1-47.4 2.4-62.6 61.1-23.7 87.3z"/>
					</g>
				</g>
			</g>
		</g>
	</g>
</svg>