<svg version="1.2" xmlns="http://www.w3.org/2000/svg" viewBox="0 0 856 852" width="856" height="852">
	<title>OBJECTS</title>
	<style>
		.s0 { fill: #e8592e } 
		.s1 { fill: #f49c3d } 
		.s2 { fill: #aa8c5a } 
		.s3 { opacity: .4;mix-blend-mode: overlay;fill: #ffffff } 
	</style>
	<g id="OBJECTS">
		<g id="&lt;Group&gt;">
			<g id="-e-">
				<g id="&lt;Group&gt;">
					<path id="&lt;Path&gt;" class="s0" d="m855.6 426.1c0 24.5-2.1 48.6-6 72-4 23.1-9.7 45.5-17.3 67.2-10.9 31.6-25.4 61.5-43.1 89.2-18.1 28.6-39.6 54.8-63.9 78.2-22.6 21.9-47.8 41.2-74.8 57.7-52 31.6-111.3 52.3-174.8 59.1-15.1 1.6-30.4 2.4-45.9 2.4-54.2 0-106.1-10.1-153.8-28.6-28.6-11-55.7-25.1-80.9-41.8-8.4-5.5-16.4-11.2-24.3-17.4-27.7-21.2-52.7-45.8-74.5-73.3-4.3-5.3-8.5-10.8-12.5-16.4-6.9-9.6-13.3-19.4-19.4-29.5-12.9-21.5-24-44.3-33-68.1-14.7-38.7-23.9-80.1-26.6-123.2-0.2-3.5-0.4-7.1-0.5-10.7-0.3-5.6-0.3-11.2-0.3-16.8 0-34.8 4.2-68.7 12.1-101 10-41.5 26.2-80.6 47.5-116.3 21.3-35.9 47.7-68.4 78.3-96.4 75.7-69.6 176.9-112.1 287.9-112.1 66.9 0 130.1 15.4 186.4 42.9 41.5 20.2 79.1 46.9 111.7 78.9 19.8 19.5 37.8 40.8 53.6 63.9 9.1 13.2 17.4 27.1 24.9 41.3 18.9 35.8 32.9 74.6 41 115.4 4.5 22.7 7.2 46 7.9 69.8q0.3 6.8 0.3 13.6z"/>
					<path id="&lt;Path&gt;" class="s1" d="m168.5 599.4c0 0-49.8 39.5-84.6 75-6.9-9.6-13.4-19.4-19.4-29.5 28.7-20 65.7-40.1 104-45.5z"/>
					<path id="&lt;Path&gt;" class="s1" d="m195.1 781.5h178.9c-10.4 0-66.1 26.3-98 41.8-28.6-11-55.6-25.1-80.9-41.8z"/>
					<path id="&lt;Path&gt;" class="s1" d="m271.2 370.3c-100.8 4.2-210.3 47.3-266.9 72.6-0.2-5.6-0.3-11.2-0.3-16.8 0-34.8 4.2-68.7 12.2-101 41.9-13.3 122.6-28 231.6 1.2 110.3 29.6 203.5 51.2 252.9 62.2-47.4-9.2-133.8-22.1-229.5-18.2z"/>
					<path id="&lt;Path&gt;" class="s2" d="m536.9 396.4c-4.1-0.9-16.7-3.6-36.2-7.9 19.2 3.7 31.9 6.7 36.2 7.9z"/>
					<path id="&lt;Path&gt;" class="s1" d="m725.4 732.7c-22.7 21.9-47.8 41.2-74.9 57.7-56.9-28.3-148.2-64.8-238.3-64.8-96.4 0-189.1 22.9-241.3 38.5-27.8-21.2-52.8-45.8-74.6-73.3 63.4-37.1 180.3-93.6 266-65 107.3 35.8 270.3 100.5 363.1 106.9z"/>
					<path id="&lt;Path&gt;" class="s1" d="m847.4 342.7c-22.4 10.9-65.3 20.5-144.4 24.7-223.3 11.7-331.9-91.1-475.8-135.1-74.6-22.8-128.7-25.9-163.5-23.5 21.2-35.9 47.7-68.4 78.2-96.4 60.3 0.6 139.2 8.5 226.3 34.8 159.1 47.9 314-4.1 359.7-25.1 19.9 19.5 37.9 40.8 53.6 63.9-12.3 16.8-47.6 42.5-149.1 52.2-155.5 14.7-267.2-20.6-267.2-20.6 0 0 91.1 73.4 234.9 55.8 84.8-10.3 159.5-30.9 206.4-46.1 18.9 35.8 32.9 74.6 40.9 115.4z"/>
					<path id="&lt;Path&gt;" class="s1" d="m497.4 505.4c0 0 38.2 17.7 138 35.3 62.4 11 144.3 19.7 197 24.6-11 31.6-25.5 61.5-43.2 89.2-82.7-9-223.4-27.4-306.5-55.1-123.4-41.1-205.5-126.3-308.3-94-52.8 16.5-104.8 46.3-142.9 71.4-14.7-38.7-23.9-80.1-26.6-123.2 71.8-13.5 226.3-39.2 325.1-30.4 132.2 11.8 270.1 44.1 417 11.8 48.3-10.7 83.2-17.8 108.4-22.5q0.3 6.8 0.3 13.6c0 24.5-2.1 48.6-6.1 72-12.9 2.5-29.3 4.9-49.8 7.3-129.1 14.7-246.6-8.7-302.4 0z"/>
				</g>
				<path id="&lt;Path&gt;" class="s3" d="m27.3 435.4c-3.6-185.8 103.2-338.5 238.6-341.2 135.3-2.6 248 145.9 251.6 331.7 3.6 185.8-103.2 338.5-238.6 341.1-135.3 2.6-248-145.8-251.6-331.6z"/>
				<path id="&lt;Path&gt;" class="s3" d="m28.6 440.8c-3-153 74.2-278.6 172.5-280.5 98.2-1.9 180.3 120.6 183.3 273.6 2.9 153-74.3 278.6-172.6 280.6-98.2 1.9-180.3-120.6-183.2-273.7z"/>
			</g>
		</g>
	</g>
</svg>