<svg version="1.2" xmlns="http://www.w3.org/2000/svg" viewBox="0 0 464 460" width="464" height="460">
	<title>Layer 2</title>
	<style>
		.s0 { fill: #007e93 } 
		.s1 { fill: #11aaba } 
		.s2 { fill: #20cbd3 } 
		.s3 { fill: #3ee5e5 } 
		.s4 { fill: #a6f2ff } 
		.s5 { fill: #84ecf7 } 
		.s6 { fill: #0d7024 } 
		.s7 { fill: #03841f } 
		.s8 { fill: #04a02c } 
		.s9 { fill: #00ba35 } 
		.s10 { fill: #70ff61 } 
		.s11 { fill: #4fdd3a } 
		.s12 { fill: #065e1d } 
		.s13 { opacity: .7;fill: #ffffff } 
	</style>
	<g id="Layer 2">
		<g id="-e-">
			<g id="-e-">
				<g id="&lt;Group&gt;">
					<g id="&lt;Group&gt;">
						<g id="&lt;Group&gt;">
							<path id="&lt;Path&gt;" class="s0" d="m44 363.4c41.7 58.4 110 96.6 187.2 96.6 10.9 0 21.7-0.9 32.3-2.4-39-19.9-75.8-45.8-109.3-73-26.7-23.4-72.2-31.3-110.2-21.2z"/>
							<path id="&lt;Path&gt;" class="s1" d="m445.4 313.3c-63.5 45.6-125.1 101.3-206.6 45.2-52-32.5-91.1-84.6-156.1-91.2-21.4-2.6-50.6-3.1-77.9 2.3 6 34.5 19.7 66.4 39.2 93.8 38-10.1 83.5-2.2 110.2 21.2 33.5 27.2 70.3 53.1 109.3 73 83.3-11.7 152.3-68.1 181.9-144.3z"/>
							<path id="&lt;Path&gt;" class="s2" d="m82.7 267.3c65 6.6 104.1 58.7 156.1 91.2 81.5 56.1 143.1 0.4 206.6-45.2 10.1-25.9 15.7-54 15.7-83.4 0-20.8-2.8-40.9-8-60-2.1 2-4.2 4-6.1 6.2-117.1 130.3-253.7 65.2-383.8-19.5-12.7-8.4-29.4-11.4-46.5-9.3-9.9 25.6-15.4 53.4-15.4 82.6 0 13.5 1.3 26.8 3.5 39.7 27.3-5.4 56.5-4.9 77.9-2.3z"/>
							<path id="&lt;Path&gt;" class="s3" d="m206.3 143.6c-39-26.1-58.6-71.7-91.1-84.7-9-4-18.3-6.8-27.7-8.7-31.4 25.3-56.1 58.7-70.8 97.1 17.1-2.1 33.8 0.9 46.5 9.3 130.1 84.7 266.7 149.8 383.8 19.5 1.9-2.2 4-4.2 6.1-6.2-10.7-39.9-31.8-75.4-60.3-103.6-53 51.8-112.2 117.3-186.5 77.3z"/>
							<path id="&lt;Path&gt;" class="s4" d="m329.9 39.4c4.8-3.2 9.4-6.6 14-10-30.7-17.4-65.8-27.9-103.2-29.4 1.7 4.3 3.2 8.7 4.6 13.3 6.5 19.6 52.1 39.1 84.6 26.1z"/>
							<path id="&lt;Path&gt;" class="s5" d="m329.9 39.4c-32.5 13-78.1-6.5-84.6-26.1-1.4-4.6-2.9-9-4.6-13.3-3.1-0.2-6.3-0.3-9.5-0.3-54.4 0-104.3 19-143.7 50.5 9.4 1.9 18.7 4.7 27.7 8.7 32.5 13 52.1 58.6 91.1 84.7 74.3 40 133.5-25.5 186.5-77.3-14.5-14.4-30.9-26.8-48.9-36.9-4.6 3.4-9.2 6.8-14 10z"/>
						</g>
						<g id="&lt;Group&gt;">
							<g id="&lt;Group&gt;">
								<g id="&lt;Group&gt;">
									<path id="&lt;Path&gt;" class="s6" d="m258.1 339.5c1 8.8 1.9 18.2 3.7 20.9 3 4.5-1.5 26 6 24.5 7.5-1.5 16-1.5 24.9-16.5 9-15 19-25.5 22-33.9 0.3-1 0.4-2.1 0.5-3.2-19.2 8.4-38.2 10.3-57.1 8.2z"/>
									<path id="&lt;Path&gt;" class="s7" d="m184.1 238.5c-3.8 9.3-2.5 15.1 1 22.1 4.4 9 21.9 23 40.3 17.5 18.5-5.5 12.5 3 19 5 6.5 1.9 1.5-0.6 0.5 13.4-1 14 7.4 21 10.5 28.5 1.2 3 1.9 8.6 2.7 14.5 18.9 2.1 37.9 0.2 57.1-8.2 0.7-9.7-5.8-26.9 0-36.3 6.4-10.5 9.4-5 15.4-14.9 6-10 6-10 6-10-0.5-4.4-1.9-9.8-3-12 0 0 0 0-8 1.5-1.3 0.2-2.5 0.1-3.7-0.3-45.5 8.5-91.8-0.1-137.8-20.8z"/>
									<path id="&lt;Path&gt;" class="s8" d="m307.2 244.1c-6-6.5-9.5-37.4-11-38.4-1.5-1-24.4 1.5-31.9 1.5-7.5 0-10.5-14.5-15.4-17.5-5-3-5-3-5-3-6.9 4.1-16.7 8-22 8.5 0 0 0 0-4.9 1-5 1-7 10.5-7 12.5 0 0-12.5 6-21.5 20.9-1.9 3.4-3.4 6.2-4.4 8.9 46 20.7 92.3 29.3 137.8 20.8-5.8-1.7-9.7-9.8-14.7-15.2z"/>
									<path id="&lt;Path&gt;" class="s8" d="m384.1 236.2c1 8.2 2.2 18.9 3.9 19.9 2.4 1.5 2.4 1.5 2.4 1.5 2.2 5.5 6.9 11.8 10.5 14 0 0 0 0 0-7.5 0-7.5 0-15 1-18 1-3 3-9 6.5-13 3.5-4 7-7.9 9-7.9 2 0 4 6.9 5.9 8.9 2 2 4.5 6.5 5.5 9 1 2.5 3.5 5 5.5 5.5 2 0.5 2 0.5 2 0.5 0.6 3.6 2.8 11.2 5 17 0 0 0 0 0.5 2.5 0.5 2.5-0.5 17.9 0 20.4 0.5 2.5 3.5 12.5 7 14.5 0.1 0.1 0.3 0.2 0.5 0.3q3.4-10.1 6-20.6c-1.4-3.3-2.8-7.4-3.5-9.1-1-2.5-2-9.5-3.5-13-1.5-3.5-9-11.5-4-11.5 5 0 10 0.5 11.5 5 1.5 4.5 1.5 4.5 1.5 4.5q1.2 0.1 2.4 0.1 1.5-11.5 1.8-23.3c-2.4-2.4-6.9-5.5-3.8-7.8 1.1-0.7 2.4-1.3 3.9-1.8-0.2-16.9-2.2-33.3-5.9-49.1-23.4 25.9-47.3 45.3-71.6 59z"/>
									<path id="&lt;Path&gt;" class="s9" d="m217.5 170.3c0 0 0 0-1 2-1 1.9-1 1.9-1 1.9 0.5 6.6 4.1 13.8 7.9 16 0 0 0 0 2-0.5 2-0.5 13.5-9 14-10.5 0.3-0.9 2.7-3.7 5-5.6-6-1.3-12-2.9-17.9-4.8-2 0.9-5.2 1.5-9 1.5z"/>
									<path id="&lt;Path&gt;" class="s10" d="m326.1 118.1c27.8-7 53.1-19.8 76-36.9-1.4-0.8-2.5-1.3-3.2-1.3-2.5 0-11.4 3-13.4 3.5-2 0.5-4.5 0-4.5-4 0-4-2.5-10.5-6.5-9.5-4 1-22.9 6.5-24.9 8.5-2 2-7 6.5-7 10 0 3.5 3 7.5 1.5 7-1.5-0.5-1.5-0.5-1.5-0.5-1.4 0.3-4.5-3.6-7-8.5 0 0 0 0-2.5 0-2.5 0-2.5 0-2.5 0-2.7 3.6-4.7 8.4-4.5 10.7 0.3 2.4-0.8 4.6-2.5 5-1.6 0.4-6.1 0.8-9.9 0.8-3.9 0-10.6 2.9-15 6.5 0 0 0 0-1 1.5-1 1.5-1 1.5-1 1.5-3 0.2-6.5-0.9-7.7-2.5-1.2-1.7 2-4.6 7.2-6.5 0 0 0 0-2.5-1.5-2.5-1.5-16.9-8.5-21.9-7-5 1.5-5 1.5-5 1.5-8.5 3.3-16.7 7.8-18.2 10-0.9 1.3-2.5 4.3-4 7.7 26.3 7.5 53.3 10.6 81.5 4z"/>
									<path id="&lt;Path&gt;" class="s11" d="m402.1 81.2c-22.9 17.1-48.2 29.9-76 36.9-28.2 6.6-55.2 3.5-81.5-4-1 2-1.9 4.2-2.7 6.2 0 0 0 0 0.5 4 0.5 4 2.5 14.5-1 16-3.5 1.5-3.5 1.5-3.5 1.5-4.9 4.1-9.9 9.7-11 12.5-1.1 2.7-0.3 7.4 1.8 10.5 1.1 1.6 0.1 3-2.2 4 5.9 1.9 11.9 3.5 17.9 4.8 1.5-1.2 3-2 4-1.8 1 0.1 2.7 1.6 4.6 3.4 11 1.8 22.3 2.5 34.1 1.5 45.8-7.1 95.5-44.8 143.9-62.2-5.5-9.4-11.4-18.4-18.1-26.9-2.6-1.1-7.4-4.5-10.8-6.4z"/>
									<path id="&lt;Path&gt;" class="s9" d="m287.1 176.7c-11.8 1-23.1 0.3-34.1-1.5 2.9 2.8 6.1 6.3 7.3 7.5 2 2 2.5 7.5 9.5 6 7-1.5 7-1.5 7-1.5 4.7-0.8 8.9-0.1 9.5 1.5 0.5 1.7 5.4 3.5 10.9 4 0 0 0 0 3-1 3-1 5.5 4.5 4 6.5-1.5 2-1.5 2-1.5 2 1.4 9.3 6.5 26.2 11.5 37.4 0 0 0 0 2.5 1.5 2.5 1.5 5.4 14.5 7.4 14 2-0.5 12-1 15-4.5 3-3.5 3-3.5 3-3.5 7.7-8.2 12.3-17.1 10.2-19.7-2-2.6-9.1-2-15.7 1.2 0 0 0 0-1-2.9-1-3-9-16-4-16.5 5-0.5 12.5 6 15.5 8 3 2 9.9 6 13.9 6 4 0 11 2 12 4 1 1.9 1 1.9 1 1.9 1.4 1.7 4.5 0.6 7-2.4 0 0 0 0 1.5 2.4 0.5 0.9 1 4.7 1.6 9.1 24.3-13.7 48.2-33.1 71.6-59-5.1-22.3-13.6-43.4-24.7-62.7-48.4 17.4-98.1 55.1-143.9 62.2z"/>
									<path id="&lt;Path&gt;" class="s8" d="m6.1 186.1c-1.2 6.2-2.2 12.5-2.8 18.8 3.9 6.4 9.8 12.3 12.8 18.3 3 5.9 0.5 10.4 2.5 15.4 2 5 3.4 10.5 4.9 11.5 1.5 1 8.5 3 10.5 1 2-2 7.5-2 10-1 2.5 1 8 4.5 9 9 1 4.5-0.5 5.5 5.9 7 6.5 1.5-3.9-12-1-15.5 3-3.5 8-5 2.5-6.5-5.4-1.5-14.4-5-15.9-8-1.5-3-3.5-9.9-4.5-16.4-1-6.5-3.5-12 0.5-15.5 4-3.5 7.5-5.5 13.5-4 5.9 1.5 5.9 1.5 5.9 1.5 5.2 3 8.4 7.3 7 9.5 0 0 0 0 4 5 4 5 5 10.4 6 8 1-2.5 1-13.5 1-16 0-2.5-2-4 5-10 7-6 6.5-6 11.9-8.5 2.1-0.9 3.9-1.3 5.5-1.6-5-3.7-10-7.5-14.9-11.4-17.4-13.1-52.3-8.6-79.3 9.4z"/>
									<path id="&lt;Path&gt;" class="s11" d="m140.2 80.9c-6-0.5-18.9 0.5-26.4-7-7.5-7.5-20.5-8.5-23-7-2.4 1.5-8.9 3.5-8.9 5.5 0 2 5.5 8 4 9-1.5 1-1.5 1-1.5 1-3.9 0.3-8.8 1.6-11 3 0 0 0 0-2.5 0 3 5.5 3.1 9.2 0.2 8.2-2.8-0.9-12.6-2.8-21.6-4.2 0 0-0.1 0-0.3 0-7.8 10.3-14.8 21.2-20.8 32.7 16.9-0.7 34.5 2.5 50.5 2.5 21.1-1.9 41.1 2.4 60.8 9.3q0-0.1 0-0.1c-0.5-4-0.5-12-5.5-14.5-5-2.4-13.4-2-19.4-0.9-6 0.9-12 0.4-9.5-4.5 2.5-5 10.5-15.5 19-10 8.4 5.5 11.4 11.5 14.4 13.4 3 2 13 8.5 15.5 8.5 2.4 0 8.4 3 11.4 2 3-1 10.5-0.5 12.5-6 2-5.4-2.5-2.5 7.5-11.9 9-8.7 10.3-5.8 16.5-10.9-19-7.7-37.8-16.2-56.7-23.4-0.7 3-2.1 5.6-5.2 5.3z"/>
									<path id="&lt;Path&gt;" class="s10" d="m215 79.9c0-2.5 2-11 1-14-1-3 3-7.4-5-7.4-8 0-30.4 1.5-33.9 0.9-3.5-0.4-29.4 6-30.4 9-0.5 1.5-0.7 4.5-1.3 7.2 18.9 7.2 37.7 15.7 56.7 23.4 0.6-0.5 1.2-0.9 1.9-1.6 8-7.5 11-15 11-17.5z"/>
									<path id="&lt;Path&gt;" class="s9" d="m78.9 124.6c-16 0-33.6-3.2-50.5-2.5-10.4 19.8-18 41.3-22.3 64 27-18 61.9-22.5 79.3-9.4 4.9 3.9 9.9 7.7 14.9 11.4 2.6-0.5 4.6-0.9 6.5-3.4 3-4 2-8 1-11.5-1-3.4-4-4.9 7-7.4 10.9-2.5 17.9-3 18.9-5.5 1-2.5 3.5-9.5 5-13 1.5-3.5 1.5-9.4 1-13.4-19.7-6.9-39.7-11.2-60.8-9.3z"/>
									<path id="&lt;Path&gt;" class="s6" d="m71.1 278.7c0.4 2.9 0.9 6.4 1.3 9.8 0 0 0 0-3 1.5-3 1.5-8.5 8-9.5 10.5-1 2.5 0 9.5 1.5 13 1.5 3.5 8 14.5 9 16 1 1.5 2.5 7.5 6 7.5 3.5 0 10 2.4 11.5 4.4 1.4 1.9 6.8 11.5 6 15.9 14.8-1.1 31.3 1.8 43.5 1.8 1 0.4 2 0.9 3 1.3-0.5-1.2-0.2-2.2 1.3-4 3-3.5 12 0 13-8 0.9-8 4.4-8 1.9-15.4-2.4-7.5-3.9-7.5-2.9-12.5 1-5 1.5-3.5 6.4-10 1.2-1.5 2.1-2.8 2.8-3.8-23.4-10.5-47-20.6-71-25.8-6.3-1.6-13.4-2.4-20.8-2.2z"/>
									<path id="&lt;Path&gt;" class="s7" d="m150.2 287.5c-7.5-2.5-14-0.4-19.5-1.9-5.5-1.6-9.4-4.5-10.9-11-1.5-6.5-2-11-6.5-14-4.5-3-19-5.5-21.5-7.5-2.4-2-7.9-3-11.4-2-3.5 1-3.5 1-3.5 1-2.8 3.6-6.6 7.4-8.5 8.5 0 0 0 0-1.5 3-1.5 3-3 2.5-3.5 6 3.3-0.6 6.4 0.8 6.8 3 0.2 1 0.5 3.3 0.9 6.1 7.4-0.2 14.5 0.6 20.8 2.2 24 5.2 47.6 15.3 71 25.8 2.1-3.5 1.9-5 0.7-7.7-1.5-3.5-6-9-13.4-11.5z"/>
									<path id="&lt;Path&gt;" class="s12" d="m93.9 357.3c0 0.2 0 0.4-0.1 0.6-1.5 4-3.5 15-3.5 20.5 0 5.5 1.5 16.9 2 20.9 0.5 4 13 12.5 13 14 0 0.6-1.1 3.3-2.3 6.5 4.1 2.8 8.4 5.5 12.8 8q0 0 0 0c0-3 2-8 4-13.5 2-5.5-1-4.5-2.5-9.5-1.5-5 3-10.5 4-11.9 1-1.5 1-1.5 1-1.5 3-2.2 7.9-5.4 10.9-7 0 0 0 0 0.5-2.5 0.5-2.5 3-3.5 7-6.5 4-3 4-5 2-10-1-2.4-1.9-3.8-2.3-5-1-0.4-2-0.9-3-1.3-12.2 0-28.7-2.9-43.5-1.8z"/>
								</g>
							</g>
						</g>
					</g>
				</g>
				<path id="&lt;Path&gt;" class="s13" d="m172.3 52.6c7 9.2-0.3 26.3-16.1 38.3-15.9 12-34.4 14.3-41.3 5.2-6.9-9.2 0.4-26.3 16.2-38.3 15.9-12 34.3-14.3 41.2-5.2z"/>
			</g>
		</g>
	</g>
</svg>