<svg version="1.2" xmlns="http://www.w3.org/2000/svg" viewBox="0 0 48 40" width="48" height="40">
	<title>back</title>
	<defs>
		<radialGradient id="g1" cx="0" cy="0" r="1" gradientUnits="userSpaceOnUse" gradientTransform="matrix(-0.097,.434,-0.434,-0.097,26.051,20.108)">
			<stop offset="0" stop-color="#ffffff"/>
			<stop offset=".198" stop-color="#f5ffcf"/>
			<stop offset=".39" stop-color="#ffe600"/>
			<stop offset=".687" stop-color="#000000"/>
		</radialGradient>
		<radialGradient id="g2" cx="0" cy="0" r="1" gradientUnits="userSpaceOnUse" gradientTransform="matrix(-0.408,-0.356,.356,-0.408,26.869,19.23)">
			<stop offset="0" stop-color="#ffffff"/>
			<stop offset=".198" stop-color="#f5ffcf"/>
			<stop offset=".39" stop-color="#ffe600"/>
			<stop offset=".687" stop-color="#000000"/>
		</radialGradient>
		<radialGradient id="g3" cx="0" cy="0" r="1" gradientUnits="userSpaceOnUse" gradientTransform="matrix(-0.181,-0.509,.509,-0.181,26.797,19.96)">
			<stop offset="0" stop-color="#ffffff"/>
			<stop offset=".198" stop-color="#f5ffcf"/>
			<stop offset=".39" stop-color="#ffe600"/>
			<stop offset=".687" stop-color="#000000"/>
		</radialGradient>
		<radialGradient id="g4" cx="0" cy="0" r="1" gradientUnits="userSpaceOnUse" gradientTransform="matrix(.51,-0.181,.181,.51,26.003,19.378)">
			<stop offset="0" stop-color="#ffffff"/>
			<stop offset=".198" stop-color="#f5ffcf"/>
			<stop offset=".39" stop-color="#ffe600"/>
			<stop offset=".687" stop-color="#000000"/>
		</radialGradient>
		<radialGradient id="g5" cx="0" cy="0" r="1" gradientUnits="userSpaceOnUse" gradientTransform="matrix(.562,.156,-0.156,.562,26.184,20.509)">
			<stop offset="0" stop-color="#ffffff"/>
			<stop offset=".198" stop-color="#f5ffcf"/>
			<stop offset=".39" stop-color="#ffe600"/>
			<stop offset=".687" stop-color="#000000"/>
		</radialGradient>
		<radialGradient id="g6" cx="0" cy="0" r="1" gradientUnits="userSpaceOnUse" gradientTransform="matrix(-1.813,-5.499,5.499,-1.813,25.711,20.146)">
			<stop offset="0" stop-color="#ffffff"/>
			<stop offset=".198" stop-color="#eeffa1"/>
			<stop offset=".39" stop-color="#5e3d00"/>
			<stop offset=".687" stop-color="#000000"/>
		</radialGradient>
	</defs>
	<style>
		.s0 { mix-blend-mode: color-dodge;fill: url(#g1) } 
		.s1 { mix-blend-mode: color-dodge;fill: url(#g2) } 
		.s2 { mix-blend-mode: color-dodge;fill: url(#g3) } 
		.s3 { mix-blend-mode: color-dodge;fill: url(#g4) } 
		.s4 { mix-blend-mode: color-dodge;fill: url(#g5) } 
		.s5 { mix-blend-mode: color-dodge;fill: url(#g6) } 
	</style>
	<g id="back">
		<g id="-e-">
			<g id="&lt;Group&gt;" style="opacity: .3">
				<path id="&lt;Path&gt;" class="s0" d="m26 20.5c12.7 2.9 23 5 23.1 4.8 0-0.3-10.2-2.8-23-5.6-12.7-2.9-23-5-23.1-4.7 0 0.2 10.2 2.7 23 5.5z"/>
				<path id="&lt;Path&gt;" class="s1" d="m26.5 18.9c7.7-8.8 14.1-15.8 14.3-15.6 0.3 0.2-5.8 7.5-13.5 16.3-7.7 8.8-14.2 15.8-14.4 15.6-0.2-0.2 5.9-7.5 13.6-16.3z"/>
				<path id="&lt;Path&gt;" class="s2" d="m26.6 19.5c7.4-2.6 13.4-4.5 13.5-4.2 0.1 0.3-5.8 2.6-13.1 5.2-7.4 2.6-13.4 4.4-13.5 4.1-0.1-0.2 5.8-2.6 13.1-5.1z"/>
				<path id="&lt;Path&gt;" class="s3" d="m26.5 19.2c4 11.2 7 20.4 6.7 20.5-0.3 0.1-3.7-8.9-7.7-20.1-4-11.3-7-20.4-6.7-20.5 0.3-0.1 3.8 8.9 7.7 20.1z"/>
				<path id="&lt;Path&gt;" class="s4" d="m26.7 20.7c-2 7.5-4 13.5-4.3 13.4-0.3-0.1 1.1-6.3 3.2-13.7 2.1-7.5 4-13.5 4.4-13.5 0.3 0.1-1.2 6.3-3.3 13.8z"/>
			</g>
			<path id="&lt;Path&gt;" class="s5" d="m25.7 25.9c-3.2 0-5.8-2.6-5.8-5.8 0-3.2 2.6-5.7 5.8-5.7 3.2 0 5.8 2.5 5.8 5.7 0 3.2-2.6 5.8-5.8 5.8z"/>
		</g>
	</g>
</svg>