<svg version="1.2" xmlns="http://www.w3.org/2000/svg" viewBox="0 0 188 96" width="188" height="96">
	<title>planets</title>
	<style>
		.s0 { fill: #e5b883 } 
		.s1 { opacity: .4;mix-blend-mode: multiply;fill: #ac2024 } 
		.s2 { opacity: .8;fill: #ffeacc } 
		.s3 { opacity: .2;mix-blend-mode: screen;fill: #ffeacc } 
		.s4 { opacity: .3;mix-blend-mode: screen;fill: #ffeacc } 
		.s5 { opacity: .2;mix-blend-mode: multiply;fill: #ac2024 } 
		.s6 { opacity: .3;mix-blend-mode: multiply;fill: #ac2024 } 
		.s7 { opacity: .7;mix-blend-mode: screen;fill: #ffe4cc } 
		.s8 { opacity: .7;mix-blend-mode: screen;fill: #edcbae } 
	</style>
	<g id="planets">
		<g id="-e-">
			<path id="&lt;Path&gt;" class="s0" d="m77 6.2c-23.4 10.6-33.9 38.1-23.3 61.5 10.5 23.4 38 33.9 61.4 23.3 23.5-10.5 33.9-38 23.4-61.4-10.6-23.5-38.1-33.9-61.5-23.4z"/>
			<path id="&lt;Path&gt;" class="s0" d="m77 6.2c-23.4 10.6-33.9 38.1-23.3 61.5 10.5 23.4 38 33.9 61.4 23.3 23.5-10.5 33.9-38 23.4-61.4-10.6-23.5-38.1-33.9-61.5-23.4z"/>
			<path id="&lt;Path&gt;" class="s1" d="m118.4 53.3c8.2-4.3 15.8-8.7 23.4-13.3 1.5 8.2 0.8 16.5-1.9 24.1-8.8 10-20.7 19.4-28 17.1 5-3.7 10.1-8 13.4-13.4-2.7 4-16.5 12.7-21.5 11.4 1-0.9 1.8-2 2.7-2.9-7.9 3.8-25.6 15.3-34.1 11.7 3.9-3.4 10.2-3.1 12.4-8.1-5.2 0.2-10.7 3.8-16.2 6.2q-2.5-1.8-4.8-4c12.9-5.3 31.5-5.4 38.5-16.9-6.2 1-12.5 7.2-19.1 5.2 4.3-4.3 13-4.7 18.7-6.7 9.2-3.2 20.2-6.7 27.9-12.8-3.3 1.5-8.1 2.8-11.4 2.4z"/>
			<path id="&lt;Path&gt;" class="s1" d="m123.4 11q0.4 0.3 0.7 0.6c-5.9 2.3-15.8 3-22.1 5.1-8.9 3.1-15.8 8.6-23.8 13.2 4.3-2.5 9.4-2.2 14-2.9-4 3.9-10.6 4.9-15.8 6.5-9.3 2.9-19 5.8-26.4 9q0.2-1.5 0.5-3c10.9-8.9 22.8-16.1 35.3-23 12.6-6.9 24.9-3.4 37.6-5.5z"/>
			<path id="&lt;Path&gt;" class="s1" d="m138.8 30.3c-4.8 3-14.3 5.2-17.4 6.7-4.1 2-8.9 4.6-13.3 7.5-1.1 1.5-2.6 2.9-4 3.8q-1.3 0.7-2.6 1.4-0.4 0.4-0.7 0.7l0.6-0.6c-5.9 3-12.8 4.5-18.9 5.8-9.6 2.1-20.3 7.1-30.4 8.2q-0.3-1-0.6-2c12.3-2.3 24.4-5.5 36.5-9.2 4-1.3 11.9-2.3 16-5.5l1.6-1.7c7-10.7-13.1-7.5-9.8-0.6-0.6-2.4 6-5 7.2-0.4-3.5 1.9-9.2 4.5-12.9 2.4 2.8-4.9 9.5-14.7 16.5-11.6 3.2 1.4 3.9 3.7 3.2 6 7.7-5.1 17.9-12.4 27.6-13.9q0.6 1.1 1.1 2.3 0.1 0.3 0.3 0.7z"/>
			<path id="&lt;Path&gt;" class="s2" d="m103.5 5.7c1.2-0.4 3-1.1 5.1-1.9q4.9 1.4 9.4 3.8c-3.3 0.7-6.6 1.2-7.5 1.3-6.8 0.9-14.3 2.1-21 4.5-9.5 3.4-17.1 10.1-25.9 14.4 1.8-3.1 6.4-5.3 7.7-8.4-7.1 0.2-12.8 8.5-19.1 13.8q1.6-4.6 4.2-8.8c3.8-2.5 7.7-4.8 10.6-6.5 10.1-5.7 20.7-8.4 36.5-12.2z"/>
			<path id="&lt;Path&gt;" class="s2" d="m84.2 58.1c-2.6 1.8-5.8 2.9-8.2 5.1 8.8 0.8 19.8-6.1 27.3-10.4 11.6-6.7 24.5-13.5 37.2-18q0 0.1 0 0.2c-12.2 8.7-29.2 13-40.6 22.9 3.5 2 8.8-0.9 13-0.8-3.9 6.5-19.8 6.7-26.6 8.2-9.2 2.1-19.9 6.2-30 7.5q-1-1.8-2-3.7c10-3.8 20.3-10 29.9-11z"/>
			<path id="&lt;Path&gt;" class="s2" d="m69.3 45.4c4.8 3.9 9.8-1.2 14.6-1.8-2.6 3.3-7.9 2.8-10.7 5.6 2.6 1.7 6.5 1 9.7 1.5-6.2 3.2-13.4 3.8-20.2 4.4-3.5 0.3-8 1.1-12.5 1.5q-0.4-2.6-0.5-5.2c3.3-2 6.6-4.4 10.1-6.1 5.5-2.6 11.2-4.8 16.8-6.8 9.1-3.3 16.9-8.2 25.6-11.6-1 1-1.7 2.4-2.6 3.4 9.2 2.8 24.5-12.3 33.2-10.1q0.5 0.5 0.9 1.1c-20.3 10.2-44.9 12.7-64.4 24.1z"/>
			<path id="&lt;Path&gt;" class="s2" d="m96 90.4c3.3-2.7 15.1-4.7 19-3.6-3.4 5.6-28.2 8.9-33.3 5.2 3.7-3.9 17.7-7.1 23.3-6.9-0.7 1-1.6 1.1-2.8 1.8z"/>
			<path id="&lt;Path&gt;" class="s3" d="m77 6.2c23.4-10.5 50.9-0.1 61.5 23.4q0.7 1.6 1.3 3.4-0.6 2.5-1.7 5.1c-7.8 17.3-24.3 24-42.2 22.8-13.5-0.9-27-6.9-34.5-18.5-5-7.7-5.4-14.7-2.9-21.1 4.6-6.4 10.8-11.6 18.5-15.1z"/>
			<path id="&lt;Path&gt;" class="s4" d="m86.7 8.1c15.2-10.9 41.5 8.5 35.2 26-14.1 39.1-72.3-15.1-35.2-26z"/>
			<path id="&lt;Path&gt;" class="s5" d="m53.7 67.7c-4-8.8-5-18.2-3.5-27q0.4 0.7 0.7 1.4c3.9 7.5 9.8 14.2 16.8 19.1 22.6 15.6 52.2 11.6 70.6-8.1 1.3-1.3 2.7-3.2 4.3-5.3 0.3 18-10 35.4-27.5 43.2-23.4 10.6-50.9 0.1-61.4-23.3z"/>
			<path id="&lt;Path&gt;" class="s6" d="m53.7 67.7c-1.9-4.2-3.1-8.4-3.7-12.7 4.5 4 8.4 8.9 12.5 13.2 7.1 7.7 13.5 9.5 24.1 10.6 13.4 1.4 28.9 0.4 40.2-7.5 5-3.5 8.9-8.1 14.2-10.6-1.6 5.7-4.2 11.1-7.8 15.9-4.4 3.1-8.8 5.7-11.1 6.9-20.4 11.2-41.9 8.8-59.7-2.8-3.5-3.7-6.5-8.1-8.7-13z"/>
			<path id="&lt;Path&gt;" class="s7" d="m53.4 30.1q-1.1 2.7-1.9 5.5c-20.4 10-32.6 21.5-30.3 30.3 3.6 13.5 39.8 15.6 80.9 4.7 41.1-11 71.6-30.7 68-44.2-2.3-8.9-18.9-12.8-41.8-11.3q-1.9-1.8-4.1-3.5c33.8-4 59.5 0.6 62.7 12.9 4.4 16.6-33.1 40.9-83.7 54.4-50.7 13.4-95.4 10.9-99.8-5.7-3.3-12.6 17.6-29.7 50-43.1z"/>
			<path id="&lt;Path&gt;" class="s8" d="m102 69.4c-39.3 10.3-73.8 8.4-77-4.4-2-7.8 8.4-17.9 25.8-26.9q-0.6 2.7-0.9 5.4c-8 5.6-12.2 11.3-11.1 16 2.6 10.3 30.6 11.9 62.6 3.5 31.9-8.4 55.7-23.6 53.1-33.9-1.3-5.4-9.5-8.4-21.6-8.8q-1.4-1.8-2.9-3.5c20.7-1 35.5 2.7 37.6 10.8 3.2 12.8-26.2 31.5-65.6 41.8z"/>
		</g>
	</g>
</svg>