<svg version="1.2" xmlns="http://www.w3.org/2000/svg" viewBox="0 0 1168 848" width="1168" height="848">
	<title>OBJECTS</title>
	<style>
		.s0 { fill: #1096e4 } 
		.s1 { fill: #ffeea6 } 
		.s2 { fill: #ffffff } 
		.s3 { opacity: .3;mix-blend-mode: overlay;fill: #ffffff } 
		.s4 { opacity: .2;mix-blend-mode: overlay;fill: #ffffff } 
		.s5 { opacity: .1;mix-blend-mode: overlay;fill: #ffffff } 
		.s6 { fill: #ffce00 } 
	</style>
	<g id="OBJECTS">
		<g id="&lt;Group&gt;">
			<g id="-e-">
				<g id="&lt;Group&gt;">
					<path id="&lt;Path&gt;" class="s0" d="m1018.6 425.2c0 3.8-0.1 7.7-0.2 11.4-0.3 11.4-1 22.7-2.2 33.7v0.1c-3.8 35.4-11.9 69.5-23.9 101.8v0.1c-18.4 49.7-46 95-80.6 133.9-45.8 51.6-104.2 91.9-170.2 116.1-45.5 16.8-94.7 25.9-146 25.9-5.9 0-11.7-0.1-17.6-0.4-54.6-2.1-106.5-14.8-153.9-35.8-29.3-13-56.8-29.2-82.1-48.2q-20.7-15.5-39.3-33.4c-11.8-11.3-22.9-23.3-33.2-35.9-9.2-11.1-17.9-22.7-25.9-34.7-13.6-20.2-25.3-41.7-35.2-64.3-11.1-24.9-19.7-51-25.7-78.2-2.6-11.5-4.7-23.3-6.3-35.1-2.3-17.1-3.6-34.5-3.7-52.1-0.1-1.6-0.1-3.3-0.1-4.9v-2.5c0.2-23.4 2.2-46.4 6-68.8 6.8-39.9 19.1-77.9 36.3-113.2 12.3-25.4 27.1-49.4 44.1-71.7 26.5-34.8 58.2-65.4 94.1-90.5 68.3-47.9 151.3-76 240.9-76.3h1.6c33.6 0 66.1 3.9 97.4 11.2 35 8.3 68.3 20.8 99.3 37.2 26.2 13.8 50.9 30.3 73.5 49.1 17.9 14.9 34.5 31.1 49.5 48.7 0.9 0.9 1.6 1.8 2.4 2.6 3.7 4.4 7.3 8.7 10.8 13.2 0.1 0 0.2 0.1 0.3 0.3 3.4 4.4 6.8 8.9 10.1 13.5 0.1 0.1 0.2 0.2 0.3 0.3 3 4.3 6 8.6 8.9 13 0.4 0.5 0.7 1.1 1.1 1.7 3 4.4 5.9 9.1 8.7 13.7 4.1 6.9 8.1 13.9 11.8 21 16.3 30.5 28.9 63.4 37.2 97.8 1.3 5.4 2.4 10.7 3.5 16.1 5.4 27 8.3 55 8.3 83.6z"/>
					<g id="&lt;Group&gt;">
						<path id="&lt;Path&gt;" class="s1" d="m692.9 13.4c-13.9 19.8-32.1 37.6-48.6 52.4-41.8 37.7-90.6 67.7-140.5 93.2-65.9 33.6-134.2 58.2-204.9 71.4-27.6 5.3-55.7 8.7-84.1 10.3 12.3-25.4 27.1-49.4 44.1-71.7 20.3-5.4 40.6-11.3 60.6-17.9 45.6-14.6 90-32.2 132.1-53.6 44.2-22.3 88.5-47.9 126.1-80.4 5.5-4.8 11-9.7 16.2-14.9h1.6c33.6 0 66.1 3.9 97.4 11.2z"/>
					</g>
					<g id="&lt;Group&gt;">
						<path id="&lt;Path&gt;" class="s1" d="m865.7 99.7c-36.8 41.7-83 79-122.7 110.3-61.1 48.2-127.1 89-197.9 121.4-74.9 34.4-156.8 62.8-240.4 78.4-43.9 8.2-88.2 12.8-132.2 12.9 0.2-23.4 2.2-46.4 6-68.8 39-5.3 77.4-11.6 115.4-19.7 76.3-16 150.4-39.2 222.8-75.9 64.6-32.6 126.3-72.4 182.1-118.5 28.5-23.6 55.6-48.8 81.2-75.6 4.2-4.4 8.2-8.9 12.2-13.6 26.2 13.8 50.9 30.3 73.5 49.1z"/>
					</g>
					<g id="&lt;Group&gt;">
						<path id="&lt;Path&gt;" class="s1" d="m969.6 227.7c-8.4 9.5-16.9 18.6-24.9 27.5-29.9 33.2-62 64.2-96.2 93-68.1 57.2-142.9 106.2-223.2 144.5-81.4 38.8-167.4 68-256.2 84.7-0.7 0.1-1.2 0.3-1.9 0.4-43.2 8-87.2 13.6-131.1 16.1-9 0.6-18.3 1.1-27.8 1.6-11.1-24.9-19.7-51-25.7-78.2 16-0.1 31.9 0 47.4-1 34.8-2.1 69.5-6.4 103.7-12.7 8.2-1.4 16.3-3 24.4-4.7 79.9-16.9 158-43.5 231.1-79.9 74.9-37.4 145.4-83.7 208.2-139.1 28.2-25 55.2-51.6 80.2-79.7h0.1c3.2-3.6 6.4-7.2 9.6-10.9 10.6-12.3 20.3-25.4 30.3-38.3 3.7 4.4 7.3 8.7 10.8 13.2 0.1 0 0.2 0.1 0.3 0.3 3.4 4.4 6.8 8.9 10.1 13.5 0.1 0.1 0.2 0.2 0.3 0.3 3 4.3 6 8.6 8.9 13 0.4 0.5 0.7 1.1 1.1 1.7 3 4.4 5.9 9.1 8.7 13.7 4.1 6.9 8.1 13.9 11.8 21z"/>
					</g>
					<g id="&lt;Group&gt;">
						<path id="&lt;Path&gt;" class="s1" d="m1018.6 425.2c0 3.8-0.1 7.7-0.2 11.4-0.3 11.4-1 22.7-2.2 33.7v0.1c-28.6 26.4-59 50.6-87.6 72.7-69.9 54-145.5 99.7-226.3 135.4-59.5 26.3-119.8 47-181.1 61.4-58.9 14-118.6 22.1-179.3 23.9q-20.7-15.5-39.3-33.4c-11.8-11.3-22.9-23.3-33.2-35.9 55.8-5 111.9-13.4 167.2-25.4 79.7-17.2 157.8-41.9 230.7-74.9 72.8-33 142.6-74 206-122.6 50.6-38.8 92.2-86 137-130 5.4 27 8.3 55 8.3 83.6z"/>
					</g>
					<g id="&lt;Group&gt;">
						<path id="&lt;Path&gt;" class="s1" d="m992.3 572.3c-18.4 49.7-46 95-80.6 133.9-46.6 29.1-95.6 54.4-145.8 76.4q-36.4 16.1-73.9 29.8c-37.3 13.8-75.4 25.7-114.1 35.4-54.6-2.1-106.5-14.8-153.9-35.8 44.7-7.8 90.3-12.6 134.2-23.8 11.6-2.9 23.1-6 34.5-9.4 52.4-14.9 103.7-33.5 153.2-56 61-27.8 119.1-61 174.7-98.3 24.5-16.5 48.5-33.8 71.7-52.2z"/>
					</g>
					<g id="&lt;Group&gt;" style="opacity: .2">
						<g id="&lt;Group&gt;">
							<path id="&lt;Path&gt;" class="s2" d="m218.1 302.9c33.6-36.7 83.7-10.4 125.3-16.1 29.9-4.2 49.1-22.9 73.2-38.9 50.5-33.6 122.8-16 161.3-68.6 5.3-7.3-6.7-16.6-12.5-9.7-26.2 30.9-63.3 32.2-100 40-32.2 6.9-53.1 21.6-79.4 40.5-52.7 37.9-128-3.2-173 47.6-3.2 3.6 1.9 8.7 5.1 5.2z"/>
						</g>
						<g id="&lt;Group&gt;">
							<path id="&lt;Path&gt;" class="s2" d="m615 149.4c17.3-31.9 53.6-35.9 83.2-51.1 17.1-8.7 34.7-22.7 36.6-42.9 0.6-6.8-8.5-7.7-11.7-3.2-9.7 13.4-17.6 24.8-32.2 33.6-13.4 8.1-28.5 12.9-42.4 19.9-18.5 9.3-33.1 21.1-41.2 40.5-1.9 4.4 5.4 7.4 7.7 3.2z"/>
						</g>
						<g id="&lt;Group&gt;">
							<path id="&lt;Path&gt;" class="s2" d="m526.4 19.3c-24.7 30.3-63.6 29.6-97.1 44.1-35.4 15.3-61.7 39.1-101.6 44-8.1 1-8.3 13.8 0 12.9 42.2-4.3 69.6-27.8 107.4-44 35.7-15.4 72.6-18.1 99-49.3 4.5-5.3-3.3-13.1-7.7-7.7z"/>
						</g>
						<g id="&lt;Group&gt;">
							<path id="&lt;Path&gt;" class="s2" d="m203.5 493.7c28.6-35 76.7-9.9 114.3-17.9 23.2-5 41.6-19.5 61.7-31.2 35.1-20.5 57.1-13.6 93.6-8.9 19.4 2.6 34.4-0.3 49.2-13.2 7.6-6.7-3.6-17.9-11.2-11.1-26.8 23.9-66-3.8-97.2 2-24.8 4.6-44.6 21.7-65.8 34-37.5 21.7-66.9 7.8-105.9 14.1-19.5 3.1-34.1 11.1-45.9 26.7-3.1 4.1 3.9 9.6 7.2 5.5z"/>
						</g>
						<g id="&lt;Group&gt;">
							<path id="&lt;Path&gt;" class="s2" d="m560.1 396.5c8.7-56.5 98.8-43 135.1-75.9 17.4-15.8 23.8-37.4 43.5-50.3 18.6-12.2 39-9.6 56.5-23.5 5.4-4.2-0.5-14.2-6.8-11.7-20 7.7-45.4 6.4-62.8 19.6-26.3 20-28.9 54.9-61.7 71.4-39.8 20-108.1 9.3-111.9 69.3-0.3 4.6 7.4 5.8 8.1 1.1z"/>
						</g>
						<g id="&lt;Group&gt;">
							<path id="&lt;Path&gt;" class="s2" d="m826.7 216.3c10.8-30.2 78.8-30.9 72.5-69.7-0.7-4.8-7.7-6.2-10.8-2.8-6.4 6.9-10.1 15-17.9 20.9-7.4 5.6-15.9 9.3-23.8 14.1-13.5 8.3-25.7 19-29.3 35-1.3 6 7.2 8.3 9.3 2.5z"/>
						</g>
						<g id="&lt;Group&gt;">
							<path id="&lt;Path&gt;" class="s2" d="m967 296.2c-55.3-1.5-55.9 66.8-89.1 94.9-20.9 17.6-49 22.7-71.1 38.4-28.1 20-44.2 45.3-81 50.7-10.5 1.5-6 17.4 4.4 15.9 20.5-3 37.7-9.9 53.8-22.9 14.2-11.4 24.4-25.6 40.4-35.2 11.1-6.6 23.3-10.9 34.8-16.6 18.8-9.3 33.9-19.2 45.9-36.6 19.6-28.4 23.6-66.8 63.8-74.8 8-1.6 5.8-13.6-1.9-13.8z"/>
						</g>
						<g id="&lt;Group&gt;">
							<path id="&lt;Path&gt;" class="s2" d="m733.1 523.3c-43.3-5.1-61.7 33.9-99.9 44.3-38.4 10.5-69.3 11.2-105 31.9-7.1 4-0.8 14.5 6.3 10.8 22.6-11.7 43.2-21.5 68.9-24.6 11.3-1.4 22.6-0.9 33.7-3.8 35.8-9.5 56-49.4 96-47.9 7 0.3 6.7-9.9 0-10.7z"/>
						</g>
						<g id="&lt;Group&gt;">
							<path id="&lt;Path&gt;" class="s2" d="m583.6 548.7c-33.6-0.3-70.1 9.1-94.3 33.9-3.1 3.2 0.9 8.5 4.8 6.2 28.8-16.9 55.4-30.1 89.5-31.1 5.8-0.1 5.9-8.9 0-9z"/>
						</g>
						<g id="&lt;Group&gt;">
							<path id="&lt;Path&gt;" class="s2" d="m269 652.4c42.2-30.8 88.3-6.5 134.3-2.5 31.8 2.8 58-5.3 82.8-24.9 7.8-6.2-3.2-17.2-11-11.1-64.5 51.4-150.6-25.2-211.7 31.3-3.7 3.4 1.3 10.3 5.6 7.2z"/>
						</g>
						<g id="&lt;Group&gt;">
							<path id="&lt;Path&gt;" class="s2" d="m413.6 801c43.9-27.8 105.7-8.3 154-26.5 30.5-11.5 56-31.7 87.3-42.4 26.8-9.2 54.7-14.4 82.5-19.6 7.6-1.4 4.5-13.4-3.3-11.7-29.8 6.4-60.1 12.4-88.8 23-25.3 9.3-46.2 24.3-70.2 35.9-52.2 25.1-117.8 1-166.3 33-5.1 3.4-0.4 11.6 4.8 8.3z"/>
						</g>
						<g id="&lt;Group&gt;">
							<path id="&lt;Path&gt;" class="s2" d="m776.7 690.6c26-39.1 74.9-41.6 110.7-67.3 8.5-6.2 15.5-13.5 21.8-21.8 21.2-27.6 36.7-42.2 70.7-54.1 5.1-1.8 3-9.9-2.2-8.1-17.1 5.7-38.3 12-52.7 23.2-21.3 16.5-28.9 41.2-53.4 55.7-37.3 22-78.9 28-102 68.2-2.7 4.7 4.2 8.6 7.1 4.2z"/>
						</g>
						<g id="&lt;Group&gt;">
							<path id="&lt;Path&gt;" class="s2" d="m539.9 358.3c-18.3 29.7-52.1 27.4-82.1 32.4-5.3 0.8-3.8 8.8 1.2 9 32.5 1.4 68.8-8.8 85.6-38.6 1.7-3.1-2.9-5.7-4.7-2.8z"/>
						</g>
						<g id="&lt;Group&gt;">
							<path id="&lt;Path&gt;" class="s2" d="m644.1 522.5c17-6.1 33.5-15.1 46.9-27.3 7.3-6.7 13.1-14.9 20.5-21.4 12.4-11 27.5-16.3 43.2-20.7 3.5-1 3-7-0.9-6.6-19.5 2.2-35.6 11-49.9 24.2-19.6 18-39.9 32.8-61 48.8-1.3 1-0.6 3.6 1.2 3z"/>
						</g>
						<g id="&lt;Group&gt;">
							<path id="&lt;Path&gt;" class="s2" d="m626.2 152.5c-22.4 20.6-40.2 47.9-65.8 64.7-21.5 14-46.9 10.5-68.4 23.1-4.4 2.6-0.2 9.8 4.1 6.9 14.3-9.3 31.3-6.5 47.1-11.4 10.4-3.3 20-8.9 28.6-15.6 22.6-17.6 41.3-42 57.1-65.6 1.1-1.7-1.3-3.3-2.7-2.1z"/>
						</g>
						<g id="&lt;Group&gt;">
							<path id="&lt;Path&gt;" class="s2" d="m945.4 353.7c-19.7 12.8-30.2 31.1-43.3 50-20.4 29.4-52.6 42.7-82.6 59.8-3.7 2.1-1.2 8.6 3 7 24.7-9.5 50.1-22.2 68.9-41.2 21.1-21.5 33.2-51.6 57.6-69.5 3.6-2.6 0.3-8.7-3.6-6.1z"/>
						</g>
						<g id="&lt;Group&gt;">
							<path id="&lt;Path&gt;" class="s2" d="m448.3 586.9c-24.4 12.4-50.8 9.2-77 8.6-23.6-0.5-47.5-0.4-71.1 0.7-5.5 0.2-5.4 7.9 0 8.4 46.4 4.7 111.5 18.2 152.8-9.6 5-3.3 0.7-10.8-4.7-8.1z"/>
						</g>
						<g id="&lt;Group&gt;">
							<path id="&lt;Path&gt;" class="s2" d="m350.5 664.6c-12.7-0.9-28.8-0.1-40.7 4.6-3.3 1.3-3.4 7.5 1 7 6.5-0.8 12.7-2.6 19.1-4.1 7-1.6 14.1-1.9 21.2-3 2.6-0.4 1.7-4.3-0.6-4.5z"/>
						</g>
						<g id="&lt;Group&gt;">
							<path id="&lt;Path&gt;" class="s2" d="m316.3 427.7c-26.1 8.3-47.3 4.7-73.7 1.7-14.8-1.7-27.7 2-39.9 10.4-5.3 3.6-0.8 11.4 5 8.6 21.3-10.4 36.8-6.1 58.8-4.9 17.9 1 35-2.5 51.9-8.4 4.6-1.7 2.7-9-2.1-7.4z"/>
						</g>
						<g id="&lt;Group&gt;">
							<path id="&lt;Path&gt;" class="s2" d="m431.7 453.6c-17.7-1.3-33.5 2.3-46.6 14.7-4.2 4 1.3 11.4 6.2 8.1 12.4-8.2 26.2-16 41-18.3 2.7-0.5 1.8-4.3-0.6-4.5z"/>
						</g>
						<g id="&lt;Group&gt;">
							<path id="&lt;Path&gt;" class="s2" d="m416.6 267.4c-31.3 22.4-63.6 32.1-102.2 29.2-23.8-1.7-41.6 1.1-63.3 12-5.8 2.9-1.7 12.7 4.5 10.6 31.6-10.8 60-4.9 91.7-11 27.5-5.3 52-17.7 72.6-36.5 2.2-2.1-0.8-6.1-3.3-4.3z"/>
						</g>
						<g id="&lt;Group&gt;">
							<path id="&lt;Path&gt;" class="s2" d="m339.4 244.4c-20.2 5.1-40.2 6.5-60.9 5.5-7.3-0.3-7.4 11.3 0 11.5 21.4 0.4 42.6-3.1 63-9.4 4.9-1.5 2.9-8.8-2.1-7.6z"/>
						</g>
						<g id="&lt;Group&gt;">
							<path id="&lt;Path&gt;" class="s2" d="m529.3 168.6c19.6-5.1 36.9-17.7 53.9-28.2 19.6-12 39.4-23.8 58.1-37.2 5.2-3.8 0.7-11.9-5.1-8.8-20.3 10.7-39.7 23.3-59.2 35.4-17 10.6-36.1 20.6-49.4 35.8-1.2 1.3-0.1 3.5 1.7 3z"/>
						</g>
					</g>
				</g>
				<g id="&lt;Group&gt;">
					<path id="&lt;Path&gt;" class="s3" d="m951.7 266.2c84.4 189.3 36.5 394.6-107 458.6-143.5 64-328.3-37.5-412.7-226.9-84.5-189.3-36.5-394.6 107-458.6 143.5-64 328.3 37.6 412.7 226.9z"/>
					<path id="&lt;Path&gt;" class="s4" d="m949.4 261c77 172.6 47.8 353.4-65.3 403.8-113 50.5-267.1-48.6-344-221.3-77-172.6-47.8-353.4 65.2-403.8 113.1-50.4 267.1 48.6 344.1 221.3z"/>
					<path id="&lt;Path&gt;" class="s5" d="m946.2 256.3c63.4 142.2 48.3 287.2-33.7 323.8-82.1 36.5-200-49.1-263.4-191.3-63.5-142.2-48.3-287.1 33.7-323.7 82.1-36.6 200 49 263.4 191.2z"/>
				</g>
				<path id="&lt;Path&gt;" class="s6" d="m1159.7 214.8c-22.1-55.9-114.7-77.4-244.5-66.4 0.9 0.9 1.6 1.8 2.4 2.6 3.7 4.4 7.3 8.7 10.8 13.2 0.1 0 0.2 0.1 0.3 0.3 3.4 4.4 6.8 8.9 10.1 13.5 0.1 0.1 0.2 0.2 0.3 0.3 3 4.3 6 8.6 8.9 13 0.4 0.5 0.7 1.1 1.1 1.7 3 4.4 5.9 9.1 8.7 13.7 34.2 7.7 57.3 22.2 65.8 43.8 8.3 21.1 1.9 46.8-16.8 75-40.8 61.5-139.8 135.2-270.5 199.3-34.8 17.1-71.9 33.5-110.8 48.9-14.6 5.7-29.1 11.3-43.6 16.4 0 0 0 0-0.1 0.1q-9.5 3.4-19 6.7h-0.1c-12 4.2-24 8.1-36 11.9-12.8 4.1-25.5 7.9-38 11.5-38.1 10.9-74.8 19.6-109.3 26-50.7 9.5-96.8 14.1-135.9 13.5-69-0.8-116.4-17.2-129.5-50.3-13.2-33.5 11.1-78.8 62.3-127.3-2.3-17.1-3.6-34.5-3.7-52.1-122.7 88.6-189.1 178-164.9 239.4 24.8 62.9 139 82.3 294.9 60.9 104.8-14.5 228.4-47.3 356.3-97.8 144.6-57.1 269.9-126.9 359.5-196 107.5-82.8 163.9-164.4 141.3-221.8z"/>
			</g>
		</g>
	</g>
</svg>