<svg version="1.2" xmlns="http://www.w3.org/2000/svg" viewBox="0 0 912 916" width="912" height="916">
	<title>OBJECTS</title>
	<style>
		.s0 { fill: #1096e5 } 
		.s1 { fill: #368835 } 
		.s2 { fill: #42a441 } 
		.s3 { opacity: .2;mix-blend-mode: overlay;fill: #ffffff } 
		.s4 { opacity: .1;mix-blend-mode: overlay;fill: #ffffff } 
	</style>
	<g id="OBJECTS">
		<g id="&lt;Group&gt;">
			<g id="-e-">
				<path id="&lt;Path&gt;" class="s0" d="m911 457.6c0 251.3-203.7 455-455 455-31.2 0-61.7-3.1-91.1-9.1-207.7-42.1-364-225.8-364-445.9 0-251.4 203.7-455.1 455.1-455.1 111.7 0 213.9 40.2 293 106.9 99.1 83.5 162 208.5 162 348.2z"/>
				<g id="&lt;Group&gt;">
					<path id="&lt;Compound Path&gt;" fill-rule="evenodd" class="s1" d="m375.2 598.2c-6 35.2 15.5 70.8 29.1 101.6 15.7 35.7 22.2 77.4 29 115.7 7.2 40.8-48.3 72.5-71.5 35q-0.2-0.3-0.4-0.5c-60.5-21.2-123.2-36.5-174.1-77-62.8-50-78.7-121.1-83.9-197.6-5.4-80.5-16.2-161.2-19.3-241.7-2.7-72 16.9-163.1 93.5-190 39.9-13.9 82.1-6.5 113.6 22.6 31.2 28.7 37.6 65.3 43.8 104.9 9.6 61.5 80.6 81 97.5 143.4 10.4 38.1 1.2 77.1-17 111.1-12.8 23.9-35.5 45.2-40.3 72.5z"/>
					<path id="&lt;Path&gt;" class="s1" d="m733 190.5c-30.1-31.2-65.2-57.5-101.8-80.7-36.8-23.3-78.4-50.1-123.6-50.4-13.8-0.1-27.5 3-39.9 8.8-21.6 5.5-41.1 18.7-54.5 38.6-23.8 35.6-21.8 83.6 9.4 114.8 19.3 19.3 44.6 26.3 70.6 28.9 9.2 14.9 14.3 46.5 20.1 58.7 14.9 31.1 40.5 57.9 70.2 75.6 24.5 14.5 57.5 17.3 76.2 40.1 12.5 15.2 37.4 59.3 26.1 79-8.6 14.8-6.2 34.7 6 46.8 68.7 68.3 131.3-71 136.4-121.9 9.2-91.4-33.1-174-95.2-238.3z"/>
					<path id="&lt;Path&gt;" class="s1" d="m645.2 599.7c-29.7-19.4-54-36.6-91.5-26.2-39.8 11-64.4 51.6-70.7 90.2-3.4 20.7-1.8 39.1 5.9 58.7 5 12.5 11.7 22.5 12.6 34.9-0.9 5.3-1.3 10.6-1.1 15.8-0.9 12.8 2.5 24.8 10.6 33.7 5.7 8.8 13.6 16.4 24.1 22.2 34.2 19 77 5.3 108.8-11.6 55.8-29.6 147.9-113.3 83.5-178.7-23.3-23.7-55.8-21.7-82.2-39z"/>
				</g>
				<g id="&lt;Group&gt;">
					<path id="&lt;Path&gt;" class="s2" d="m345.6 705.6c-1.2-5.3-2.3-10.8-3.3-16.3-10.5-33.3-15-67.7-7.2-101.8 13.6-59.8 47.1-100.7 10.2-159.7-16.3-26.1-32.2-46.4-39-77.2-6.9-31.6-7.9-64.7-17.9-95.6-14.8-45.7-45.8-89.3-96.7-94-4.6-0.4-8.8 0.5-12.4 2.2 34.3 33 59 69.4 67.2 118.4 6.4 37.7 6.6 76.9 17.6 113.8 4.4 14.6 10.2 28 15.8 41.4 17.1 22.1 33.7 38 26.7 70.2-6 27.3-19.4 51.8-23.5 79.8-3.7 26.1-1.7 52.3 4.3 78 13.7 57.6 45.8 104.7 85.3 147.6 4.9 5.2 11.4 4.6 16.1 1.2-24.2-29.8-35.8-73.2-43.2-108z"/>
				</g>
				<g id="&lt;Group&gt;">
					<path id="&lt;Path&gt;" class="s2" d="m726.9 393.3c-28.1-31.1-67.3-42.6-101.9-64.2-43.7-27.4-37.2-64.7-58.4-105.3-1.9-3.7-4-7.1-6.3-10.3-22.5-13.7-47.5-23.6-68.7-41.7-26.6-22.8-31.8-53-20.8-82.8-0.9 0.6-1.8 1.1-2.6 1.9-25.8 21.3-34.1 59.4-13 87.5 14.4 19.2 37.4 26.7 55.8 40.7 26.7 20.4 23.8 48.7 32.7 78 12.7 42.2 45.3 63 83.4 80.8 11.9 5.6 23.6 11.9 34.7 19.1 47.1 23.9 86.8 59.7 86.8 112.5 2.4-0.8 4.6-2.8 5-5.5 5-39.6 0.9-80.1-26.7-110.7z"/>
				</g>
				<g id="&lt;Group&gt;">
					<path id="&lt;Path&gt;" class="s2" d="m547.4 661.9c16.9-26.6 48.1-26.1 75.4-18.2 18.9 5.6 36.3 15.8 55.8 19.7 13.6 2.8 27.2 2.6 40.7 1-1.4-3.2-4-5.9-7.8-7.3-54-19.9-123.8-80.5-180.4-32.2-18.7 15.9-30.1 41.3-28.1 65.9 2.5 32.5 31.5 54.8 37.4 86.8 0.7 3.9 2.6 6.7 5.1 8.6-17-37.7-17.1-94.5 1.9-124.3z"/>
				</g>
				<path id="&lt;Path&gt;" class="s3" d="m64.5 299.2c81.3-196.7 267.2-306.5 415.2-245.3 147.9 61.3 201.9 270.3 120.5 467-81.4 196.6-267.3 306.4-415.2 245.2-148-61.2-201.9-270.3-120.5-466.9z"/>
				<path id="&lt;Path&gt;" class="s4" d="m63.4 304.6c58.5-141.4 179.6-225.6 270.4-188 90.8 37.6 117 182.7 58.4 324.1-58.5 141.4-179.5 225.6-270.3 188.1-90.9-37.6-117-182.7-58.5-324.2z"/>
			</g>
		</g>
	</g>
</svg>