<svg version="1.2" xmlns="http://www.w3.org/2000/svg" viewBox="0 0 980 736" width="980" height="736" style="transform:rotate(180deg)">
	<title>OBJECTS</title>
	<defs>
		<linearGradient id="g1" x2="1" gradientUnits="userSpaceOnUse" gradientTransform="matrix(-796.33,566.544,-202.015,-283.951,1262.351,380.033)">
			<stop offset="0" stop-color="#ffc700"/>
			<stop offset="1" stop-color="#ff7600"/>
		</linearGradient>
	</defs>
	<style>
		.s0 { fill: url(#g1) } 
		.s1 { fill: #ff7300 } 
		.s2 { fill: #da6600 } 
	</style>
	<g id="OBJECTS">
		<g id="&lt;Group&gt;">
			<g id="-e-">
				<path id="&lt;Path&gt;" class="s0" d="m64.3 585.7c5.6-16.4 35.7-36.5 47.5-48.1 38.2-37.5 76.7-74.6 115.3-111.6 95-91 190.4-181.7 287.9-270.1 68-61.8 115.6-121.7 207.8-147.3 92.1-25.6 188.6 8.3 229.1 83.4 69.1 127.9 7.7 266-212.3 365.8-224 101.6-565.3 276.2-565.3 276.2l94.6-120.2-268.6 104.9 176.5-171.4z"/>
				<path id="&lt;Path&gt;" class="s1" d="m768.8 370.4c-93 0-168.1-75.1-168.1-168.1 0-93 75.1-168.2 168.1-168.2 93 0 168.2 75.2 168.2 168.2 0 93-75.2 168.1-168.2 168.1z"/>
				<path id="&lt;Path&gt;" class="s2" d="m681.3 240.5c12.3 27.8 9.2 56.1-6.8 63.1-16 7.1-38.9-9.8-51.2-37.6-12.2-27.8-9.2-56.1 6.8-63.2 16.1-7 39 9.8 51.2 37.7z"/>
				<path id="&lt;Path&gt;" class="s2" d="m696.1 81.2c7.1 8.7 5.1 22-4.5 29.8-9.6 7.8-23 7.1-30.1-1.6-7.1-8.6-5-22 4.5-29.8 9.6-7.8 23.1-7.1 30.1 1.6z"/>
				<path id="&lt;Path&gt;" class="s2" d="m788.4 275.1c-24.4 0-44.1-19.8-44.1-44.2 0-24.4 19.7-44.1 44.1-44.1 24.4 0 44.2 19.7 44.2 44.1 0 24.4-19.8 44.2-44.2 44.2z"/>
				<path id="&lt;Path&gt;" class="s2" d="m922.5 154.6c9.2 28.4 3.8 55.6-12 60.7-15.9 5.1-36.1-13.8-45.3-42.2-9.2-28.4-3.8-55.5 12.1-60.6 15.8-5.1 36.1 13.7 45.2 42.1z"/>
				<path id="&lt;Path&gt;" class="s2" d="m879.8 282.3c-7.1 0-12.9-5.8-12.9-13 0-7.1 5.8-12.9 12.9-12.9 7.2 0 13 5.8 13 12.9 0 7.2-5.8 13-13 13z"/>
				<path id="&lt;Path&gt;" class="s2" d="m854.8 331.5c-5.2 0-9.4-4.2-9.4-9.3 0-5.2 4.2-9.4 9.4-9.4 5.1 0 9.3 4.2 9.3 9.4 0 5.1-4.2 9.3-9.3 9.3z"/>
				<path id="&lt;Path&gt;" class="s2" d="m713.6 188.8c-7.2 0-13-5.8-13-13 0-7.1 5.8-12.9 13-12.9 7.2 0 13 5.8 13 12.9 0 7.2-5.8 13-13 13z"/>
				<path id="&lt;Path&gt;" class="s2" d="m783.2 69.4c-3.7 0-6.7-3.1-6.7-6.8 0-3.7 3-6.8 6.7-6.8 3.8 0 6.8 3.1 6.8 6.8 0 3.7-3 6.8-6.8 6.8z"/>
				<path id="&lt;Path&gt;" class="s2" d="m735.4 74.5c-5.4 0-9.8-4.4-9.8-9.8 0-5.5 4.4-9.9 9.8-9.9 5.5 0 9.9 4.4 9.9 9.9 0 5.4-4.4 9.8-9.9 9.8z"/>
				<path id="&lt;Path&gt;" class="s2" d="m646.1 151.4c-3.2 0-5.7-2.5-5.7-5.7 0-3.1 2.5-5.7 5.7-5.7 3.1 0 5.7 2.6 5.7 5.7 0 3.2-2.6 5.7-5.7 5.7z"/>
				<path id="&lt;Path&gt;" class="s2" d="m707.9 329.1c-6.3 0-11.4-5.1-11.4-11.4 0-6.4 5.1-11.5 11.4-11.5 6.3 0 11.4 5.1 11.4 11.5 0 6.3-5.1 11.4-11.4 11.4z"/>
				<path id="&lt;Path&gt;" class="s2" d="m803.5 327c0 1.7-1.4 3.1-3.1 3.1-1.8 0-3.2-1.4-3.2-3.1 0-1.7 1.4-3.1 3.2-3.1 1.7 0 3.1 1.4 3.1 3.1z"/>
				<path id="&lt;Path&gt;" class="s2" d="m822.2 142.1c-4.6 0-8.3-3.7-8.3-8.3 0-4.6 3.7-8.3 8.3-8.3 4.6 0 8.3 3.7 8.3 8.3 0 4.6-3.7 8.3-8.3 8.3z"/>
				<path id="&lt;Path&gt;" class="s2" d="m784.8 165.5c0 2-1.6 3.6-3.7 3.6-2 0-3.6-1.6-3.6-3.6 0-2.1 1.6-3.7 3.6-3.7 2.1 0 3.7 1.6 3.7 3.7z"/>
				<path id="&lt;Path&gt;" class="s2" d="m855.9 79.7c-2.5 0-4.6-2-4.6-4.6 0-2.6 2.1-4.7 4.6-4.7 2.6 0 4.7 2.1 4.7 4.7 0 2.6-2.1 4.6-4.7 4.6z"/>
				<path id="&lt;Path&gt;" class="s2" d="m805.6 350.1c0.4 5.9-12.4 11.6-28.5 12.7-16.2 1.1-29.6-2.8-30-8.8-0.4-6 12.4-11.7 28.5-12.8 16.2-1.1 29.6 2.9 30 8.9z"/>
			</g>
		</g>
	</g>
</svg>