<svg version="1.2" xmlns="http://www.w3.org/2000/svg" viewBox="0 0 900 900" width="900" height="900">
	<title>OBJECTS</title>
	<style>
		.s0 { fill: #df8242 } 
		.s1 { fill: #d34975 } 
		.s2 { opacity: .4;mix-blend-mode: overlay;fill: #ffffff } 
		.s3 { opacity: .3;mix-blend-mode: overlay;fill: #ffffff } 
	</style>
	<g id="OBJECTS">
		<g id="&lt;Group&gt;">
			<g id="-e-">
				<path id="&lt;Path&gt;" class="s0" d="m897.4 448.8c0 247.4-200.5 448-447.9 448-29.2 0-57.7-2.8-85.3-8.2-206.6-39.8-362.6-221.5-362.6-439.8 0-195.9 125.9-362.6 301.2-423.3 46-15.9 95.3-24.6 146.7-24.6 54.2 0 106.1 9.7 154.1 27.2 64.6 23.7 122.2 61.8 169 110.5 77.3 80.5 124.8 189.8 124.8 310.2z"/>
				<g id="&lt;Group&gt;">
					<path id="&lt;Path&gt;" class="s1" d="m456.6 69.9c-7.4 5.2-14.9 10.7-22.5 16.5 56.2-28.4 116.1-44.1 179.5-57.1-17.3-6-35-11.1-53.1-15.3-37.7 12.1-73.5 34.5-103.9 55.9z"/>
					<path id="&lt;Path&gt;" class="s1" d="m395.8 108.3c16.7-15.6 34.9-29.6 52.2-42.1 28.6-20.5 62-41.8 97.4-55.3-14.9-2.9-30-5.4-45.4-7-41.2 22.4-84.8 41.3-118 74.7-2.6 2.6-5 5.3-7.5 7.9-20.8 22.8-41.1 52.2-53 82.9 12.3-13.1 25.7-25.6 40.6-37.3 11.1-8.7 22.3-16.5 33.7-23.8z"/>
					<path id="&lt;Path&gt;" class="s1" d="m80.4 344.9c17.7-53.4 42.4-107.4 74.5-154.2 53.4-78.1 133.7-131.6 213-183.6-27.7 4.3-54.6 10.9-80.4 19.5-18.5 12.7-35.7 26.1-51.5 40.1-113.3 100.6-175.6 258.9-178.9 408.9 2.6-44.3 9-87.7 23.3-130.7z"/>
					<path id="&lt;Path&gt;" class="s1" d="m507.3 863.3c-100.5-2.3-214.9-13.5-296.1-76.8-72.1-56.2-105.9-141-146.2-219.6 0.3 4.7 0.6 9.3 1 13.9 31.2 140.3 146.2 261.4 295.9 290.6 65.6 12.8 132.7 9.4 196.2-8.3-16.9 0.5-33.9 0.6-50.8 0.2z"/>
					<path id="&lt;Path&gt;" class="s1" d="m863.1 355.6c-1.1 28-4.5 56.1-5.6 83.3-2.5 60.7-9.5 116.7-29.8 174.5-12.9 36.8-30.2 71.9-53.6 103.2q8.9-10.9 17.6-22.3c71.3-94.5 101.5-224.2 71.4-338.7z"/>
					<path id="&lt;Path&gt;" class="s1" d="m854.9 329.4c-8.4-23.7-19.5-46.6-33.6-68.1-47.6-72.2-126.3-120.3-209.7-131.5-23.8 2.2-46.9 6.6-66.5 11.4-141 34.5-225.6 172.5-212.4 308.8 10.5 107.3 100.8 235 217.8 229.6 43.5-7.8 84.9-29.6 117.3-67.1 46.1-53.5 88.7-147.5 58.9-216.1-35.9-82.5-144.7-99.3-223-67-20 8.2-38.2 21.3-52.4 37.1-12.5 22-19.2 46.1-15.8 70 5.5 38.4 45.4 69.4 85.3 69.9 36.9 0.4 65.8-24.2 84.1-53.1-0.6-3.2-1.4-6.5-2.6-9.9-2.6-7.9-7.6-13.1-13.5-16.3-12.6 29.9-56.2 52-87.9 41.2-32.3-11-39.6-56.9-24.1-83.1 16.6-28 55-32.9 85.2-29.9 34.1 3.4 73.5 16.8 94.8 44.2 3.1 3.9 5.8 8.1 8 12.6 16.2 28.1 5.8 62.6-4.8 91.4-17.9 48.2-54.1 97-107.2 112.4-49.6 14.4-104.3-3.9-141.4-36.6-83.8-74.2-60.8-217.9 4.5-296.4 17.4-20.8 37.5-37.7 59.3-50.4 29.4-23.3 66.3-36.4 103.9-41 168.1-20.7 254.6 151.3 245 289.6-4.6 66.9-30.4 125.3-79.1 173.1-17.8 17.6-39.7 35-63.7 47-28.4 22.3-61.2 39.9-97.9 51.2-3.4 1.1-6.9 1.9-10.3 2.9-18.1 10.8-36.8 20.5-56.8 27.4-39.3 13.6-79.4 11.9-119.6 3.9-58.9-11.8-116-37.1-157.1-80.4-40.5-42.8-60.8-98.5-66.1-155.6-10.7-117.2 21-261.7 114.1-345.1 9.9-22.4 21-44.3 34.3-65.3 37.4-58.7 89.2-104.9 150.5-138.5-8.6-0.4-17.2-0.8-25.9-0.8-2.3 0-4.5 0.1-6.7 0.2-113.4 48-195.2 142.3-253.7 245.3-30.6 53.7-55.4 110.3-76.6 168.1-10.2 27.7-19 55.8-28.2 83.9-5.6 17.1-11.2 34.5-15.4 52.2 55.8 104.1 97.4 219.6 219.2 268 63.3 25.2 131.6 33 199.5 36 34.3 1.5 68.7 1.3 102.9-0.9 9.5-3.4 18.9-7 28.1-11q0.4-0.2 0.8-0.4c46.3-30.8 92.9-65.5 130.4-105.4 35.4-37.7 58.6-83.3 75-131.4 19.6-57.5 25-113.6 27.7-173.8 1.6-33.3 6.6-68.3 5.4-102.3z"/>
					<path id="&lt;Path&gt;" class="s1" d="m96 428c58.8-166.4 153.1-345.1 322.9-426.3q-16.5 0.9-32.6 2.8c-50.4 33.1-101.4 65.7-146.8 105.1-52.4 45.4-89.5 98.4-119.2 159.6-34.2 70.3-52.6 141.2-55.7 218.7-0.4 11.1-0.6 22.2-0.7 33.3 9.1-31.9 21.5-63.4 32.1-93.2z"/>
					<path id="&lt;Path&gt;" class="s1" d="m690.8 798.7c13.2-10 25.7-20.9 37.7-32.3-12 11.1-24.7 21.9-37.7 32.3z"/>
					<path id="&lt;Path&gt;" class="s1" d="m319.1 568.8c38.8 70.6 111.8 111.1 185.9 113.9-39.7-9.5-76.1-32.8-105.1-65.1-98-109.2-100.8-275.1-8.9-388.8 44.8-55.4 107.5-88.4 178.7-100.8 1.2-0.2 2.6-0.4 3.9-0.6-49.3 0.2-98.8 13.7-143.3 43.2-131.1 87.2-186.8 260.5-111.2 398.2z"/>
					<path id="&lt;Path&gt;" class="s1" d="m714.4 671.3c21.1-16.8 39.5-36.7 53.3-54.7 75.2-97.5 62.7-256.2-15.1-349.3-51-60.9-130.7-82.1-208-60.6-1.6 0.4-3.1 1-4.7 1.5 49.9-9.6 103.1-0.3 151.3 30.4 95.9 61.1 126.5 184.6 101.4 288.1-13.4 54.9-40.3 104.6-78.2 144.6z"/>
					<path id="&lt;Path&gt;" class="s1" d="m447.4 496.1c42.8 45.1 158.9 35.7 158.9-30.3-19.4 26.6-47.7 47.6-82.8 48.4-37.5 0.9-76.7-23.9-90.8-57.4-7.1-16.8-8.2-34.3-5-51.6-10.8 29.6-7.2 62.5 19.7 90.9z"/>
					<path id="&lt;Path&gt;" class="s1" d="m581.1 424.3c-18.5-3.7-40.3 9.7-35.4 32.6 15.8-7.1 29.5-19.3 35.4-32.6z"/>
					<path id="&lt;Path&gt;" class="s1" d="m619.9 380.3c-27.5-14.8-62.1-21.4-92.4-16.5-40.4 6.6-65.9 46.4-41.7 83.1 8.6 12.9 22.3 17.3 36.8 16.2-4.9-0.3-8.8-0.8-9.5-1.1-9.7-3.3-13.8-5.5-18.6-14-6.9-12.1-4.5-26.3 3-37.3 16.4-24.3 55.2-33 82.8-34.6 12.8-0.7 26.6 0.6 39.6 4.2z"/>
					<path id="&lt;Path&gt;" class="s1" d="m277.6 226.5c-40.6 43.3-65.7 99.6-80.5 155.8-29.2 110.2-30.8 249.6 63 332.5 43.3 38.2 100.2 58.8 157.6 67.5 41 6.2 79.9 1.6 117.4-15.8 3.3-1.5 6.5-3.1 9.8-4.7-88.9 16.1-186.6-2.7-254.5-62.1-83.1-72.6-100.1-175.3-81.8-278.1 12.6-71 32.7-137.2 69-195.1z"/>
				</g>
				<path id="&lt;Path&gt;" class="s2" d="m589.8 500.3c-74.7 188.9-252.9 295.6-398 238.2-145.1-57.4-202.1-257.1-127.4-446 74.7-188.9 252.9-295.6 398-238.2 145.1 57.4 202.2 257.1 127.4 446z"/>
				<path id="&lt;Path&gt;" class="s3" d="m422.7 426.7c-49.6 125.4-167.9 196.2-264.2 158.1-96.3-38.1-134.2-170.6-84.6-296 49.6-125.4 167.9-196.2 264.2-158.1 96.3 38.1 134.2 170.6 84.6 296z"/>
			</g>
		</g>
	</g>
</svg>