<svg version="1.2" xmlns="http://www.w3.org/2000/svg" viewBox="0 0 164 164" width="164" height="164">
	<title>planets</title>
	<style>
		.s0 { fill: #8d705c } 
		.s1 { opacity: .7;fill: #5c2000 } 
		.s2 { opacity: .9;fill: #96c4d1 } 
		.s3 { opacity: .7;fill: #96c4d1 } 
		.s4 { opacity: .8;fill: #96c4d1 } 
		.s5 { opacity: .7;fill: #f2902b } 
		.s6 { opacity: .8;mix-blend-mode: overlay;fill: #205673 } 
		.s7 { opacity: .7;fill: #c6aa89 } 
		.s8 { opacity: .7;fill: #edd8ab } 
		.s9 { opacity: .7;fill: #913e12 } 
		.s10 { fill: #9f9cad } 
		.s11 { fill: #faeccf } 
		.s12 { opacity: .2;mix-blend-mode: overlay;fill: #05afea } 
	</style>
	<g id="planets">
		<g id="-e-">
			<path id="&lt;Path&gt;" class="s0" d="m87 160.9c44.1-3.6 76.9-42.2 73.3-86.3-3.5-44.1-42.2-76.9-86.2-73.3-44.1 3.6-76.9 42.2-73.3 86.3 3.5 44 42.2 76.8 86.2 73.3z"/>
			<path id="&lt;Path&gt;" class="s1" d="m63.5 159.3q0-0.4 0.1-0.8-0.6 0.3-1.2 0.5c-13.1-3-24.9-9.2-34.7-17.8-4.9-15.3-2.3-35-1.1-48.2l14.4-81.1q0.1-0.3 0.2-0.5c9.8-5.6 20.9-9.2 32.9-10.1 24.2-2 46.8 7.1 62.9 23 2.6 15.4 4.4 30.1 3.2 46.3-1.2 15.8-4.8 31.8-7.2 47.5-0.7 5-1.1 10.2-2.9 14.8-2.8 6.8-8.4 10.4-13 15.8-1.5 1.8-2.6 3.6-3.5 5.3-8.1 3.7-17.1 6.1-26.6 6.9-8.1 0.6-16 0-23.5-1.6z"/>
			<path id="&lt;Path&gt;" class="s2" d="m17.4 130.2c-0.5-5.8 0.4-11.9 1.6-18 0.9-4.7 0.8-10.4 2-15.2 0.3-1.2-1.3-2.3-0.9-3.7 0.4-1.2 3.1-1.5 3.7-3.2 0.9-2.6 0.6-5.6 1.6-8.2 2.5-6.3 3.9-8.2 4.3-14.7 0.4-7 0.3-13.9 0.4-21.1 0.1-4.6 2.1-7.9 2.5-12.5 0.4-4.3-1.9-7.9-1.4-12.1 0.2-1.2 0.7-2.8 1.3-4.5 4.6-3.4 9.5-6.4 14.8-8.8l-0.6 2.3c8.3 10-1.7 11.7-2.6 20.8-0.6 5.8 11 17.2 0.3 19 0.3 1.2-0.2 2.9 0 3.8-0.8 0.2-1.4 0-2.3 0.2 0.5 7.6 8.9 29.8 2.5 35.5-4.7 4.2-5.2-1.2-8.1 5-1 2-2 9.8-1.2 12.6-4 2.1-5.4 14.5-5.3 19 0.2 4.4 5.7 13.7 3.8 16.9 1.6 0.5 2.8 2.3 4.3 2.8q-0.6 1.2-1.3 2c-7.4-4.9-14-10.9-19.4-17.9z"/>
			<path id="&lt;Path&gt;" class="s3" d="m49.4 154.8q-3.3-1.4-6.5-3.1c0.4-1.9 1.1-3.8 0.7-5.9-0.7-3.3-4.8-6.2-5.6-9.8-2-9.8 2.6-20.1 4.5-29.3 0.6-2.8-0.6-5.7 0.5-8.5 1-2.7 3.3-3.2 4.4-5.2 3-5.2 5.3-12.2 5.2-18.4 0-2.9-1.8-6.1-0.8-8.9 1-3.4 5.2-4.2 5.7-8.5 0.3-3.6-2.3-4.5-2.7-7.5-0.5-3.6 1.2-6 1.3-9.3 0.2-3-1.7-5.9-1.5-8.4 0.3-3.5 2.6-5.9 3.1-9 1.2-7.7-1.3-13.1-1.4-18.2q7.2-2.3 14.9-3.2c-2.5 3.9-5.6 8.1-5.4 10.9 6.5 0.3 6.4 9.4 3.9 13.4 13.9 2.8-3.8 19.7-4.5 24.5-0.7 5 13.3 28.8 1.7 29.4 2.6 2 3 5.8 0.1 8 1.6 2.8 1.3 10.4-0.4 13.3-2.1 4-8.3 4.8-9.7 9.2-2 6.5 7.1 17.8-4.4 21 6.4 1.4 3.4 17-3.1 23.5z"/>
			<path id="&lt;Path&gt;" class="s4" d="m60.4 158.6c0.3-13.2 5.1-25.5 10-37.6 2.2-5.3 3.5-24.8 7.4-24.9-0.9-2.8-1.2-6.9 0-9.7 0.5-1.3 4.1-3.3 4.2-3.9 0.3-3.2-3-4.3-3.5-7.9-0.7-4.5 2.3-5.8 3.4-9.6 1.7-6.2 0.4-11.8 2.6-18.4 3.1-8.8 3.4-12.3 4.6-25.2 1.4-5.5-1.5-13.9-0.1-19.9 7.8 0.8 15.2 2.7 22.2 5.6 0.4 7.7-1.5 16-0.8 23.5 1.2 13.9 0.2 30.5-3.9 44.5-2.3 8.1-4.4 11.9-2 19.7 1.3 4.3 3.6 9.4-0.8 14.2 5.9 3.3-0.8 9.4-1.6 14-0.8 4.4-0.5 7.6-2.5 12.9-3 7.6-6.2 17.4-11.4 24.8q-0.6 0.1-1.2 0.2c-9.2 0.7-18.1-0.1-26.6-2.3z"/>
			<path id="&lt;Path&gt;" class="s3" d="m109.7 155.6c0.4-6.9 7.8-15.1 8.7-20.4-5-3.6 6.2-17.5 6-23.8-0.1-4.5-3.8-8-3.5-11.9 0.4-4.1 4.9-9.8 6.3-14 1.1-3.5 3.1-7.5 2.1-11.2-0.4-1.6-3.7-4-3.8-5.5-0.2-2.6 1.6-2.4 2.6-5 3.3-8.7 11.4-24.1 4.9-34.5 0.5-1.8 1.5-4 2.8-6.2 4.4 4.2 8.4 9 11.7 14.1-1.3 4.2-3.4 7.9-5.9 10.5 4.6 1.7 3.8 6.3 3.6 10.4-0.1 2.4-1.4 4.4-1.4 6.3 0 2.6 1 6.4 1.4 9.1 1.1 8.8-0.9 15.3-3.7 23.8-1.3 3.9-5.9 11.7-5.7 15.3 0.2 3.2 3.5 6.1 4.1 10.4 0.5 3.7 0 8.4-0.8 12.7-8.1 8.6-18.1 15.5-29.4 19.9z"/>
			<path id="&lt;Path&gt;" class="s5" d="m131.1 51c5.5-7.1 5.9-31.2-8.8-22.5-8.3 4.9-12.3 24.7-5.9 32.1 7 8 9.8-1.3 12.9-7.6z"/>
			<path id="&lt;Path&gt;" class="s5" d="m121.1 132.7c-2.3-3.4 0.5-7.4 2.5-10.7 1.1 0 2.3 0.1 3.4 0.5 1.2 4.1 1.3 8.6-2.4 11.5z"/>
			<path id="&lt;Path&gt;" class="s5" d="m96.2 158.2c-6.1 1.6-4.4-7-0.4-9-9.8-0.2-7.7-13.4-1.9-17.5-1.9-5.4 1-10.7 5.2-14.3-5.3-4.8-2.3-11.3 1.1-16.1-10.3-4.9-0.7-30.2 6.2-35.3 11.8-8.7 7.4 22.7 3.5 28.3 11.1 1.2 0.2 15.8-3.1 19.2 2.7 5.1 2.3 10.4-2.8 13.5 3.7 2.9 0.8 9.3-3.1 10.7 6.3 4.7 7.2 22.2-4.7 20.5z"/>
			<path id="&lt;Path&gt;" class="s5" d="m44.5 152.6c-1.2-3.2-0.3-6.7 5.2-8.1-3.1-4.8-9.9-16.9 0.1-18.5-3.7-6.9 1.7-7.3 3.2-12.2 1.4-4.3-0.4-5.8-0.6-10.5-0.4-7.6 3.5-7.1 6.9-13.2 3.7-6.6-0.5-10.7-1.4-17.1-1.1-7.3 3.8-8.9 4.6-14.3 0.6-3.8-3.4-6.5-2.1-10.7 0.7-2.1 4.4-3.2 5.1-5.4 0.8-2.2-0.6-3.6-0.4-5.3 0.6-5 1.9-11 2.7-19.1-7.8 2.6-8.7-9.5-2.7-12.6q-0.8-1.4-1.2-2.8 5-1.1 10.2-1.5 6.1-0.5 12-0.1c1.3 6-0.6 13.3-4 17.5 5.6 5.1 3.6 9.2 1.9 15.3-1.3 4.9-2.4 11.9-6.6 17.2 12.1 5-1.8 17.2-3.2 23.9-1.3 6.4 3.1 11.8 0.4 19.1-2 5.3-4.1 7.2-4.7 13.7-0.2 2 0.6 4 0 6-0.9 3.4-4.2 4.8-5.1 7.4-1.5 4.2 0.3 4 1.1 8.7 1.4 7.9-2.8 8.2-5.6 13.1-3.1 5.3-0.1 4.8-1.6 10.3-0.5 1.8-1.2 3.2-2.1 4.1q-6.3-2-12.1-4.9z"/>
			<path id="&lt;Path&gt;" class="s6" d="m74.4 160.9c-0.6-1.9-1.2-3.9-2.3-5.6 2.7-0.2 5.7-0.2 8.4 0.4 2.2-8.5-7.9-15.1-5.5-24.7 2 0 3.7-0.4 5.7 0.6 0.9-2.9 0.6-6.2 0.2-8.9 0.9 0.3 2.2 0 3.1 0.3 1.7-5.7-6.5-29.5 2.9-27.9-0.5-5.8-7.9-21.6 3.3-22-2.4-3.7-1.5-8.2 2.9-7-1.2-5.4-1.4-10.9 4.1-12.6-1.2-4.6-10.8-22.4 0.6-21.7-1.7-2.8-6.8-11-0.3-11.7-2.2-2.5-1.9-6.7 5.9-7.3-4.3 0.6-9.4-6.5-8.6-10.5q6.5 1.2 12.6 3.4c2.4 3.7 3.8 8.4 3.2 12.2-7.1 1-1 9-0.2 13.4 1.5 8.7-1.6 9.6-6.3 4-0.3 0.3-1.3 1.2-1.7 1.5 2.4 4.9 4.2 9.6 4.4 15.5-5.3 0.8-5.3 2.1-5.3 7.7 0 2.4 2.6 4.4 1.7 7.5-0.8 2.5-4.4 3.7-5.8 5.6-4 5.1-5.4 9.8-3.8 16.1 0.9 3.5 7.1 9.9 0.9 10.6-2 3.4-0.4 7 1.8 9.1-5.5-1.4-8.8 8.5-4.8 12.9-0.7-0.3-1.4-0.4-2.1-0.5 1 5.5 1.4 15.8-5.6 13.6 3.9 4.7 6.9 9-0.1 13.1 3.6 2.8 3.6 7.2 3.5 12-1.2 0.1-2.3 0.5-3.3 1q-4.8 0.2-9.5-0.1z"/>
			<path id="&lt;Path&gt;" class="s6" d="m40.6 24.6c-4-1.8-4-9.6 1-7.4 0-3.1 1.8-5.5 4.8-6 3.9 3.4 0.4 9.9-1.1 13.6-0.9 1.9-3.1 3.9-3.5 6-0.4 2 2 3.2 1 6.2 2.2 3.6-1.9 11.5-2.7 15.7-1.2 6 2.5 14-1.2 18.8 4.7 1.8 3 7.7-0.7 9.9 3.9 8.7-1.9 9.5-4.7 15.4-0.7 1.4 0.7 4.8 0.3 6.9-0.3 1.9-2.1 4.9-2.6 6.7-0.1 0.6 1.5 1.9 1.2 3-0.4 1.4-2.7 3.4-2.8 4.4-0.4 2.4 0.2 3.8 0.3 6.6 0.3 4.2 3 12-2.5 13.1-4.2-3.7-3.5-12.2-2.8-16.8 0.4-2.2 2.2-5.6 2.3-7.6 0.1-2.1-1.1-2.9-1.1-4.4 0.1-5.9 2.9-8 4.1-13.3 1-4.4-1.1-8.5-0.3-13 0.6-3.2 2.2-7.1 3.1-10.2 2.7-8.9-0.6-17.6 4.6-26.4-2.7-2.9 0.9-20.2 3.3-21.2z"/>
			<path id="&lt;Path&gt;" class="s7" d="m144.3 118.2c1.6-8.7-2.2-16-0.9-24.1 1.1-7.2 3.6-14.3 4.8-21.8 1.1-7.4-2.7-17.1-0.2-23.1 2.1-0.6 3.4-2 4.2-3.7q1.6 3.1 2.9 6.3c-0.8 1.9-1.6 3.6-1.8 5.3-0.4 2.7 0.3 6.3 0.6 9.7 1.2 17.6-1.7 31.8-5.5 48.7-0.4 2-0.5 5.5-0.8 9.2q-3.2 4.9-7 9.3c1.1-5.3 2.7-10.4 3.7-15.8z"/>
			<path id="&lt;Path&gt;" class="s7" d="m19.3 79.3c-1.1 5.4-2.7 8.8-2.7 14.4 0 7.6-2.8 12.5-3.8 19.5-0.7 4.4 0.8 7.7 1.1 11.5q-0.3 0-0.6-0.1-2.9-4.6-5.3-9.6c-0.7-8.6 2.1-20.5 3-25.1 3-14.4 3.1-28.1 3.9-35.4 1-4.4 3.6-8.7 4.2-13.3 0.5-3.3-0.5-7.1-0.4-10.9q3.2-3.9 6.8-7.4c-0.1 2.2 0.2 4 1.5 5.1 2.5 13.2-4.7 26.6-6.7 40-0.6 4.2-0.1 7.4-1 11.3z"/>
			<path id="&lt;Path&gt;" class="s8" d="m108.8 152c4.5-1.3 3.6-5.7 4.7-9.4 0.4-1.2 1-2.2 1.9-3.1 0.7-0.8 1.6-1.4 2.2-2.2 1.2-1.6 1.2-3.2 0.8-5-0.7-3.7-0.2-7 1.1-10.6 1.6-4.1 3.4-8 2.8-12.6-0.6-4.2-1.1-8.1-0.4-12.4 0.6-4.5 1.7-9 2.4-13.5 0.6-4.4 0.6-9-0.8-13.3-1.4-4.1-4-7.3-6.9-10.4-2-2.2-4.4-4.4-5.4-7.3-1.3-3.4-0.5-6.9 0.6-10.2 0.2-0.4 0.9-0.2 0.8 0.2-0.8 3.7-1.3 7.7 0.8 11 1.8 2.9 4.5 5.1 6.7 7.7 5.6 6.5 7.3 14.6 5.8 22.9-0.9 4.7-2.8 9.1-3.4 13.8-0.2 2.4-0.3 4.7 0 7 0.4 2.5 1.2 4.9 1.2 7.4-0.1 3.7-1.6 6.9-2.8 10.3-0.9 2.4-1.7 5.1-1.4 7.7 0.2 2 0.9 3.8 0.4 5.9-0.4 1.7-1.6 2.8-2.8 4-2.1 2-2.4 4.1-2.8 6.7-0.5 3.3-1.5 6.1-5.1 6.8-0.8 0.1-1.1-1.1-0.4-1.4z"/>
			<path id="&lt;Path&gt;" class="s8" d="m118.5 54.2c-3.3-4.4-2.4-12.2-1.2-17.2 1.3-5.2 5-12.5 11.4-9.7 0.1 0 0 0.1 0 0.1-11-2.5-12.6 16.6-10.5 23.3 0.5 1.6 1.3 3.7 3.1 4.2 2.1 0.5 4.4-1.5 5.6-3 2-2.6 10-19 3.1-19.4-3.7-0.2-5.8 6.2-6.3 8.9-0.2 1.4-0.8 4.4 0.3 5.6 0.7 0.8 0.2 0.3 1.1-0.1 0.9-0.4 1.7-1.6 2.2-2.5 0.9-1.6 1.1-3.3 1.3-5 0-0.7 1.1-0.6 1.1 0.1-0.2 4-1.9 7.4-5.5 9.2-0.2 0.2-0.5 0-0.6-0.2-2.2-2.8-1.3-7.1-0.2-10.3 1-2.6 3-6.6 6.2-6.9 3.3-0.3 4.4 3.2 4.3 5.8-0.3 4.6-2.3 9.3-4.5 13.2-2 3.6-7.4 8.8-10.9 3.9z"/>
			<path id="&lt;Path&gt;" class="s8" d="m113.5 147.9c1.4-2.4 3.1-4.4 4.6-6.7 1.2-1.7 2.5-3.8 1.7-5.9-0.3-1.1-1.5-2-1.9-3-1.4-3.1-0.5-6.7 0.4-9.9 1.9-6.2 6.1-11.2 5-18.1-0.9-5.1-3.1-7.6-1.4-12.9 1.5-4.7 8.2-11.1 7.4-16.2-0.5-3.1-3.4-5.7-2.4-9.3 0.3-1.2 0.9-1.7 1.6-2.7 2.1-3 2.9-5.9 3.5-9.5 1-5.8 3.4-11.1 6.7-16.1 0.3-0.5 0.9-0.1 0.9 0.4 0 3.5-1.4 5.6-2.7 8.7-1.6 3.7-1.8 7.2-2.7 11-1.1 4.7-5.5 7.7-3.7 12.6 1 2.7 2.4 4.3 1.8 7.3-1.4 6.3-7.7 11.1-7.9 17.7-0.1 2.3 1.2 4.5 1.8 6.7 0.7 2.6 1 5.4 0.6 8.1-0.6 4.9-3.6 9.2-5.2 13.8-1.3 3.5-2.3 6.3-0.5 9.7 0.5 0.9 1.1 1.3 1.3 2.3 1.1 4.9-4.8 9.8-7.5 12.8-0.6 0.6-1.8 0-1.4-0.8z"/>
			<path id="&lt;Path&gt;" class="s8" d="m121.7 97c-2.5-4.7 0.5-7.9 2.3-12.4 1.2-3 2.2-4.7 0.1-7.6-0.9-1.3-2-1.9-2.4-3.6-0.4-2.1 0.7-3.8 1-5.8 0.7-3.5-1-4.4-3.5-6.7-2.6-2.4-5.9-4.7-7.6-7.9-1.8-3.5-1.2-7.3-0.5-11 0.4-1.9 1.3-3.7 0.5-5.5-0.8-2.1-2.6-2-4-3.4-3.1-3.3 0.2-6 1.4-9.2 2.1-5.8 0.9-10.9-0.2-16.7 0-0.3 0.3-0.5 0.6-0.4 4 1.7 5 6.5 5 10.5 0 2.4-0.3 4.9-0.9 7.3-0.4 1.8-2.2 4.2-1.3 5.7 0.5 0.9 2.4 1.6 3.1 2.8 0.7 1.3 1.4 2.8 1.5 4.3 0.3 4.8-3.5 9.6-0.4 14.2 2.4 3.6 6.8 5.9 9.7 9.3 2.4 2.8 1.8 5.9 0.7 9.2-0.5 1.8-1 2.2 0.1 4 0.2 0.3 0.8 0.6 1 0.9 0.9 1.1 1.5 3.1 1.4 4.5 0 7.2-10.7 8.6-7.1 17.3 0.2 0.3-0.3 0.5-0.5 0.2z"/>
			<path id="&lt;Path&gt;" class="s8" d="m64 155.4c-3.4-4.5-1.2-11.7 1.6-15.9 2.2-3.4 5.5-6.1 7-9.9 1.5-3.8 0-6.9-0.1-10.8 0-3.3 1.3-6.2 2.5-9.2 1.6-3.8 2.5-7.1 3.1-11.2 0.6-3.8 2.6-6.9 4.1-10.4 2.1-4.8 1.4-7.8-0.1-12.4-2.2-6.5 2.4-11.6 4.8-17.3 2.1-4.8 0.4-8.5-0.7-13.2-0.8-3.5-0.6-6.4 0.3-9.9 2.2-8.9 5.4-17.8 3.8-27.1q0 0 0 0c2.2 6.8 3.4 12.5 1.7 19.6-0.7 3.3-1.6 6.6-2.6 9.8-0.8 2.4-1.7 4.2-1.4 6.7 0.1 1.9 0.9 3.3 1.5 5.1 2.2 6.4-0.5 11-3.5 16.5-1.2 2.1-2.6 4.4-2.3 7 0.2 1.7 1 2.5 1.6 4 0.9 1.8 1.3 3.5 1.2 5.5-0.1 3-1.2 5.7-2.5 8.3-2 4.3-2.7 7.9-3.6 12.5-1.5 7.1-7 11.1-5.4 18.9 1 4.9 0.6 8.4-2.3 12.6-2 3-4.8 5.5-6.1 8.9-0.9 2.1-1.2 4.7-0.7 7 0.9 4.9 4.4 3.2 7.3 1.3 0.8-0.5 2.1 0.3 1.6 1.2-2.3 4.1-7.3 7.2-10.8 2.4z"/>
			<path id="&lt;Path&gt;" class="s8" d="m25.5 139.4c-0.3-0.4-0.6-0.9-0.9-1.3-0.3-0.4-0.9-0.7-1-1.2-0.1-0.1 0.1-0.2 0.2-0.2 0.5 0.2 0.9 0.8 1.2 1.2 0.3 0.5 0.5 0.9 0.6 1.5 0.1 0 0 0.1-0.1 0z"/>
			<path id="&lt;Path&gt;" class="s8" d="m22.6 133.7c-0.6-1.2-0.6-2.5-0.2-3.8 0.1-0.1 0.2-0.1 0.2 0-0.5 1.3-0.4 2.5 0.2 3.8 0 0.1-0.1 0.1-0.2 0z"/>
			<path id="&lt;Path&gt;" class="s8" d="m24.1 109.2c-4.8-7.4-1.3-12.3 2.1-19.4 2.8-5.9 1.4-11.6 2.5-17.8 0.9-4.6 2.9-9 4.3-13.5 1.7-5.6 1.5-11.7 2.8-17.5 1.2-5.7 1.1-9.7-0.3-15.2-1.2-4.4-2.5-12.5 4.3-12.7 0.8-0.1 1.5 0.9 0.9 1.5-3.3 3.4-4.3 6.1-3.6 10.8 0.4 2.7 1.4 5.3 1.4 8.1 0.1 3.8-1.3 7.8-2.3 11.4-1.2 4.8-0.8 9.4-1.6 14.1-0.7 4.3-2.9 8.1-3.9 12.3-1 4.3-0.4 8.5-1 12.8-0.6 3.7-2.3 6.6-4.1 9.9-2.9 5.2-3.3 9.4-1.4 15.1 0 0.1-0.1 0.2-0.1 0.1z"/>
			<path id="&lt;Path&gt;" class="s8" d="m9.5 116c-2.1-6.6 1.3-10.8 3.9-16.6 2.2-4.8 0.5-8.6-0.6-13.4-0.9-3.7-0.4-7 0.9-10.6 2.2-5.8 3.4-10.8 3.5-17 0.1-4 0-8.3 1.1-12.1 0.7-2.2 1.8-3.9 2.8-5.9 1.7-3.4 1.7-5.4 1.2-9.1-0.4-2.6 0.1-4.1 2-5.7 1.3-1.1 2.9 0.5 2.4 1.8-1.5 3.8 0.2 7.3-0.7 11.1-0.8 3.9-3.5 6.9-4.4 10.7-2.2 8.6-0.2 16.8-3.8 25.3-2.2 5.1-2.1 8.4-0.9 13.6 0.6 2.9 0.7 4.7-0.3 7.4-2.6 7.3-8.4 12.1-6.9 20.5 0 0-0.1 0.1-0.2 0z"/>
			<path id="&lt;Path&gt;" class="s8" d="m29.4 137.7c0.8-6.1-3.4-10.2-3.4-16-0.1-6.5 5.3-10.9 4.6-17.6-0.5-4.9 0.1-7.6 3.2-11.5 2.1-2.7 0.9-5 1.7-8 0.5-1.9 1.9-3.3 3.2-4.8 3.1-3.6 4-6.3 2.5-11.1-0.8-2.6-2-5.2-2.3-7.9-0.5-4.5 0.8-8.2 2.7-12.1 2.7-5.7 0.6-10.4 0.5-16.4-0.1-5.6 1.5-10.8 3.4-16 0-0.1 0.2 0 0.2 0.1-2.5 7.5-3.7 14.2-1.4 21.9 1.2 3.8 1.5 6.5-0.2 10.3-1 2.3-2.5 4.5-2.8 7.1-0.3 3.5 1.8 6.7 3.1 9.8 2 4.6 3.3 9.4 0.4 14-1.3 2-3.8 3.5-4.8 5.6-1.1 2.2 0 4.8-1 7.1-1.1 2.4-3.9 3.5-5 6-1.1 2.7 0.1 5.6 0.1 8.4 0 6.3-5.8 11.1-4.4 17.5 1.2 5 4.3 8.7 3 14.1-0.5 2-3.5 1.6-3.3-0.5z"/>
			<path id="&lt;Path&gt;" class="s8" d="m71.4 60.7c-4.6-3.1-4.8-11.3 1.1-12.8 1-0.3 2.2 0.8 1.3 1.8-1.1 1.4-2.4 3-2.4 4.9 0 1.5 1.2 4.6 3.3 4.3 3-0.5 3.5-7.1 3.1-9.4-0.4-3-2.4-5.2-4.4-7.3-2.3-2.4-4.7-4.7-5.5-8.1-0.6-2.3-0.2-4.4 0.1-6.7 0.4-4.3-0.9-6.2-2.3-9.8-2.3-6 5.1-10.4 9.4-5.9 3.3 3.4 5.3 13.3-0.1 15.6-0.6 0.3-1-0.4-0.7-0.9 2.4-3.8 3.8-13-2-14.9-4.3-1.4-5.6 2.8-4.3 5.5 0.4 0.8 1.2 1.4 1.7 2.2 1.1 2.1 1.5 4.4 1.3 6.7-0.1 3.2-1.3 6.1 0.1 9.3 1 2.3 3 3.9 4.7 5.7 2.6 2.8 4.6 5.7 4.8 9.7 0.2 4.5-2.9 14.4-9.2 10.1z"/>
			<path id="&lt;Path&gt;" class="s8" d="m55.3 121.7c0.9-0.4 1.9 0.5 1.8 1.4-0.3 2.2-0.6 6.8 3.3 4.1 1.3-0.9 2.7-5.3 2.1-6.7-0.2-0.5-1.8-1.4-2.1-1.9-1.5-2.1-1.5-5.1-1.8-7.6-0.2-3.2 0.3-8.9-4.3-5.9-0.5 0.4-1.4 0.5-1.8 0-6-6.1-2.1-15 3.6-19.9 0.6-0.5 1.6-0.2 1.8 0.5 0.7 2.1 2.6 6.8 5.7 5.2 3.2-1.6 2.9-8.6 1.9-11.2-1.7-4.3-5.3-7.4-6.9-11.7-0.1-0.3 0.3-0.5 0.4-0.3 5.6 6.7 14.4 13.8 7.9 23.5-3.7 5.5-8.4 1.5-10.5-2.9-3.5 3.6-6.8 10-2.8 13.7 2.7-1.5 5.6-1.9 7.1 1.7 1.2 2.7-0.1 12.9 3.3 13.8 0.7 0.2 1.3 0.7 1.4 1.4 0.6 5.2-1 13.6-8.1 12.3-4.7-0.9-6.6-7.1-2-9.5z"/>
			<path id="&lt;Path&gt;" class="s8" d="m52.8 150.7c-2.6-1.2-6-4-6.7-6.9-0.8-3.2 2-5.6 5.1-4.9 1 0.2 1.6 1.7 0.5 2.3-1.6 1-2.9 1.2-1.8 3.4 0.6 1.2 1.5 2.1 2.6 2.8 0.1-1 0.2-2 0.6-2.7 0.7-1.1 2.2-1.5 2.9-2.6 1.3-2.2-0.8-3.5-2.4-4.7-2.5-1.6-6.5-3.3-6.5-6.8 0-0.1 0.1-0.1 0.1 0 1 2 4.1 3.1 6 4.2 1.7 1.1 3.7 2.1 4.7 3.8 1 1.5 0.9 3.2 0.1 4.7-0.6 0.9-1.8 1.6-2.3 2.5-0.6 1.1-0.8 3-1.1 4.2-0.2 0.7-1.2 0.9-1.8 0.7z"/>
			<path id="&lt;Compound Path&gt;" fill-rule="evenodd" class="s8" d="m114.9 27c-0.6-4.8 3.7-9.1 8.1-10.3 2-0.6 4.7-0.4 6.2 1.4 0.6 0.8 0.7 1.8 0.3 2.8-0.4 1.1-1.2 0.9-2.1 1.3-0.2 0-0.5-0.1-0.4-0.3q0.1-0.7 0-1.4 0.6-0.4-0.2-0.4-0.4-0.3-0.9-0.4c-1.3-0.3-2.7 0-3.9 0.6-1 0.5-1.8 1.2-2.6 2 1.8 2.9 0.3 5.6-3.1 5.8-0.7 0-1.3-0.4-1.4-1.1zm3.7-3.6q-0.6 1-1 2.2c0.9-0.3 1-1.2 1-2.2z"/>
			<path id="&lt;Path&gt;" class="s8" d="m125.1 22.4c-1-0.2-0.7-1.7 0.2-1.6q0.3 0.1 0.6 0.1c1 0.1 0.8 1.8-0.2 1.6q-0.3-0.1-0.6-0.1z"/>
			<g id="&lt;Group&gt;">
				<path id="&lt;Path&gt;" class="s8" d="m120.4 131.1c-0.3-1.1-0.5-2.3 0.1-3.4q0.2-0.5 0.7-1 0.1-0.2 0.1-0.4c0.1-0.1 0.1-0.7 0.1-0.2q0.1-0.4 0.2-0.7c0.4-0.9 0.9-1.3 1.7-1.7q0-0.1 0.1-0.1c0.2-0.1 0.6-0.2 0.8-0.2 1.6-0.3 2.7 1 3 2.4 0.1 0.5 0.1 0.9-0.1 1.3-0.2 0.7-0.4 1.4-0.6 2q-0.3 1-0.7 2.1c-0.3 1.1-1.7 1.7-2.7 1.7-1.1 0-2.3-0.7-2.7-1.8z"/>
				<path id="&lt;Path&gt;" class="s8" d="m123.3 123.6q0 0 0 0.1l-0.5 0.2q0.3-0.1 0.5-0.3z"/>
			</g>
			<path id="&lt;Path&gt;" class="s8" d="m128.1 103.5c-0.1-1.9-0.2-6.7 2.2-7.6 0.7-1.4 2.8-0.6 3.1 0.7 0.5 2.2 0.2 5.7-1.3 7.5-1 1.6-3.9 1.7-4-0.6z"/>
			<path id="&lt;Path&gt;" class="s8" d="m132.2 129.2c0.3-1.8 3-1.4 2.7 0.4-0.2 1.7-2.9 1.3-2.7-0.4z"/>
			<path id="&lt;Path&gt;" class="s8" d="m139.5 68.1c-1.5-3.5-3.3-8.4 1-10.8q0.6-0.3 1.1-0.2c0.7-0.2 1.5 0 1.8 0.9 1.1 3.3 1 7.1-0.4 10.2-0.7 1.4-2.8 1.4-3.5-0.1z"/>
			<path id="&lt;Path&gt;" class="s8" d="m101.4 83.6c0.4-3 5-2.3 4.5 0.6-0.4 3-4.9 2.3-4.5-0.6z"/>
			<path id="&lt;Path&gt;" class="s8" d="m106.9 75c-0.5-2.1 0.1-6.1 2.9-6q0.1-0.8 0.1-1.5c0.4-2.4 4.2-2.4 4.3 0.1 0.1 2.2-0.3 4.3-1.2 6.2q0 0.2 0 0.4 0.1 0.9 0 1.8c-0.1 1.2-1.3 1.5-2.2 1.1-1.5 0.8-3.5-0.4-3.9-2.1z"/>
			<path id="&lt;Path&gt;" class="s8" d="m100.8 84.4c0-0.9 0.4-1.9 1-2.8q0.2-1 1-1.8c0.6-0.5 1.3-0.8 2.1-0.5q0.2 0.1 0.4 0.3 0.1 0 0.1 0c1.1 0.5 1 1.9 0.8 2.7-0.2 1.2-0.8 2.3-1.2 3.4h-0.1c-0.3 0.6-0.9 1.2-1.7 1.3-1.5 0.2-2.5-1.1-2.4-2.6z"/>
			<path id="&lt;Path&gt;" class="s8" d="m94.2 134.7c0.2-2 0.8-5.4 3.2-5.9q0.2-0.2 0.4-0.3c2-0.9 3.4 1.8 2.4 3.1q0 0.3-0.1 0.7 0 0-0.1 0 0 0.1 0 0.1 0 0.3-0.1 0.6c-0.2 1.1-0.4 2.1-0.8 3.1-1.1 2.8-5.3 1.4-4.9-1.4z"/>
			<path id="&lt;Path&gt;" class="s8" d="m101.9 115.8c-0.7-0.1-1.2-0.6-1.4-1.2-0.4-0.6-0.6-1.4-0.5-2.1 0.2-0.9 0.5-1.5 1.2-2 0.8-0.7 2.3-0.5 2.9 0.4q0.7 1 0.5 2.3c-0.1 0.7-0.5 1.4-1.1 1.8-0.3 0.6-0.9 0.9-1.6 0.8z"/>
			<path id="&lt;Path&gt;" class="s8" d="m82 137.4q0-2.5-0.3-5 0 0-0.1-0.1c-0.6-1.2-1.1-2.5 0.5-3.6 1.4-1 3 0.5 2.5 2.1-0.7 2.2-1.3 4.5-2.3 6.6-0.1 0.2-0.3 0.2-0.3 0z"/>
			<path id="&lt;Path&gt;" class="s8" d="m81.9 132c0.1-0.2 0.5-0.2 0.5 0.1 0.2 3.1-0.8 5.9-1.5 8.8q-0.1 0.1-0.1 0c0.2-3 0-6 1.1-8.9z"/>
			<path id="&lt;Path&gt;" class="s8" d="m85.5 100.6c-1.2-2.9-0.4-7.2 2.9-8.2q0.1 0 0.2 0 0-0.2 0-0.4c-0.1-0.5 0.6-0.7 0.8-0.3 0.7 1.5 0.9 2.9 0.6 4.5q-0.2 1-0.6 2c-0.2 0.5-0.8 1.1-0.8 1.6 0 1.7-2.3 2.6-3.1 0.8z"/>
			<path id="&lt;Path&gt;" class="s8" d="m92.4 70.9c0.1-0.6 0.8-1.1 1.3-1.1 0.2 0 0.4 0.2 0.3 0.4-0.1 0.3-0.3 0.5-0.5 0.7-0.1 0.1-0.1 0.2-0.1 0.2 0 0.1 0.2 0.2 0.3 0.2 0.3 0.2 0.1 0.7-0.2 0.6-0.6-0.1-1.1-0.3-1.1-1z"/>
			<path id="&lt;Path&gt;" class="s8" d="m94.2 64.9c0.1-3.1-0.2-6.1 0.8-9.1 0.5-1.7 2-5.8 4.4-5.2 1.9 0.5 1.2 2.6 0.7 3.9q-0.3 0.6-0.5 1.3c2.4 3.4 1 8.3-2.3 11-1.4 1.2-3.2-0.3-3.1-1.9z"/>
			<path id="&lt;Path&gt;" class="s8" d="m96.7 33.3c-0.1-0.8 0.1-1.6 0.5-2.3 0.2-0.2 0.2-0.3 0.4-0.5q0.1-0.1 0.2-0.1 0-0.1 0-0.1c-0.1-0.5 0.3-0.8 0.7-0.8q-0.1-0.1 0.1-0.1 0.1 0 0.3 0.1 0 0 0.1 0.1 0.2-0.1 0.5-0.2c0.5-0.1 0.9 0.2 1.2 0.5 0.3 0.4 0.4 1 0.3 1.4q0 0.1 0 0.2 0 0.1 0 0.3c0 0.9-0.6 1.7-1 2.4-0.4 0.6-1.3 0.8-2 0.6-0.7-0.2-1.2-0.8-1.3-1.5z"/>
			<path id="&lt;Path&gt;" class="s8" d="m80.4 150.4c-0.8-1.3-1.5-2.8-0.7-4.4 0.8-1.6 2.4-2.7 4.2-2.4 1.1 0.1 1.9 1.3 1.4 2.4-0.2 0.4-0.4 0.8-0.8 1.2-0.3 0.3-0.6 0.5-0.7 0.7 0 0-0.2 0.3-0.2 0.4 0 0-0.1 0.2-0.1 0.3q0 0 0 0.1c0.7 1.8-2 3.4-3.1 1.7z"/>
			<path id="&lt;Path&gt;" class="s8" d="m62.6 126.3c-1.1-3.5-0.3-5.7 0.6-9.2 1.2-5.5 0.4-7.9-2.4-12.2-1.8-2.7-3.9-6.4-3.6-9.9 0.3-3 2.6-4.7 5.6-3.8 3.7 1.2 3.1 4.3 3.6 7 1.2-3.8 2.8-7.4 5.2-10.5 0.4-0.4 0.9-0.7 1.4-0.7-2.2-9.6-14.1-16.3-9.6-26.9 0.2-0.5 0.8-0.9 1.3-0.7 2 0.5 3.1 1.3 4.1 3.2 1.1 2 2.7 4.9 3 7.1 0.1 0.2-0.2 0.6-0.4 0.6-4.1 0.1-3.3-5.6-5.7-7.8 0.1 10.6 13 16.5 10.6 28.2-0.2 1-1.5 1.6-2.4 1-1.8 3.9-3.4 7.9-5.3 11.8-0.5 1-1.8 1.4-2.7 0.6-2.4-1.9-1.8-3.7-2.6-6.3-1-3-2.3-2.3-1.6 0.5 0.3 1.2 0.8 2.5 1.3 3.7 1.3 3.4 3.2 6.4 3.6 10.2 0.6 4.8-1.2 10-3.6 14.1-0.1 0.2-0.4 0.3-0.4 0z"/>
			<path id="&lt;Path&gt;" class="s8" d="m77.8 21.2c3.1-5.2 2.9-14.1-3.6-16.6-0.5-0.2-0.2-0.9 0.3-0.8 7.9 1.3 8.6 12.7 3.4 17.5-0.1 0.1-0.2 0-0.1-0.1z"/>
			<path id="&lt;Path&gt;" class="s8" d="m77.4 52.5c2.3-3.2 3.9-9.4-0.2-11.8-0.6-0.4-1.2-1.1-1-1.9 1-4.1-8.8-13.4-1.7-15.2 0.1-0.1 0.2 0.2 0 0.3-5.5 1.5 1.8 7 3.2 9.1 1.1 1.6 2.1 3.3 2 5.3 5.3 3.9 4.3 11.9-2 14.6-0.2 0.1-0.4-0.2-0.3-0.4z"/>
			<path id="&lt;Path&gt;" class="s8" d="m58.1 27.2c2.3-1.3 3-3.9 3.7-6.1 0.1-0.4 0.5-0.5 0.7-0.1 0.6 1.5 0.3 3.1-0.5 4.5-0.8 1.4-2.3 1.7-3.8 1.9-0.1 0-0.1-0.2-0.1-0.2z"/>
			<path id="&lt;Path&gt;" class="s8" d="m42.7 138.9c0.8-4 1.6-7.2-3-9.5-0.3-0.2-0.5-0.5-0.4-0.8 0.4-3.2 0.3-3.9 2.5-6.2 1.3-1.3 3.6-2.2 2-4.7-0.7-1.1-2.4-1.2-3-2.3-3.6-6.5 7.5-7.1 9.4-9.4 2.5-2.9-1.6-5.6-2.5-7.9-0.9-2.3-0.1-4.2 1.1-6.2 2.6-4.3 7.8-6.4 2.8-11.7-2.5-2.6-3.3-4-2.7-7.7 0.2-0.9 1.1-1.7 2.1-1.5 10.3 2.1 1.5-11.6 2.5-16.6 0.1-0.6 0.6-1.1 1.3-1.2 9.4-1.2 3.8-12.4 2-18.1-0.7-2.4-0.8-4.8-0.9-7.3-0.1-0.9 0-1.9-0.2-2.8-0.4-1.4-2.8-4.4-4.3-2.3-1 1.2 3.2 5.7 4.3 6.4 0.1 0 0 0.1-0.1 0.1-1.7-1.3-6.2-5.3-5.1-8 0.7-1.7 3.4-1.3 4.8-0.4 3.7 2.2 3 7.9 3.9 11.5 1 4.2 3.1 8 3.8 12.2 0.6 3.4 0.7 7.6-2.1 10-1.2 1-4.3 1-4.9 1.7-0.2 0.2 0.7 3.9 1.1 5.1 1.8 6.3 3.4 14.7-5 13.6 0.3 3.2 5.9 6.9 4.8 11.2-1.3 4.7-9.3 2.6-8.5 9.4 0.3 3.1 4.3 4.8 5 7.9 0.8 3.1-0.2 5.6-3.1 6.5-2.1 0.6-9.4 0.8-6.7 4.4 0.6 0.8 1.9 1 2.6 2 1.5 2.3 1.1 5.9-1 7.6-0.8 0.6-2.6 0.6-3.2 1.3-2.7 2.8 1.9 3.2 3.2 4.8 2.5 2.9 1.3 7-0.8 9.7-0.6 0.7-1.9 0.2-1.7-0.8z"/>
			<path id="&lt;Path&gt;" class="s8" d="m146 120c0.9-3.4 0.6-6.1 0-9.5-0.3-1.6-0.6-3.2-0.1-4.8 0.7-2.4 7.1-8.9 1.8-9.8-0.6-0.1-1.1-0.8-1-1.4 0.5-2.5 1.8-4.3 2.7-6.6 1.7-4.1-0.3-6.6-0.2-10.5 0.1-5.2 4.8-9.6 0.2-14.4-0.5-0.5-0.3-1.3 0-1.8 1.7-2.4 1.7-6.8 1-9.5 0-0.1 0.1-0.2 0.2-0.1 0.7 1.3 1.6 2.8 1.9 4.2 0.3 1.8-0.5 3.5-0.3 5.1 0.3 1.7 1.7 3 2 4.6 0.4 1.6 0.2 3.2-0.2 4.8-0.3 1.5-1 3-1.5 4.5-0.9 2.8-0.4 4.5 0 7.3 0.8 4.7-2 7.5-3.1 11.6 3.9 1.1 3.7 4.5 1.7 8.1-1.8 3.5-2.4 5.3-1.8 9.4 0.5 3.6 1.1 6.8-1.6 9.5-0.6 0.6-1.9 0.3-1.7-0.7z"/>
			<path id="&lt;Path&gt;" class="s8" d="m3.5 77.6c0.1-1.3 0.8-2.7 1.8-3.5 0.5-0.3 1.3-0.2 1.6 0.3 0.7 1 1 2.5 0.7 3.8-0.2 1.1-1.2 1.9-2.3 1.7-1.2-0.2-1.8-1.2-1.8-2.3z"/>
			<path id="&lt;Path&gt;" class="s8" d="m8.5 53.6c0.3-1.9 3.1-1.4 2.9 0.4-0.3 1.8-3.1 1.4-2.9-0.4z"/>
			<path id="&lt;Path&gt;" class="s8" d="m7.1 97.4c-1.6-0.7-1.6-2.5-1.5-4.1 0-0.6 0-1.2 0.1-1.9 0.2-0.9 0.7-1.5 1.2-2.2 0.7-1.2 3-0.6 3 0.8 0 0.7 0.2 1.3 0.1 1.9-0.1 0.6-0.2 1.1-0.2 1.7 0 1.2 0.4 2.3-0.5 3.2-0.5 0.7-1.4 0.9-2.2 0.6z"/>
			<path id="&lt;Path&gt;" class="s8" d="m21.6 66c0.2-2 3.3-1.5 3 0.5-0.3 1.9-3.3 1.5-3-0.5z"/>
			<path id="&lt;Path&gt;" class="s8" d="m26.7 29c0.7-1.7 3.3-1.6 4 0.1 0.2 0.4 0.2 0.8 0.4 1.3-0.2-0.6 0 0.2 0.1 0.5 0 0.3-0.1 0.6-0.1 0.9 0 1.3-0.9 2.5-2.3 2.5-2.7 0-2.8-3.4-2.1-5.3z"/>
			<path id="&lt;Path&gt;" class="s8" d="m13.2 46c0-0.5 0-1 0.1-1.5 0.2-1.3 2.2-1 2.1 0.3-0.1 0.6-0.2 1-0.4 1.5-0.2 0.9-1.8 0.7-1.8-0.3z"/>
			<path id="&lt;Path&gt;" class="s8" d="m20.1 59.3c-2.8-2.9-2.1-8.4 0.9-10.9 0.4-0.7 1-1.3 1.7-1.8 1.2-0.8 3.1-0.5 3.6 1 1.3 4.1 0.1 7.6-1.8 11.2-1 1.9-3.1 2-4.4 0.5z"/>
			<path id="&lt;Path&gt;" class="s8" d="m14.7 107c0.3-1.9 3.2-1.5 2.9 0.4-0.2 1.9-3.2 1.5-2.9-0.4z"/>
			<path id="&lt;Path&gt;" class="s8" d="m6 71.8c-3.1-3.7-1.9-9.9 1.8-12.8 0.8-0.6 2.1-0.7 3-0.3 1.4 0.7 1.7 1.7 1.6 2.8 0.5 0.3 0.8 0.8 0.9 1.4 0.4 3.6-1 6.1-2.8 9-1.1 1.7-3.5 1.2-4.5-0.1z"/>
			<path id="&lt;Path&gt;" class="s8" d="m20.8 75.7c0.2-1.1 1.8-0.9 1.7 0.2-0.2 1.1-1.8 0.8-1.7-0.2z"/>
			<path id="&lt;Path&gt;" class="s8" d="m22.6 91.5c-1.4-0.4-2.6-1.9-2.2-3.4q0.4-1.7 1.4-3c-0.3-0.8-0.3-1.7-0.1-2.5 0.9-3.1 4.7-3 5.5 0.1q0.1 0.7 0.3 1.4 0.1 0.3 0.1 0.6 0.1 1-0.2 2c-0.2 1.1-0.6 2.1-1.1 3.1-0.8 1.3-2.2 2.2-3.7 1.7z"/>
			<path id="&lt;Path&gt;" class="s8" d="m49.8 55.3c-0.2-0.3-0.4-0.5-0.5-0.8-0.1-0.3-0.2-0.5-0.4-0.8-1-1.2 0.9-2.6 1.9-1.4 0.5 0.8 1 2 0.4 2.8-0.4 0.5-1.2 0.8-1.4 0.2z"/>
			<path id="&lt;Path&gt;" class="s8" d="m49.8 48.8c0.9 0 1.6 0.5 1.8 1.4 0.3 1.5-0.5 2.5-0.9 3.9-0.2 0.7 0.2 1.5 0.2 2.4q0.1 0.2 0.1 0.3c0 0.9-0.6 2-1.6 2-5.6 0.1-4.6-9.9 0.4-10z"/>
			<path id="&lt;Path&gt;" class="s8" d="m51.1 34.8c-0.5-0.4-0.7-0.9-0.7-1.5-0.1-1.1 0.8-2.1 1.9-1.9 1.2 0.2 1.7 1.4 1.3 2.4-0.2 0.6-0.5 1-1.1 1.2-0.4 0.2-1.1 0.1-1.4-0.2z"/>
			<path id="&lt;Path&gt;" class="s8" d="m31.2 120.9c-0.8-1.6-0.6-3.7 0.1-5.4 0.4-1 1.3-2.4 2.5-2.8q-0.2-0.4-0.3-0.9c-0.1-1.1 1.2-2.2 2.3-1.6 1.8 1.1 2.4 3.2 2 5.2-0.1 1-0.5 2.1-1 3-0.4 0.9-1.5 1.7-1.8 2.6-0.7 1.8-3.1 1.4-3.8-0.1z"/>
			<path id="&lt;Path&gt;" class="s8" d="m49.5 10.7q-0.1-0.2-0.2-0.3c-0.6-0.8-0.6-1.8-0.1-2.7 0.5-0.7 1.4-1.3 2.3-1.1 2.1 0.4 2.8 3 1.1 4.3q-0.1 0.1-0.3 0.2c-0.8 0.7-2.2 0.5-2.8-0.4z"/>
			<path id="&lt;Path&gt;" class="s8" d="m30.9 135.1c-1.1-0.9-1.3-2.6-1.3-3.9 0-1.2 0.2-2.4 0.8-3.4 0.7-1.3 1.9-2 3.3-2.2 1-0.1 1.9 0.7 2.1 1.7q0 0.2 0 0.3c1.3 0.3 2.4 1.7 2.1 3.1q-0.3 1.8-0.9 3.6c-0.2 0.9-1.3 1.5-2.2 1.6-1.3 0.3-2.8 0-3.9-0.8z"/>
			<path id="&lt;Path&gt;" class="s8" d="m112.2 110.2c4-5.1 5.4-10.7 1.3-16.3-0.7-0.8-0.5-2 0.4-2.6 6.8-5.2 3.8-12.7 4.5-19.7 0-0.5 0.7-0.7 1-0.4 6.1 5.5 3.5 16.6-1.9 21.9 1.6 2.7 2.6 5.8 1.9 9-1 4.2-3.7 6-6.8 8.6-0.3 0.2-0.6-0.2-0.4-0.5z"/>
			<path id="&lt;Path&gt;" class="s8" d="m103.1 156.3c0.4-2.4 2.1-4.1 2.8-6.4 0.9-3.5 0.4-6.5-0.5-9.9-0.2-0.5-0.1-1 0.4-1.4 3.1-2.5 8.8-7.1 4.1-11.5-0.7-0.6-0.9-1.7-0.3-2.4 2.6-2.8 7.1-10.3 1.9-12.9q0 0 0 0c9-1.7 5 9.3 1.6 13.9 3.7 5-1 10.1-5.1 13.9 3.5 5.1 3.8 19.3-4.1 17.8-0.5-0.1-1-0.6-0.8-1.1z"/>
			<path id="&lt;Path&gt;" class="s9" d="m36.3 140.3c-0.6-2.6-0.3-5.5 1.3-7.7 1.2-1.7 4-2.5 3.8-4.9-0.1-1.6-2.8-4.3-3.6-5.7-1-1.7-2-3.4-2-5.4 0-2.5 1.2-4.9 2.9-6.8 2.3-2.6 4.7-3.3 4.7-7.3 0-2.3-1.1-4.6-0.7-7 0.4-2.8 2.5-4.9 3.5-7.4 2.4-6.2-4-10.6-0.9-16.8 1-2 2.6-3.1 4.2-4.6 3.3-3.1 1.5-5.1 1.2-8.9-0.2-3.4 0.2-6.2 2.4-8.1q-1.3-1.2-3-1.9c-1.4-0.6-1.9-2.6-0.9-3.7 2.4-2.9 6.8-10.4 3-13.6-2-1.7-4.7-1.9-5.9-4.6-2.5-5.6 2.1-9.1 6.9-10.1-0.1-1-0.1-2-0.3-3-0.4-2.9 3.8-3.2 4.5-0.5 0.4 1.8 0.5 3.6 0.8 5.4 0.2 1.7-1.3 2.7-2.8 2.6q-3.8-0.6-4.1 4.3 0.9 0.6 2 1.1c0.7 0.4 1.5 0.7 2.2 1.2 1.6 1.2 2.5 2.8 2.8 4.9 0.7 4.3-1.1 9.2-3.6 13 1.5 1 2.8 2.3 4 4.1 0.8 1.2 0.5 3.1-1 3.6-5 1.7-0.4 8.6-1.6 12.3-1.4 4.5-7.3 6-7.5 10.6-0.1 4.5 3.3 7.3 1.7 12.2-0.9 2.8-3.3 4.7-4.2 7.4-0.8 2.5-0.1 5.1 0.1 7.7 0.4 3.3-0.1 5.7-2.5 8.1-3.1 3.2-4.4 5.6-1.9 9.8 0.9 1.5 2 2.6 3.2 3.9 2.1 2.5 1.8 5.4 0.6 8.4-0.7 1.5-2.5 3-2.8 4.5-0.9 3.9 3.9 6.5 6 9 1.2 1.4 0 3.6-1.7 3.8-5.3 0.8-9.8-5.2-10.8-9.9z"/>
			<path id="&lt;Path&gt;" class="s9" d="m115.1 96.4c-5.1-2.4-4-8.3-2.6-12.8 1-3.2 2.2-6.3 2.8-9.6 0.5-2.9-0.2-5.2-0.6-8 0-0.4 0.1-0.7 0.4-0.8 6-2.5 6.4 6.8 5.8 10.3-0.5 3.3-1.7 6.6-2.7 9.8-1.1 3.6-0.5 7.5-2.3 10.8-0.1 0.3-0.5 0.5-0.8 0.3z"/>
			<path id="&lt;Path&gt;" class="s9" d="m118 39.9c0.8-3.6 5.4-14.2 10.7-11.2 0.5 0.3 0.7 0.7 0.5 1.3-0.7 2.3-3.6 3.4-5 5.4-1.9 2.8-2.5 5.9-3.1 9.1-0.3 1.4-1.1 3.8 0.4 4.7 2.1 1.3 4.6-1.3 5.5-2.9 0.9-1.6 1.4-3.4 1.3-5.2 0-0.8-0.1-1.5-0.3-2.2q0-0.2 0-0.3-0.1 0.1-0.2 0.2c-0.9 1.4-3.2 0.3-2.9-1.3 0.3-1.9 1.5-3.9 3.8-3.4 2.1 0.4 3 3 3.3 4.9 1 5.1-2.1 12.5-8 13.1-6.1 0.7-7-7.8-6-12.2z"/>
			<path id="&lt;Path&gt;" class="s9" d="m126 105.9c-2.8-1.9-2.1-8.3 1.6-8.7 0.5 0 1.1 0.3 1.3 0.8 0.5 1.5-0.2 2.6-0.5 4.1-0.1 0.3-0.2 1.1-0.2 1.2 0 0.4-0.2 1.3 0 1.6-0.1-0.2 0.2 0.1 0.3 0.2 0.4 0.1 0.7 0.1 1-0.1 1.2-0.3 2-1.6 2.5-2.7 1.3-2.5 1.2-5.2 0.2-7.8-0.4-0.8-1.1-1.9-2-2-1.5-0.1-2.2 2-2.7 3 0 0-0.1 0-0.1-0.1 0.2-1.8 1.5-4.4 3.7-3.5 2.3 0.9 3.4 3.8 3.5 6 0.2 2.9-1 6.2-3.3 8.1-1.8 1.4-3.5 1.1-5.3-0.1z"/>
			<path id="&lt;Path&gt;" class="s9" d="m121.1 137.7c-1-0.6-0.4-2.4 0.7-2.5 1.4-0.1 2.4 0.6 3.6 0.6 0.7 0 1.6-0.2 1.9-0.9 0.4-0.7 0.5-1.7 0.6-2.4 0.2-0.8 0.1-1.8 0-2.7-0.1-1.9-0.3-3.9-1.2-5.5-0.3-0.7-0.8-1.3-1.3-1.6-0.4-0.4-0.7-0.5-1.1-0.4 0.1 0-0.4 0.2-0.5 0.3-0.3 0.3-0.5 0.7-0.7 1.1-0.8 1.6-1.3 3.4-2 5-0.8 1.6-3.2 0.9-3-0.9 0.2-2.9 2.1-6.7 4.9-7.9 2.1-1 4.1 0.3 5.3 1.9 0.8 0.9 1.2 2 1.7 3.1 0.5 1.2 1.1 2.3 1.2 3.7 0.3 2.3 0 5.7-2 7.2-2.2 1.7-5.4 3.6-8.1 1.9z"/>
			<path id="&lt;Path&gt;" class="s9" d="m155.4 87.6c0.6-1.4 1.1-2.7 1-4.3-0.1-0.4-0.8-3.4-1.2-2.4-0.6 1.2-2.5 0.5-1.9-0.8 0.9-1.8 2.5-6.1 1.2-7.9-1-1.6 1.4-3.3 2.3-1.7 1.4 2.2 0.6 5.5-0.5 8.1 0.6 0.3 1 0.7 1.4 1.4 1.5 2.6 0.9 6.5-2 7.9-0.2 0-0.3-0.2-0.3-0.3z"/>
			<path id="&lt;Path&gt;" class="s9" d="m151.6 108.1c0.1-1.7 1.3-2.2 1.9-3.7 1-2.2 0.8-4.6-0.3-6.7-0.3-0.5-0.1-1.3 0.4-1.6 3.3-2 3.3-5.6 1.1-8.4-0.1-0.1 0-0.4 0.2-0.4 4.5 1.3 3.7 7 1.3 10.1 1.8 3.9 1.6 12.7-3.8 11.7-0.5-0.1-0.9-0.5-0.8-1z"/>
			<path id="&lt;Path&gt;" class="s9" d="m11.5 117.6c-0.9-1.1-1.2-2.4-1.3-3.8 0-2.5 1.1-6.3 3.5-7.5 0.4-0.3 1.1 0.2 0.9 0.7-0.5 2-1.7 3.6-2 5.7-0.3 2.5 0.9 3.9 2.9 5 0.6 0.3 0.5 1.2-0.2 1.3-1.6 0.1-2.7-0.1-3.8-1.4z"/>
			<path id="&lt;Path&gt;" class="s9" d="m13.4 105.3c0.2-2.5 0.9-3.9 1.9-6 1.5-3.3 0.7-5.5 0-9-0.7-3.8 0.3-6.2 2.7-8.8-3.1-3.3-3-9 0.7-11.6-2.2-4 0.3-11.5 5.4-10.2 0.4 0.1 0.7 0.5 0.5 0.9-1.2 2.5-6.6 5.7-3 8.7 0.7 0.6 0.6 2-0.4 2.3-3.9 1.3-3.7 6.9-0.6 8.9 0.5 0.3 0.6 1.3 0.2 1.7-4.8 5.2-1.9 8.1-2.6 14.1-0.5 3.6-3.5 5.7-4.7 9 0 0.1-0.1 0-0.1 0z"/>
			<path id="&lt;Path&gt;" class="s9" d="m28.6 60.3c0.8-2.8 2.1-5.9-2-7.5-0.5-0.2-0.7-0.8-0.5-1.3 1.1-2.1 2.8-4.5-0.7-6.6-0.3-0.3-0.5-0.6-0.5-1 0.1-1.4 0.3-2.8 0.5-4.2q0.1-0.1 0.3-0.2c4.1-0.6 6.9-5.4 6.8-9.3-0.2-3.5-2.4-5.5-4.8-7.5-0.9-0.7 0-1.8 0.9-1.5 6.5 1.9 8.4 12.4 2.9 16.5-1.8 1.3-7.4 1.5-4.6 5.4 0.5 0.7 2.2 0.8 2.9 1.8 1.3 2.3 0.5 4.8-1 6.7 3.3 1.9 4.2 6.4 0.8 9.3-0.4 0.3-1.1-0.1-1-0.6z"/>
			<g id="&lt;Group&gt;" style="opacity: .7;mix-blend-mode: multiply">
				<path id="&lt;Path&gt;" class="s10" d="m109 6.2c28 10.7 48.8 36.6 51.3 68.4 3.6 44.1-29.2 82.7-73.3 86.3-23 1.8-44.5-6.2-60.3-20.6 10.4 1.9 20.9 0.6 31.3-1.1 40-6.3 72.9-49.6 68.8-89.8-1.4-14.2-7.9-30.3-17.8-43.2z"/>
			</g>
			<g id="&lt;Group&gt;" style="opacity: .5;mix-blend-mode: multiply">
				<path id="&lt;Path&gt;" class="s10" d="m12 122.5c7.9-3.7 16-6.7 21.7-9.3 41.7-19.7 49.7-68.7 41.2-112 32-2.2 61 14.7 75.7 41.1 6.9 21.3 4.8 43.7-4.1 64.6-10.5 24.8-30 39.5-53.7 52q-1.8 0.9-3.5 1.7-1.1 0.2-2.3 0.3c-31.2 2.5-59.7-13.3-75-38.4z"/>
			</g>
			<g id="&lt;Group&gt;" style="opacity: .3;mix-blend-mode: overlay">
				<path id="&lt;Path&gt;" class="s11" d="m8.3 64.8c5.4-13.1 10.2-26.9 20.8-37.4 9.7-9.8 29.7-24.9 44.2-23.4 42.8 4.5 30.6 55.5 12.9 81.3-19.5 28.5-80.5 50.1-76.3-6z"/>
			</g>
			<g id="&lt;Group&gt;" style="opacity: .4;mix-blend-mode: overlay">
				<path id="&lt;Path&gt;" class="s11" d="m27.3 63.1c-7-7.4-0.1-22.1 5.9-28.2 3.4-3.4 6.5-5.2 10.6-7 6.3-2.7 5.9-4.7 10.9-8.9 12.2-10 21.8 3.8 25.3 14.2 5 14.8-0.1 31.9-9.8 43.9-7.6 9.4-32.8 26.2-33.3 1.9-3.2 8.4-10.8-1.5-9.6-15.9z"/>
			</g>
			<path id="&lt;Path&gt;" class="s12" d="m52 155.8c-1.2-0.6-0.7-2.5 0.7-2.3 8.1 1.3 16.5 2.9 24.7 2.6 7.4-0.3 14.8-1.8 22.1-3.6 12.4-3 23.5-8.1 32.7-17.2 9.7-9.7 15.7-22.9 19.1-36 1.9-7.6 3.1-15.5 3-23.4-0.1-6.4-2.4-13.1-1.8-19.4 0-0.3 0.3-0.4 0.5-0.2 4.7 4.4 5.4 13 5.7 19.1 0.4 8.3-0.5 16.6-2.4 24.7-3.4 14.3-9.9 28.5-20.5 39-9.2 9.2-22.1 14-34.5 17.3-16.5 4.4-33.4 6.7-49.3-0.6z"/>
		</g>
	</g>
</svg>