<svg version="1.2" xmlns="http://www.w3.org/2000/svg" viewBox="0 0 52 48" width="52" height="48">
	<title>planets</title>
	<style>
		.s0 { fill: #8f5d17 } 
		.s1 { opacity: .4;fill: #321c13 } 
		.s2 { opacity: .2;mix-blend-mode: overlay;fill: #f96974 } 
		.s3 { opacity: .3;mix-blend-mode: multiply;fill: #50005b } 
		.s4 { opacity: .2;mix-blend-mode: screen;fill: #ffb6bf } 
		.s5 { opacity: .3;mix-blend-mode: multiply;fill: #321c13 } 
	</style>
	<g id="planets">
		<g id="-e-">
			<g id="&lt;Group&gt;">
				<path id="&lt;Path&gt;" class="s0" d="m42.6 7.9c8.5 10 7.2 24.9-2.8 33.3-10 8.5-24.9 7.2-33.3-2.8-8.4-10-7.2-24.9 2.8-33.3 10-8.4 24.9-7.2 33.3 2.8z"/>
				<path id="&lt;Path&gt;" class="s0" d="m42.6 7.9c8.5 10 7.2 24.9-2.8 33.3-10 8.5-24.9 7.2-33.3-2.8-8.4-10-7.2-24.9 2.8-33.3 10-8.4 24.9-7.2 33.3 2.8z"/>
				<path id="&lt;Path&gt;" class="s1" d="m11.5 20.1c-3.3-1.7-4.4 3-0.4 2.1 0 0.5 0.3 1.1 0.3 1.5 2.6-0.4 2.8-3.3 0.4-4.3z"/>
				<path id="&lt;Path&gt;" class="s1" d="m18.6 11.8c-1-0.4-2-1-3-1.5 0.4-1.7 1.3-1.9 2.3-0.4 0.8-0.4 3.7-2.4 4.6-2.4 5.1 0.5 2.3 9.8-3.5 5.3z"/>
				<path id="&lt;Path&gt;" class="s1" d="m18.4 22.9c0.6-0.2 1.1-0.3 1.5-0.9-0.8-1.5-2.6-2.1-3.8-0.7-1.7 1.9 0.6 2.9 1.1 4.4 0.5 1.2-1 1.8 0.8 3.1 1.2 0.9 3.4 0.4 4.4-0.6 2.7-2.6-0.3-5.1-3-5.7z"/>
				<path id="&lt;Path&gt;" class="s1" d="m21.5 18.9c0.1 2.2 1.5 3.8 3.4 2.1-0.4-1.7-1.8-2.4-3.4-2.5z"/>
				<path id="&lt;Path&gt;" class="s1" d="m27.8 14.1c-1.7-0.8-2.4 0.4-2 2.1 0.8 2.7 2.4 0.6 3.7 1.3 1.7 1 1 3.1 2.1 3.8 1.4 0.9 3.3-0.2 2.9-1.9-0.1-0.1 0.6 0.7 0.5 0.5 1-1.6-1.2-2.4-1.9-2.1 0.9-1.7-0.1-6-1.6-3.7 2-2.8-4.5-2.9-3.5 0.7z"/>
				<path id="&lt;Path&gt;" class="s1" d="m8.5 28.9c0.3-0.1 0.7 0.3 1-0.4-1.8-3.4-4.4 1.8-1.6 3.1-1.6-0.5-1.9 3.6 1.5 3.2 3.5-0.5 3.2-5.8-0.5-4.8z"/>
				<path id="&lt;Path&gt;" class="s1" d="m26.7 38.6c-0.5 5-11.6 2.8-9.2-1.2 1.2-2 2.8 0.4 4.5-0.5 0.9-0.5 3.3-5.8 4.1-1.1 0.8-3.6 7.3 2 0.6 2.8z"/>
				<path id="&lt;Path&gt;" class="s1" d="m19.4 34.8c2 2.4 3-1.2 0-0.8-0.5 0.7 0.1 0.5 0.2 1.1z"/>
				<path id="&lt;Path&gt;" class="s1" d="m29.3 25.5c0 1.7 1.4 2.8 3 1.5 0-1-0.4-1.8-1.2-2.5-1 0.4-0.8 0.8-0.9 1.6z"/>
				<path id="&lt;Path&gt;" class="s1" d="m42.7 30.6c0.4 0.3 0.2 0.6 0.9 0.6 0.8-1.6-0.4-3.6-2-1.9z"/>
				<path id="&lt;Path&gt;" class="s1" d="m40.2 19.1c0.3 0.2 0.4 0.5 0.7 0.7 0.8-1.1 0.4-2.1-1-2.7-0.6 0.5-0.2 0.8-0.1 1.4z"/>
				<path id="&lt;Path&gt;" class="s1" d="m33.3 7.7l-0.5 0.4c0.6 1 1.6 1.6 2.7 1.7-0.3-1.3-0.8-1.9-2.2-2.1z"/>
				<path id="&lt;Path&gt;" class="s1" d="m9.4 11.1c-0.3-0.1-0.6 0-0.8 0.2-0.1 0.1-0.2 0.1-0.3 0.2q0 0 0.1 0-0.1 0-0.1 0.1-0.1 0-0.1 0c-0.3 0.2-0.3 0.6-0.4 0.9 0 0.3-0.1 0.5 0.1 0.8 0.1 0.2 0.3 0.4 0.5 0.6 0.4 0.2 0.9 0.2 1.3-0.1q0.1-0.1 0.1-0.1 0.1-0.1 0.1-0.1c0.2-0.1 0.4-0.3 0.4-0.5q0.1-0.4 0-0.7c-0.1-0.3-0.2-0.6-0.3-0.8-0.2-0.3-0.3-0.4-0.6-0.5z"/>
				<path id="&lt;Path&gt;" class="s1" d="m14.3 15.2c-0.4 0.1-0.8 0.7-0.5 1.1 0.4 0.4 1.1 0.1 1.2-0.3 0.3-0.5-0.2-1.1-0.7-0.8z"/>
				<path id="&lt;Path&gt;" class="s1" d="m12.4 4.9c-0.6 0.5 0.2 1.4 0.7 0.9 0.6-0.5-0.1-1.4-0.7-0.9z"/>
				<path id="&lt;Path&gt;" class="s1" d="m20.4 3.6c-0.6 0.5 0.2 1.4 0.7 0.9 0.6-0.5-0.1-1.3-0.7-0.9z"/>
				<path id="&lt;Path&gt;" class="s1" d="m33.5 33.8c-0.7-0.3-1.2 0.6-0.8 1.2q0.2 0.3 0.4 0.6c0 0.2 0 0.5 0 0.7 0.1 0.5 0.7 0.7 1.1 0.4q0.2 0.2 0.4 0.3c0.5 0.2 1-0.4 0.8-0.9q-0.2-0.3-0.4-0.5 0.1-0.4 0.1-0.7c-0.1-0.7-1-0.9-1.6-1.1z"/>
				<path id="&lt;Path&gt;" class="s1" d="m30.8 36.8c-0.2 0.1-0.3 0.2-0.5 0.1-0.3 0-0.6 0.2-0.6 0.5 0 0.3 0.2 0.5 0.5 0.6 0.4 0.1 0.8 0 1.1-0.3 0.2-0.2 0.3-0.5 0.1-0.7-0.1-0.2-0.4-0.3-0.6-0.2z"/>
				<path id="&lt;Path&gt;" class="s1" d="m35.4 28.2c-0.5-0.5-1.3 0.1-0.8 0.6 0.1 0.2 0.2 0.3 0.4 0.4 0.4 0.1 0.7-0.2 0.7-0.5-0.1-0.2-0.2-0.4-0.3-0.5z"/>
				<path id="&lt;Path&gt;" class="s1" d="m40.5 23.2c-0.6 0.4 0.1 1.2 0.7 0.8 0.5-0.5-0.2-1.3-0.7-0.8z"/>
				<path id="&lt;Path&gt;" class="s1" d="m37.8 17.2c-0.6 0.5 0.1 1.3 0.7 0.9 0.5-0.5-0.2-1.3-0.7-0.9z"/>
				<path id="&lt;Path&gt;" class="s1" d="m41.3 11.9c-0.2 0.3-0.4 0.7-0.4 1 0 0.5 0.2 1 0.3 1.4 0.1 0.3 0.5 0.5 0.8 0.5q0.1-0.1 0.2-0.1c0.3 0.1 0.6 0 0.8-0.3 0.2-0.4 0.7-1 0.4-1.6 0-0.1-0.1-0.2-0.2-0.3-0.3-0.3-0.3-0.4-0.5-0.7-0.3-0.6-1.1-0.5-1.4 0.1z"/>
				<path id="&lt;Path&gt;" class="s1" d="m40.9 34.3q-0.1-0.2-0.2-0.3-0.2-0.2-0.5-0.4c-0.3-0.3-0.8-0.2-1 0.1q-0.2 0.1-0.3 0.2c-0.4 0.5-0.6 1.1-0.5 1.7 0.2 0.5 0.5 0.8 0.9 1q0.1 0.1 0.2 0.1 0.1 0.1 0.3 0.3c0.4 0.3 1.1-0.1 1.1-0.6 0-0.4 0.1-0.9 0-1.4q0 0 0 0c0.2-0.2 0.3-0.5 0-0.7z"/>
				<path id="&lt;Path&gt;" class="s1" d="m27.5 41.3q-0.1-0.1-0.2-0.2c-0.3-0.1-0.6-0.1-0.8 0.1-0.2 0.2-0.2 0.6 0 0.8 0.3 0.3 0.8 0.8 1.3 0.8 0.3 0 0.6-0.2 0.7-0.5 0.2-0.3 0.1-0.7-0.2-1-0.2-0.3-0.5-0.2-0.8 0z"/>
				<path id="&lt;Path&gt;" class="s1" d="m43.4 32.3c-0.5-0.5-1.2 0.1-0.8 0.7 0.1 0.2 0.2 0.3 0.5 0.4 0.3 0.1 0.7-0.2 0.6-0.6 0-0.2-0.1-0.3-0.3-0.5z"/>
				<path id="&lt;Path&gt;" class="s1" d="m26.6 29.1c-0.3-0.2-0.7-0.4-1.1-0.2q-0.2 0.1-0.3 0.3 0 0 0-0.1c-0.3-0.1-0.5 0.1-0.6 0.3q-0.2 0.3 0 0.5c0 0.3 0.2 0.7 0.5 0.9 0.6 0.4 1.3-0.2 1.7-0.6 0.4-0.3 0.3-1-0.2-1.1z"/>
				<g id="&lt;Group&gt;">
					<path id="&lt;Path&gt;" class="s1" d="m13.9 34q0 0 0 0z"/>
					<path id="&lt;Path&gt;" class="s1" d="m15.5 33.8q0 0-0.1 0-0.1 0-0.2-0.1h-0.1q0 0 0 0c-0.1-0.2-0.2-0.3-0.4-0.3-0.4-0.1-0.9 0.1-0.8 0.6q0.1 0.1 0.1 0.1-0.1 0.1-0.1 0.2c0 0.2 0.1 0.6 0.4 0.6q0.2 0.1 0.5 0.1 0 0 0 0 0.2 0 0.5 0c0.3 0 0.6-0.1 0.6-0.5 0.1-0.3-0.1-0.6-0.4-0.7z"/>
					<path id="&lt;Path&gt;" class="s1" d="m13.9 34c0-0.2 0 0 0 0z"/>
				</g>
				<path id="&lt;Path&gt;" class="s1" d="m10.3 37.1c-0.3-0.1-0.9 0.2-0.8 0.6-0.3 0-0.6 0.3-0.4 0.6 0.5 1.5 1.9 2.5 3.4 2.4 0.4-0.1 0.6-0.5 0.6-0.8-0.3-1.4-1.4-2.4-2.8-2.8z"/>
				<path id="&lt;Path&gt;" class="s1" d="m27.1 3.3q0 0 0 0c-0.1-0.2-0.2-0.4-0.4-0.5q-0.2 0-0.3-0.1-0.3 0-0.6 0.1-0.2-0.1-0.5-0.2c-0.6-0.2-1.2 0.5-0.7 1q0.3 0.4 0.7 0.5c0.6 0.3 1 0.6 1.7 0.4 0.6-0.2 0.7-1 0.1-1.2z"/>
				<path id="&lt;Path&gt;" class="s1" d="m35.9 4.2q-0.1-0.1-0.3-0.1-0.1-0.1-0.1-0.1c-0.3-0.5-0.8-0.2-1 0.2-0.2 0.1-0.2 0.5 0.1 0.7 0 0.4 0.1 0.7 0.3 1 0.4 0.6 1.2 0.3 1.7 0.1 0.3-0.2 0.5-0.5 0.3-0.8-0.2-0.5-0.5-0.9-1-1z"/>
				<path id="&lt;Path&gt;" class="s1" d="m33.9 41.5c-0.4-0.3-1.2-0.1-1.2 0.5-0.1 0.4 0.4 0.7 0.8 0.6q0.1 0 0.3 0.1c0.4 0 0.6-0.6 0.3-0.8q-0.1-0.2-0.2-0.4z"/>
				<path id="&lt;Path&gt;" class="s1" d="m21.7 43.8c-0.2-0.1-0.4-0.1-0.6-0.1-0.8-0.1-0.9 1.2-0.1 1.3 0.2 0 0.4 0 0.6-0.1 0.6-0.1 0.6-0.8 0.1-1.1z"/>
				<path id="&lt;Path&gt;" class="s1" d="m5.1 16.9c-0.4-0.4-1.1 0-0.9 0.6q0.1 0.2 0.2 0.3c-0.5 0.1-0.4 0.9 0.1 0.9q0 0 0 0 0.1 0 0.1 0.1 0.2 0.1 0.4 0.2c0.5 0.2 0.9-0.2 1.1-0.6 0.1-0.2 0.1-0.5 0-0.6-0.3-0.3-0.7-0.6-1-0.9z"/>
				<path id="&lt;Path&gt;" class="s1" d="m5 24.9c-0.5-0.3-1.5-0.4-1.5 0.4 0 0.3 0.1 0.5 0.4 0.6q0.1 0.2 0.4 0.4c0.4 0.3 0.9-0.2 0.8-0.6 0.2-0.2 0.2-0.6-0.1-0.8z"/>
				<path id="&lt;Path&gt;" class="s1" d="m28.7 20.7c-0.2-0.1-0.4-0.2-0.6-0.2q0 0 0 0c-0.2-0.6-1.1-0.5-1.3 0q-0.1 0.3-0.1 0.6c-0.2 0-0.2 0.1-0.3 0.2-0.1 0.1-0.1 0.5 0 0.6q0.1 0.3 0.4 0.4 0.3 0.2 0.6 0.2 0.2 0 0.5-0.1c0.4 0.1 0.8 0.1 1-0.2q0-0.1 0.1-0.2 0.1-0.1 0.1-0.3c0.1-0.4-0.2-0.7-0.4-1z"/>
				<path id="&lt;Path&gt;" class="s1" d="m36.7 21.2c-1 0.6-1.8 1.5-2 2.7q-0.1 0.8 0.1 1.5 0.1 0.6 0.3 1.2c0.2 0.4 0.8 0.7 1.1 0.4q0.1 0 0.3-0.1c0.2-0.1 0.5-0.2 0.7-0.3 0.4-0.3 0.4-0.7 0.5-1.1 0.6-1.2 0.7-2.6 0.1-3.9-0.2-0.4-0.7-0.7-1.1-0.4z"/>
				<path id="&lt;Path&gt;" class="s1" d="m44.1 22.6c-0.3 0.3-0.5 0.7-0.4 1.1q0 0.3 0.1 0.4 0 0.1-0.1 0.2c0 0.1 0.1 0.3 0.1 0.2q0-0.1 0 0.1 0 0.1 0 0.2 0.1 0.1 0.2 0.2 0 0.1 0 0.1-0.1-0.2 0.1 0.1 0.1 0.1 0.2 0.1c0.4 0.3 0.9 0.1 1-0.4 0.1-0.6 0-1.2-0.1-1.8-0.1-0.6-0.7-0.8-1.1-0.5z"/>
				<path id="&lt;Path&gt;" class="s2" d="m9.7 6.6c-3.5 0-3.7 3.8-4.9 6.1-1.5 2.9-4.1 5.4-1.4 9.1-4.5 6.4 4.1 14.5 9.8 15 11.7 1 18-12.3 8.3-20 2.1-0.7 2.8-3.8 1.2-5.6 3-0.8 2.8-4.4 0.9-6.5-3.9-4.3-9.9-1.5-13.9 1.9z"/>
				<path id="&lt;Path&gt;" class="s3" d="m39.8 41.2c10-8.4 11.3-23.3 2.8-33.3-6.2-7.4-16.1-10-24.8-7.4q0.5 0.3 1.2 0.6c1.8 0.7 3.9 0.6 5.6 1.3 2.9 1.4 1.3 0.9 2.7 3.4 1.3 2.3 3 2.1 4.5 3.9 1.1 1.1 1 2.9 2.4 4.4-5.2 4.2 4.2 6.7 2.6 10.1-0.6 1.2-2.7 1.3-3.8 2.3-1.5 1.5-2.2 2.5-1.1 4.7-1.7 0.8-5.5 0.4-3.5 3.7-2.2 1.3-3.6 3.2-6.3 3.2-1.8 0-2.5-1.3-4.3-0.8-2 0.5-2.8 3.1-4.6 3.7-1.7 0.7-2.9-0.7-4.4-0.2 8.6 7.7 21.9 8.1 31 0.4z"/>
				<path id="&lt;Path&gt;" class="s2" d="m42.6 7.9c-2.6-3.1-5.8-5.3-9.3-6.7 1 0.7 1.9 1.4 2.5 2 3.2 3.1 5.5 6.6 6.8 10.7 3.8 12.7-1.8 25.3-13.7 30.9-1.2 0.5-3.5 1.2-5.5 2 5.8 0.3 11.6-1.6 16.4-5.6 10-8.4 11.3-23.3 2.8-33.3z"/>
				<path id="&lt;Path&gt;" class="s4" d="m14.3 10.4c-2.7-4.6-8.3 0.1-6.3 4-6.2 1.4-6.6 12.1-1.7 15.6 11.2 8 20.2-11.3 8-19.6z"/>
				<path id="&lt;Path&gt;" class="s4" d="m12 20.1c1.4-6.9-7.1-7.3-7.5 0.4-0.4 9.8 13.3 7.4 8.6-1.3z"/>
				<path id="&lt;Path&gt;" class="s4" d="m7.9 27.5c-0.1 0 0 0.1 0 0.1 0.5-0.1 0.9 0 1.2 0.4 0.3 0.5 0.2 1-0.4 1-0.1 0-0.2 0.1-0.1 0.2 0.1 0.3 0.2 0.6 0.5 0.7q0 0.1 0 0c0-0.2-0.2-0.4-0.3-0.7 1.5-0.1 0.1-2.7-0.9-1.7z"/>
				<path id="&lt;Path&gt;" class="s4" d="m10.2 29.6c-0.1 0-0.1 0.1-0.1 0.2 0.4 0.2 0.7 0.3 1.1 0.5 0.9 0.5 0.9 1.9 0.6 2.8-0.4 1.1-1.9 2-3 2q0 0 0 0c1.2 0.3 2.8-0.7 3.2-1.9 0.3-0.8 0.3-1.8-0.1-2.6-0.3-0.6-1.1-0.7-1.7-1z"/>
				<path id="&lt;Path&gt;" class="s4" d="m12 19.4c-0.1 0-0.1 0.1-0.1 0.1 0.6 0.7 1.5 0.8 1.6 1.9 0.3 1.4-0.9 2.1-2.2 2.4q0 0 0 0c1.3 0 2.5-0.7 2.5-2.1 0.1-1-0.8-2.1-1.8-2.3z"/>
				<path id="&lt;Path&gt;" class="s4" d="m10.1 19.4c-0.5 0-1 0.3-1.3 0.6q0 0.1 0 0.1c0.4-0.2 0.7-0.4 1.2-0.5q0.3 0 0.6 0.1c0.2 0.1 0.4 0.2 0.6 0.3 0 0 0.1-0.1 0.1-0.1-0.2-0.5-0.8-0.5-1.2-0.5z"/>
				<path id="&lt;Path&gt;" class="s4" d="m17.4 8.8c-0.3-0.2-0.8-0.1-1.1 0 0.3 0 0.8 0 1.1 0.2 0.3 0.2 0.3 0.6 0.5 0.9 0.1 0 0.2 0 0.2-0.1 0-0.4-0.3-0.8-0.7-1z"/>
				<path id="&lt;Path&gt;" class="s4" d="m21.6 7.6q0 0 0 0c1.7 0.1 3.3 0.3 3.5 2.3 0.1 1.2-0.6 2.2-1.1 3.2 0 0.2 0.2 0.2 0.2 0.1 1-1.1 1.6-2.8 1-4.2-0.6-1.5-2.2-1.9-3.6-1.4z"/>
				<path id="&lt;Path&gt;" class="s4" d="m8.2 11.5c-0.1 0 0 0.1 0 0.1 0.3-0.3 0.8-0.6 1.2-0.4 0.2 0.1 0.4 0.3 0.5 0.5 0.1 0.2 0 0.3 0.1 0.5 0.1 0.4 0.5 0.6 0.3 1.1-0.2 0.3-0.6 0.5-1 0.7 0 0 0 0.2 0.1 0.2 0.4 0 1-0.5 1.2-0.9 0.2-0.5-0.2-0.8-0.3-1.3-0.2-1.1-1.4-1.3-2.1-0.5z"/>
				<path id="&lt;Path&gt;" class="s4" d="m14.5 15c0 0 0 0.1 0 0.1 0.2 0 0.4 0 0.5 0.1 0.2 0.1 0.2 0.3 0.2 0.5 0 0.4-0.5 0.5-0.8 0.7 0 0.1 0 0.1 0.1 0.1 0.4-0.2 1-0.4 0.9-1 0-0.4-0.5-0.7-0.9-0.5z"/>
				<path id="&lt;Path&gt;" class="s4" d="m4.5 16.6q0 0 0 0c0.5 0.1 1.3 0.6 1.5 1.1 0.3 0.7-0.4 1.1-0.8 1.5-0.1 0-0.1 0.1 0 0.1 0.6-0.1 1.2-0.8 1.1-1.4-0.2-0.7-1.1-1.3-1.8-1.3z"/>
				<path id="&lt;Path&gt;" class="s4" d="m3.4 24.9q-0.1 0.1 0 0.1c0.4-0.1 1-0.2 1.4 0 0.5 0.2 0.4 1.1 0 1.4-0.1 0.1 0 0.3 0.1 0.2 0.6-0.2 0.6-1.2 0.2-1.6-0.4-0.5-1.3-0.4-1.7-0.1z"/>
				<path id="&lt;Path&gt;" class="s4" d="m9.9 37c-0.1 0-0.1 0.1 0 0.1 1.2 0.1 1.8 0.6 2.5 1.5 0.2 0.4 0.6 0.8 0.7 1.2 0.3 1.2-1.4 0.9-2.1 0.8q0 0 0 0c0.9 0.4 2.9 0.4 2.2-1.1-0.6-1.2-1.8-2.9-3.3-2.5z"/>
				<path id="&lt;Path&gt;" class="s4" d="m15.3 33.8c0-0.5-0.5-0.7-0.9-0.6-0.1 0-0.2 0.1-0.1 0.1 0.4 0.1 0.9 0 0.8 0.6 0 0.1 0.1 0.1 0.1 0.1 0.5-0.1 0.8 0.4 0.5 0.8-0.2 0.4-0.9 0.2-1.2 0.2 0.5 0.2 1.4 0.4 1.5-0.4 0.1-0.5-0.2-0.9-0.7-0.8z"/>
				<path id="&lt;Path&gt;" class="s4" d="m21.4 23.1c-0.3-0.1-0.6-0.3-1-0.4-0.7-0.3-0.4-0.1-0.4-0.3 0-0.2 0.1-0.3 0.1-0.5-0.2-0.7-1.3-1.2-1.9-1.5-0.1 0-0.2 0.2-0.1 0.2 0.3 0.2 2.3 1.3 1.4 1.8-0.1 0-0.1 0.2 0 0.2 1.7 0.6 3.6 1.7 3.7 3.7 0.1 1.5-1.2 2.1-2.2 2.9q0 0 0 0c1-0.4 2.2-1.1 2.5-2.3 0.3-1.5-0.9-3-2.1-3.8z"/>
				<path id="&lt;Path&gt;" class="s4" d="m21.5 18.6c0 0 0 0 0 0 1.1-0.1 1.9 0.2 2.6 0.9 0.3 0.4 0.7 0.7 0.6 1.2-0.2 0.5-0.7 0.5-1.1 0.9-0.1 0 0 0.2 0.1 0.2 0.5-0.2 1.2-0.4 1.3-0.9 0.2-0.5-0.2-1-0.5-1.3-0.7-1-1.8-1.5-3-1z"/>
				<path id="&lt;Path&gt;" class="s4" d="m28.8 20.5c-0.2-0.1-0.3-0.1-0.5-0.1-0.3-0.1-0.1 0.1-0.2-0.1-0.1-0.1-0.1-0.2-0.1-0.2-0.2-0.4-0.5-0.3-0.7 0 0.4-0.3 0.6 0.1 0.6 0.4 0.1 0.1 0.1 0.1 0.2 0.1 0.5-0.1 0.9 0.2 0.9 0.7 0 0.5-0.3 0.8-0.7 1 0 0.1 0 0.2 0.1 0.1 0.8-0.1 1.1-1.4 0.4-1.9z"/>
				<path id="&lt;Path&gt;" class="s4" d="m33.7 17.3c-1-0.9 0.5-4.4-1.9-4.2 0.2-0.5-0.1-0.9-0.7-1.1-1.1-0.5-2.1 0.2-2.9 1q-0.1 0 0 0c0.5-0.3 1.2-0.8 1.8-0.9 0.5 0 1.9 0.2 1.4 1.1 0 0.1 0 0.3 0.2 0.3 1.9-0.4 1.2 2.5 1.5 3.6 0 0.3 0.1 0.5 0.3 0.7 0.2 0.2 0.4 0.1 0.5 0.1q0.9 0.1 1.2 0.9 0.4 0.7-0.4 1.3c-0.2 0-0.2 0.2-0.1 0.3 0.8 0.1 1.1-0.4 1-1.2-0.1-0.5-0.3-0.9-0.7-1.3-0.4-0.3-0.9-0.2-1.2-0.6z"/>
				<path id="&lt;Path&gt;" class="s4" d="m12.6 4.6q0 0 0 0c0.4 0.1 0.7 0.4 0.8 0.8 0 0.4-0.4 0.5-0.6 0.7-0.1 0 0 0 0 0 0.4-0.1 0.8-0.3 0.7-0.8-0.1-0.4-0.5-0.7-0.9-0.7z"/>
				<path id="&lt;Path&gt;" class="s4" d="m21 3.5c-0.1-0.1-0.1 0-0.1 0 0.2 0.2 0.4 0.5 0.5 0.8 0.1 0.4-0.2 0.5-0.5 0.5v0.1c0.3 0.1 0.6-0.1 0.6-0.5 0-0.3-0.2-0.8-0.5-0.9z"/>
				<path id="&lt;Path&gt;" class="s4" d="m27.4 3.4c-0.2-0.1-0.3-0.3-0.4-0.4-0.4-0.3-0.9-0.4-1.3-0.3-0.2 0-0.1 0.1 0 0.1 0.4 0.1 0.7 0.1 1.1 0.4 0.2 0.1 0.4 0.3 0.5 0.4 0.3 0.3 0.3 0.6 0 0.8-0.2 0.1-0.4 0.1-0.6 0-0.3 0-0.5 0-0.8 0q0 0 0 0.1c0.4-0.1 0.9 0.2 1.3 0.1 0.4 0 0.6-0.4 0.5-0.8 0-0.3-0.1-0.3-0.3-0.4z"/>
				<path id="&lt;Path&gt;" class="s4" d="m39.9 17.2c0 0 0 0.1 0 0.1 0.6 0.2 1 0.3 1.2 0.9 0.3 0.5 0.3 1.1-0.1 1.6 0 0 0.1 0.1 0.1 0 0.4-0.4 0.4-1.1 0.2-1.6-0.2-0.5-0.8-1.2-1.4-1z"/>
				<path id="&lt;Path&gt;" class="s4" d="m41.7 11.6c0 0.1 0.1 0.1 0.1 0.1 0.5-0.8 1.2 0.5 1.4 0.8 0.3 0.5 0.5 0.9 0.2 1.3-0.2 0.4-0.5 0.6-0.7 1q0 0 0 0c0.3-0.4 0.9-0.8 1-1.4 0-0.4-0.2-0.8-0.5-1.1-0.2-0.4-1.2-1.7-1.5-0.7z"/>
				<path id="&lt;Path&gt;" class="s4" d="m34.7 7.8c-0.4-0.3-1.2-0.6-1.5-0.1q0 0 0.1 0c0.4-0.4 1.2 0.1 1.5 0.4 0.5 0.4 0.7 1.2 0.6 1.9 0 0.1 0.2 0.1 0.2 0 0.2-0.8-0.2-1.8-0.9-2.2z"/>
				<path id="&lt;Path&gt;" class="s4" d="m35.7 3.8c-0.3-0.3-0.5-0.4-0.9-0.1 0 0 0 0 0 0 0.5-0.5 0.7 0.2 0.9 0.4 0 0.1 0.1 0.1 0.2 0.1 0.3 0.2 0.5 0.2 0.7 0.5 0.4 0.4 0.5 1-0.1 1.3-0.3 0.1-0.7 0-1 0.1 0 0.1 0 0.2 0.1 0.2 0.4 0 0.9 0 1.2-0.3 0.4-0.4 0.5-0.8 0.2-1.2-0.3-0.4-0.9-0.7-1.3-1z"/>
				<path id="&lt;Path&gt;" class="s4" d="m30.6 24.6c-0.1 0.1 0 0.2 0.1 0.1 0.6-0.4 0.9 0.5 1.2 0.9 0.1 0.2 0.2 0.4 0.3 0.6 0 0.2 0 0.3 0 0.5q0 0.2 0.1 0.4c-0.5 0.3-1 0.7-1.7 0.8q0 0 0 0c0.8 0 1.3-0.3 1.9-0.7q0.1 0 0-0.1c-0.2-0.4 0-0.9-0.2-1.3q-0.3-0.6-0.7-1.1c-0.3-0.4-0.7-0.6-1-0.1z"/>
				<path id="&lt;Path&gt;" class="s4" d="m29.6 25.6q-0.2-0.1-0.4 0c-0.1 0-0.1 0.1 0 0.1q0.2 0 0.4 0.1c0.1 0.1 0.2 0.2 0.3 0.3 0 0 0.1 0 0.1-0.1 0-0.2-0.2-0.4-0.4-0.4z"/>
				<path id="&lt;Path&gt;" class="s4" d="m36.8 20.6c-0.1 0-0.1 0.2 0 0.2 1.5 0.4 1.4 2.3 1.3 3.5-0.1 0.8-0.2 1.5-0.8 2.1-0.5 0.4-1.2 0.7-1.8 1 0 0 0 0.1 0.1 0.1 0.7-0.2 1.6-0.5 2.1-1.2 0.6-0.6 0.6-1.5 0.7-2.3 0.1-1.3 0-3.2-1.6-3.4z"/>
				<path id="&lt;Path&gt;" class="s4" d="m27.3 34.2c-0.5 0.1-0.9 1.1-1.2 0.9-0.1-0.1 0-0.7-0.2-0.9-0.2-0.2-0.2-0.2-0.5-0.2-0.2-0.1-0.2 0.1-0.1 0.2 0.5 0.1 0.5 1 0.7 1.4 0.1 0.1 0.2 0.2 0.2 0.1 0.2-0.2 0.4-0.5 0.5-0.7 1-1.1 1.9 0 2.4 0.9 0.4 0.8 0.3 1.4-0.4 2.1-0.6 0.4-1.3 0.7-2.1 0.7q-0.1 0-0.1 0.1c-1 2.6-3.4 2.4-5.7 2.6q0 0 0 0.1c2.3 0 4.1 0.2 5.6-1.8 0.2-0.4 0.3-0.5 0.7-0.7 0.5-0.2 0.9-0.2 1.3-0.5 0.5-0.3 1.1-0.7 1.3-1.2 0.2-1-1.2-3.3-2.4-3.1z"/>
				<path id="&lt;Path&gt;" class="s4" d="m20.9 43.6c-0.1 0.1 0 0.1 0 0.1 0.5-0.1 1.1 0.1 1.3 0.6 0.2 0.8-0.9 0.7-1.4 0.6q0 0.1 0 0.1c0.6 0.1 1.7 0.3 1.5-0.7-0.1-0.5-0.9-1-1.4-0.7z"/>
				<path id="&lt;Path&gt;" class="s4" d="m28.2 41q-0.3-0.1-0.5-0.1c-0.3 0.1-0.4 0.2-0.6 0.1-0.1 0-0.2 0-0.4 0 0 0 0 0.1 0 0.1 0.4 0.1 0.6 0.2 0.9 0 0.6-0.2 1 0.2 1.2 0.7 0.2 0.9-0.7 1-1.4 1q0 0 0 0c0.7 0.2 1.6 0 1.6-0.8-0.1-0.5-0.3-0.9-0.8-1z"/>
				<path id="&lt;Path&gt;" class="s4" d="m31.1 36.6c-0.3 0.1-0.7 0.1-1 0-0.1 0-0.1 0.1-0.1 0.2 0.3 0.4 1-0.1 1.4 0.1 0.2 0.1 0.3 0.3 0.2 0.5 0 0.2-0.3 0.3-0.4 0.4-0.3 0.2-0.6 0.3-0.8 0.6q0 0 0.1 0c0.5-0.3 1.7-0.6 1.3-1.5-0.1-0.2-0.4-0.3-0.7-0.3z"/>
				<path id="&lt;Path&gt;" class="s4" d="m34.4 33.8c-0.5-0.3-0.9-0.6-1.4-0.3q0 0 0 0c0.5 0 0.8 0.1 1.3 0.4 0.1 0.1 0.3 0.2 0.4 0.4q0.3 0.1 0.2 0.5 0.3 0.3 0.1 0.6 0 0.1 0 0.3c0 0.1 0.1 0.1 0.1 0.2q-0.1 0.5-0.2 1-0.3 0-0.7-0.1c0 0-0.1 0.1 0 0.2 0.4 0.1 1 0.2 1.3-0.3 0.1-0.2 0.1-0.4 0-0.6 0-0.1-0.2-0.2-0.2-0.4-0.2-0.6 0-0.2 0-0.6 0.1-0.7-0.4-0.9-0.9-1.3z"/>
				<path id="&lt;Path&gt;" class="s4" d="m33.5 41.2c-0.1 0-0.1 0.1 0 0.1 0.3 0.2 0.7 0.3 0.9 0.8 0.2 0.6-0.7 0.5-1.1 0.6q0 0 0 0c0.4 0 1.3 0.1 1.2-0.5 0-0.4-0.6-1-1-1z"/>
				<path id="&lt;Path&gt;" class="s4" d="m39.8 33.3c-0.1 0-0.1 0.1 0 0.2 0.4 0.1 0.9 0.4 1.1 0.9 0.1 0.3-0.1 0.6-0.1 0.9 0 0.3 0.1 0.6 0.1 0.8 0 0.7-0.4 1.2-1.1 1.1 0 0-0.1 0 0 0.1 0.3 0.2 0.7 0 1-0.2 0.4-0.5 0.3-0.9 0.3-1.4-0.1-0.5 0.2-1 0-1.4-0.2-0.6-0.7-1-1.3-1z"/>
				<path id="&lt;Path&gt;" class="s4" d="m43 32.1c-0.1 0-0.1 0.1 0 0.1 0.3 0.1 0.5 0.2 0.6 0.6 0.1 0.1 0.1 0.2 0.1 0.4-0.1 0.1-0.3 0.2-0.4 0.2-0.1 0-0.1 0.1 0 0.1 0.4 0.1 0.6-0.3 0.5-0.7 0-0.3-0.4-0.8-0.8-0.7z"/>
				<path id="&lt;Path&gt;" class="s4" d="m42.2 28.7c0 0 0 0.1 0.1 0 1.4-0.9 2.4 2.5 1.2 2.7q0 0 0 0c1 0.2 0.7-1.3 0.5-1.8-0.3-0.7-1.1-1.7-1.8-0.9z"/>
				<path id="&lt;Path&gt;" class="s4" d="m44.1 22.4c0 0.1 0 0.2 0.1 0.1 0.6-0.4 1.1 0.9 1.2 1.3 0.2 0.9 0.1 1.7-0.9 1.9q0 0 0 0c1.2 0.3 1.2-1.3 1-2.1-0.1-0.2-0.9-2-1.4-1.2z"/>
				<path id="&lt;Path&gt;" class="s4" d="m19.8 33.9c-0.1 0-0.1 0 0 0 0.5 0.1 1.1 0.2 1.5 0.6 0.2 0.3 0.2 0.9-0.2 1.1-0.3 0.2-0.7 0.1-1.1 0q0 0 0 0c0.7 0.3 1.7 0.2 1.5-0.8-0.1-0.7-1.1-1-1.7-0.9z"/>
				<path id="&lt;Path&gt;" class="s4" d="m26.7 28.9c-0.3-0.2-0.7-0.4-1.1-0.4-0.1 0.1-0.1 0.2 0 0.2 0.5 0.2 1.5 0.3 1.6 1 0.1 0.6-1 1-1.4 1.2q-0.1 0 0 0c0.5 0 1.6-0.4 1.6-1.1 0-0.4-0.4-0.7-0.7-0.9z"/>
				<path id="&lt;Path&gt;" class="s4" d="m35 27.9c0 0 0 0.1 0 0.1q0.5 0.1 0.6 0.5c0 0.2 0.1 0.3 0 0.4 0 0.2-0.1 0.2-0.2 0.3 0 0 0 0.1 0 0.1 0.4 0.1 0.4-0.5 0.4-0.7-0.1-0.4-0.4-0.8-0.8-0.7z"/>
				<path id="&lt;Path&gt;" class="s4" d="m40.7 23c0 0 0 0.1 0 0.1 0.3 0 0.5 0.1 0.6 0.3 0.2 0.4-0.2 0.7-0.5 0.8 0 0 0 0 0 0 0.2-0.1 0.4-0.1 0.6-0.3q0.1-0.1 0.1-0.4c-0.1-0.3-0.5-0.5-0.8-0.5z"/>
				<path id="&lt;Path&gt;" class="s4" d="m4.7 19.1c-0.3 1.8 0 3.9 1 5.5 0.9 1.2 2.6 2.4 4.1 1.9 0.2 0 0.1-0.3 0-0.3-3.6 0-5.2-3.5-4.8-6.7 0.2-1.6 2.3-5.6 4.4-4.4 0.1 0 0.1 0 0.1-0.1-2-1.7-4.6 2.5-4.8 4.1z"/>
				<path id="&lt;Path&gt;" class="s4" d="m7.5 14.3c-1 0.7-1.9 0.9-2.7 1.9-0.8 0.9-1.3 2-1.6 3.2-0.5 2.2 0 4.8 0.7 7 0.6 2.1 2.1 3.6 4.1 4.6 2 1 4 0.9 6.2 0.3 0.1-0.1 0.1-0.3-0.1-0.3-1 0.1-1.9 0.5-2.9 0.5-1.2 0-2.3-0.4-3.3-1-2.1-1.2-3.3-2.8-3.9-5.1-0.5-1.9-0.9-4.1-0.4-6.1 0.3-1.2 0.9-2.4 1.7-3.3 0.7-0.7 1.6-1 2.3-1.6q0-0.1-0.1-0.1z"/>
				<path id="&lt;Path&gt;" class="s4" d="m17.7 35.4c-2 0.7-3.7 1.1-5.8 0.6-1.6-0.4-3.3-0.9-4.7-1.8-3.1-1.9-5-5.6-4.9-9.2q0-0.1 0-0.1c-0.4 3.8 1.5 7.6 4.7 9.6 1.7 1 3.7 1.6 5.6 2 1.9 0.4 3.4-0.2 5.1-1 0.1 0 0-0.1 0-0.1z"/>
				<path id="&lt;Path&gt;" class="s4" d="m32.8 10.5c-0.2-0.8-0.7-1.6-1.4-2.2-0.1-0.1-0.3 0.1-0.2 0.3 0.9 0.9 1.1 1.8 1.2 3.1 0.1 0.8 0.4 1 0.8 1.7 0.2 0.3 0.6 1.2 0.5 1.5 0 0.3-0.3 0.6-0.4 0.9-0.1 0.2-0.2 0.4-0.2 0.7-0.1 0.6 0.1 1.2 0.3 1.7 0.6 1.3 1.4 2.2 2.4 3.2 0.4 0.5 1.1 1.1 1.1 1.8 0.2 1.3-1.3 2.2-2.3 2.6-0.7 0.3-1.2 0.2-1.7 0.8-0.5 0.6-1 1.4-1.3 2.1-0.5 1 0.2 2.2-1.2 2.7-0.7 0.3-1.4 0.2-1.9 0.7-0.4 0.3-0.5 0.6-0.5 1-0.1 0.8 0 1.2-0.5 1.8-0.3 0.4-0.8 0.7-1.1 1-1 0.8-2 1.5-3.3 1.8-1 0.2-2 0-3-0.2-1.8-0.5-2.9-0.3-4.3 1-1 1-1.8 2.3-3.3 2.5-1.1 0.1-2.2-0.3-3.3-0.3 0 0 0 0.1 0 0.1 1.6 0.2 3.2 0.8 4.7-0.1 1.1-0.6 1.8-1.7 2.8-2.5 1.2-1 2.4-0.7 3.8-0.3 1.7 0.4 3.2 0.2 4.8-0.7 1.2-0.8 2.8-1.9 3-3.4 0.2-1.2 0.2-1.7 1.5-2 0.3 0 0.6 0 1-0.1 0.6-0.2 0.9-0.6 0.9-1.3 0.1-0.5-0.1-0.9 0.1-1.4 0.2-0.6 0.6-1 0.9-1.5 0.7-1.1 2-1.2 3-1.9 1-0.6 1.9-1.5 1.5-2.7-0.4-1.3-1.7-2.1-2.5-3.2-0.9-1.1-1.6-2.6-0.9-4 0.3-0.6 0.5-1.1 0.3-1.8-0.2-0.5-0.7-0.7-0.9-1.2-0.6-0.8-0.2-1.4-0.4-2.2z"/>
				<path id="&lt;Path&gt;" class="s4" d="m6.4 34.8c-0.6 0.1-0.5 0.8-0.2 1.3 0.1 0.3 0.2 0.5 0.5 0.5q0 0 0 0.1c0.1 0.1 0.3 0.1 0.4 0 0.1 0 0.3-0.1 0.3-0.3q0-0.2 0-0.3c0-0.7-0.3-1.5-1-1.3z"/>
				<path id="&lt;Path&gt;" class="s4" d="m5.1 34.3q0 0 0 0c-0.1-0.1-0.1 0-0.1 0v0.1c0 0.4 0.5-0.1 0.1-0.1z"/>
				<path id="&lt;Path&gt;" class="s4" d="m3.2 16.6q-0.2 0-0.3 0.1-0.1 0-0.2 0.1 0 0.1 0 0.1 0 0.1-0.1 0.2 0 0.1 0 0.1c0 0.1 0.1 0.3 0.2 0.3q0 0 0-0.1 0.1 0 0.1 0.1v-0.1q0 0 0 0c0.3-0.1 0.4-0.2 0.5-0.4 0-0.2-0.1-0.3-0.2-0.4z"/>
				<path id="&lt;Path&gt;" class="s4" d="m6.7 11.4q-0.2 0.2-0.4 0.4-0.1 0.1-0.2 0.3c-0.2 0.3-0.1 0.9 0.3 1.1q0 0.1 0 0.2c0 0.2 0.2 0.3 0.4 0.1q0-0.1 0.1-0.3 0 0 0.1 0c0.1-0.3 0.2-0.6 0.2-0.8 0-0.3 0-0.5-0.2-0.7q0 0 0-0.1c0-0.1-0.2-0.2-0.3-0.2z"/>
				<path id="&lt;Path&gt;" class="s4" d="m16.8 16.5q0 0-0.1 0-0.1 0-0.1-0.1c-0.2 0-0.4 0.1-0.4 0.2q-0.1 0.5 0.2 0.8 0 0.1 0.1 0.1 0 0 0 0.1 0.1 0 0.1 0 0.1 0.1 0.1 0.1c0.2 0.1 0.5 0.1 0.6-0.1 0.2-0.3 0-0.7-0.2-1q-0.1-0.2-0.3-0.1z"/>
				<path id="&lt;Path&gt;" class="s4" d="m14.7 26.5c-0.1 0.1 0 0.3 0.2 0.3q0 0 0 0 0.1 0 0.1-0.1 0 0 0 0c0-0.2-0.1-0.3-0.3-0.2z"/>
				<path id="&lt;Path&gt;" class="s4" d="m12.6 27.5q-0.2-0.1-0.3 0.1c-0.2 0.3-0.2 0.7 0 1 0.1 0.3 0.3 0.6 0.5 0.7 0.1 0.1 0.2 0.1 0.3 0 0.6-0.5 0.2-1.6-0.5-1.8z"/>
				<path id="&lt;Path&gt;" class="s4" d="m15.1 28.2q-0.1 0.1-0.2 0.3c-0.1 0 0 0.2 0 0.2q0.1 0.1 0.1 0.1c0 0.1 0.2 0.2 0.3 0.1 0.2-0.2 0.2-0.3 0.1-0.6 0-0.1-0.2-0.2-0.3-0.1z"/>
				<path id="&lt;Path&gt;" class="s4" d="m15 18.2q-0.1-0.1-0.2 0c-0.3 0-0.5 0.2-0.4 0.5q0 0.1 0.1 0.2 0.1 0.1 0.2 0.3c0.3 0.5 1.1 1.5 1.5 0.7 0.4-0.7-0.7-1.5-1.2-1.7z"/>
				<path id="&lt;Path&gt;" class="s4" d="m14.4 20.1q0 0 0 0 0.1 0 0.1 0 0 0 0-0.1c0-0.2-0.4 0.1-0.1 0.1z"/>
				<path id="&lt;Path&gt;" class="s4" d="m15 11.5c-0.3-0.3-0.9-0.5-1.2 0-0.2 0.5 0.1 1.1 0.4 1.4 0.2 0.2 0.3 0.3 0.6 0.4q0.3 0.2 0.7 0.2c0.2 0 0.4-0.1 0.4-0.4q0-0.1-0.1-0.2c0.2-0.6-0.2-1.1-0.8-1.4z"/>
				<path id="&lt;Path&gt;" class="s4" d="m12.1 14c-0.3 0.1-0.5 0.5-0.2 0.7q0.1 0.1 0.3 0.1 0.1 0 0.2 0c0.1 0.1 0.2 0 0.2-0.1 0.1-0.3 0-0.9-0.5-0.7z"/>
				<path id="&lt;Path&gt;" class="s4" d="m11.7 9c-0.2 0-0.3 0.1-0.4 0.2q0 0.1 0 0.2-0.1 0-0.1 0.1 0 0 0 0.1-0.1 0-0.1 0.1 0 0.2 0.1 0.4 0 0.4 0.2 0.7 0.1 0.1 0.1 0.2c0.3 0.3 0.8 0.4 1 0 0.2-0.5 0.3-1.3 0-1.7-0.2-0.4-0.5-0.4-0.8-0.3z"/>
				<path id="&lt;Path&gt;" class="s4" d="m7 22.2c-0.2 0-0.3 0-0.3 0.2q-0.1 0.1-0.1 0.3c-0.1 0.2 0 0.5 0.2 0.7q0.1 0.2 0.3 0.3c0.1 0.1 0.3 0 0.4-0.1 0-0.2 0-0.4 0-0.6 0-0.4-0.2-0.7-0.5-0.8z"/>
				<path id="&lt;Path&gt;" class="s4" d="m10.1 23.4q-0.1-0.2-0.2-0.3c-0.2-0.2-0.4-0.2-0.6 0q0 0 0 0c-0.1 0.1-0.2 0.3-0.2 0.4 0 0.2 0.1 0.4 0.3 0.6 0 0.5 0.7 0.9 1 0.5q0.1-0.1 0.1-0.2 0 0 0 0 0 0 0-0.1c0.1-0.3-0.1-0.7-0.4-0.9z"/>
				<path id="&lt;Path&gt;" class="s4" d="m9.2 18.1c-0.2 0.2 0 0.5 0.2 0.3 0.3-0.2 0-0.5-0.2-0.3z"/>
				<path id="&lt;Path&gt;" class="s4" d="m8.5 22.6c-0.1 0-0.2 0-0.3 0q-0.1 0.2-0.1 0.4 0 0 0 0 0 0.1 0.1 0.1c0 0.2 0.3 0.2 0.3 0q0.1 0 0.2 0c0.1-0.1 0-0.3-0.1-0.4q0 0-0.1-0.1z"/>
				<path id="&lt;Path&gt;" class="s4" d="m11 17.2q0 0-0.1 0.1c-0.1-0.1-0.3-0.2-0.5-0.1-0.3 0.2-0.4 0.7-0.2 1 0.2 0.2 0.5 0.2 0.7 0.1q0 0.1 0.1 0.2c0.2 0.1 0.5-0.1 0.4-0.3q0-0.1 0-0.1c0.1-0.2 0.1-0.6 0-0.8-0.1-0.1-0.3-0.2-0.4-0.1z"/>
				<path id="&lt;Path&gt;" class="s4" d="m8.9 15.7c-0.3 0.2-0.2 0.7 0.2 0.9q0 0.2 0.2 0.2c0.1 0.1 0.2 0 0.2-0.1q0.2-0.1 0.3-0.3 0 0 0.1-0.1c0 0 0.1-0.1 0.1-0.2-0.2-0.4-0.7-0.8-1.1-0.4z"/>
				<path id="&lt;Path&gt;" class="s4" d="m7.5 19.5c-0.1-0.1-0.2-0.1-0.3-0.1q0 0 0 0.1-0.1 0-0.2 0.1c-0.1 0.1 0 0.3 0.1 0.3 0.2 0 0.3 0 0.4-0.2 0.1-0.1 0-0.2 0-0.2z"/>
				<path id="&lt;Path&gt;" class="s4" d="m7 16.2c-0.2 0.2-0.2 0.8 0.1 0.8 0.1 0.1 0.2 0 0.2-0.1 0-0.1 0-0.1-0.1-0.2 0.1 0 0.2-0.1 0.2-0.2 0-0.1 0-0.2-0.1-0.3-0.1-0.2-0.2-0.1-0.3 0z"/>
				<path id="&lt;Path&gt;" class="s4" d="m15.2 23.8q0 0-0.1 0-0.1-0.1-0.2 0-0.1 0-0.2 0c-0.1 0-0.2 0.2-0.2 0.3q0.1 0.1 0.1 0.2 0 0 0 0c0 0.3 0.1 0.5 0.3 0.7q0 0.1 0 0.1c0.2 0.2 0.6 0.7 0.9 0.4 0.3-0.3 0.1-0.8-0.1-1.1-0.1-0.2-0.3-0.5-0.5-0.6z"/>
				<path id="&lt;Path&gt;" class="s4" d="m18.8 19.1q0 0-0.1 0c-0.1 0-0.2 0.2-0.1 0.3 0.2 0.2 0.3 0.2 0.6 0.1 0.1 0 0.1-0.1 0.1-0.2q-0.1-0.2-0.2-0.3c-0.1-0.2-0.3-0.1-0.3 0.1z"/>
				<path id="&lt;Path&gt;" class="s4" d="m18.3 31.3q0 0 0 0c-0.1-0.1-0.3-0.2-0.5-0.1q0 0 0 0.1c-0.2 0-0.4 0.1-0.4 0.4-0.1 0.3 0 0.6 0.2 0.8 0.1 0.2 0.2 0.3 0.4 0.3q0.1 0.1 0.1 0.1c0.2 0.1 0.4-0.1 0.5-0.3q0 0 0-0.1c0.1-0.2 0.2-0.6 0-0.8q-0.1-0.2-0.3-0.4z"/>
				<path id="&lt;Path&gt;" class="s4" d="m5.9 27.6q0 0.1 0 0.1c-0.1 0.1 0 0.2 0 0.2 0 0.1 0.1 0.1 0.2 0q0 0 0 0 0.1 0 0.1-0.1c0-0.1 0-0.1 0-0.2 0-0.2-0.3-0.2-0.3 0z"/>
				<path id="&lt;Path&gt;" class="s4" d="m15.3 3.3c0 0 0 0.1 0.1 0.1 2.2-1 3.7 2.7 1.5 3.6-0.7 0.3-1.7 0.2-2.1-0.6-0.4-0.7-0.2-1.7 0.5-2.2 0.9-0.6 1.8 0 1.8 1.1 0 0.4-0.8 2-1.4 1-0.2-0.3 0-0.8 0.1-1.1 0-0.1-0.2-0.2-0.2-0.1-0.3 0.4-0.4 1.3 0.1 1.6 0.5 0.4 1.2-0.2 1.5-0.7 0.6-1.4-0.8-3.1-2.2-1.9-1.3 1-0.7 3.3 1 3.3 1.4 0.1 2.4-1.1 2.2-2.4-0.2-1.4-1.5-2.3-2.9-1.7z"/>
				<path id="&lt;Path&gt;" class="s4" d="m24.2 16c-0.4 0.2-0.8 0.6-0.7 1.1 0 0.4 0.5 0.4 0.9 0.2 0 0 0-0.1-0.1-0.1-0.2 0-0.3 0.1-0.5-0.1-0.1-0.2-0.1-0.2 0-0.4 0.1-0.2 0.3-0.4 0.5-0.5 0.5-0.2 1.2 0 1.2 0.7-0.1 0.7-0.8 1.4-1.6 1.2-0.5-0.1-0.9-0.6-0.9-1.1-0.2-0.7 0.3-1.2 0.9-1.5 0 0 0-0.1-0.1-0.1-0.7 0.3-1.2 0.9-1.1 1.6 0.1 0.6 0.6 1.2 1.2 1.3 0.8 0.2 1.6-0.4 1.7-1.2 0.3-0.9-0.6-1.4-1.4-1.1z"/>
				<path id="&lt;Path&gt;" class="s4" d="m22.5 29.9c-0.4 0.1-0.7 0.6-0.9 0.9-0.3 0.4-0.7 0.8-0.9 0.1-0.1-0.3 0-0.6 0.1-0.8q0.1-0.3 0.3-0.5 0.5-0.4 0.4 0.3c0 0.1 0.1 0.2 0.1 0.2 0.7-0.7-0.2-1.1-0.7-0.5-0.4 0.4-0.7 2.2 0.3 1.9 0.4-0.1 0.6-0.6 0.8-0.8 0.2-0.4 0.5-0.8 1-0.6 0.5 0.2 0.6 0.8 0.4 1.2-0.2 0.7-1.2 1.1-1.9 1.1-0.5 0-1-0.1-1.3-0.4-0.4-0.6-0.4-1.5 0.1-2q0-0.1 0 0c-1 0.6-0.6 2.2 0.4 2.5 0.9 0.3 2.4-0.1 2.9-1 0.3-0.7-0.1-2-1.1-1.6z"/>
				<path id="&lt;Path&gt;" class="s4" d="m15.9 40c-0.5 0.9 0.8 2.1 1.7 1.6 0.1-0.1 0-0.3-0.1-0.2q-0.7 0.3-1.2-0.3c-0.2-0.3-0.4-0.9 0-1.2 0.8-0.4 2.1 0.9 2.2 1.6 0.2 0.9-0.7 1.2-1.4 1.1q-0.9 0-1.5-0.7c-0.7-0.8-0.9-3.1 0.6-3.3v-0.1c-0.7 0-1.2 0.7-1.3 1.4-0.2 0.9 0.1 1.9 0.8 2.5 0.9 0.7 3.4 0.7 3-0.9-0.1-0.8-2.1-2.7-2.8-1.5z"/>
				<path id="&lt;Path&gt;" class="s4" d="m29 8c-1.5-0.5-1.2 1.4-0.2 1.1 0 0 0-0.1 0-0.1-0.4-0.2-0.5-0.1-0.2-0.5 0.3-0.4 0.4-0.3 0.7-0.1 0.3 0.2 0.6 0.4 0.9 0.6 0.6 0.7 0 1.2-0.7 1.2-0.7 0.1-1.2-0.2-1.7-0.6-0.5-0.5-1.3-1.5-0.8-2.3 0.6-0.9 1.5 0.1 2.2 0.3q0 0 0 0c-0.5-0.2-1-0.9-1.7-0.8-0.5 0.1-0.8 0.6-0.8 1.1 0 1.6 1.9 3 3.4 2.5 1.6-0.6-0.2-2.1-1.1-2.4z"/>
				<path id="&lt;Path&gt;" class="s4" d="m32.9 29c-1.1-0.1-1.6 1.1-0.8 1.9 0.7 0.9 2.4 0.8 1.8-0.7-0.1-0.1-0.2 0-0.2 0.1 0.3 2.4-3.1-0.5-1.1-1 0.9-0.2 2.1 0.9 2.1 1.8 0 1.3-1.5 1.1-2.2 0.6-0.6-0.5-1.1-1.2-1.2-2q0 0 0 0c0 1 0.6 2 1.5 2.5 0.8 0.4 2.1 0.2 2.2-0.9 0.1-1.1-1-2.3-2.1-2.3z"/>
				<path id="&lt;Path&gt;" class="s4" d="m36.3 12.7c-1.2-0.2-2.4 1-2.6 2.2 0 0 0.1 0 0.1 0 0.3-1.2 2-2.6 3.1-1.5 0.7 0.7 0.3 1.9-0.6 2.3-0.6 0.3-1.5 0.1-1-0.8 0.1-0.2 0.2-0.4 0.4-0.4q0.3-0.3 0.7 0.2-0.2 0.1-0.3 0.3c0 0 0 0.2 0.1 0.1 0.4 0 0.7-0.6 0.4-1-0.4-0.4-1 0-1.3 0.3-0.4 0.5-0.7 1.2-0.2 1.6 0.6 0.3 1.3 0.1 1.7-0.3 1.1-0.8 1-2.7-0.5-3z"/>
				<path id="&lt;Path&gt;" class="s4" d="m30.5 1.4c-0.8-0.1-1.2 0.3-1.2 1 0.1 1.2 1.4 3.1 2.8 2.8 1.4-0.2-0.2-1.9-0.7-2.3-0.3-0.2-0.9-0.7-1.2-0.2-0.2 0.7 0.7 1.3 1.2 1.4 0.1 0 0.2-0.2 0-0.2-0.2-0.1-0.5-0.2-0.7-0.5q-0.3-0.2 0.2-0.5 0.1 0 0.2 0.1 0.4 0.3 0.7 0.6c0.2 0.2 0.4 0.5 0.5 0.8 0.4 0.9-0.8 0.6-1.2 0.4-0.7-0.5-1.3-1.2-1.5-2 0-0.3-0.1-0.6 0-0.8 0.3-0.5 0.9-0.4 1.3-0.2 0.5 0.2 0.9 0.7 1.2 1.2q0 0 0 0c-0.2-0.7-0.8-1.5-1.6-1.6z"/>
				<path id="&lt;Path&gt;" class="s4" d="m8 7.5c-0.1 0-0.3 0-0.3 0.1-0.1 0.2-0.2 0.5-0.1 0.7q0 0.1 0 0.1c0.1 0.2 0.2 0.3 0.4 0.3q0.1 0 0.2-0.1 0 0 0 0 0-0.1 0-0.1 0.2-0.1 0.2-0.2 0-0.1 0-0.2 0-0.4-0.4-0.6z"/>
				<path id="&lt;Path&gt;" class="s4" d="m11 6.8q0 0-0.1 0c-0.2 0.1 0.1 0.4 0.2 0.2q0 0 0-0.1c0 0 0-0.1-0.1-0.1z"/>
				<path id="&lt;Path&gt;" class="s4" d="m14.2 7.9c-0.4 0.3-0.2 1.1 0.3 1.2 0.3 0.1 0.5-0.1 0.5-0.4q0 0 0 0 0.1-0.1 0.2-0.2c0-0.4-0.6-0.9-1-0.6z"/>
				<path id="&lt;Path&gt;" class="s4" d="m20.9 15.4c0 0.2 0.5 0.2 0.4-0.1 0-0.1-0.3-0.2-0.4 0.1z"/>
				<path id="&lt;Path&gt;" class="s4" d="m24.4 23.6c-0.2 0.1-0.3 0.3-0.3 0.4q0 0.2 0.1 0.4 0 0.1 0 0.2c0.1 0.2 0.3 0.5 0.5 0.6q0.1 0.1 0.2 0.1c0.2 0 0.4-0.1 0.4-0.3q0.1 0 0.1-0.2c0-0.5-0.3-1.2-1-1.2z"/>
				<path id="&lt;Path&gt;" class="s4" d="m28.6 27.3c-0.1-0.1-0.2-0.1-0.4 0-0.4 0.4-0.1 1 0.3 1.3 0.2 0.2 0.5-0.1 0.4-0.3q-0.1 0-0.1-0.1 0.1 0 0.1 0c0.1-0.4-0.1-0.7-0.3-0.9z"/>
				<path id="&lt;Path&gt;" class="s4" d="m13.9 42.6q-0.3-0.2-0.6-0.2c-0.1 0-0.3 0.1-0.3 0.3 0.2 0.4 0.7 0.6 1.1 0.5h0.1q0 0 0.1 0c0.2 0 0.2-0.3 0.1-0.4q-0.2-0.1-0.5-0.2z"/>
				<path id="&lt;Path&gt;" class="s4" d="m23.7 42.4c-0.1 0.1-0.2 0.2-0.1 0.3 0.1 0.3 0.4 0.5 0.7 0.3q0.1 0 0.1-0.1 0.1 0 0.2 0c0.2 0 0.2-0.2 0.1-0.3-0.3-0.3-0.7-0.3-1-0.2z"/>
				<path id="&lt;Path&gt;" class="s4" d="m27.1 11c-0.1 0.3 0 0.7 0.4 0.8 0.2 0.1 0.3-0.2 0.2-0.3q0-0.1 0-0.2-0.1-0.2-0.3-0.4c-0.1-0.1-0.3-0.1-0.3 0.1z"/>
				<path id="&lt;Path&gt;" class="s4" d="m38.9 10.6q0-0.1-0.1-0.1 0 0 0 0c-0.2-0.1-0.4 0-0.4 0.1 0 0.3 0.1 0.7 0.5 0.7q0.1 0 0.2-0.1c0.1 0 0.2-0.2 0.1-0.3-0.1-0.2-0.2-0.2-0.3-0.3z"/>
				<path id="&lt;Path&gt;" class="s4" d="m45.7 19.8q-0.2-0.1-0.3-0.2c-0.2-0.2-0.5 0.1-0.3 0.3q0 0 0 0 0.1 0 0.1 0.1 0 0 0.1 0 0.1 0.1 0.1 0.1c0.2 0.2 0.4-0.1 0.3-0.3z"/>
				<path id="&lt;Path&gt;" class="s4" d="m40.8 8c-0.1 0-0.1 0-0.2 0.1-0.1 0.1 0.1 0.2 0.2 0.2 0-0.1 0.1-0.1 0.1-0.2 0.1-0.1 0-0.2-0.1-0.1z"/>
				<path id="&lt;Path&gt;" class="s4" d="m30.1 40.3c-0.1 0.1-0.1 0.3 0 0.4q0.3 0.3 0.7 0.4 0.1 0 0.1 0 0.1 0 0.2-0.1 0.2 0 0.4-0.1c0.1-0.1 0.2-0.2 0.1-0.3-0.3-0.5-1.1-0.8-1.5-0.3z"/>
				<path id="&lt;Path&gt;" class="s4" d="m39.5 39.9q0 0 0 0c0-0.1 0-0.1 0-0.2q0 0 0 0c-0.4-0.6-0.5 0.7 0 0.2z"/>
				<path id="&lt;Path&gt;" class="s4" d="m29.7 45.1q-0.4 0-0.7 0.2c-0.2 0.1-0.2 0.4 0 0.5 0.2 0.1 0.5 0.1 0.7-0.1q0.1-0.1 0.1-0.1c0.3-0.1 0.2-0.5-0.1-0.5z"/>
				<path id="&lt;Path&gt;" class="s4" d="m38.8 27.9c-0.4 0.5-0.5 1.3-0.3 1.9 0.1 0.1 0.2 0.2 0.4 0.2 0.6-0.2 0.8-1 0.5-1.5q-0.1-0.3-0.1-0.5c0-0.2-0.4-0.3-0.5-0.1z"/>
				<path id="&lt;Path&gt;" class="s4" d="m44.7 16.2q-0.1-0.1-0.2-0.2 0 0-0.1 0 0-0.1 0-0.1c-0.1 0-0.1 0-0.1 0.1q-0.1 0-0.1 0.1c-0.1 0.2 0.1 0.4 0.3 0.4q0.1 0 0.1 0c0.1-0.1 0.2-0.2 0.1-0.3z"/>
				<path id="&lt;Path&gt;" class="s4" d="m37.3 7.1c-0.2 0-0.3 0.2-0.2 0.4 0.1 0.4 0.4 0.5 0.7 0.7q0.2 0.1 0.3-0.1c0.2 0.1 0.4-0.2 0.3-0.4-0.3-0.3-0.7-0.7-1.1-0.6z"/>
				<path id="&lt;Path&gt;" class="s4" d="m24.9 0.7c-0.2-0.1-0.4-0.1-0.5 0q-0.1 0-0.2 0c-0.2 0.1-0.2 0.3-0.1 0.4 0.2 0.4 0.7 0.6 1.1 0.4q0.2 0 0.4 0c0.2 0 0.3-0.1 0.2-0.3-0.1-0.3-0.5-0.5-0.9-0.5z"/>
				<path id="&lt;Path&gt;" class="s4" d="m22.3 0.9q0 0 0 0c-0.1 0.2 0.1 0.3 0.2 0.3q0 0 0.1 0c0.4-0.1-0.1-0.7-0.3-0.3z"/>
				<path id="&lt;Path&gt;" class="s4" d="m30.3 6.4c0-0.1-0.1-0.1-0.1 0-0.1 0-0.2 0.1-0.2 0.2q0.1 0.4 0.4 0.6 0.1 0 0.2 0 0.1 0 0.1 0 0 0 0 0c0.1 0.1 0.3 0 0.3-0.2-0.1-0.3-0.3-0.6-0.7-0.6z"/>
				<path id="&lt;Path&gt;" class="s4" d="m36.8 33.3q0 0 0 0-0.2 0.2-0.1 0.5 0.1 0.1 0.2 0.1 0 0 0 0 0.2 0.1 0.3 0.1c0 0 0.1-0.1 0.1-0.1q0.2-0.4-0.1-0.8c-0.1-0.1-0.3 0-0.4 0.2z"/>
				<path id="&lt;Path&gt;" class="s4" d="m1.9 21.2q-0.1 0-0.2 0c-0.1 0-0.2 0-0.2 0.1q0 0 0 0.1c0 0.2 0 0.4 0.1 0.5 0 0.2 0.2 0.3 0.3 0.3q0.1 0 0.2 0 0.1 0 0.1-0.2 0-0.4-0.1-0.7-0.1-0.1-0.2-0.1z"/>
				<path id="&lt;Path&gt;" class="s4" d="m16.9 2.5c-2.7 0.4-4.5 2-6.6 3.4-0.3 0.2-0.5 0.5-0.9 0.6-0.4 0.1-0.7 0.1-1.2 0.3-0.8 0.4-1.4 1.3-1.8 2.1-0.6 1-1 2.1-1.4 3.2-0.3 0.8-0.5 1.7-0.9 2.4-0.4 0.5-0.9 0.9-1.3 1.4-1.1 1.4-1.4 3.5 0.1 4.8q0 0 0 0c-0.8-1.3-1.1-2.8-0.2-4.2 0.5-0.8 1.3-1.4 1.8-2.3 0.9-1.7 1.3-3.8 2.3-5.5 0.3-0.5 0.6-0.9 0.9-1.3 0.7-0.6 1.3-0.4 2.1-0.7 0.5-0.1 0.9-0.6 1.3-0.9 1-0.7 1.9-1.5 2.9-2.1 1-0.5 1.9-0.7 3-1 0.1 0 0.1-0.2-0.1-0.2z"/>
				<path id="&lt;Path&gt;" class="s5" d="m15.8 23.1c0.1 0.5 0.4 0.9 0.7 1.4 0.5 0.9 0.9 1.4 0.7 2.5-0.1 1 0.4 1.7 1.5 1.7 0 0 0.1-0.1 0-0.1-1.3-0.4-0.9-1.6-1.1-2.6-0.1-0.6-0.5-1.1-0.8-1.7-0.3-0.5-0.7-1.1-0.7-1.7-0.1-1.6 1.7-2 2.7-1.2 0.1 0.1 0.3 0 0.2-0.2-1.3-1.6-3.7 0-3.2 1.9z"/>
				<path id="&lt;Path&gt;" class="s5" d="m24.2 20.8c-0.3 0.2-0.5 0.4-0.9 0.4-0.4 0.1-0.7-0.2-1-0.5-0.4-0.5-0.6-1.2-0.5-1.8 0-0.1-0.1-0.1-0.1-0.1-0.5 0.6 0.1 1.9 0.6 2.3 0.6 0.6 1.6 0.6 2-0.1 0.1-0.1 0-0.2-0.1-0.2z"/>
				<path id="&lt;Path&gt;" class="s5" d="m23.8 12.9c-0.8 0.6-1.6 0.8-2.6 0.7-1.2-0.1-1.6-0.6-2.2-1.6-0.3-0.5-0.6-0.8-1.1-1-0.6-0.4-2.2-0.4-1.9-1.5q0 0 0 0c-0.2 0.5-0.4 0.7 0.1 1.1 0.3 0.2 0.7 0.2 1 0.3 0.7 0.2 1.3 0.5 1.7 1.2 0.2 0.4 0.2 0.7 0.5 1 1.1 1 3.7 1.3 4.6 0 0.1-0.1-0.1-0.2-0.1-0.2z"/>
				<path id="&lt;Path&gt;" class="s5" d="m9.4 20.6c0.4-0.3 0.8-0.3 1.3-0.3-0.7-0.6-2.1 0-2 0.9 0.1 0.6 0.6 1 1.2 1.1 0.5 0 1-0.2 1.3 0.3 0.1 0.4 0.1 0.7 0.5 1 0.1 0.1 0.2-0.1 0.2-0.2-0.2-0.4-0.3-1.1-0.7-1.3-0.4-0.3-0.9-0.2-1.3-0.2-0.7-0.1-1.2-0.9-0.5-1.3z"/>
				<path id="&lt;Path&gt;" class="s5" d="m7.7 27.7c-0.7 0.7-1.2 2-0.7 3 0.1 0.3 0.5 0.6 0.4 1.1 0-0.1-0.3 0.4-0.4 0.5-0.1 0.3-0.1 0.7 0 1 0.5 1.9 3.6 2.4 4.2 0.4 0.1-0.2-0.1-0.3-0.2-0.1-0.5 0.6-1.2 1-2.1 1-1.1 0-2.6-1.8-1.1-2.7q0.1-0.1 0.1-0.2c-0.1-0.4-0.4-0.6-0.5-0.9-0.6-1.1-0.3-2.2 0.4-3.1 0 0-0.1-0.1-0.1 0z"/>
				<path id="&lt;Path&gt;" class="s5" d="m28.9 12.6c-0.3 0.2-1.4 1.2-0.7 1.6 0 0 0.1-0.1 0.1-0.1 0.1-0.2 0-0.4 0.1-0.7 0.2-0.2 0.4-0.4 0.7-0.6 0.6-0.4 1.1-0.5 1.7-0.2q0.1 0 0.1-0.1c-0.3-0.7-1.6-0.2-2 0.1z"/>
				<path id="&lt;Path&gt;" class="s5" d="m33.3 20.8q-0.8 1.1-1.8-0.1-0.1-0.6-0.3-1.1c0-0.3-0.1-0.5-0.2-0.8-0.2-0.5-0.6-1.2-1.1-1.5-0.4-0.2-0.8-0.2-1.3-0.2-0.8 0-1.5 0.3-2.1-0.8-0.4-0.6-0.7-2.2 0.6-2.2 0.1 0 0.1 0 0-0.1-0.9-0.4-1.3 0.6-1.3 1.4 0.1 1.3 1 2.1 2.3 2.1 0.4 0 0.9-0.1 1.3 0 0.9 0.4 1.2 1.4 1.4 2.2 0.2 0.6 0.3 1.3 0.9 1.7 0.6 0.5 1.7 0.3 1.8-0.5 0.1-0.1-0.1-0.2-0.2-0.1z"/>
				<path id="&lt;Path&gt;" class="s5" d="m37.1 21.5c-1-0.4-2 1.2-2.2 1.9-0.3 0.7 0 1.3 0.1 2 0.1 0.6 0.1 1 0.7 1.3q0 0 0-0.1c-0.5-0.5-0.5-0.8-0.6-1.5 0-0.5-0.2-1.1 0-1.6 0.3-0.8 1.1-1.7 1.9-1.8 0.2 0 0.2-0.2 0.1-0.2z"/>
				<path id="&lt;Path&gt;" class="s5" d="m41.9 11.5c-0.6 0-0.9 0.8-1 1.3 0 0.6 0.2 1.2 0.8 1.5 0 0 0 0 0-0.1-0.4-0.3-0.6-0.9-0.5-1.4 0.1-0.5 0.4-0.9 0.8-1.2 0 0 0-0.1-0.1-0.1z"/>
				<path id="&lt;Path&gt;" class="s5" d="m35.2 9.5c-0.8-0.4-1.5-0.5-1.9-1.3 0-0.1-0.1 0-0.1 0 0.3 0.9 1.2 1.2 2 1.5 0 0 0.1-0.1 0-0.2z"/>
				<path id="&lt;Path&gt;" class="s5" d="m30.5 15c-0.1-0.8-1-0.5-1.3-0.1-0.5 0.8 0.3 1.3 1 1.2 1.1-0.3 1.6-1.9 0.5-2.5-1-0.7-2.2 0.4-2.4 1.4-0.1 0.7 0.1 1.4 0.8 1.6 0.8 0.2 1.6-0.2 2.1-0.7 0 0 0-0.1 0-0.1-0.5 0.3-1 0.6-1.5 0.6-0.8-0.1-1.2-0.6-1-1.3 0.1-0.6 0.4-1 0.9-1.2 0.5-0.2 1.1-0.1 1.3 0.5 0.1 0.5-0.2 1-0.6 1.2-0.2 0.1-0.9 0.2-0.9-0.2-0.1-0.4 0.6-0.9 0.8-0.3 0.1 0.1 0.3 0 0.3-0.1z"/>
				<path id="&lt;Path&gt;" class="s5" d="m20.7 24c-1-0.5-2-0.3-1.6 1.1 0.2 0.5 1.1 1.7 1.9 1.3 0.5-0.3-0.1-1.2-0.3-1.5-0.1-0.1-0.3 0-0.2 0.1 0 0.1 0.3 0.4 0.3 0.6q-0.6 0.6-1 0-0.3-0.3-0.3-0.6c-0.3-0.9 0.1-1.1 0.8-0.8 0.7 0.3 1.5 0.9 1.7 1.6 0.4 0.8 0 1.8-1.1 1.6-0.7 0-1.4-0.6-1.9-1.2-0.5-0.5-0.9-1.2-1-1.9-0.2-1 0.4-1.3 1.2-1.4q0.1-0.1 0-0.1c-0.5 0-1.2 0-1.5 0.5-0.4 0.8 0.2 1.9 0.6 2.5 0.6 1.1 3 3.1 4 1.4 0.8-1.3-0.6-2.6-1.6-3.2z"/>
				<path id="&lt;Path&gt;" class="s5" d="m21.3 9c-1 0.5-2.3 1.9-1.1 2.9q0 0 0 0c-2-2.5 4.7-4.3 3.7-1-0.2 0.9-1.3 2.1-2.3 2-1.6-0.2-0.4-3.1 1.1-2.1 0.1 0.1 0.2 0 0.2-0.1-0.8-1.2-2.3 0.2-2.4 1.1-0.2 1.3 1.2 1.6 2.1 1.1 1-0.5 2-1.7 1.7-2.9-0.4-1.3-1.9-1.5-3-1z"/>
				<path id="&lt;Path&gt;" class="s5" d="m12.1 21c-0.2 0-0.4 0-0.5 0.1-0.1 0.2 0 0.5 0 0.6q0.1 0 0.1 0c-0.1-0.2-0.1-0.5 0.1-0.5 0.2-0.1 0.3 0 0.4 0.1 0.3 0.2 0.5 0.6 0.4 1-0.1 0.2-0.2 0.4-0.5 0.5-0.3 0-0.2-0.4-0.2-0.6 0-0.1-0.1-0.1-0.1-0.1-0.2 0.4-0.2 0.9 0.3 0.9 0.4 0 0.7-0.4 0.7-0.8 0.1-0.4-0.2-1.1-0.7-1.2z"/>
				<path id="&lt;Path&gt;" class="s5" d="m24.3 34.1c-0.7 0.4-1 1.3-1.4 1.9-1 1.4-2.1 0.9-3.5 0.8-1.1-0.1-2.1 0.3-2 1.5 0 0.9 0.8 1.9 1.7 2q0.1 0 0 0c-1.2-0.6-2.4-3-0.2-3.2 1 0 2 0.5 2.9 0.3 0.8-0.2 1.2-0.8 1.6-1.5 0.2-0.2 0.7-1.3 1-1.4 0.4-0.1 0.6 0.7 0.7 0.9 0.1 0.1 0.2 0.5 0.2 0.6 0.1 0.2 0.4 0.1 0.4-0.1-0.2-0.7-0.3-2.4-1.4-1.8z"/>
				<path id="&lt;Path&gt;" class="s5" d="m10.5 37.2c-0.3 0-0.5 0-0.7 0.1-0.1 0.2-0.1 0.3-0.2 0.5-0.1 0.1-0.2 0.1-0.3 0.2 0 0.2 0 0.4 0.1 0.6 0.3 1 1.5 2 2.5 1.8 0.1 0 0.1-0.1 0-0.1-0.7-0.2-1.3-0.4-1.8-1-0.3-0.3-0.9-1.1-0.3-1.4q0.1 0 0.1-0.1c0-0.3 0.3-0.5 0.6-0.6 0 0 0 0 0 0z"/>
				<path id="&lt;Path&gt;" class="s5" d="m8.5 11.5c-0.4 0.3-0.6 0.7-0.6 1.2-0.1 0.8 0.9 1.8 1.6 1q0 0 0 0c-0.4 0.1-0.7 0.1-1-0.2-0.2-0.2-0.4-0.6-0.3-0.9 0-0.3 0.2-0.6 0.4-0.8 0.2-0.2 0.5-0.2 0.8-0.1 0.1 0 0.1-0.1 0.1-0.1-0.2-0.4-0.7-0.3-1-0.1z"/>
				<path id="&lt;Path&gt;" class="s5" d="m4.3 17c-0.3 0.3-0.1 0.6 0.2 0.9q-0.2 0-0.5 0.1 0 0.1 0 0.1c0 0.6 1.1 1.4 1.3 0.6q0-0.1-0.1 0c-0.2 0.2-0.5 0.1-0.7-0.1-0.1-0.1-0.2-0.2-0.3-0.3 0-0.1 0-0.1 0.1-0.1 0.1-0.1 0.3-0.1 0.4-0.1 0.1 0 0.2-0.2 0.1-0.2-0.1-0.2-0.6-0.7-0.1-0.7 0.2 0 0.4 0.1 0.5 0.2 0.1 0 0.2-0.1 0.1-0.2-0.2-0.2-0.7-0.4-1-0.2z"/>
				<path id="&lt;Path&gt;" class="s5" d="m12.4 5.2c-0.1 0.2-0.1 0.9 0.3 0.8q0.1-0.1 0.1-0.1c-0.1-0.1-0.2-0.2-0.3-0.3q0-0.1 0-0.3c0.1-0.2 0.3-0.3 0.4-0.1 0-0.4-0.3-0.3-0.5 0z"/>
				<path id="&lt;Path&gt;" class="s5" d="m20.3 3.9c-0.1 0.3 0.1 0.8 0.5 0.7 0.1 0 0.1-0.1 0-0.1-0.1-0.1-0.3-0.3-0.3-0.5 0.1-0.3 0.3-0.2 0.5-0.1q0.1 0 0.1-0.1c-0.2-0.3-0.7-0.2-0.8 0.1z"/>
				<path id="&lt;Path&gt;" class="s5" d="m24.7 2.6c-0.3 0.1-0.4 0.4-0.4 0.7 0.1 0.7 1.1 1.1 1.7 1.1 0.2 0 0.2-0.1 0.1-0.2-0.5-0.2-1-0.3-1.4-0.7-0.1-0.1-0.2-0.2-0.1-0.4 0-0.2 0.2-0.2 0.4-0.2 0.2 0 0.4 0 0.7 0.1 0 0 0-0.1 0-0.1-0.3-0.1-0.6-0.3-1-0.3z"/>
				<path id="&lt;Path&gt;" class="s5" d="m34.5 4.1c-0.2 0.4-0.1 0.8 0.3 1 0 0.2 0 0.4 0.1 0.6 0.1 0.2 0.4 0.4 0.6 0.2q0 0 0-0.1c-0.2-0.1-0.3 0-0.4-0.2-0.1-0.2-0.1-0.4 0-0.6q0-0.1-0.1-0.1c-0.4-0.1-0.4-0.5-0.3-0.7 0.2-0.4 0.5-0.3 0.8-0.1 0 0.1 0.1-0.1 0.1-0.1-0.3-0.5-0.9-0.4-1.1 0.1z"/>
				<path id="&lt;Path&gt;" class="s5" d="m4.3 25q-0.2 0-0.4 0.1c-0.3 0-0.5 0.3-0.5 0.6q0 0 0 0c0.3 0.2 0.5 0.3 0.8 0.4q0 0 0-0.1-0.2-0.1-0.3-0.2c-0.1 0-0.3-0.1-0.3-0.1-0.1-0.3 0.2-0.4 0.4-0.4 0.2-0.1 0.6 0.1 0.8-0.1 0.1 0 0.1-0.1 0-0.1-0.1-0.1-0.3-0.1-0.5-0.1z"/>
			</g>
			<g id="&lt;Group&gt;" style="opacity: .6">
				<path id="&lt;Path&gt;" class="s0" d="m42.6 7.9c8.5 10 7.2 24.9-2.8 33.3-10 8.5-24.9 7.2-33.3-2.8-8.4-10-7.2-24.9 2.8-33.3 10-8.4 24.9-7.2 33.3 2.8z"/>
				<path id="&lt;Path&gt;" class="s0" d="m42.6 7.9c8.5 10 7.2 24.9-2.8 33.3-10 8.5-24.9 7.2-33.3-2.8-8.4-10-7.2-24.9 2.8-33.3 10-8.4 24.9-7.2 33.3 2.8z"/>
				<path id="&lt;Path&gt;" class="s1" d="m11.5 20.1c-3.3-1.7-4.4 3-0.4 2.1 0 0.5 0.3 1.1 0.3 1.5 2.6-0.4 2.8-3.3 0.4-4.3z"/>
				<path id="&lt;Path&gt;" class="s1" d="m18.6 11.8c-1-0.4-2-1-3-1.5 0.4-1.7 1.3-1.9 2.3-0.4 0.8-0.4 3.7-2.4 4.6-2.4 5.1 0.5 2.3 9.8-3.5 5.3z"/>
				<path id="&lt;Path&gt;" class="s1" d="m18.4 22.9c0.6-0.2 1.1-0.3 1.5-0.9-0.8-1.5-2.6-2.1-3.8-0.7-1.7 1.9 0.6 2.9 1.1 4.4 0.5 1.2-1 1.8 0.8 3.1 1.2 0.9 3.4 0.4 4.4-0.6 2.7-2.6-0.3-5.1-3-5.7z"/>
				<path id="&lt;Path&gt;" class="s1" d="m21.5 18.9c0.1 2.2 1.5 3.8 3.4 2.1-0.4-1.7-1.8-2.4-3.4-2.5z"/>
				<path id="&lt;Path&gt;" class="s1" d="m27.8 14.1c-1.7-0.8-2.4 0.4-2 2.1 0.8 2.7 2.4 0.6 3.7 1.3 1.7 1 1 3.1 2.1 3.8 1.4 0.9 3.3-0.2 2.9-1.9-0.1-0.1 0.6 0.7 0.5 0.5 1-1.6-1.2-2.4-1.9-2.1 0.9-1.7-0.1-6-1.6-3.7 2-2.8-4.5-2.9-3.5 0.7z"/>
				<path id="&lt;Path&gt;" class="s1" d="m8.5 28.9c0.3-0.1 0.7 0.3 1-0.4-1.8-3.4-4.4 1.8-1.6 3.1-1.6-0.5-1.9 3.6 1.5 3.2 3.5-0.5 3.2-5.8-0.5-4.8z"/>
				<path id="&lt;Path&gt;" class="s1" d="m26.7 38.6c-0.5 5-11.6 2.8-9.2-1.2 1.2-2 2.8 0.4 4.5-0.5 0.9-0.5 3.3-5.8 4.1-1.1 0.8-3.6 7.3 2 0.6 2.8z"/>
				<path id="&lt;Path&gt;" class="s1" d="m19.4 34.8c2 2.4 3-1.2 0-0.8-0.5 0.7 0.1 0.5 0.2 1.1z"/>
				<path id="&lt;Path&gt;" class="s1" d="m29.3 25.5c0 1.7 1.4 2.8 3 1.5 0-1-0.4-1.8-1.2-2.5-1 0.4-0.8 0.8-0.9 1.6z"/>
				<path id="&lt;Path&gt;" class="s1" d="m42.7 30.6c0.4 0.3 0.2 0.6 0.9 0.6 0.8-1.6-0.4-3.6-2-1.9z"/>
				<path id="&lt;Path&gt;" class="s1" d="m40.2 19.1c0.3 0.2 0.4 0.5 0.7 0.7 0.8-1.1 0.4-2.1-1-2.7-0.6 0.5-0.2 0.8-0.1 1.4z"/>
				<path id="&lt;Path&gt;" class="s1" d="m33.3 7.7l-0.5 0.4c0.6 1 1.6 1.6 2.7 1.7-0.3-1.3-0.8-1.9-2.2-2.1z"/>
				<path id="&lt;Path&gt;" class="s1" d="m9.4 11.1c-0.3-0.1-0.6 0-0.8 0.2-0.1 0.1-0.2 0.1-0.3 0.2q0 0 0.1 0-0.1 0-0.1 0.1-0.1 0-0.1 0c-0.3 0.2-0.3 0.6-0.4 0.9 0 0.3-0.1 0.5 0.1 0.8 0.1 0.2 0.3 0.4 0.5 0.6 0.4 0.2 0.9 0.2 1.3-0.1q0.1-0.1 0.1-0.1 0.1-0.1 0.1-0.1c0.2-0.1 0.4-0.3 0.4-0.5q0.1-0.4 0-0.7c-0.1-0.3-0.2-0.6-0.3-0.8-0.2-0.3-0.3-0.4-0.6-0.5z"/>
				<path id="&lt;Path&gt;" class="s1" d="m14.3 15.2c-0.4 0.1-0.8 0.7-0.5 1.1 0.4 0.4 1.1 0.1 1.2-0.3 0.3-0.5-0.2-1.1-0.7-0.8z"/>
				<path id="&lt;Path&gt;" class="s1" d="m12.4 4.9c-0.6 0.5 0.2 1.4 0.7 0.9 0.6-0.5-0.1-1.4-0.7-0.9z"/>
				<path id="&lt;Path&gt;" class="s1" d="m20.4 3.6c-0.6 0.5 0.2 1.4 0.7 0.9 0.6-0.5-0.1-1.3-0.7-0.9z"/>
				<path id="&lt;Path&gt;" class="s1" d="m33.5 33.8c-0.7-0.3-1.2 0.6-0.8 1.2q0.2 0.3 0.4 0.6c0 0.2 0 0.5 0 0.7 0.1 0.5 0.7 0.7 1.1 0.4q0.2 0.2 0.4 0.3c0.5 0.2 1-0.4 0.8-0.9q-0.2-0.3-0.4-0.5 0.1-0.4 0.1-0.7c-0.1-0.7-1-0.9-1.6-1.1z"/>
				<path id="&lt;Path&gt;" class="s1" d="m30.8 36.8c-0.2 0.1-0.3 0.2-0.5 0.1-0.3 0-0.6 0.2-0.6 0.5 0 0.3 0.2 0.5 0.5 0.6 0.4 0.1 0.8 0 1.1-0.3 0.2-0.2 0.3-0.5 0.1-0.7-0.1-0.2-0.4-0.3-0.6-0.2z"/>
				<path id="&lt;Path&gt;" class="s1" d="m35.4 28.2c-0.5-0.5-1.3 0.1-0.8 0.6 0.1 0.2 0.2 0.3 0.4 0.4 0.4 0.1 0.7-0.2 0.7-0.5-0.1-0.2-0.2-0.4-0.3-0.5z"/>
				<path id="&lt;Path&gt;" class="s1" d="m40.5 23.2c-0.6 0.4 0.1 1.2 0.7 0.8 0.5-0.5-0.2-1.3-0.7-0.8z"/>
				<path id="&lt;Path&gt;" class="s1" d="m37.8 17.2c-0.6 0.5 0.1 1.3 0.7 0.9 0.5-0.5-0.2-1.3-0.7-0.9z"/>
				<path id="&lt;Path&gt;" class="s1" d="m41.3 11.9c-0.2 0.3-0.4 0.7-0.4 1 0 0.5 0.2 1 0.3 1.4 0.1 0.3 0.5 0.5 0.8 0.5q0.1-0.1 0.2-0.1c0.3 0.1 0.6 0 0.8-0.3 0.2-0.4 0.7-1 0.4-1.6 0-0.1-0.1-0.2-0.2-0.3-0.3-0.3-0.3-0.4-0.5-0.7-0.3-0.6-1.1-0.5-1.4 0.1z"/>
				<path id="&lt;Path&gt;" class="s1" d="m40.9 34.3q-0.1-0.2-0.2-0.3-0.2-0.2-0.5-0.4c-0.3-0.3-0.8-0.2-1 0.1q-0.2 0.1-0.3 0.2c-0.4 0.5-0.6 1.1-0.5 1.7 0.2 0.5 0.5 0.8 0.9 1q0.1 0.1 0.2 0.1 0.1 0.1 0.3 0.3c0.4 0.3 1.1-0.1 1.1-0.6 0-0.4 0.1-0.9 0-1.4q0 0 0 0c0.2-0.2 0.3-0.5 0-0.7z"/>
				<path id="&lt;Path&gt;" class="s1" d="m27.5 41.3q-0.1-0.1-0.2-0.2c-0.3-0.1-0.6-0.1-0.8 0.1-0.2 0.2-0.2 0.6 0 0.8 0.3 0.3 0.8 0.8 1.3 0.8 0.3 0 0.6-0.2 0.7-0.5 0.2-0.3 0.1-0.7-0.2-1-0.2-0.3-0.5-0.2-0.8 0z"/>
				<path id="&lt;Path&gt;" class="s1" d="m43.4 32.3c-0.5-0.5-1.2 0.1-0.8 0.7 0.1 0.2 0.2 0.3 0.5 0.4 0.3 0.1 0.7-0.2 0.6-0.6 0-0.2-0.1-0.3-0.3-0.5z"/>
				<path id="&lt;Path&gt;" class="s1" d="m26.6 29.1c-0.3-0.2-0.7-0.4-1.1-0.2q-0.2 0.1-0.3 0.3 0 0 0-0.1c-0.3-0.1-0.5 0.1-0.6 0.3q-0.2 0.3 0 0.5c0 0.3 0.2 0.7 0.5 0.9 0.6 0.4 1.3-0.2 1.7-0.6 0.4-0.3 0.3-1-0.2-1.1z"/>
				<g id="&lt;Group&gt;">
					<path id="&lt;Path&gt;" class="s1" d="m13.9 34q0 0 0 0z"/>
					<path id="&lt;Path&gt;" class="s1" d="m15.5 33.8q0 0-0.1 0-0.1 0-0.2-0.1h-0.1q0 0 0 0c-0.1-0.2-0.2-0.3-0.4-0.3-0.4-0.1-0.9 0.1-0.8 0.6q0.1 0.1 0.1 0.1-0.1 0.1-0.1 0.2c0 0.2 0.1 0.6 0.4 0.6q0.2 0.1 0.5 0.1 0 0 0 0 0.2 0 0.5 0c0.3 0 0.6-0.1 0.6-0.5 0.1-0.3-0.1-0.6-0.4-0.7z"/>
					<path id="&lt;Path&gt;" class="s1" d="m13.9 34c0-0.2 0 0 0 0z"/>
				</g>
				<path id="&lt;Path&gt;" class="s1" d="m10.3 37.1c-0.3-0.1-0.9 0.2-0.8 0.6-0.3 0-0.6 0.3-0.4 0.6 0.5 1.5 1.9 2.5 3.4 2.4 0.4-0.1 0.6-0.5 0.6-0.8-0.3-1.4-1.4-2.4-2.8-2.8z"/>
				<path id="&lt;Path&gt;" class="s1" d="m27.1 3.3q0 0 0 0c-0.1-0.2-0.2-0.4-0.4-0.5q-0.2 0-0.3-0.1-0.3 0-0.6 0.1-0.2-0.1-0.5-0.2c-0.6-0.2-1.2 0.5-0.7 1q0.3 0.4 0.7 0.5c0.6 0.3 1 0.6 1.7 0.4 0.6-0.2 0.7-1 0.1-1.2z"/>
				<path id="&lt;Path&gt;" class="s1" d="m35.9 4.2q-0.1-0.1-0.3-0.1-0.1-0.1-0.1-0.1c-0.3-0.5-0.8-0.2-1 0.2-0.2 0.1-0.2 0.5 0.1 0.7 0 0.4 0.1 0.7 0.3 1 0.4 0.6 1.2 0.3 1.7 0.1 0.3-0.2 0.5-0.5 0.3-0.8-0.2-0.5-0.5-0.9-1-1z"/>
				<path id="&lt;Path&gt;" class="s1" d="m33.9 41.5c-0.4-0.3-1.2-0.1-1.2 0.5-0.1 0.4 0.4 0.7 0.8 0.6q0.1 0 0.3 0.1c0.4 0 0.6-0.6 0.3-0.8q-0.1-0.2-0.2-0.4z"/>
				<path id="&lt;Path&gt;" class="s1" d="m21.7 43.8c-0.2-0.1-0.4-0.1-0.6-0.1-0.8-0.1-0.9 1.2-0.1 1.3 0.2 0 0.4 0 0.6-0.1 0.6-0.1 0.6-0.8 0.1-1.1z"/>
				<path id="&lt;Path&gt;" class="s1" d="m5.1 16.9c-0.4-0.4-1.1 0-0.9 0.6q0.1 0.2 0.2 0.3c-0.5 0.1-0.4 0.9 0.1 0.9q0 0 0 0 0.1 0 0.1 0.1 0.2 0.1 0.4 0.2c0.5 0.2 0.9-0.2 1.1-0.6 0.1-0.2 0.1-0.5 0-0.6-0.3-0.3-0.7-0.6-1-0.9z"/>
				<path id="&lt;Path&gt;" class="s1" d="m5 24.9c-0.5-0.3-1.5-0.4-1.5 0.4 0 0.3 0.1 0.5 0.4 0.6q0.1 0.2 0.4 0.4c0.4 0.3 0.9-0.2 0.8-0.6 0.2-0.2 0.2-0.6-0.1-0.8z"/>
				<path id="&lt;Path&gt;" class="s1" d="m28.7 20.7c-0.2-0.1-0.4-0.2-0.6-0.2q0 0 0 0c-0.2-0.6-1.1-0.5-1.3 0q-0.1 0.3-0.1 0.6c-0.2 0-0.2 0.1-0.3 0.2-0.1 0.1-0.1 0.5 0 0.6q0.1 0.3 0.4 0.4 0.3 0.2 0.6 0.2 0.2 0 0.5-0.1c0.4 0.1 0.8 0.1 1-0.2q0-0.1 0.1-0.2 0.1-0.1 0.1-0.3c0.1-0.4-0.2-0.7-0.4-1z"/>
				<path id="&lt;Path&gt;" class="s1" d="m36.7 21.2c-1 0.6-1.8 1.5-2 2.7q-0.1 0.8 0.1 1.5 0.1 0.6 0.3 1.2c0.2 0.4 0.8 0.7 1.1 0.4q0.1 0 0.3-0.1c0.2-0.1 0.5-0.2 0.7-0.3 0.4-0.3 0.4-0.7 0.5-1.1 0.6-1.2 0.7-2.6 0.1-3.9-0.2-0.4-0.7-0.7-1.1-0.4z"/>
				<path id="&lt;Path&gt;" class="s1" d="m44.1 22.6c-0.3 0.3-0.5 0.7-0.4 1.1q0 0.3 0.1 0.4 0 0.1-0.1 0.2c0 0.1 0.1 0.3 0.1 0.2q0-0.1 0 0.1 0 0.1 0 0.2 0.1 0.1 0.2 0.2 0 0.1 0 0.1-0.1-0.2 0.1 0.1 0.1 0.1 0.2 0.1c0.4 0.3 0.9 0.1 1-0.4 0.1-0.6 0-1.2-0.1-1.8-0.1-0.6-0.7-0.8-1.1-0.5z"/>
				<path id="&lt;Path&gt;" class="s2" d="m9.7 6.6c-3.5 0-3.7 3.8-4.9 6.1-1.5 2.9-4.1 5.4-1.4 9.1-4.5 6.4 4.1 14.5 9.8 15 11.7 1 18-12.3 8.3-20 2.1-0.7 2.8-3.8 1.2-5.6 3-0.8 2.8-4.4 0.9-6.5-3.9-4.3-9.9-1.5-13.9 1.9z"/>
				<path id="&lt;Path&gt;" class="s3" d="m39.8 41.2c10-8.4 11.3-23.3 2.8-33.3-6.2-7.4-16.1-10-24.8-7.4q0.5 0.3 1.2 0.6c1.8 0.7 3.9 0.6 5.6 1.3 2.9 1.4 1.3 0.9 2.7 3.4 1.3 2.3 3 2.1 4.5 3.9 1.1 1.1 1 2.9 2.4 4.4-5.2 4.2 4.2 6.7 2.6 10.1-0.6 1.2-2.7 1.3-3.8 2.3-1.5 1.5-2.2 2.5-1.1 4.7-1.7 0.8-5.5 0.4-3.5 3.7-2.2 1.3-3.6 3.2-6.3 3.2-1.8 0-2.5-1.3-4.3-0.8-2 0.5-2.8 3.1-4.6 3.7-1.7 0.7-2.9-0.7-4.4-0.2 8.6 7.7 21.9 8.1 31 0.4z"/>
				<path id="&lt;Path&gt;" class="s2" d="m42.6 7.9c-2.6-3.1-5.8-5.3-9.3-6.7 1 0.7 1.9 1.4 2.5 2 3.2 3.1 5.5 6.6 6.8 10.7 3.8 12.7-1.8 25.3-13.7 30.9-1.2 0.5-3.5 1.2-5.5 2 5.8 0.3 11.6-1.6 16.4-5.6 10-8.4 11.3-23.3 2.8-33.3z"/>
				<path id="&lt;Path&gt;" class="s4" d="m14.3 10.4c-2.7-4.6-8.3 0.1-6.3 4-6.2 1.4-6.6 12.1-1.7 15.6 11.2 8 20.2-11.3 8-19.6z"/>
				<path id="&lt;Path&gt;" class="s4" d="m12 20.1c1.4-6.9-7.1-7.3-7.5 0.4-0.4 9.8 13.3 7.4 8.6-1.3z"/>
				<path id="&lt;Path&gt;" class="s4" d="m7.9 27.5c-0.1 0 0 0.1 0 0.1 0.5-0.1 0.9 0 1.2 0.4 0.3 0.5 0.2 1-0.4 1-0.1 0-0.2 0.1-0.1 0.2 0.1 0.3 0.2 0.6 0.5 0.7q0 0.1 0 0c0-0.2-0.2-0.4-0.3-0.7 1.5-0.1 0.1-2.7-0.9-1.7z"/>
				<path id="&lt;Path&gt;" class="s4" d="m10.2 29.6c-0.1 0-0.1 0.1-0.1 0.2 0.4 0.2 0.7 0.3 1.1 0.5 0.9 0.5 0.9 1.9 0.6 2.8-0.4 1.1-1.9 2-3 2q0 0 0 0c1.2 0.3 2.8-0.7 3.2-1.9 0.3-0.8 0.3-1.8-0.1-2.6-0.3-0.6-1.1-0.7-1.7-1z"/>
				<path id="&lt;Path&gt;" class="s4" d="m12 19.4c-0.1 0-0.1 0.1-0.1 0.1 0.6 0.7 1.5 0.8 1.6 1.9 0.3 1.4-0.9 2.1-2.2 2.4q0 0 0 0c1.3 0 2.5-0.7 2.5-2.1 0.1-1-0.8-2.1-1.8-2.3z"/>
				<path id="&lt;Path&gt;" class="s4" d="m10.1 19.4c-0.5 0-1 0.3-1.3 0.6q0 0.1 0 0.1c0.4-0.2 0.7-0.4 1.2-0.5q0.3 0 0.6 0.1c0.2 0.1 0.4 0.2 0.6 0.3 0 0 0.1-0.1 0.1-0.1-0.2-0.5-0.8-0.5-1.2-0.5z"/>
				<path id="&lt;Path&gt;" class="s4" d="m17.4 8.8c-0.3-0.2-0.8-0.1-1.1 0 0.3 0 0.8 0 1.1 0.2 0.3 0.2 0.3 0.6 0.5 0.9 0.1 0 0.2 0 0.2-0.1 0-0.4-0.3-0.8-0.7-1z"/>
				<path id="&lt;Path&gt;" class="s4" d="m21.6 7.6q0 0 0 0c1.7 0.1 3.3 0.3 3.5 2.3 0.1 1.2-0.6 2.2-1.1 3.2 0 0.2 0.2 0.2 0.2 0.1 1-1.1 1.6-2.8 1-4.2-0.6-1.5-2.2-1.9-3.6-1.4z"/>
				<path id="&lt;Path&gt;" class="s4" d="m8.2 11.5c-0.1 0 0 0.1 0 0.1 0.3-0.3 0.8-0.6 1.2-0.4 0.2 0.1 0.4 0.3 0.5 0.5 0.1 0.2 0 0.3 0.1 0.5 0.1 0.4 0.5 0.6 0.3 1.1-0.2 0.3-0.6 0.5-1 0.7 0 0 0 0.2 0.1 0.2 0.4 0 1-0.5 1.2-0.9 0.2-0.5-0.2-0.8-0.3-1.3-0.2-1.1-1.4-1.3-2.1-0.5z"/>
				<path id="&lt;Path&gt;" class="s4" d="m14.5 15c0 0 0 0.1 0 0.1 0.2 0 0.4 0 0.5 0.1 0.2 0.1 0.2 0.3 0.2 0.5 0 0.4-0.5 0.5-0.8 0.7 0 0.1 0 0.1 0.1 0.1 0.4-0.2 1-0.4 0.9-1 0-0.4-0.5-0.7-0.9-0.5z"/>
				<path id="&lt;Path&gt;" class="s4" d="m4.5 16.6q0 0 0 0c0.5 0.1 1.3 0.6 1.5 1.1 0.3 0.7-0.4 1.1-0.8 1.5-0.1 0-0.1 0.1 0 0.1 0.6-0.1 1.2-0.8 1.1-1.4-0.2-0.7-1.1-1.3-1.8-1.3z"/>
				<path id="&lt;Path&gt;" class="s4" d="m3.4 24.9q-0.1 0.1 0 0.1c0.4-0.1 1-0.2 1.4 0 0.5 0.2 0.4 1.1 0 1.4-0.1 0.1 0 0.3 0.1 0.2 0.6-0.2 0.6-1.2 0.2-1.6-0.4-0.5-1.3-0.4-1.7-0.1z"/>
				<path id="&lt;Path&gt;" class="s4" d="m9.9 37c-0.1 0-0.1 0.1 0 0.1 1.2 0.1 1.8 0.6 2.5 1.5 0.2 0.4 0.6 0.8 0.7 1.2 0.3 1.2-1.4 0.9-2.1 0.8q0 0 0 0c0.9 0.4 2.9 0.4 2.2-1.1-0.6-1.2-1.8-2.9-3.3-2.5z"/>
				<path id="&lt;Path&gt;" class="s4" d="m15.3 33.8c0-0.5-0.5-0.7-0.9-0.6-0.1 0-0.2 0.1-0.1 0.1 0.4 0.1 0.9 0 0.8 0.6 0 0.1 0.1 0.1 0.1 0.1 0.5-0.1 0.8 0.4 0.5 0.8-0.2 0.4-0.9 0.2-1.2 0.2 0.5 0.2 1.4 0.4 1.5-0.4 0.1-0.5-0.2-0.9-0.7-0.8z"/>
				<path id="&lt;Path&gt;" class="s4" d="m21.4 23.1c-0.3-0.1-0.6-0.3-1-0.4-0.7-0.3-0.4-0.1-0.4-0.3 0-0.2 0.1-0.3 0.1-0.5-0.2-0.7-1.3-1.2-1.9-1.5-0.1 0-0.2 0.2-0.1 0.2 0.3 0.2 2.3 1.3 1.4 1.8-0.1 0-0.1 0.2 0 0.2 1.7 0.6 3.6 1.7 3.7 3.7 0.1 1.5-1.2 2.1-2.2 2.9q0 0 0 0c1-0.4 2.2-1.1 2.5-2.3 0.3-1.5-0.9-3-2.1-3.8z"/>
				<path id="&lt;Path&gt;" class="s4" d="m21.5 18.6c0 0 0 0 0 0 1.1-0.1 1.9 0.2 2.6 0.9 0.3 0.4 0.7 0.7 0.6 1.2-0.2 0.5-0.7 0.5-1.1 0.9-0.1 0 0 0.2 0.1 0.2 0.5-0.2 1.2-0.4 1.3-0.9 0.2-0.5-0.2-1-0.5-1.3-0.7-1-1.8-1.5-3-1z"/>
				<path id="&lt;Path&gt;" class="s4" d="m28.8 20.5c-0.2-0.1-0.3-0.1-0.5-0.1-0.3-0.1-0.1 0.1-0.2-0.1-0.1-0.1-0.1-0.2-0.1-0.2-0.2-0.4-0.5-0.3-0.7 0 0.4-0.3 0.6 0.1 0.6 0.4 0.1 0.1 0.1 0.1 0.2 0.1 0.5-0.1 0.9 0.2 0.9 0.7 0 0.5-0.3 0.8-0.7 1 0 0.1 0 0.2 0.1 0.1 0.8-0.1 1.1-1.4 0.4-1.9z"/>
				<path id="&lt;Path&gt;" class="s4" d="m33.7 17.3c-1-0.9 0.5-4.4-1.9-4.2 0.2-0.5-0.1-0.9-0.7-1.1-1.1-0.5-2.1 0.2-2.9 1q-0.1 0 0 0c0.5-0.3 1.2-0.8 1.8-0.9 0.5 0 1.9 0.2 1.4 1.1 0 0.1 0 0.3 0.2 0.3 1.9-0.4 1.2 2.5 1.5 3.6 0 0.3 0.1 0.5 0.3 0.7 0.2 0.2 0.4 0.1 0.5 0.1q0.9 0.1 1.2 0.9 0.4 0.7-0.4 1.3c-0.2 0-0.2 0.2-0.1 0.3 0.8 0.1 1.1-0.4 1-1.2-0.1-0.5-0.3-0.9-0.7-1.3-0.4-0.3-0.9-0.2-1.2-0.6z"/>
				<path id="&lt;Path&gt;" class="s4" d="m12.6 4.6q0 0 0 0c0.4 0.1 0.7 0.4 0.8 0.8 0 0.4-0.4 0.5-0.6 0.7-0.1 0 0 0 0 0 0.4-0.1 0.8-0.3 0.7-0.8-0.1-0.4-0.5-0.7-0.9-0.7z"/>
				<path id="&lt;Path&gt;" class="s4" d="m21 3.5c-0.1-0.1-0.1 0-0.1 0 0.2 0.2 0.4 0.5 0.5 0.8 0.1 0.4-0.2 0.5-0.5 0.5v0.1c0.3 0.1 0.6-0.1 0.6-0.5 0-0.3-0.2-0.8-0.5-0.9z"/>
				<path id="&lt;Path&gt;" class="s4" d="m27.4 3.4c-0.2-0.1-0.3-0.3-0.4-0.4-0.4-0.3-0.9-0.4-1.3-0.3-0.2 0-0.1 0.1 0 0.1 0.4 0.1 0.7 0.1 1.1 0.4 0.2 0.1 0.4 0.3 0.5 0.4 0.3 0.3 0.3 0.6 0 0.8-0.2 0.1-0.4 0.1-0.6 0-0.3 0-0.5 0-0.8 0q0 0 0 0.1c0.4-0.1 0.9 0.2 1.3 0.1 0.4 0 0.6-0.4 0.5-0.8 0-0.3-0.1-0.3-0.3-0.4z"/>
				<path id="&lt;Path&gt;" class="s4" d="m39.9 17.2c0 0 0 0.1 0 0.1 0.6 0.2 1 0.3 1.2 0.9 0.3 0.5 0.3 1.1-0.1 1.6 0 0 0.1 0.1 0.1 0 0.4-0.4 0.4-1.1 0.2-1.6-0.2-0.5-0.8-1.2-1.4-1z"/>
				<path id="&lt;Path&gt;" class="s4" d="m41.7 11.6c0 0.1 0.1 0.1 0.1 0.1 0.5-0.8 1.2 0.5 1.4 0.8 0.3 0.5 0.5 0.9 0.2 1.3-0.2 0.4-0.5 0.6-0.7 1q0 0 0 0c0.3-0.4 0.9-0.8 1-1.4 0-0.4-0.2-0.8-0.5-1.1-0.2-0.4-1.2-1.7-1.5-0.7z"/>
				<path id="&lt;Path&gt;" class="s4" d="m34.7 7.8c-0.4-0.3-1.2-0.6-1.5-0.1q0 0 0.1 0c0.4-0.4 1.2 0.1 1.5 0.4 0.5 0.4 0.7 1.2 0.6 1.9 0 0.1 0.2 0.1 0.2 0 0.2-0.8-0.2-1.8-0.9-2.2z"/>
				<path id="&lt;Path&gt;" class="s4" d="m35.7 3.8c-0.3-0.3-0.5-0.4-0.9-0.1 0 0 0 0 0 0 0.5-0.5 0.7 0.2 0.9 0.4 0 0.1 0.1 0.1 0.2 0.1 0.3 0.2 0.5 0.2 0.7 0.5 0.4 0.4 0.5 1-0.1 1.3-0.3 0.1-0.7 0-1 0.1 0 0.1 0 0.2 0.1 0.2 0.4 0 0.9 0 1.2-0.3 0.4-0.4 0.5-0.8 0.2-1.2-0.3-0.4-0.9-0.7-1.3-1z"/>
				<path id="&lt;Path&gt;" class="s4" d="m30.6 24.6c-0.1 0.1 0 0.2 0.1 0.1 0.6-0.4 0.9 0.5 1.2 0.9 0.1 0.2 0.2 0.4 0.3 0.6 0 0.2 0 0.3 0 0.5q0 0.2 0.1 0.4c-0.5 0.3-1 0.7-1.7 0.8q0 0 0 0c0.8 0 1.3-0.3 1.9-0.7q0.1 0 0-0.1c-0.2-0.4 0-0.9-0.2-1.3q-0.3-0.6-0.7-1.1c-0.3-0.4-0.7-0.6-1-0.1z"/>
				<path id="&lt;Path&gt;" class="s4" d="m29.6 25.6q-0.2-0.1-0.4 0c-0.1 0-0.1 0.1 0 0.1q0.2 0 0.4 0.1c0.1 0.1 0.2 0.2 0.3 0.3 0 0 0.1 0 0.1-0.1 0-0.2-0.2-0.4-0.4-0.4z"/>
				<path id="&lt;Path&gt;" class="s4" d="m36.8 20.6c-0.1 0-0.1 0.2 0 0.2 1.5 0.4 1.4 2.3 1.3 3.5-0.1 0.8-0.2 1.5-0.8 2.1-0.5 0.4-1.2 0.7-1.8 1 0 0 0 0.1 0.1 0.1 0.7-0.2 1.6-0.5 2.1-1.2 0.6-0.6 0.6-1.5 0.7-2.3 0.1-1.3 0-3.2-1.6-3.4z"/>
				<path id="&lt;Path&gt;" class="s4" d="m27.3 34.2c-0.5 0.1-0.9 1.1-1.2 0.9-0.1-0.1 0-0.7-0.2-0.9-0.2-0.2-0.2-0.2-0.5-0.2-0.2-0.1-0.2 0.1-0.1 0.2 0.5 0.1 0.5 1 0.7 1.4 0.1 0.1 0.2 0.2 0.2 0.1 0.2-0.2 0.4-0.5 0.5-0.7 1-1.1 1.9 0 2.4 0.9 0.4 0.8 0.3 1.4-0.4 2.1-0.6 0.4-1.3 0.7-2.1 0.7q-0.1 0-0.1 0.1c-1 2.6-3.4 2.4-5.7 2.6q0 0 0 0.1c2.3 0 4.1 0.2 5.6-1.8 0.2-0.4 0.3-0.5 0.7-0.7 0.5-0.2 0.9-0.2 1.3-0.5 0.5-0.3 1.1-0.7 1.3-1.2 0.2-1-1.2-3.3-2.4-3.1z"/>
				<path id="&lt;Path&gt;" class="s4" d="m20.9 43.6c-0.1 0.1 0 0.1 0 0.1 0.5-0.1 1.1 0.1 1.3 0.6 0.2 0.8-0.9 0.7-1.4 0.6q0 0.1 0 0.1c0.6 0.1 1.7 0.3 1.5-0.7-0.1-0.5-0.9-1-1.4-0.7z"/>
				<path id="&lt;Path&gt;" class="s4" d="m28.2 41q-0.3-0.1-0.5-0.1c-0.3 0.1-0.4 0.2-0.6 0.1-0.1 0-0.2 0-0.4 0 0 0 0 0.1 0 0.1 0.4 0.1 0.6 0.2 0.9 0 0.6-0.2 1 0.2 1.2 0.7 0.2 0.9-0.7 1-1.4 1q0 0 0 0c0.7 0.2 1.6 0 1.6-0.8-0.1-0.5-0.3-0.9-0.8-1z"/>
				<path id="&lt;Path&gt;" class="s4" d="m31.1 36.6c-0.3 0.1-0.7 0.1-1 0-0.1 0-0.1 0.1-0.1 0.2 0.3 0.4 1-0.1 1.4 0.1 0.2 0.1 0.3 0.3 0.2 0.5 0 0.2-0.3 0.3-0.4 0.4-0.3 0.2-0.6 0.3-0.8 0.6q0 0 0.1 0c0.5-0.3 1.7-0.6 1.3-1.5-0.1-0.2-0.4-0.3-0.7-0.3z"/>
				<path id="&lt;Path&gt;" class="s4" d="m34.4 33.8c-0.5-0.3-0.9-0.6-1.4-0.3q0 0 0 0c0.5 0 0.8 0.1 1.3 0.4 0.1 0.1 0.3 0.2 0.4 0.4q0.3 0.1 0.2 0.5 0.3 0.3 0.1 0.6 0 0.1 0 0.3c0 0.1 0.1 0.1 0.1 0.2q-0.1 0.5-0.2 1-0.3 0-0.7-0.1c0 0-0.1 0.1 0 0.2 0.4 0.1 1 0.2 1.3-0.3 0.1-0.2 0.1-0.4 0-0.6 0-0.1-0.2-0.2-0.2-0.4-0.2-0.6 0-0.2 0-0.6 0.1-0.7-0.4-0.9-0.9-1.3z"/>
				<path id="&lt;Path&gt;" class="s4" d="m33.5 41.2c-0.1 0-0.1 0.1 0 0.1 0.3 0.2 0.7 0.3 0.9 0.8 0.2 0.6-0.7 0.5-1.1 0.6q0 0 0 0c0.4 0 1.3 0.1 1.2-0.5 0-0.4-0.6-1-1-1z"/>
				<path id="&lt;Path&gt;" class="s4" d="m39.8 33.3c-0.1 0-0.1 0.1 0 0.2 0.4 0.1 0.9 0.4 1.1 0.9 0.1 0.3-0.1 0.6-0.1 0.9 0 0.3 0.1 0.6 0.1 0.8 0 0.7-0.4 1.2-1.1 1.1 0 0-0.1 0 0 0.1 0.3 0.2 0.7 0 1-0.2 0.4-0.5 0.3-0.9 0.3-1.4-0.1-0.5 0.2-1 0-1.4-0.2-0.6-0.7-1-1.3-1z"/>
				<path id="&lt;Path&gt;" class="s4" d="m43 32.1c-0.1 0-0.1 0.1 0 0.1 0.3 0.1 0.5 0.2 0.6 0.6 0.1 0.1 0.1 0.2 0.1 0.4-0.1 0.1-0.3 0.2-0.4 0.2-0.1 0-0.1 0.1 0 0.1 0.4 0.1 0.6-0.3 0.5-0.7 0-0.3-0.4-0.8-0.8-0.7z"/>
				<path id="&lt;Path&gt;" class="s4" d="m42.2 28.7c0 0 0 0.1 0.1 0 1.4-0.9 2.4 2.5 1.2 2.7q0 0 0 0c1 0.2 0.7-1.3 0.5-1.8-0.3-0.7-1.1-1.7-1.8-0.9z"/>
				<path id="&lt;Path&gt;" class="s4" d="m44.1 22.4c0 0.1 0 0.2 0.1 0.1 0.6-0.4 1.1 0.9 1.2 1.3 0.2 0.9 0.1 1.7-0.9 1.9q0 0 0 0c1.2 0.3 1.2-1.3 1-2.1-0.1-0.2-0.9-2-1.4-1.2z"/>
				<path id="&lt;Path&gt;" class="s4" d="m19.8 33.9c-0.1 0-0.1 0 0 0 0.5 0.1 1.1 0.2 1.5 0.6 0.2 0.3 0.2 0.9-0.2 1.1-0.3 0.2-0.7 0.1-1.1 0q0 0 0 0c0.7 0.3 1.7 0.2 1.5-0.8-0.1-0.7-1.1-1-1.7-0.9z"/>
				<path id="&lt;Path&gt;" class="s4" d="m26.7 28.9c-0.3-0.2-0.7-0.4-1.1-0.4-0.1 0.1-0.1 0.2 0 0.2 0.5 0.2 1.5 0.3 1.6 1 0.1 0.6-1 1-1.4 1.2q-0.1 0 0 0c0.5 0 1.6-0.4 1.6-1.1 0-0.4-0.4-0.7-0.7-0.9z"/>
				<path id="&lt;Path&gt;" class="s4" d="m35 27.9c0 0 0 0.1 0 0.1q0.5 0.1 0.6 0.5c0 0.2 0.1 0.3 0 0.4 0 0.2-0.1 0.2-0.2 0.3 0 0 0 0.1 0 0.1 0.4 0.1 0.4-0.5 0.4-0.7-0.1-0.4-0.4-0.8-0.8-0.7z"/>
				<path id="&lt;Path&gt;" class="s4" d="m40.7 23c0 0 0 0.1 0 0.1 0.3 0 0.5 0.1 0.6 0.3 0.2 0.4-0.2 0.7-0.5 0.8 0 0 0 0 0 0 0.2-0.1 0.4-0.1 0.6-0.3q0.1-0.1 0.1-0.4c-0.1-0.3-0.5-0.5-0.8-0.5z"/>
				<path id="&lt;Path&gt;" class="s4" d="m4.7 19.1c-0.3 1.8 0 3.9 1 5.5 0.9 1.2 2.6 2.4 4.1 1.9 0.2 0 0.1-0.3 0-0.3-3.6 0-5.2-3.5-4.8-6.7 0.2-1.6 2.3-5.6 4.4-4.4 0.1 0 0.1 0 0.1-0.1-2-1.7-4.6 2.5-4.8 4.1z"/>
				<path id="&lt;Path&gt;" class="s4" d="m7.5 14.3c-1 0.7-1.9 0.9-2.7 1.9-0.8 0.9-1.3 2-1.6 3.2-0.5 2.2 0 4.8 0.7 7 0.6 2.1 2.1 3.6 4.1 4.6 2 1 4 0.9 6.2 0.3 0.1-0.1 0.1-0.3-0.1-0.3-1 0.1-1.9 0.5-2.9 0.5-1.2 0-2.3-0.4-3.3-1-2.1-1.2-3.3-2.8-3.9-5.1-0.5-1.9-0.9-4.1-0.4-6.1 0.3-1.2 0.9-2.4 1.7-3.3 0.7-0.7 1.6-1 2.3-1.6q0-0.1-0.1-0.1z"/>
				<path id="&lt;Path&gt;" class="s4" d="m17.7 35.4c-2 0.7-3.7 1.1-5.8 0.6-1.6-0.4-3.3-0.9-4.7-1.8-3.1-1.9-5-5.6-4.9-9.2q0-0.1 0-0.1c-0.4 3.8 1.5 7.6 4.7 9.6 1.7 1 3.7 1.6 5.6 2 1.9 0.4 3.4-0.2 5.1-1 0.1 0 0-0.1 0-0.1z"/>
				<path id="&lt;Path&gt;" class="s4" d="m32.8 10.5c-0.2-0.8-0.7-1.6-1.4-2.2-0.1-0.1-0.3 0.1-0.2 0.3 0.9 0.9 1.1 1.8 1.2 3.1 0.1 0.8 0.4 1 0.8 1.7 0.2 0.3 0.6 1.2 0.5 1.5 0 0.3-0.3 0.6-0.4 0.9-0.1 0.2-0.2 0.4-0.2 0.7-0.1 0.6 0.1 1.2 0.3 1.7 0.6 1.3 1.4 2.2 2.4 3.2 0.4 0.5 1.1 1.1 1.1 1.8 0.2 1.3-1.3 2.2-2.3 2.6-0.7 0.3-1.2 0.2-1.7 0.8-0.5 0.6-1 1.4-1.3 2.1-0.5 1 0.2 2.2-1.2 2.7-0.7 0.3-1.4 0.2-1.9 0.7-0.4 0.3-0.5 0.6-0.5 1-0.1 0.8 0 1.2-0.5 1.8-0.3 0.4-0.8 0.7-1.1 1-1 0.8-2 1.5-3.3 1.8-1 0.2-2 0-3-0.2-1.8-0.5-2.9-0.3-4.3 1-1 1-1.8 2.3-3.3 2.5-1.1 0.1-2.2-0.3-3.3-0.3 0 0 0 0.1 0 0.1 1.6 0.2 3.2 0.8 4.7-0.1 1.1-0.6 1.8-1.7 2.8-2.5 1.2-1 2.4-0.7 3.8-0.3 1.7 0.4 3.2 0.2 4.8-0.7 1.2-0.8 2.8-1.9 3-3.4 0.2-1.2 0.2-1.7 1.5-2 0.3 0 0.6 0 1-0.1 0.6-0.2 0.9-0.6 0.9-1.3 0.1-0.5-0.1-0.9 0.1-1.4 0.2-0.6 0.6-1 0.9-1.5 0.7-1.1 2-1.2 3-1.9 1-0.6 1.9-1.5 1.5-2.7-0.4-1.3-1.7-2.1-2.5-3.2-0.9-1.1-1.6-2.6-0.9-4 0.3-0.6 0.5-1.1 0.3-1.8-0.2-0.5-0.7-0.7-0.9-1.2-0.6-0.8-0.2-1.4-0.4-2.2z"/>
				<path id="&lt;Path&gt;" class="s4" d="m6.4 34.8c-0.6 0.1-0.5 0.8-0.2 1.3 0.1 0.3 0.2 0.5 0.5 0.5q0 0 0 0.1c0.1 0.1 0.3 0.1 0.4 0 0.1 0 0.3-0.1 0.3-0.3q0-0.2 0-0.3c0-0.7-0.3-1.5-1-1.3z"/>
				<path id="&lt;Path&gt;" class="s4" d="m5.1 34.3q0 0 0 0c-0.1-0.1-0.1 0-0.1 0v0.1c0 0.4 0.5-0.1 0.1-0.1z"/>
				<path id="&lt;Path&gt;" class="s4" d="m3.2 16.6q-0.2 0-0.3 0.1-0.1 0-0.2 0.1 0 0.1 0 0.1 0 0.1-0.1 0.2 0 0.1 0 0.1c0 0.1 0.1 0.3 0.2 0.3q0 0 0-0.1 0.1 0 0.1 0.1v-0.1q0 0 0 0c0.3-0.1 0.4-0.2 0.5-0.4 0-0.2-0.1-0.3-0.2-0.4z"/>
				<path id="&lt;Path&gt;" class="s4" d="m6.7 11.4q-0.2 0.2-0.4 0.4-0.1 0.1-0.2 0.3c-0.2 0.3-0.1 0.9 0.3 1.1q0 0.1 0 0.2c0 0.2 0.2 0.3 0.4 0.1q0-0.1 0.1-0.3 0 0 0.1 0c0.1-0.3 0.2-0.6 0.2-0.8 0-0.3 0-0.5-0.2-0.7q0 0 0-0.1c0-0.1-0.2-0.2-0.3-0.2z"/>
				<path id="&lt;Path&gt;" class="s4" d="m16.8 16.5q0 0-0.1 0-0.1 0-0.1-0.1c-0.2 0-0.4 0.1-0.4 0.2q-0.1 0.5 0.2 0.8 0 0.1 0.1 0.1 0 0 0 0.1 0.1 0 0.1 0 0.1 0.1 0.1 0.1c0.2 0.1 0.5 0.1 0.6-0.1 0.2-0.3 0-0.7-0.2-1q-0.1-0.2-0.3-0.1z"/>
				<path id="&lt;Path&gt;" class="s4" d="m14.7 26.5c-0.1 0.1 0 0.3 0.2 0.3q0 0 0 0 0.1 0 0.1-0.1 0 0 0 0c0-0.2-0.1-0.3-0.3-0.2z"/>
				<path id="&lt;Path&gt;" class="s4" d="m12.6 27.5q-0.2-0.1-0.3 0.1c-0.2 0.3-0.2 0.7 0 1 0.1 0.3 0.3 0.6 0.5 0.7 0.1 0.1 0.2 0.1 0.3 0 0.6-0.5 0.2-1.6-0.5-1.8z"/>
				<path id="&lt;Path&gt;" class="s4" d="m15.1 28.2q-0.1 0.1-0.2 0.3c-0.1 0 0 0.2 0 0.2q0.1 0.1 0.1 0.1c0 0.1 0.2 0.2 0.3 0.1 0.2-0.2 0.2-0.3 0.1-0.6 0-0.1-0.2-0.2-0.3-0.1z"/>
				<path id="&lt;Path&gt;" class="s4" d="m15 18.2q-0.1-0.1-0.2 0c-0.3 0-0.5 0.2-0.4 0.5q0 0.1 0.1 0.2 0.1 0.1 0.2 0.3c0.3 0.5 1.1 1.5 1.5 0.7 0.4-0.7-0.7-1.5-1.2-1.7z"/>
				<path id="&lt;Path&gt;" class="s4" d="m14.4 20.1q0 0 0 0 0.1 0 0.1 0 0 0 0-0.1c0-0.2-0.4 0.1-0.1 0.1z"/>
				<path id="&lt;Path&gt;" class="s4" d="m15 11.5c-0.3-0.3-0.9-0.5-1.2 0-0.2 0.5 0.1 1.1 0.4 1.4 0.2 0.2 0.3 0.3 0.6 0.4q0.3 0.2 0.7 0.2c0.2 0 0.4-0.1 0.4-0.4q0-0.1-0.1-0.2c0.2-0.6-0.2-1.1-0.8-1.4z"/>
				<path id="&lt;Path&gt;" class="s4" d="m12.1 14c-0.3 0.1-0.5 0.5-0.2 0.7q0.1 0.1 0.3 0.1 0.1 0 0.2 0c0.1 0.1 0.2 0 0.2-0.1 0.1-0.3 0-0.9-0.5-0.7z"/>
				<path id="&lt;Path&gt;" class="s4" d="m11.7 9c-0.2 0-0.3 0.1-0.4 0.2q0 0.1 0 0.2-0.1 0-0.1 0.1 0 0 0 0.1-0.1 0-0.1 0.1 0 0.2 0.1 0.4 0 0.4 0.2 0.7 0.1 0.1 0.1 0.2c0.3 0.3 0.8 0.4 1 0 0.2-0.5 0.3-1.3 0-1.7-0.2-0.4-0.5-0.4-0.8-0.3z"/>
				<path id="&lt;Path&gt;" class="s4" d="m7 22.2c-0.2 0-0.3 0-0.3 0.2q-0.1 0.1-0.1 0.3c-0.1 0.2 0 0.5 0.2 0.7q0.1 0.2 0.3 0.3c0.1 0.1 0.3 0 0.4-0.1 0-0.2 0-0.4 0-0.6 0-0.4-0.2-0.7-0.5-0.8z"/>
				<path id="&lt;Path&gt;" class="s4" d="m10.1 23.4q-0.1-0.2-0.2-0.3c-0.2-0.2-0.4-0.2-0.6 0q0 0 0 0c-0.1 0.1-0.2 0.3-0.2 0.4 0 0.2 0.1 0.4 0.3 0.6 0 0.5 0.7 0.9 1 0.5q0.1-0.1 0.1-0.2 0 0 0 0 0 0 0-0.1c0.1-0.3-0.1-0.7-0.4-0.9z"/>
				<path id="&lt;Path&gt;" class="s4" d="m9.2 18.1c-0.2 0.2 0 0.5 0.2 0.3 0.3-0.2 0-0.5-0.2-0.3z"/>
				<path id="&lt;Path&gt;" class="s4" d="m8.5 22.6c-0.1 0-0.2 0-0.3 0q-0.1 0.2-0.1 0.4 0 0 0 0 0 0.1 0.1 0.1c0 0.2 0.3 0.2 0.3 0q0.1 0 0.2 0c0.1-0.1 0-0.3-0.1-0.4q0 0-0.1-0.1z"/>
				<path id="&lt;Path&gt;" class="s4" d="m11 17.2q0 0-0.1 0.1c-0.1-0.1-0.3-0.2-0.5-0.1-0.3 0.2-0.4 0.7-0.2 1 0.2 0.2 0.5 0.2 0.7 0.1q0 0.1 0.1 0.2c0.2 0.1 0.5-0.1 0.4-0.3q0-0.1 0-0.1c0.1-0.2 0.1-0.6 0-0.8-0.1-0.1-0.3-0.2-0.4-0.1z"/>
				<path id="&lt;Path&gt;" class="s4" d="m8.9 15.7c-0.3 0.2-0.2 0.7 0.2 0.9q0 0.2 0.2 0.2c0.1 0.1 0.2 0 0.2-0.1q0.2-0.1 0.3-0.3 0 0 0.1-0.1c0 0 0.1-0.1 0.1-0.2-0.2-0.4-0.7-0.8-1.1-0.4z"/>
				<path id="&lt;Path&gt;" class="s4" d="m7.5 19.5c-0.1-0.1-0.2-0.1-0.3-0.1q0 0 0 0.1-0.1 0-0.2 0.1c-0.1 0.1 0 0.3 0.1 0.3 0.2 0 0.3 0 0.4-0.2 0.1-0.1 0-0.2 0-0.2z"/>
				<path id="&lt;Path&gt;" class="s4" d="m7 16.2c-0.2 0.2-0.2 0.8 0.1 0.8 0.1 0.1 0.2 0 0.2-0.1 0-0.1 0-0.1-0.1-0.2 0.1 0 0.2-0.1 0.2-0.2 0-0.1 0-0.2-0.1-0.3-0.1-0.2-0.2-0.1-0.3 0z"/>
				<path id="&lt;Path&gt;" class="s4" d="m15.2 23.8q0 0-0.1 0-0.1-0.1-0.2 0-0.1 0-0.2 0c-0.1 0-0.2 0.2-0.2 0.3q0.1 0.1 0.1 0.2 0 0 0 0c0 0.3 0.1 0.5 0.3 0.7q0 0.1 0 0.1c0.2 0.2 0.6 0.7 0.9 0.4 0.3-0.3 0.1-0.8-0.1-1.1-0.1-0.2-0.3-0.5-0.5-0.6z"/>
				<path id="&lt;Path&gt;" class="s4" d="m18.8 19.1q0 0-0.1 0c-0.1 0-0.2 0.2-0.1 0.3 0.2 0.2 0.3 0.2 0.6 0.1 0.1 0 0.1-0.1 0.1-0.2q-0.1-0.2-0.2-0.3c-0.1-0.2-0.3-0.1-0.3 0.1z"/>
				<path id="&lt;Path&gt;" class="s4" d="m18.3 31.3q0 0 0 0c-0.1-0.1-0.3-0.2-0.5-0.1q0 0 0 0.1c-0.2 0-0.4 0.1-0.4 0.4-0.1 0.3 0 0.6 0.2 0.8 0.1 0.2 0.2 0.3 0.4 0.3q0.1 0.1 0.1 0.1c0.2 0.1 0.4-0.1 0.5-0.3q0 0 0-0.1c0.1-0.2 0.2-0.6 0-0.8q-0.1-0.2-0.3-0.4z"/>
				<path id="&lt;Path&gt;" class="s4" d="m5.9 27.6q0 0.1 0 0.1c-0.1 0.1 0 0.2 0 0.2 0 0.1 0.1 0.1 0.2 0q0 0 0 0 0.1 0 0.1-0.1c0-0.1 0-0.1 0-0.2 0-0.2-0.3-0.2-0.3 0z"/>
				<path id="&lt;Path&gt;" class="s4" d="m15.3 3.3c0 0 0 0.1 0.1 0.1 2.2-1 3.7 2.7 1.5 3.6-0.7 0.3-1.7 0.2-2.1-0.6-0.4-0.7-0.2-1.7 0.5-2.2 0.9-0.6 1.8 0 1.8 1.1 0 0.4-0.8 2-1.4 1-0.2-0.3 0-0.8 0.1-1.1 0-0.1-0.2-0.2-0.2-0.1-0.3 0.4-0.4 1.3 0.1 1.6 0.5 0.4 1.2-0.2 1.5-0.7 0.6-1.4-0.8-3.1-2.2-1.9-1.3 1-0.7 3.3 1 3.3 1.4 0.1 2.4-1.1 2.2-2.4-0.2-1.4-1.5-2.3-2.9-1.7z"/>
				<path id="&lt;Path&gt;" class="s4" d="m24.2 16c-0.4 0.2-0.8 0.6-0.7 1.1 0 0.4 0.5 0.4 0.9 0.2 0 0 0-0.1-0.1-0.1-0.2 0-0.3 0.1-0.5-0.1-0.1-0.2-0.1-0.2 0-0.4 0.1-0.2 0.3-0.4 0.5-0.5 0.5-0.2 1.2 0 1.2 0.7-0.1 0.7-0.8 1.4-1.6 1.2-0.5-0.1-0.9-0.6-0.9-1.1-0.2-0.7 0.3-1.2 0.9-1.5 0 0 0-0.1-0.1-0.1-0.7 0.3-1.2 0.9-1.1 1.6 0.1 0.6 0.6 1.2 1.2 1.3 0.8 0.2 1.6-0.4 1.7-1.2 0.3-0.9-0.6-1.4-1.4-1.1z"/>
				<path id="&lt;Path&gt;" class="s4" d="m22.5 29.9c-0.4 0.1-0.7 0.6-0.9 0.9-0.3 0.4-0.7 0.8-0.9 0.1-0.1-0.3 0-0.6 0.1-0.8q0.1-0.3 0.3-0.5 0.5-0.4 0.4 0.3c0 0.1 0.1 0.2 0.1 0.2 0.7-0.7-0.2-1.1-0.7-0.5-0.4 0.4-0.7 2.2 0.3 1.9 0.4-0.1 0.6-0.6 0.8-0.8 0.2-0.4 0.5-0.8 1-0.6 0.5 0.2 0.6 0.8 0.4 1.2-0.2 0.7-1.2 1.1-1.9 1.1-0.5 0-1-0.1-1.3-0.4-0.4-0.6-0.4-1.5 0.1-2q0-0.1 0 0c-1 0.6-0.6 2.2 0.4 2.5 0.9 0.3 2.4-0.1 2.9-1 0.3-0.7-0.1-2-1.1-1.6z"/>
				<path id="&lt;Path&gt;" class="s4" d="m15.9 40c-0.5 0.9 0.8 2.1 1.7 1.6 0.1-0.1 0-0.3-0.1-0.2q-0.7 0.3-1.2-0.3c-0.2-0.3-0.4-0.9 0-1.2 0.8-0.4 2.1 0.9 2.2 1.6 0.2 0.9-0.7 1.2-1.4 1.1q-0.9 0-1.5-0.7c-0.7-0.8-0.9-3.1 0.6-3.3v-0.1c-0.7 0-1.2 0.7-1.3 1.4-0.2 0.9 0.1 1.9 0.8 2.5 0.9 0.7 3.4 0.7 3-0.9-0.1-0.8-2.1-2.7-2.8-1.5z"/>
				<path id="&lt;Path&gt;" class="s4" d="m29 8c-1.5-0.5-1.2 1.4-0.2 1.1 0 0 0-0.1 0-0.1-0.4-0.2-0.5-0.1-0.2-0.5 0.3-0.4 0.4-0.3 0.7-0.1 0.3 0.2 0.6 0.4 0.9 0.6 0.6 0.7 0 1.2-0.7 1.2-0.7 0.1-1.2-0.2-1.7-0.6-0.5-0.5-1.3-1.5-0.8-2.3 0.6-0.9 1.5 0.1 2.2 0.3q0 0 0 0c-0.5-0.2-1-0.9-1.7-0.8-0.5 0.1-0.8 0.6-0.8 1.1 0 1.6 1.9 3 3.4 2.5 1.6-0.6-0.2-2.1-1.1-2.4z"/>
				<path id="&lt;Path&gt;" class="s4" d="m32.9 29c-1.1-0.1-1.6 1.1-0.8 1.9 0.7 0.9 2.4 0.8 1.8-0.7-0.1-0.1-0.2 0-0.2 0.1 0.3 2.4-3.1-0.5-1.1-1 0.9-0.2 2.1 0.9 2.1 1.8 0 1.3-1.5 1.1-2.2 0.6-0.6-0.5-1.1-1.2-1.2-2q0 0 0 0c0 1 0.6 2 1.5 2.5 0.8 0.4 2.1 0.2 2.2-0.9 0.1-1.1-1-2.3-2.1-2.3z"/>
				<path id="&lt;Path&gt;" class="s4" d="m36.3 12.7c-1.2-0.2-2.4 1-2.6 2.2 0 0 0.1 0 0.1 0 0.3-1.2 2-2.6 3.1-1.5 0.7 0.7 0.3 1.9-0.6 2.3-0.6 0.3-1.5 0.1-1-0.8 0.1-0.2 0.2-0.4 0.4-0.4q0.3-0.3 0.7 0.2-0.2 0.1-0.3 0.3c0 0 0 0.2 0.1 0.1 0.4 0 0.7-0.6 0.4-1-0.4-0.4-1 0-1.3 0.3-0.4 0.5-0.7 1.2-0.2 1.6 0.6 0.3 1.3 0.1 1.7-0.3 1.1-0.8 1-2.7-0.5-3z"/>
				<path id="&lt;Path&gt;" class="s4" d="m30.5 1.4c-0.8-0.1-1.2 0.3-1.2 1 0.1 1.2 1.4 3.1 2.8 2.8 1.4-0.2-0.2-1.9-0.7-2.3-0.3-0.2-0.9-0.7-1.2-0.2-0.2 0.7 0.7 1.3 1.2 1.4 0.1 0 0.2-0.2 0-0.2-0.2-0.1-0.5-0.2-0.7-0.5q-0.3-0.2 0.2-0.5 0.1 0 0.2 0.1 0.4 0.3 0.7 0.6c0.2 0.2 0.4 0.5 0.5 0.8 0.4 0.9-0.8 0.6-1.2 0.4-0.7-0.5-1.3-1.2-1.5-2 0-0.3-0.1-0.6 0-0.8 0.3-0.5 0.9-0.4 1.3-0.2 0.5 0.2 0.9 0.7 1.2 1.2q0 0 0 0c-0.2-0.7-0.8-1.5-1.6-1.6z"/>
				<path id="&lt;Path&gt;" class="s4" d="m8 7.5c-0.1 0-0.3 0-0.3 0.1-0.1 0.2-0.2 0.5-0.1 0.7q0 0.1 0 0.1c0.1 0.2 0.2 0.3 0.4 0.3q0.1 0 0.2-0.1 0 0 0 0 0-0.1 0-0.1 0.2-0.1 0.2-0.2 0-0.1 0-0.2 0-0.4-0.4-0.6z"/>
				<path id="&lt;Path&gt;" class="s4" d="m11 6.8q0 0-0.1 0c-0.2 0.1 0.1 0.4 0.2 0.2q0 0 0-0.1c0 0 0-0.1-0.1-0.1z"/>
				<path id="&lt;Path&gt;" class="s4" d="m14.2 7.9c-0.4 0.3-0.2 1.1 0.3 1.2 0.3 0.1 0.5-0.1 0.5-0.4q0 0 0 0 0.1-0.1 0.2-0.2c0-0.4-0.6-0.9-1-0.6z"/>
				<path id="&lt;Path&gt;" class="s4" d="m20.9 15.4c0 0.2 0.5 0.2 0.4-0.1 0-0.1-0.3-0.2-0.4 0.1z"/>
				<path id="&lt;Path&gt;" class="s4" d="m24.4 23.6c-0.2 0.1-0.3 0.3-0.3 0.4q0 0.2 0.1 0.4 0 0.1 0 0.2c0.1 0.2 0.3 0.5 0.5 0.6q0.1 0.1 0.2 0.1c0.2 0 0.4-0.1 0.4-0.3q0.1 0 0.1-0.2c0-0.5-0.3-1.2-1-1.2z"/>
				<path id="&lt;Path&gt;" class="s4" d="m28.6 27.3c-0.1-0.1-0.2-0.1-0.4 0-0.4 0.4-0.1 1 0.3 1.3 0.2 0.2 0.5-0.1 0.4-0.3q-0.1 0-0.1-0.1 0.1 0 0.1 0c0.1-0.4-0.1-0.7-0.3-0.9z"/>
				<path id="&lt;Path&gt;" class="s4" d="m13.9 42.6q-0.3-0.2-0.6-0.2c-0.1 0-0.3 0.1-0.3 0.3 0.2 0.4 0.7 0.6 1.1 0.5h0.1q0 0 0.1 0c0.2 0 0.2-0.3 0.1-0.4q-0.2-0.1-0.5-0.2z"/>
				<path id="&lt;Path&gt;" class="s4" d="m23.7 42.4c-0.1 0.1-0.2 0.2-0.1 0.3 0.1 0.3 0.4 0.5 0.7 0.3q0.1 0 0.1-0.1 0.1 0 0.2 0c0.2 0 0.2-0.2 0.1-0.3-0.3-0.3-0.7-0.3-1-0.2z"/>
				<path id="&lt;Path&gt;" class="s4" d="m27.1 11c-0.1 0.3 0 0.7 0.4 0.8 0.2 0.1 0.3-0.2 0.2-0.3q0-0.1 0-0.2-0.1-0.2-0.3-0.4c-0.1-0.1-0.3-0.1-0.3 0.1z"/>
				<path id="&lt;Path&gt;" class="s4" d="m38.9 10.6q0-0.1-0.1-0.1 0 0 0 0c-0.2-0.1-0.4 0-0.4 0.1 0 0.3 0.1 0.7 0.5 0.7q0.1 0 0.2-0.1c0.1 0 0.2-0.2 0.1-0.3-0.1-0.2-0.2-0.2-0.3-0.3z"/>
				<path id="&lt;Path&gt;" class="s4" d="m45.7 19.8q-0.2-0.1-0.3-0.2c-0.2-0.2-0.5 0.1-0.3 0.3q0 0 0 0 0.1 0 0.1 0.1 0 0 0.1 0 0.1 0.1 0.1 0.1c0.2 0.2 0.4-0.1 0.3-0.3z"/>
				<path id="&lt;Path&gt;" class="s4" d="m40.8 8c-0.1 0-0.1 0-0.2 0.1-0.1 0.1 0.1 0.2 0.2 0.2 0-0.1 0.1-0.1 0.1-0.2 0.1-0.1 0-0.2-0.1-0.1z"/>
				<path id="&lt;Path&gt;" class="s4" d="m30.1 40.3c-0.1 0.1-0.1 0.3 0 0.4q0.3 0.3 0.7 0.4 0.1 0 0.1 0 0.1 0 0.2-0.1 0.2 0 0.4-0.1c0.1-0.1 0.2-0.2 0.1-0.3-0.3-0.5-1.1-0.8-1.5-0.3z"/>
				<path id="&lt;Path&gt;" class="s4" d="m39.5 39.9q0 0 0 0c0-0.1 0-0.1 0-0.2q0 0 0 0c-0.4-0.6-0.5 0.7 0 0.2z"/>
				<path id="&lt;Path&gt;" class="s4" d="m29.7 45.1q-0.4 0-0.7 0.2c-0.2 0.1-0.2 0.4 0 0.5 0.2 0.1 0.5 0.1 0.7-0.1q0.1-0.1 0.1-0.1c0.3-0.1 0.2-0.5-0.1-0.5z"/>
				<path id="&lt;Path&gt;" class="s4" d="m38.8 27.9c-0.4 0.5-0.5 1.3-0.3 1.9 0.1 0.1 0.2 0.2 0.4 0.2 0.6-0.2 0.8-1 0.5-1.5q-0.1-0.3-0.1-0.5c0-0.2-0.4-0.3-0.5-0.1z"/>
				<path id="&lt;Path&gt;" class="s4" d="m44.7 16.2q-0.1-0.1-0.2-0.2 0 0-0.1 0 0-0.1 0-0.1c-0.1 0-0.1 0-0.1 0.1q-0.1 0-0.1 0.1c-0.1 0.2 0.1 0.4 0.3 0.4q0.1 0 0.1 0c0.1-0.1 0.2-0.2 0.1-0.3z"/>
				<path id="&lt;Path&gt;" class="s4" d="m37.3 7.1c-0.2 0-0.3 0.2-0.2 0.4 0.1 0.4 0.4 0.5 0.7 0.7q0.2 0.1 0.3-0.1c0.2 0.1 0.4-0.2 0.3-0.4-0.3-0.3-0.7-0.7-1.1-0.6z"/>
				<path id="&lt;Path&gt;" class="s4" d="m24.9 0.7c-0.2-0.1-0.4-0.1-0.5 0q-0.1 0-0.2 0c-0.2 0.1-0.2 0.3-0.1 0.4 0.2 0.4 0.7 0.6 1.1 0.4q0.2 0 0.4 0c0.2 0 0.3-0.1 0.2-0.3-0.1-0.3-0.5-0.5-0.9-0.5z"/>
				<path id="&lt;Path&gt;" class="s4" d="m22.3 0.9q0 0 0 0c-0.1 0.2 0.1 0.3 0.2 0.3q0 0 0.1 0c0.4-0.1-0.1-0.7-0.3-0.3z"/>
				<path id="&lt;Path&gt;" class="s4" d="m30.3 6.4c0-0.1-0.1-0.1-0.1 0-0.1 0-0.2 0.1-0.2 0.2q0.1 0.4 0.4 0.6 0.1 0 0.2 0 0.1 0 0.1 0 0 0 0 0c0.1 0.1 0.3 0 0.3-0.2-0.1-0.3-0.3-0.6-0.7-0.6z"/>
				<path id="&lt;Path&gt;" class="s4" d="m36.8 33.3q0 0 0 0-0.2 0.2-0.1 0.5 0.1 0.1 0.2 0.1 0 0 0 0 0.2 0.1 0.3 0.1c0 0 0.1-0.1 0.1-0.1q0.2-0.4-0.1-0.8c-0.1-0.1-0.3 0-0.4 0.2z"/>
				<path id="&lt;Path&gt;" class="s4" d="m1.9 21.2q-0.1 0-0.2 0c-0.1 0-0.2 0-0.2 0.1q0 0 0 0.1c0 0.2 0 0.4 0.1 0.5 0 0.2 0.2 0.3 0.3 0.3q0.1 0 0.2 0 0.1 0 0.1-0.2 0-0.4-0.1-0.7-0.1-0.1-0.2-0.1z"/>
				<path id="&lt;Path&gt;" class="s4" d="m16.9 2.5c-2.7 0.4-4.5 2-6.6 3.4-0.3 0.2-0.5 0.5-0.9 0.6-0.4 0.1-0.7 0.1-1.2 0.3-0.8 0.4-1.4 1.3-1.8 2.1-0.6 1-1 2.1-1.4 3.2-0.3 0.8-0.5 1.7-0.9 2.4-0.4 0.5-0.9 0.9-1.3 1.4-1.1 1.4-1.4 3.5 0.1 4.8q0 0 0 0c-0.8-1.3-1.1-2.8-0.2-4.2 0.5-0.8 1.3-1.4 1.8-2.3 0.9-1.7 1.3-3.8 2.3-5.5 0.3-0.5 0.6-0.9 0.9-1.3 0.7-0.6 1.3-0.4 2.1-0.7 0.5-0.1 0.9-0.6 1.3-0.9 1-0.7 1.9-1.5 2.9-2.1 1-0.5 1.9-0.7 3-1 0.1 0 0.1-0.2-0.1-0.2z"/>
				<path id="&lt;Path&gt;" class="s5" d="m15.8 23.1c0.1 0.5 0.4 0.9 0.7 1.4 0.5 0.9 0.9 1.4 0.7 2.5-0.1 1 0.4 1.7 1.5 1.7 0 0 0.1-0.1 0-0.1-1.3-0.4-0.9-1.6-1.1-2.6-0.1-0.6-0.5-1.1-0.8-1.7-0.3-0.5-0.7-1.1-0.7-1.7-0.1-1.6 1.7-2 2.7-1.2 0.1 0.1 0.3 0 0.2-0.2-1.3-1.6-3.7 0-3.2 1.9z"/>
				<path id="&lt;Path&gt;" class="s5" d="m24.2 20.8c-0.3 0.2-0.5 0.4-0.9 0.4-0.4 0.1-0.7-0.2-1-0.5-0.4-0.5-0.6-1.2-0.5-1.8 0-0.1-0.1-0.1-0.1-0.1-0.5 0.6 0.1 1.9 0.6 2.3 0.6 0.6 1.6 0.6 2-0.1 0.1-0.1 0-0.2-0.1-0.2z"/>
				<path id="&lt;Path&gt;" class="s5" d="m23.8 12.9c-0.8 0.6-1.6 0.8-2.6 0.7-1.2-0.1-1.6-0.6-2.2-1.6-0.3-0.5-0.6-0.8-1.1-1-0.6-0.4-2.2-0.4-1.9-1.5q0 0 0 0c-0.2 0.5-0.4 0.7 0.1 1.1 0.3 0.2 0.7 0.2 1 0.3 0.7 0.2 1.3 0.5 1.7 1.2 0.2 0.4 0.2 0.7 0.5 1 1.1 1 3.7 1.3 4.6 0 0.1-0.1-0.1-0.2-0.1-0.2z"/>
				<path id="&lt;Path&gt;" class="s5" d="m9.4 20.6c0.4-0.3 0.8-0.3 1.3-0.3-0.7-0.6-2.1 0-2 0.9 0.1 0.6 0.6 1 1.2 1.1 0.5 0 1-0.2 1.3 0.3 0.1 0.4 0.1 0.7 0.5 1 0.1 0.1 0.2-0.1 0.2-0.2-0.2-0.4-0.3-1.1-0.7-1.3-0.4-0.3-0.9-0.2-1.3-0.2-0.7-0.1-1.2-0.9-0.5-1.3z"/>
				<path id="&lt;Path&gt;" class="s5" d="m7.7 27.7c-0.7 0.7-1.2 2-0.7 3 0.1 0.3 0.5 0.6 0.4 1.1 0-0.1-0.3 0.4-0.4 0.5-0.1 0.3-0.1 0.7 0 1 0.5 1.9 3.6 2.4 4.2 0.4 0.1-0.2-0.1-0.3-0.2-0.1-0.5 0.6-1.2 1-2.1 1-1.1 0-2.6-1.8-1.1-2.7q0.1-0.1 0.1-0.2c-0.1-0.4-0.4-0.6-0.5-0.9-0.6-1.1-0.3-2.2 0.4-3.1 0 0-0.1-0.1-0.1 0z"/>
				<path id="&lt;Path&gt;" class="s5" d="m28.9 12.6c-0.3 0.2-1.4 1.2-0.7 1.6 0 0 0.1-0.1 0.1-0.1 0.1-0.2 0-0.4 0.1-0.7 0.2-0.2 0.4-0.4 0.7-0.6 0.6-0.4 1.1-0.5 1.7-0.2q0.1 0 0.1-0.1c-0.3-0.7-1.6-0.2-2 0.1z"/>
				<path id="&lt;Path&gt;" class="s5" d="m33.3 20.8q-0.8 1.1-1.8-0.1-0.1-0.6-0.3-1.1c0-0.3-0.1-0.5-0.2-0.8-0.2-0.5-0.6-1.2-1.1-1.5-0.4-0.2-0.8-0.2-1.3-0.2-0.8 0-1.5 0.3-2.1-0.8-0.4-0.6-0.7-2.2 0.6-2.2 0.1 0 0.1 0 0-0.1-0.9-0.4-1.3 0.6-1.3 1.4 0.1 1.3 1 2.1 2.3 2.1 0.4 0 0.9-0.1 1.3 0 0.9 0.4 1.2 1.4 1.4 2.2 0.2 0.6 0.3 1.3 0.9 1.7 0.6 0.5 1.7 0.3 1.8-0.5 0.1-0.1-0.1-0.2-0.2-0.1z"/>
				<path id="&lt;Path&gt;" class="s5" d="m37.1 21.5c-1-0.4-2 1.2-2.2 1.9-0.3 0.7 0 1.3 0.1 2 0.1 0.6 0.1 1 0.7 1.3q0 0 0-0.1c-0.5-0.5-0.5-0.8-0.6-1.5 0-0.5-0.2-1.1 0-1.6 0.3-0.8 1.1-1.7 1.9-1.8 0.2 0 0.2-0.2 0.1-0.2z"/>
				<path id="&lt;Path&gt;" class="s5" d="m41.9 11.5c-0.6 0-0.9 0.8-1 1.3 0 0.6 0.2 1.2 0.8 1.5 0 0 0 0 0-0.1-0.4-0.3-0.6-0.9-0.5-1.4 0.1-0.5 0.4-0.9 0.8-1.2 0 0 0-0.1-0.1-0.1z"/>
				<path id="&lt;Path&gt;" class="s5" d="m35.2 9.5c-0.8-0.4-1.5-0.5-1.9-1.3 0-0.1-0.1 0-0.1 0 0.3 0.9 1.2 1.2 2 1.5 0 0 0.1-0.1 0-0.2z"/>
				<path id="&lt;Path&gt;" class="s5" d="m30.5 15c-0.1-0.8-1-0.5-1.3-0.1-0.5 0.8 0.3 1.3 1 1.2 1.1-0.3 1.6-1.9 0.5-2.5-1-0.7-2.2 0.4-2.4 1.4-0.1 0.7 0.1 1.4 0.8 1.6 0.8 0.2 1.6-0.2 2.1-0.7 0 0 0-0.1 0-0.1-0.5 0.3-1 0.6-1.5 0.6-0.8-0.1-1.2-0.6-1-1.3 0.1-0.6 0.4-1 0.9-1.2 0.5-0.2 1.1-0.1 1.3 0.5 0.1 0.5-0.2 1-0.6 1.2-0.2 0.1-0.9 0.2-0.9-0.2-0.1-0.4 0.6-0.9 0.8-0.3 0.1 0.1 0.3 0 0.3-0.1z"/>
				<path id="&lt;Path&gt;" class="s5" d="m20.7 24c-1-0.5-2-0.3-1.6 1.1 0.2 0.5 1.1 1.7 1.9 1.3 0.5-0.3-0.1-1.2-0.3-1.5-0.1-0.1-0.3 0-0.2 0.1 0 0.1 0.3 0.4 0.3 0.6q-0.6 0.6-1 0-0.3-0.3-0.3-0.6c-0.3-0.9 0.1-1.1 0.8-0.8 0.7 0.3 1.5 0.9 1.7 1.6 0.4 0.8 0 1.8-1.1 1.6-0.7 0-1.4-0.6-1.9-1.2-0.5-0.5-0.9-1.2-1-1.9-0.2-1 0.4-1.3 1.2-1.4q0.1-0.1 0-0.1c-0.5 0-1.2 0-1.5 0.5-0.4 0.8 0.2 1.9 0.6 2.5 0.6 1.1 3 3.1 4 1.4 0.8-1.3-0.6-2.6-1.6-3.2z"/>
				<path id="&lt;Path&gt;" class="s5" d="m21.3 9c-1 0.5-2.3 1.9-1.1 2.9q0 0 0 0c-2-2.5 4.7-4.3 3.7-1-0.2 0.9-1.3 2.1-2.3 2-1.6-0.2-0.4-3.1 1.1-2.1 0.1 0.1 0.2 0 0.2-0.1-0.8-1.2-2.3 0.2-2.4 1.1-0.2 1.3 1.2 1.6 2.1 1.1 1-0.5 2-1.7 1.7-2.9-0.4-1.3-1.9-1.5-3-1z"/>
				<path id="&lt;Path&gt;" class="s5" d="m12.1 21c-0.2 0-0.4 0-0.5 0.1-0.1 0.2 0 0.5 0 0.6q0.1 0 0.1 0c-0.1-0.2-0.1-0.5 0.1-0.5 0.2-0.1 0.3 0 0.4 0.1 0.3 0.2 0.5 0.6 0.4 1-0.1 0.2-0.2 0.4-0.5 0.5-0.3 0-0.2-0.4-0.2-0.6 0-0.1-0.1-0.1-0.1-0.1-0.2 0.4-0.2 0.9 0.3 0.9 0.4 0 0.7-0.4 0.7-0.8 0.1-0.4-0.2-1.1-0.7-1.2z"/>
				<path id="&lt;Path&gt;" class="s5" d="m24.3 34.1c-0.7 0.4-1 1.3-1.4 1.9-1 1.4-2.1 0.9-3.5 0.8-1.1-0.1-2.1 0.3-2 1.5 0 0.9 0.8 1.9 1.7 2q0.1 0 0 0c-1.2-0.6-2.4-3-0.2-3.2 1 0 2 0.5 2.9 0.3 0.8-0.2 1.2-0.8 1.6-1.5 0.2-0.2 0.7-1.3 1-1.4 0.4-0.1 0.6 0.7 0.7 0.9 0.1 0.1 0.2 0.5 0.2 0.6 0.1 0.2 0.4 0.1 0.4-0.1-0.2-0.7-0.3-2.4-1.4-1.8z"/>
				<path id="&lt;Path&gt;" class="s5" d="m10.5 37.2c-0.3 0-0.5 0-0.7 0.1-0.1 0.2-0.1 0.3-0.2 0.5-0.1 0.1-0.2 0.1-0.3 0.2 0 0.2 0 0.4 0.1 0.6 0.3 1 1.5 2 2.5 1.8 0.1 0 0.1-0.1 0-0.1-0.7-0.2-1.3-0.4-1.8-1-0.3-0.3-0.9-1.1-0.3-1.4q0.1 0 0.1-0.1c0-0.3 0.3-0.5 0.6-0.6 0 0 0 0 0 0z"/>
				<path id="&lt;Path&gt;" class="s5" d="m8.5 11.5c-0.4 0.3-0.6 0.7-0.6 1.2-0.1 0.8 0.9 1.8 1.6 1q0 0 0 0c-0.4 0.1-0.7 0.1-1-0.2-0.2-0.2-0.4-0.6-0.3-0.9 0-0.3 0.2-0.6 0.4-0.8 0.2-0.2 0.5-0.2 0.8-0.1 0.1 0 0.1-0.1 0.1-0.1-0.2-0.4-0.7-0.3-1-0.1z"/>
				<path id="&lt;Path&gt;" class="s5" d="m4.3 17c-0.3 0.3-0.1 0.6 0.2 0.9q-0.2 0-0.5 0.1 0 0.1 0 0.1c0 0.6 1.1 1.4 1.3 0.6q0-0.1-0.1 0c-0.2 0.2-0.5 0.1-0.7-0.1-0.1-0.1-0.2-0.2-0.3-0.3 0-0.1 0-0.1 0.1-0.1 0.1-0.1 0.3-0.1 0.4-0.1 0.1 0 0.2-0.2 0.1-0.2-0.1-0.2-0.6-0.7-0.1-0.7 0.2 0 0.4 0.1 0.5 0.2 0.1 0 0.2-0.1 0.1-0.2-0.2-0.2-0.7-0.4-1-0.2z"/>
				<path id="&lt;Path&gt;" class="s5" d="m12.4 5.2c-0.1 0.2-0.1 0.9 0.3 0.8q0.1-0.1 0.1-0.1c-0.1-0.1-0.2-0.2-0.3-0.3q0-0.1 0-0.3c0.1-0.2 0.3-0.3 0.4-0.1 0-0.4-0.3-0.3-0.5 0z"/>
				<path id="&lt;Path&gt;" class="s5" d="m20.3 3.9c-0.1 0.3 0.1 0.8 0.5 0.7 0.1 0 0.1-0.1 0-0.1-0.1-0.1-0.3-0.3-0.3-0.5 0.1-0.3 0.3-0.2 0.5-0.1q0.1 0 0.1-0.1c-0.2-0.3-0.7-0.2-0.8 0.1z"/>
				<path id="&lt;Path&gt;" class="s5" d="m24.7 2.6c-0.3 0.1-0.4 0.4-0.4 0.7 0.1 0.7 1.1 1.1 1.7 1.1 0.2 0 0.2-0.1 0.1-0.2-0.5-0.2-1-0.3-1.4-0.7-0.1-0.1-0.2-0.2-0.1-0.4 0-0.2 0.2-0.2 0.4-0.2 0.2 0 0.4 0 0.7 0.1 0 0 0-0.1 0-0.1-0.3-0.1-0.6-0.3-1-0.3z"/>
				<path id="&lt;Path&gt;" class="s5" d="m34.5 4.1c-0.2 0.4-0.1 0.8 0.3 1 0 0.2 0 0.4 0.1 0.6 0.1 0.2 0.4 0.4 0.6 0.2q0 0 0-0.1c-0.2-0.1-0.3 0-0.4-0.2-0.1-0.2-0.1-0.4 0-0.6q0-0.1-0.1-0.1c-0.4-0.1-0.4-0.5-0.3-0.7 0.2-0.4 0.5-0.3 0.8-0.1 0 0.1 0.1-0.1 0.1-0.1-0.3-0.5-0.9-0.4-1.1 0.1z"/>
				<path id="&lt;Path&gt;" class="s5" d="m4.3 25q-0.2 0-0.4 0.1c-0.3 0-0.5 0.3-0.5 0.6q0 0 0 0c0.3 0.2 0.5 0.3 0.8 0.4q0 0 0-0.1-0.2-0.1-0.3-0.2c-0.1 0-0.3-0.1-0.3-0.1-0.1-0.3 0.2-0.4 0.4-0.4 0.2-0.1 0.6 0.1 0.8-0.1 0.1 0 0.1-0.1 0-0.1-0.1-0.1-0.3-0.1-0.5-0.1z"/>
			</g>
		</g>
	</g>
</svg>