<svg version="1.2" xmlns="http://www.w3.org/2000/svg" viewBox="0 0 145 144" width="145" height="144">
	<title>Layer 1</title>
	<defs>
		<linearGradient id="g1" x2="1" gradientUnits="userSpaceOnUse" gradientTransform="matrix(143.668,143.668,-141.111,141.111,71.772,-71.229)">
			<stop offset="0" stop-color="#ffffff"/>
			<stop offset=".997" stop-color="#1876e7"/>
		</linearGradient>
		<radialGradient id="g2" cx="0" cy="0" r="1" gradientUnits="userSpaceOnUse" gradientTransform="matrix(28.807,0,0,28.807,58.079,33.167)">
			<stop offset="0" stop-color="#ececec"/>
			<stop offset="1" stop-color="#ffffff"/>
		</radialGradient>
	</defs>
	<style>
		.s0 { fill: #00b0cb } 
		.s1 { fill: #0b93c1 } 
		.s2 { fill: #00c3df } 
		.s3 { fill: #1eb400 } 
		.s4 { fill: #00be1b } 
		.s5 { fill: #00ce1d } 
		.s6 { opacity: .1;mix-blend-mode: multiply;fill: #00c3df } 
		.s7 { opacity: .3;mix-blend-mode: multiply;fill: #00c3df } 
		.s8 { opacity: .6;mix-blend-mode: screen;fill: #00c3df } 
		.s9 { opacity: .4;mix-blend-mode: overlay;fill: #98f1ff } 
		.s10 { opacity: .4;mix-blend-mode: screen;fill: #00df16 } 
		.s11 { opacity: .6;mix-blend-mode: multiply;fill: url(#g1) } 
		.s12 { opacity: .4;mix-blend-mode: overlay;fill: url(#g2) } 
	</style>
	<g id="Layer 1">
		<g id="&lt;Group&gt;">
			<g id="-e-">
				<path id="&lt;Path&gt;" class="s0" d="m0.8 71.8c0 39.5 32.1 71.5 71.6 71.5 39.4 0 71.5-32 71.5-71.5 0-39.5-32.1-71.5-71.5-71.5-39.5 0-71.6 32-71.6 71.5z"/>
				<path id="&lt;Path&gt;" class="s1" d="m72.4 143.3c39.4 0 71.5-32 71.5-71.5q-0.1-5.8-0.9-11.3c-2.4-0.5-4.6-1.2-6.7-2.3-4.6-2.3-8.2-6.2-11.7-9.9-3.6-3.7-7.3-7.5-12-9.6-4.7-2.1-10.6-2.2-14.5 1.2-4.3 3.6-4.9 10.3-3.1 15.7 0.7 2.3 1.7 5.1 0.1 6.9-1.5 1.7-4.2 1.2-6.4 1.5-3.8 0.6-6.7 3.7-8.8 6.9-3.5 5.2-5.6 11.8-3.9 17.9 0.9 3.6 3.3 7.4 1.8 11-1.5 3.7-6.2 4.7-9.8 6.6-5 2.6-8.7 8.6-6.9 14 0.7 2.1 2.2 3.9 2.8 6.1 1.5 5.4-3 10.2-5.4 15.4 4.5 0.9 9.1 1.4 13.9 1.4z"/>
				<path id="&lt;Path&gt;" class="s2" d="m81.4 35.1c-0.2-2.5 0.4-5.1 0.1-7.6-0.5-3.5-2.6-6.6-4.9-9.3-2.3-2.8-4.8-5.4-6.1-8.7-0.9-2.1-1.1-4.3-0.7-6.5 0.1-0.9 0.5-1.8 0.7-2.7-38.7 1-69.7 32.6-69.7 71.5 0 11.9 3 23.1 8.1 32.9 3-0.6 5.8-2.3 8.4-3.9q4.6-2.8 9.2-5.6c4.7-2.9 9.8-6.3 10.8-11.7 1.2-6.7-4.6-13.7-2-19.9 1-2.4 3.1-4.1 5.2-5.5 3.4-2.2 7.6-3.7 11.5-2.9 5.7 1.2 9.3 6.7 14.2 9.7 3.3 1.9 7.1 2.7 10.8 2.3 2.1-0.3 4.2-0.9 5.9-2.1 3-2.1 4.6-5.8 4.9-9.4 0.2-3.7-0.8-7.3-2.4-10.6-1.5-3.3-3.6-6.4-4-10z"/>
				<path id="&lt;Path&gt;" class="s3" d="m143.5 65c0.1 0.5-7.9 0.1-8.8-0.1-10.3-1.6-15.3-11.3-24.9-14.2-2.1-0.7-4.7-0.8-6.6 0.5-6.9 4.8 7.8 14.6-2.2 17.6-2.6 0.8-5.2 0.1-7.7 0.6-2.2 0.5-4.7 2.1-6.4 3.5-3.7 3.1-6.1 7.8-6.1 12.6 0 10.3 8.6 20.9 18.6 23.1 2.3 0.5 4.7 0.6 6.8 1.5 4.9 2.1 5.4 8.3 3.1 12.5-2.4 4.6-8.6 4.1-10.6 8.9-0.5 1.3-1 4.3 0 5.5 1.2 1.5 3.8 0.7 5.4-0.1 3.4-1.6 6.7-3.4 9.8-5.6 5.9-4.1 11.5-9.4 15.9-15.2 8.8-11.3 13.7-25.6 14.5-39.9 0.2-3.7 0.7-7.3-0.8-11.2z"/>
				<path id="&lt;Path&gt;" class="s1" d="m81.8 40.6c-1.3-4.7-0.8-9.9-2.8-14.3-2-4.6-6.4-7.6-9.3-11.6-2.9-4.1-4.2-9.2-3.8-14.1-36.4 3.2-65.1 33.9-65.1 71.2 0 7.6 1.3 15 3.5 21.9 2.3-1.1 4.4-2.5 5.7-4.2 2.9-3.6 3.1-8.6 3.5-13.3 0.7-6.7 2.3-13.5 6-19.1 3.6-5.7 9.6-10.2 16.3-10.9 3.3-0.4 6.7 0.2 10 0.9 3.5 0.9 7 2 10 3.9 3.4 2.1 6.2 5 9.1 7.6 3 2.7 6.3 5.1 10.1 5.9 3.9 0.9 8.4-0.3 10.6-3.6 1.9-3 1.5-7 0.3-10.4-1.2-3.4-3.2-6.5-4.1-9.9z"/>
				<path id="&lt;Path&gt;" class="s3" d="m84 56.6c0.9-4.3-1-8.8-3.1-12.7-1.6-2.7-3.3-5.5-4.3-8.5-1-3 0-6.2-0.9-9.3-1-3.6-4.1-6.2-6-9.3-2.4-3.8-4.4-7.8-5.6-12-0.3-1-0.4-2.5-0.6-4-4.2-1-10.9 0.9-15.9 2.6-31.1 11.1-51.7 42.3-46.5 73.8 1.5-2.3 2.8-4.8 3.7-7.4 1.1-3 1.8-6.2 2.8-9.2 1.8-5.1 2.9-10.4 7.2-14 2.5-2.2 4.9-2.2 8-3.1 3.4-1.1 6.6-2.6 9.6-4.6 1.7-1.2 3.3-2.5 5.3-3.3 4.8-1.8 6.9 1.7 9.4 5 4.3 5.9 10.1 8.2 16.6 10.8 2.9 1.1 5.7 2.5 7.7 4.9 1.9 2.1 3.1 5.8 6.3 6.2 2.8 0.3 5.2-2.2 6.1-4.9q0.1-0.5 0.2-1z"/>
				<path id="&lt;Path&gt;" class="s4" d="m82.4 107q-0.3 0-0.6 0c-3.9 0.3-11.5 4.9-12.7 8.7-0.7 2.3-0.5 4.8-0.3 7.2 0.2 2.4 0.5 5.7 3.1 6.6 1.4 0.5 3 0.2 4.5-0.1 3.6-0.7 7.4 0.3 11.1 0 1.7-0.1 3.5-0.3 5-1.3 2.1-1.3 3.5-3.4 5.7-4.6 1.9-1.1 4.2-1.3 3.8-4.2-0.4-2.3-2.2-2.3-4.1-3-4.1-1.5-7-4.8-10.7-7.1-1.3-0.8-3.2-2.1-4.8-2.2z"/>
				<path id="&lt;Path&gt;" class="s5" d="m71.4 122c0.5 2.2 2.6 4.1 4.9 4 1.5-0.1 2.8-0.9 4.3-0.9 0.9 0.1 1.8 0.4 2.7 0.6 0.9 0.1 1.9 0 2.5-0.7 0.6-0.8 0.4-2 0-2.9-0.5-1.6-0.6-2.3-0.1-3.9 0.4-1.3 1.1-2 0.2-3.4-1.1-1.6-4.4-2.9-6.2-3-4.8-0.5-9.4 5.7-8.3 10.2z"/>
				<path id="&lt;Path&gt;" class="s5" d="m91.2 123c0.7-0.1 1.4-0.5 2-0.6 1-0.2 2.3-0.1 2.8-1 0.4-0.8-0.3-1.9-1.1-2.4-1.5-0.9-4.2-3.7-5.4-1.9-1.1 1.5-0.9 6.2 1.7 5.9z"/>
				<path id="&lt;Path&gt;" class="s5" d="m90.6 80.1c-4.8 7.5 8.7 5.1 11.9 4.8 4.4-0.4 9.8-0.5 9.7-6.3-0.2-6.9-8.1-6.7-12.9-5.2-3.5 1.1-6.7 3.6-8.7 6.7z"/>
				<path id="&lt;Path&gt;" class="s5" d="m112.8 67.5c0.5 0.2 1.1 0.4 1.6 0.1 0.3-0.1 0.5-0.4 0.7-0.7q0.3-0.7 0.4-1.3c0.4-1.5 0.2-3.2-0.1-4.8 0-0.4-0.1-0.8-0.3-1.1-2.5-3.1-9.8 4.7-2.3 7.8z"/>
				<path id="&lt;Path&gt;" class="s5" d="m116.6 129.3c4.7-3.6 9.6-8.5 13.2-13.2 8.8-11.3 13.7-25.6 14.5-39.9 0.1-2.1 0.3-4.4 0.3-6.4-3-0.2-6.8 0.1-9.9-0.1-3.6-0.2-6.3-1.5-9.4-3.3-1.1-0.6-2.3-1.1-3.6-1.1-1.3 0-2.6 0.7-3 1.9-0.3 1 0 2.1 0.3 3.1 1.4 5.4 1.3 13.6-3.8 17.2-4.1 2.8-8.1-0.1-12.5 0-2.3 0-4.7 0.8-6.2 2.5-3.3 3.6-0.6 7 3.1 8.3 3.6 1.2 7.3 2.1 10.7 3.9 2.7 1.4 5.1 3.4 7 5.9 1.2 1.6 2.2 3.3 2.4 5.3 0.2 1.8-0.3 3.6-0.8 5.3-0.8 3.1-1.4 7.5-2.3 10.6z"/>
				<path id="&lt;Path&gt;" class="s5" d="m65.7 20.5c-1.4-2.6-2.9-5-4-7.7-1.4-3.3-2.3-8.6-1.7-12.3-4 0.1-8.6 1.6-12.4 2.9-21.8 7.8-38.6 25-44.8 46.6 0.8-0.2 3-0.5 3.7-0.9 1.4-1.1 2-2.8 3.2-4.2 2.5-2.9 7-3.2 10.5-5 2.6-1.4 4.6-3.7 7.1-5.3 5.2-3.2 14.5-4.5 20.1-2 2.3 1.1 4.3 2.8 5.8 4.8 1.5 1.9 2.3 4.7 4.6 5.7 4.1 1.8 8.6-1.1 10.9-4.4 2.5-3.6 0.8-9.5-0.6-13.2-0.7-1.7-1.5-3.4-2.4-5z"/>
				<path id="&lt;Path&gt;" class="s5" d="m71.6 40.5c-1.6 2.6-7.7 5.2-4.6 7.5 3.1 2.3 10 9.6 11.5 7.7 1.5-1.9-2.4-22.7-6.9-15.2z"/>
				<path id="&lt;Path&gt;" class="s2" d="m81.5 0.9q0 0.6-0.1 1.2c-0.4 3.5-0.8 7-0.6 10.5 0.1 1.6 0.3 3.3 1 4.8 1.1 2.1 3 3.6 5.2 4.6 5.7 2.6 12.5 1.9 18.1 4.6 2.9 1.4 5.2 3.6 8 5.1 4.5 2.4 9.9 3 14.2 6 4.5 3.2 7 8.7 11.7 11.9q0.7 0.5 1.6 0.9c-8.2-26.3-31.1-46-59.1-49.6z"/>
				<path id="&lt;Path&gt;" class="s2" d="m72.3 69.9c-1-0.7-2.4-0.4-3.5 0.1-1.1 0.6-2.1 1.5-3.3 1.9-2.9 0.9-5.9-1-8.9-1.3-4.3-0.5-8.4 2.7-10.6 6.5-2.2 3.8-3 8.2-4.4 12.3-3.8 12.2-12 22.9-22.7 29.9 8 9 18.3 16 30 20.1 0.8-5.5 0.5-11.3 1.6-16.7 0.9-4.1 2.6-7.9 5.1-11.2 1.7-2.3 3.7-4.3 5.2-6.7 1.6-2.3 2.8-5.1 2.4-7.9-0.2-2-1.1-3.8-1.4-5.7-0.3-2.6 0.7-5.2 2.1-7.5 1.5-2.6 3.5-4.9 5.9-6.9 1.1-0.9 2.3-1.7 3-3 0.7-1.3 0.7-3.1-0.5-3.9z"/>
				<path id="&lt;Path&gt;" class="s6" d="m144.3 76.2c0.1-1.5 0.2-3 0.3-4.5q0-1 0-1.9c-0.2-1.6-0.4-3.2-1.1-4.8q0-0.7-0.1-1.3-0.1-0.7-0.2-1.4-0.8-6.1-2.6-11.8-0.4-1.5-1-2.9-0.1-0.5-0.3-1-0.4-1-0.8-2-0.2-0.5-0.4-1-0.6-1.4-1.2-2.7-0.2-0.3-0.4-0.6-0.5-1.1-1-2.1-0.3-0.5-0.5-0.9c-1.7 6.3-3.6 12.6-6.3 18.5-4.6 10.5-12.2 20.4-22.9 24.5-9.7 3.8-20.8 2.4-30.9 5.4-13 3.7-23.2 14.4-36.3 18.2-9.3 2.7-19.2 1.6-28.8 2.5 2.6 4.6 5.6 8.9 9.1 12.9q3 3.3 6.3 6.3 0.2 0.1 0.3 0.1 1.6 1.5 3.3 2.8 3.6 2.8 7.6 5.1 0 0 0.1 0c8.6 5.1 18.4 8.3 28.8 9.3q0.3 0.1 0.5 0.1 1.5 0.1 3 0.2 1.8 0.1 3.6 0.1c9.7 0 19.1-2 27.6-5.5 1.3 0.3 2.9-0.3 4.1-0.9 3.4-1.6 6.7-3.4 9.8-5.6q1.4-0.9 2.7-2 0.3-0.2 0.5-0.4c4.1-3.2 8-7 11.3-11q0.7-0.9 1.4-1.8c8.8-11.3 13.7-25.6 14.5-39.9z"/>
				<path id="&lt;Path&gt;" class="s7" d="m144.6 71.7q0-1 0-1.9c-0.2-1.6-0.4-3.2-1.1-4.8q0-0.7-0.1-1.3-0.1-0.7-0.2-1.4-0.8-6.1-2.6-11.8-0.4-1.5-1-2.9-0.1-0.5-0.3-1-0.4-1-0.8-2-0.2-0.5-0.4-1-0.6-1.4-1.2-2.7-0.2-0.3-0.4-0.6-0.5-1.1-1-2.1-0.3-0.5-0.5-0.9c1.6 6.3 3.2 12.8 3 19.3-0.3 13-7.6 25.2-17.8 33.3-2.8 2.2-6 4.3-9.6 5.3-4.7 1.3-9.7 0.8-14.6 0.9-7.3 0.2-14.5 1.9-21 5-6.8 3.2-12.8 7.8-19.7 10.6-14.3 5.8-30.9 2.9-44.8-4.1 2.4 4.1 5.2 8.1 8.4 11.7q3 3.3 6.3 6.3 0.2 0.1 0.3 0.1 1.6 1.5 3.3 2.8 3.6 2.8 7.6 5.1 0 0 0.1 0c8.6 5.1 18.4 8.3 28.8 9.3q0.3 0.1 0.5 0.1 1.5 0.1 3 0.2 1.8 0.1 3.6 0.1c9.7 0 19.1-2 27.6-5.5 1.3 0.3 2.9-0.3 4.1-0.9 3.4-1.6 6.7-3.4 9.8-5.6q1.4-0.9 2.7-2 0.3-0.2 0.5-0.4c4.1-3.2 8-7 11.3-11q0.7-0.9 1.4-1.8c8.8-11.3 13.7-25.6 14.5-39.9 0.1-1.5 0.2-3 0.3-4.5z"/>
				<path id="&lt;Path&gt;" class="s8" d="m144.5 69.8c-0.1-1.6-0.3-3.2-1-4.8q0-0.7-0.1-1.3-0.1-0.7-0.2-1.4-0.8-6.1-2.6-11.8-0.4-1.5-1-2.9-0.1-0.5-0.3-1-0.4-1-0.8-2-0.2-0.5-0.4-1-0.6-1.4-1.2-2.7-0.2-0.3-0.4-0.6-0.5-1.1-1-2.1-0.3-0.5-0.6-1-0.5-0.9-1-1.8-0.3-0.5-0.6-1-0.7-1.2-1.5-2.4-0.3-0.4-0.6-0.9-0.6-0.8-1.1-1.5-0.4-0.6-0.9-1.1-0.5-0.7-1.1-1.4-0.4-0.6-0.8-1.1-0.8-1-1.7-1.9-0.5-0.6-1.1-1.2-0.4-0.5-0.9-1-0.6-0.6-1.2-1.2-0.4-0.4-0.9-0.8-0.3-0.3-0.7-0.6 0.2 0.1 0.3 0.3 0.5 0.5 1 1 0.5 0.6 1.1 1.1 0.8 1 1.6 2 0.5 0.5 0.9 1.1 0.6 0.6 1.1 1.4 0.4 0.5 0.8 1 0.6 0.8 1.1 1.6 0.3 0.4 0.7 0.9 0.8 1.2 1.5 2.4 0.3 0.5 0.6 0.9 0.5 0.9 1 1.8 0.3 0.5 0.5 1 0.6 1.1 1.1 2.1 0.2 0.4 0.3 0.7 0.7 1.3 1.3 2.7 0.2 0.5 0.3 0.9 0.5 1 0.9 2.1 0.1 0.5 0.3 0.9 0.5 1.5 1 2.9 1.8 5.8 2.6 11.8 0.1 0.7 0.2 1.5 0 0.6 0.1 1.2c0.6 1.7 0.9 3.3 1 4.8 0.1 0.7 0 1.3 0 2 0 1.5-0.1 3-0.2 4.4-0.9 14.4-5.7 28.6-14.5 40q-0.7 0.9-1.4 1.8c-3.4 4-7.2 7.7-11.3 11q-0.3 0.2-0.5 0.4-1.4 1-2.8 2c-3 2.1-6.3 4-9.7 5.6-1.2 0.6-2.9 1.1-4.2 0.8-8.5 3.6-17.8 5.6-27.6 5.6q-1.8 0-3.5-0.1-1.5-0.1-3-0.2-0.3-0.1-0.5-0.1c-10.4-1-20.2-4.3-28.9-9.3q0 0-0.1-0.1-3.9-2.3-7.5-5-1.7-1.3-3.4-2.8-0.1-0.1-0.2-0.2c-0.5-0.4-0.9-0.8-1.3-1.2q1.8 1.8 3.7 3.6 0.2 0.1 0.3 0.1 1.6 1.5 3.3 2.8 3.6 2.8 7.6 5.1 0 0 0.1 0c8.6 5.1 18.4 8.3 28.8 9.3q0.3 0.1 0.5 0.1 1.5 0.1 3 0.2 1.8 0.1 3.6 0.1c9.7 0 19.1-2 27.6-5.5 1.3 0.3 2.9-0.3 4.1-0.9 3.4-1.6 6.7-3.4 9.8-5.6q1.4-0.9 2.7-2 0.3-0.2 0.5-0.4c4.1-3.2 8-7 11.3-11q0.7-0.9 1.4-1.8c8.8-11.3 13.7-25.6 14.5-39.9 0.1-1.5 0.2-3 0.3-4.5q0-1 0-1.9-0.1 0-0.1 0z"/>
				<path id="&lt;Path&gt;" class="s9" d="m63.5 0.9c-1.1-0.3-2.2-0.4-3.5-0.4-4 0.1-8.6 1.6-12.4 2.9q-1.7 0.7-3.4 1.4-0.8 0.3-1.5 0.6-0.8 0.4-1.6 0.7c-17.8 8.3-31.4 23.1-37.5 41.2q-0.3 1.1-0.6 2.1-0.1 0.3-0.2 0.6-1.6 5.4-2.2 10.9c9 13.4 24.3 22.2 41.6 22.2 27.7 0 50.1-22.4 50.1-50 0-12.4-4.5-23.6-11.8-32.4q-4-0.4-8.1-0.4-4.6 0-8.9 0.6z"/>
				<path id="&lt;Path&gt;" class="s10" d="m128.1 27.1q-0.4-0.6-0.8-1.1-0.8-1-1.7-1.9-0.5-0.6-1.1-1.2-0.4-0.5-0.9-1-0.6-0.6-1.2-1.2-0.4-0.4-0.9-0.8-1.2-1.1-2.4-2.2-0.4-0.3-0.7-0.6-0.7-0.6-1.5-1.2-0.4-0.3-0.7-0.6-0.8-0.6-1.7-1.2c-1.3-1-2.6-1.9-3.9-2.7q-0.2-0.1-0.3-0.2-1-0.6-2-1.2-0.1-0.1-0.3-0.2-3.2-1.8-6.5-3.3c-9-4-18.8-6.2-29.1-6.2q-4.6 0-8.9 0.6c-1.1-0.3-2.2-0.4-3.5-0.4-4 0.1-8.6 1.6-12.4 2.9q-1.7 0.7-3.4 1.4-0.8 0.3-1.5 0.6-0.8 0.4-1.6 0.7-1.6 0.8-3.1 1.6-0.5 0.2-1 0.5-1 0.6-2 1.1-0.6 0.4-1.2 0.7-0.9 0.6-1.7 1.1-0.6 0.4-1.2 0.8-0.8 0.6-1.7 1.2-0.5 0.4-1.1 0.8-0.8 0.6-1.6 1.2-0.6 0.4-1.1 0.9-0.8 0.7-1.7 1.4-0.4 0.4-0.8 0.8-1.2 1-2.4 2.2 0 0-0.1 0.1-1.2 1.1-2.3 2.4-0.4 0.4-0.7 0.8-0.8 0.8-1.5 1.7-0.4 0.5-0.8 1-0.6 0.8-1.3 1.6-0.4 0.6-0.8 1.1-0.6 0.8-1.1 1.7-0.4 0.5-0.8 1.1-0.5 0.9-1.1 1.7-0.3 0.6-0.6 1.2-0.6 0.9-1.1 1.9-0.3 0.5-0.6 1-0.7 1.3-1.3 2.7-1.6 3.4-2.8 6.9-0.3 1.1-0.6 2.1-0.1 0.3-0.2 0.6c-2.5 8.7-3.3 18-1.7 27.2q0 0.6 0.1 1.2 0 0.6 0.1 1.3 0 0.3 0.1 0.7 0 0.3 0.1 0.6 0 0.3 0 0.6 0.1 0.7 0.2 1.4 0.1 0.6 0.2 1.2 0.1 0.5 0.2 1 0.1 0.3 0.1 0.6 0.2 0.9 0.4 1.8 0.2 0.6 0.3 1.1 0 0.2 0.1 0.4 0.2 0.8 0.4 1.6 0.1 0.5 0.3 0.9 1.3 4.8 3.3 9.3 0.1 0.1 0.1 0.1 0.8 1.9 1.8 3.7c2.7 5.3 6.1 10.2 10 14.6 0.6 0.7 1.3 1.3 1.9 2q-4.1-5.2-7.1-11.1-1-1.8-1.8-3.7 0-0.1-0.1-0.1-2-4.5-3.4-9.3-0.1-0.5-0.2-1-0.3-0.8-0.5-1.6 0-0.1 0-0.3-0.2-0.6-0.3-1.1-0.2-1-0.4-1.9-0.1-0.3-0.1-0.5-0.1-0.5-0.2-1-0.1-0.6-0.2-1.3-0.1-0.6-0.2-1.3 0-0.3-0.1-0.6 0-0.3-0.1-0.6 0-0.4 0-0.8-0.1-0.6-0.2-1.3 0-0.5-0.1-1.1c-1.5-9.3-0.8-18.5 1.8-27.2q0.1-0.3 0.2-0.7 0.3-1 0.6-2 0.9-2.7 2-5.2c6.8 8.9 17.5 14.6 29.6 14.6 20.5 0 37.2-16.7 37.2-37.2 0-7-1.9-13.5-5.3-19.1q2.6-0.2 5.2-0.2c10.4 0 20.2 2.2 29.1 6.2 2.3 1 4.4 2.1 6.5 3.3q0.2 0.1 0.4 0.3 1 0.5 2 1.1 0.1 0.1 0.3 0.2 2 1.3 3.9 2.7c0.6 0.4 1.1 0.8 1.6 1.2q0.4 0.3 0.8 0.6 0.7 0.6 1.5 1.2 0.3 0.3 0.7 0.6 1.2 1.1 2.4 2.2 0.4 0.5 0.9 0.9 0.6 0.6 1.1 1.2 0.1 0 0.1 0-0.1-0.1-0.3-0.3z"/>
				<path id="&lt;Path&gt;" class="s11" d="m144.6 69.8c-0.2-1.6-0.4-3.2-1.1-4.8q0-0.7-0.1-1.3-0.1-0.7-0.2-1.4-0.8-6.1-2.6-11.8-0.4-1.5-1-2.9-0.1-0.5-0.3-1-0.4-1-0.8-2-0.2-0.5-0.4-1-0.6-1.4-1.2-2.7-0.2-0.3-0.4-0.6-0.5-1.1-1-2.1-0.3-0.5-0.6-1-0.5-0.9-1-1.8-0.3-0.5-0.6-1-0.7-1.2-1.5-2.4-0.3-0.4-0.6-0.9-0.6-0.8-1.1-1.5-0.4-0.6-0.9-1.1-0.5-0.7-1.1-1.4-0.4-0.6-0.8-1.1-0.8-1-1.7-1.9-0.5-0.6-1.1-1.2-0.4-0.5-0.9-1-0.6-0.6-1.2-1.2-0.4-0.4-0.9-0.8-1.2-1.1-2.4-2.2-0.4-0.3-0.7-0.6-0.7-0.6-1.5-1.2-0.4-0.3-0.7-0.6-0.8-0.6-1.7-1.2c-1.3-1-2.6-1.9-3.9-2.7q-0.2-0.1-0.3-0.2-1-0.6-2-1.2-0.1-0.1-0.3-0.2-3.2-1.8-6.5-3.3c-9-4-18.8-6.2-29.1-6.2q-4.6 0-8.9 0.6c-1.1-0.3-2.2-0.4-3.5-0.4-4 0.1-8.6 1.6-12.4 2.9q-1.7 0.7-3.4 1.4-0.8 0.3-1.5 0.6-0.8 0.4-1.6 0.7c-17.8 8.3-31.4 23.1-37.5 41.2q-0.3 1.1-0.6 2.1-0.1 0.3-0.2 0.6c-2.5 8.7-3.3 18-1.7 27.2q0 0.6 0.1 1.2 0 0.6 0.1 1.3 0 0.3 0.1 0.7 0 0.3 0.1 0.6 0 0.3 0 0.6 0.1 0.7 0.2 1.4 0.1 0.6 0.2 1.2 0.1 0.5 0.2 1 0.1 0.3 0.1 0.6 0.2 0.9 0.4 1.8 0.2 0.6 0.3 1.1 0 0.2 0.1 0.4 0.2 0.8 0.4 1.6 0.1 0.5 0.3 0.9 1.3 4.8 3.3 9.3 0.1 0.1 0.1 0.1 0.8 1.9 1.8 3.7c2.7 5.3 6.1 10.2 10 14.6q3 3.3 6.3 6.3 0.2 0.1 0.3 0.1 1.6 1.5 3.3 2.8 3.6 2.8 7.6 5.1 0 0 0.1 0c8.6 5.1 18.4 8.3 28.8 9.3q0.3 0.1 0.5 0.1 1.5 0.1 3 0.2 1.8 0.1 3.6 0.1c9.7 0 19.1-2 27.6-5.5 1.3 0.3 2.9-0.3 4.1-0.9 3.4-1.6 6.7-3.4 9.8-5.6q1.4-0.9 2.7-2 0.3-0.2 0.5-0.4c4.1-3.2 8-7 11.3-11q0.7-0.9 1.4-1.8c8.8-11.3 13.7-25.6 14.5-39.9 0.1-1.5 0.2-3 0.3-4.5q0-1 0-1.9z"/>
				<path id="&lt;Path&gt;" class="s12" d="m29.3 33.2c0 15.9 12.9 28.8 28.8 28.8 15.9 0 28.8-12.9 28.8-28.8 0-15.9-12.9-28.8-28.8-28.8-15.9 0-28.8 12.9-28.8 28.8z"/>
			</g>
		</g>
	</g>
</svg>