<svg version="1.2" xmlns="http://www.w3.org/2000/svg" viewBox="0 0 56 56" width="56" height="56">
	<title>planets</title>
	<style>
		.s0 { fill: #f17241 } 
		.s1 { fill: #ff4f24 } 
		.s2 { opacity: .6;mix-blend-mode: soft-light;fill: #7d0204 } 
		.s3 { opacity: .6;fill: #750400 } 
		.s4 { opacity: .7;fill: #750400 } 
		.s5 { opacity: .2;fill: #000072 } 
		.s6 { opacity: .3;fill: #000072 } 
		.s7 { opacity: .4;mix-blend-mode: color-dodge;fill: #fbb901 } 
		.s8 { opacity: .4;mix-blend-mode: overlay;fill: #ffe4a1 } 
		.s9 { opacity: .6;fill: #ffe4a1 } 
		.s10 { opacity: .3;fill: #ffe4a1 } 
	</style>
	<g id="planets">
		<g id="-e-">
			<path id="&lt;Path&gt;" class="s0" d="m52.4 14c7 11.4-0.3 32.6-12.1 38.8-11.8 6.3-29.9 0.7-36.1-12.4-6.4-13.6 0.4-30.2 12.2-36.5 11.7-6.3 27.4-4.1 36 10.1z"/>
			<path id="&lt;Path&gt;" class="s1" d="m41.7 12.3c1.8-1.1 0.9-3.5-0.7-4.5 4.5-1.9-6.2-11.1-8.7-2.2-0.7 2.4 1.5 5.9-0.2 7.9-2.3 2.6-5.5-0.9-3.3-1.6-1.7-1.1 0.3-5-1.6-6.8 0.4-0.2 0.8-0.5 1.2-0.8-0.4-2.6-3.8-2-5.2-0.5-0.7-1.7-2.1-2.1-3.5-0.8q0-0.3 0-0.6-1.7 0.6-3.3 1.5c-4.1 2.2-7.5 5.5-10.1 9.6 1.3-0.3 2.6-0.5 3.4 0.1 3.3 2.2-1.9 4.3-3.3 5.8-4.1 4.3-0.9 15.5 5 10.1 0.2 0.2 0.7 1.1 0.8 1.4 0.1-0.1 0.7-0.5 0.9-0.4 1.8 2.5-1.3 3.8-2.5 5.7-1.8 2.6-1.9 4.3-0.6 7.4 2.5 6 14.3 8.1 15.2-0.1 1.7 1.8 3.8 0.9 4.4-1.1 2.6 1.4 4.9-0.5 6.9-0.8 3.5-0.5 5 0.4 8.2-2.2 4.2-3.5 4.8-10.8-1.2-12.9-5.8-2.1-8.6 3.4-11.8 6.8-1.7 1.8-4.4 4.8-7 5.1-1.2 0.1-4.9-0.5-4.2-2.5 0.2-0.7 3.3-0.3 4-1.8 1.4-2.7-2.1-4.8-4.4-4.5 1.9-1.2-0.2-3.4-1.7-4.3 0.2 0 0.6 0 0.6 0 0.3-1.1-2.7-11.9 3.4-7.9 1.4 1 1.3 8.2 4.1 4.8 0.8 2.6 5.6 5.1 5.4 0.8 2.8 2.5 6-0.3 3.9-3.4 1.9 0.3 3.8-0.4 3.8-2.5 1 2.5 2.6 0.8 3.8 1.5 1.2 0.8 1.8 1.9 2.4 3.2 1.2 2.7 1.4 6.5 5.5 5.4 7.1-1.9-3.3-15.8-9.6-14.9z"/>
			<g id="&lt;Group&gt;">
				<path id="&lt;Path&gt;" class="s1" d="m8.4 46.5q1.1 1.1 2.2 2.1c-0.7-0.7-1.5-1.5-2.2-2.1z"/>
				<path id="&lt;Path&gt;" class="s1" d="m43.3 42.9c-3.1 1.1-2.6 3-6.5 2.9-1.8-0.1-2-1-3.9-0.3-1.3 0.5-1.8 1.9-2.5 2.1-1.6 0.6-2.5-0.5-4.1 0-1.5 0.5-1.4 1.5-2.5 2.2-1.9 1.3-4.3 2.8-6.6 2.9 3.4 1.5 7 2.4 10.5 2.7 0.2-0.8 0.4-1.5 0.9-2 1.3-1.1 9.5-3.7 11.1-3.6 0.4 0.1 1.6 1.1 2.6 1.8 2.3-1.6 4.3-3.7 6.1-6.2-0.6-2-2.8-3.4-5.1-2.5z"/>
			</g>
			<path id="&lt;Path&gt;" class="s2" d="m30.7 7.3c0.4-1.2-0.1-3.4-1.8-2.8-1.7 0.7-0.2 2.4 0 3.5 0.1 0.9-1.3 3.3 1 3.5 2 0.1 1.8-3.5 0.9-4.6z"/>
			<path id="&lt;Path&gt;" class="s2" d="m28.2 29.7c0.2-2.8-1.7-3.7-3.7-4.7-0.7-0.3-1.4 0.9-2.2 0.2-0.8-0.6-0.1-2.3-0.9-2.8-2.1-1.4-2.9-0.1-1.6 2.2 0.6 1.2 3 2.4 4.3 2.9-0.7 1.3-0.5 1.9 1 2.2-2 7.8 10.2 1.4 2.9-0.3z"/>
			<path id="&lt;Path&gt;" class="s2" d="m43 33.2c-2-3.6-8.7-1.9-6.1 2.4-1.7-0.7-6.6-1-5.2 2.4-1.8 0.9-5.4 2.9-7.2 3.3-3.9 1-4.1-2.4-7.3-3.5-2.9-1.1-7.8 0.7-5.7 4.9 1.2 2.6 6.4 3.1 8.2 1 1.4 2.7 6.6-2.4 8.9-3.2 2-0.8 6.5 0.3 7.2-1.7 1.4 0.8 2.7 0.6 3.2-0.9 1.4 1.5 4.7 0.7 5.6-1 1.2-2.1-0.8-5-1.6-3.7z"/>
			<path id="&lt;Path&gt;" class="s2" d="m20.1 7.7c-0.4-3.3-8.4-1.1-5.3 3.9-2.4 0.2-4.1 3.3-1.9 5.1-4.2 0.3-9.4 9.1-3.1 10.5 6.5 1.5 6.8-9.2 6-13.2 1-0.1 1.6-0.5 2.4-0.7 1.3 0.9 2.4 0.2 3.7 0.9 1.2 0.6 0.9 3.3 3.2 2.2 3.4-1.7-1-8.6-5-8.7z"/>
			<path id="&lt;Path&gt;" class="s2" d="m37.5 12.2c0.8-1.8 2.2-5.8-0.3-7-2.7-1.3-4.2 2-2.6 4-2 1.4-1.3 3.9-0.2 5.7-1.4 0.3-2.7 1-3.3 2.3-2.8-0.8-8.1 1.6-3.9 4.3 3.2 2.1 7.9-1.7 8.1-4.8 1.8 1.2 4.9 0.1 3.4-2.2 2.8 3.6 4-4.2-1.4-1.8z"/>
			<path id="&lt;Path&gt;" class="s2" d="m48 40.3c2.5 0 4.1-2.8 4.7-5.2 0.5-1.8-0.1-8.2-2.8-5 0.3-0.8 0-0.7 0-1.3-3.6 0.8-2 4.9 0.1 6.3-1.4 0.5-2.5 1.5-1.9 3-0.6 0.1-1.4 0.6-2 0.8 0.2 1.1 0.7 0.7 1.5 0.8z"/>
			<path id="&lt;Path&gt;" class="s2" d="m5.6 36.9c0.2 0.2 0.3 0.6 0.5 0.9 2.9-0.8 1.8-5.3-1.1-4.4 0.6-1.6 0.3-4.5-2-3.7 0.6-1.4 0.5-3.2-0.4-4.6 1.8-1.1 3.5-4.4 1.9-6.2-2.5 1-2.5 7.7-2.4 9.9 0 1.8 0.6 11.5 3.5 8.1z"/>
			<path id="&lt;Path&gt;" class="s2" d="m44.9 25.3c2.7 1.3-0.3-7.1-3.4-4.8-1.2-1.8-3.5-0.6-2.9 1.5-3.3 0.4-3.1 4.5 0.2 4.1 1.4-0.2 1.8-1.8 3.2-1.8 1.2 0 1.6 1.7 2.9 1.8z"/>
			<path id="&lt;Path&gt;" class="s2" d="m48.5 10.8c-0.2-1.2-1.9-4.6-3.8-3.3-2.8 1.9 1.7 3.8 2.3 4.5 1 1.1 1.8 4 3.8 3.6 2.9-0.6-1.7-3.2-2.7-3.4z"/>
			<path id="&lt;Path&gt;" class="s2" d="m37.1 47.3c-1.4-1.9-4.9-1.7-4.2 1.4-2.1 0.8-6 0.3-7.1 2.4-2.8-2.2-5.1 2.8-1.9 3.8 1.2 0.4 5.1-2.3 6.4-2.8 2.5-0.8 3.6-1.8 5.8-3 2.1-1.1 4.8 0.1 5.9-1.6 0.4 0.6 0.9 0.8 1.3 1.3 2.5-0.5 2.2-3.1 0.2-4.1-2.2-1-4 1.4-6.4 2.6z"/>
			<path id="&lt;Path&gt;" class="s2" d="m48.4 19.8c0.2-2.9-3.4-6.5-5.3-3.1-0.3-0.3-0.6-0.6-0.9-0.9-4.6 1.7 1.8 2.6 2.5 3.1 1.5 0.9 2.5 2.1 3.2 3.8 0.5 1.2 0.9 3.4 2.3 3.5 4.4 0.3-0.4-5.3-1.9-6z"/>
			<path id="&lt;Path&gt;" class="s3" d="m12.6 21.8c2.6-5.5-8.5-2.8-3.7 0.8-1.5 1.5-3 4.5 0.7 3.6 2.7-0.6 2.1-3.4 2.9-5.2z"/>
			<path id="&lt;Path&gt;" class="s4" d="m17.5 41.1c-1.8-5.4-7.4-1.2-4 0.1-5.6 2.7 9.9 6 3.9-0.5z"/>
			<path id="&lt;Path&gt;" class="s3" d="m41.9 35.8c0.4-1.5-1.3-4-3.1-2.9-2.5 1.6 0.9 3.9 2.8 3.1z"/>
			<path id="&lt;Path&gt;" class="s3" d="m29.8 18.3c-7.1-2 2.6 7.2 1.5 1.3z"/>
			<path id="&lt;Path&gt;" class="s3" d="m20.6 10.2c-1.4-0.9-6.2-3.9-4.2 0.4 0.7 1.7 5.3 3.8 5 0.4z"/>
			<path id="&lt;Path&gt;" class="s3" d="m43.7 46.6c-1.8-3.2-2.7-0.1-4 0.2-1.8 0.4-3.6-0.2-5.3 0.8 2.1 1.2 3.5-0.3 5.6-0.1 1.7 0.1 3 1.8 4.6 1.1-0.1-0.9-0.3-1.8-0.8-2.4z"/>
			<path id="&lt;Path&gt;" class="s3" d="m49.9 16.5c-0.2 0.7-0.7 2.3-0.9 3.6-1-2.9-3-7.2-4.9-3.9-1.6 2.7 3.4 6.9 5.7 6.9 0.3-0.6 0.1-1.2-0.2-1.9 0.2-1.6 1.9-4.6 0.3-4.7z"/>
			<path id="&lt;Path&gt;" class="s5" d="m48.2 10.4c-2.3-1.8-8-4.9-10-6.7-0.9-0.8-1.6-1.6-2.3-2.3-6.6-1.7-13.6-0.7-19.5 2.5q-2 1-3.7 2.4c3.1 1.2 8 1.3 9.8 1.7 3.7 0.8 6.7 2.9 7 6.8 0.1 1.7-0.7 2.6-0.1 4.2 0.4 1.5 2.3 2.4 2.9 4.1 1.5 3.7 0.4 12.1-3.7 14.2-2.2 1.1-3.6-0.6-5.4-0.7-1.1 0-2.8 0.6-3.7 0.5-2.4-0.3-2.8-2-5.5-1.1-3 1.1-1.6 2.5-2.8 4.6-1.4 2.6-3.3 3.2-5.3 2.8 4.6 6.8 12.5 11 20.5 11.8 5.1-0.8 9.3-1.2 13.1-3.7 12-8.2 21.5-31.1 8.7-41.1z"/>
			<path id="&lt;Path&gt;" class="s6" d="m30.8 0.6c-2.7 3.6 2.2 7.1 4.6 8.9 3.2 2.3 6.5 5.6 7.3 9.6 0.7 3.2-1.7 4.7-2 7.5-0.2 1.9 1.1 2.8 1.6 4.5 1.1 3.5 0.3 8.2-3.5 9.7-1 0.4-2.9 0.3-3.9 0.6-0.5 0.2-1 1.3-2 1.6-1.3 0.3-2.9-0.6-4.2-0.6-4.2 0.1-8.5 2.8-7.1 7.6 2.3 8.1 9.1 2.3 13.4 1.2 3.4-0.8 4.8 1.4 7.8-2.2 1.5-1.7 3.4-4.9 2.1-7 3.4 0.7 7-3.5 7.9-6.3 1.4-4.7-0.2-8.6-2.8-12.4 5.1-2.7 0.2-6.8-2.6-8.8 3.7-2.6-4.1-8.6-6.1-9.7l2.7 0.2c-4.1-2.7-8.6-4.1-13.2-4.4z"/>
			<path id="&lt;Path&gt;" class="s7" d="m17.8 7.2c-4.3-1.7-11.2 4.1-8.8 8.7-3.8 1.9-4.6 4-4.8 8.1-0.1 2 0.2 2.2-0.3 4.4-0.5 2.4-1.2 4.7-0.6 7.3 0.9 3.9 4.3 7.5 8.5 5.6 1.7-0.8 1.2-2.7 3.5-2.4 1.1 0.1 2.3 2.2 4 2.4 6.7 0.7 11.2-4.6 8.6-10.6 3.7 0.1 5.7-2.3 5.3-6.1-0.2-1.3-1.1-3.8-2-4.8-0.9-1-2.8-1.1-3.4-2.1-0.8-1.4 5.2-11.6-0.1-9.3 0.5-0.6 0.4-2.8-1.2-3.4 1.6-4.8-6.5 0.7-8.7 2.2z"/>
			<path id="&lt;Path&gt;" class="s8" d="m18.2 18c0.8-4.3-6.5-5.5-6.4-2-1.5 0.1-2.8 1.1-2.6 2.7-9.9-0.6-2.9 24 4.2 11.5 3 1.2 1.7 5.4 6.1 4.2 5.3-1.5 4.2-8.2 2.1-11.7 6.6-0.4 0.5-12.5-3.4-4.7z"/>
			<path id="&lt;Path&gt;" class="s9" d="m10 18.5c-0.1 0-0.1 0.2 0 0.1 0.8-0.2 1.7 0.1 2.2 0.7 0.2 0.2 0.4 0.5 0.5 0.9 0.1 0.1 0 1.4-0.2 1.2-0.2-0.2-0.4-0.1-0.5 0.1-0.3 0.7-0.1 1.3-0.1 2-0.1 1.6-1 2.4-2.5 2.8 0 0 0 0 0 0.1 1 0.2 1.9-0.4 2.5-1.2 0.6-1 0.2-2.1 0.5-3.2q0 0 0 0c0.1 0.1 0.3 0 0.3 0 1.7-1.8-0.7-4.8-2.7-3.5z"/>
			<path id="&lt;Path&gt;" class="s9" d="m18.3 41.4c-0.6-0.6-0.8-1.2-1-1.9-0.7-1.8-3.9-2.1-4.9-0.6 0 0.1 0.1 0.2 0.1 0.2 0.7-0.2 1.2-0.5 1.9-0.7 0.4 0 1 0 1.5 0.1 0.9 0.4 0.9 1 1.2 1.8 0.4 1.4 3 2.1 1.4 3.9q0 0 0 0c0.7-0.3 0.7-1 0.5-1.7-0.1-0.5-0.4-0.7-0.7-1.1z"/>
			<path id="&lt;Path&gt;" class="s9" d="m17.1 8.2c0 0 0 0.1 0 0.1 1.2 0.3 2.3 0.6 3.2 1.5 0.4 0.3 0.8 0.7 1 1.2 0.5 1-0.4 1.3-1.2 1.5-0.1 0.1-0.1 0.2 0 0.2 1.4 0.4 2.1-0.9 1.5-2.1-0.8-1.4-2.9-2.6-4.5-2.4z"/>
			<path id="&lt;Path&gt;" class="s9" d="m30.6 19c-0.8-0.8-2.1-1.3-3.2-0.8 0 0 0 0.1 0 0 0.9-0.1 2 0.2 2.7 0.8 0.4 0.2 0.7 0.6 0.9 1 0.1 0.6-0.3 0.9-0.6 1.4 0 0.1 0.1 0.1 0.1 0.1 1.2-0.4 0.8-1.9 0.1-2.5z"/>
			<path id="&lt;Path&gt;" class="s9" d="m13.2 30.3c-1.3 0.6-1.5-0.4-2.2-1.1q-0.1 0-0.2 0c-1.7 1.5-3.9 1.8-4.7-0.8-0.3-0.9-0.6-1.8-0.8-2.7-0.4-2.4-0.3-4.7 1.7-6.3q0 0-0.1 0c-3.7 0.7-1.8 8-0.7 10 1 1.9 2.6 1.2 4.1 0.5 1.2-0.5 0.8 0.5 1.6 0.9 0.5 0.3 0.9-0.1 1.4-0.4 0 0-0.1-0.1-0.1-0.1z"/>
			<path id="&lt;Path&gt;" class="s9" d="m18.7 17.7c0 0 0.1 0 0.1 0 0.7-1.2 2-2.3 3.4-1.5 0.9 0.6 1.4 1.4 1.5 2.4 0.2 0.9 0.1 1.9-0.1 2.7-0.1 0.4-0.2 0.8-0.5 1-0.5 0.4-0.9 0.1-1.4 0.1-0.1 0-0.1 0.1 0 0.1 0.6 0.9 1.7 0.3 2.1-0.5 0.6-1 0.6-2.5 0.3-3.7-0.5-2.9-4.4-3.7-5.4-0.6z"/>
			<path id="&lt;Path&gt;" class="s9" d="m24.5 27.4q0 0 0 0c-0.7 0.2-1 0.6-0.7 1.3 0.1 0.4 1.5 1.2 1.5 1 0 0.2-0.5 0.9-0.5 1.1-0.1 0.4-0.1 0.8 0.1 1.1 0.2 0.7 0.9 1.2 1.6 0.9 0.1 0 0.1-0.1 0-0.1-0.8-0.1-1.3-0.4-1.5-1.2 0-0.7 0.1-1.3 0.6-1.7 0.1-0.1 0-0.2-0.1-0.2-1.1-0.1-2.2-1.4-1-2.2z"/>
			<path id="&lt;Path&gt;" class="s9" d="m41.2 33.6c-0.6-0.7-1.9-1.4-2.6-0.4 0 0 0.1 0.1 0.1 0.1 0.8-0.7 1.7-0.3 2.4 0.4 0.5 0.5 1 1.3 0.5 2 0 0 0 0 0 0 1-0.2-0.1-1.8-0.4-2.1z"/>
			<path id="&lt;Path&gt;" class="s10" d="m50.2 16.6c-0.9-0.3-1.4 1.4-1.6 2.4-0.7-1.7-1.9-5.1-3.8-3.7-0.1 0 0 0.1 0 0.1 2.3-0.4 2.8 2.8 3.7 4.3 0.1 0.2 0.3 0.1 0.3-0.1 0-0.5 0.2-1 0.4-1.5 0-0.2 0.3-1.1 0.6-1.1 0.5-0.1 0.4 1 0.4 1.2-0.2 0.9-1.1 2-0.8 2.9 0.1 0.1 0.2 0.1 0.2 0 0.2-1.2 0.9-2.2 1.1-3.4 0-0.4 0.1-0.9-0.5-1.1z"/>
			<path id="&lt;Path&gt;" class="s10" d="m44 46c-0.1 0-0.2 0-0.2 0-0.5 0.6-1.3-1-1.9-1.2-1-0.2-1.7 1.4-2.5 1.8q0 0 0 0c0.7 0 1-0.5 1.4-1 0.9-0.8 1.4-0.4 1.9 0.4 0.2 0.2 0.4 0.6 0.8 0.5 0.1 0 0.2-0.1 0.3-0.1 0.3 0 0.1-0.3 0.5 0.4 0.1 0.3 0.2 0.6 0.3 0.8 0.1 0.1 0.2 0 0.2 0-0.1-0.6-0.4-1.2-0.8-1.6z"/>
			<path id="&lt;Path&gt;" class="s10" d="m37.5 5.7c-1.1-1.3-2.6-1.1-3 0.6q0 0.1 0 0c0.8-1.9 2.4-1.3 3.1 0.1 0.3 0.8 0.3 1.7 0.3 2.6 0 1.3-0.3 2.6-0.4 3.9-0.1 0.2 0.2 0.2 0.2 0.1 0.4-2.1 1.2-5.4-0.2-7.3z"/>
			<path id="&lt;Path&gt;" class="s10" d="m29.2 29.6c-0.7-0.4-0.5-0.6-0.8-1.3-0.4-1.5-2-2.3-3.4-2.5 0 0-0.1 0.1 0 0.1 1.7 1.1 3.2 1.4 3.2 3.8 0 0.1 0.1 0.2 0.2 0.2 2.8 0.1 1.1 3.1-1 2.9-0.1 0-0.1 0.1 0 0.1 1.4 0.5 3.8-1.1 2.8-2.7-0.3-0.4-0.6-0.4-1-0.6z"/>
			<path id="&lt;Path&gt;" class="s10" d="m43.3 20.2c-0.9-0.4-1.7-0.5-2.2 0.2-0.3-0.6-0.9-1.2-1.7-0.9-1 0.3-1 1.7-0.8 2.5 0 0 0.1 0 0.1 0 0 0.3 0.1-0.9 0.1-0.9q0-0.3 0.1-0.6 1.7-1 1.9 0.4c0.1 0.1 0.3 0.2 0.4 0q0.6-0.3 1.3-0.6 0.4 0.1 0.8 0.3c0.4 0.3 0.9 0.6 1.2 1.1 0.3 0.6 0.4 1.3 0.8 1.9 0 0.1 0.1 0 0.1 0-0.1-1.4-0.8-2.8-2.1-3.4z"/>
			<path id="&lt;Path&gt;" class="s10" d="m51.7 29.4c-0.7-0.6-1.3-0.4-1.8 0.2q0-0.4-0.1-0.8c0-0.1-0.1-0.1-0.1-0.1-0.8 0.2-1 0.7-1.4 1.4 0 0 0.1 0 0.1 0 0.2-0.4 0.3-0.9 0.9-0.8 0.5 0.2 0.4 0.2 0.3 0.7 0 0.1 0.2 0.2 0.2 0.1 0.8-1.4 2-0.7 2.5 0.5 0.2 0.8 0 1.5-0.1 2.3 0 0 0.1 0 0.1 0 0.5-1.2 0.4-2.6-0.6-3.5z"/>
			<path id="&lt;Path&gt;" class="s10" d="m32.2 35.8q-0.3 0.4-0.5 0.9c0 0.2 0.1 0.8 0 0.9 0 0-0.6 0.2-0.6 0.2-0.7 0.5-0.9 1.2-1.9 1.3-0.1 0-0.1 0.1 0 0.2 1.1 0.2 1.8-1.6 2.6-1.3 0.2 0.1 0.3-0.1 0.3-0.2-0.4-3.1 3.3-2.5 5.1-1.9 0.1 0 0.1 0 0.1-0.1-1.3-1-3.8-1.2-5.1 0z"/>
			<path id="&lt;Path&gt;" class="s10" d="m24.3 45.2c-1 1.8-2.2 3.2-4.4 3.6-2 0.3-4.3-0.3-6.1-1.3-2.9-1.5-5.3-4.7-4.3-8.1q0 0 0 0c-1.9 3.5 2.1 7.3 4.9 8.7 1.9 0.9 4.2 1.5 6.3 0.9 1.7-0.5 3.5-1.9 3.7-3.7 0-0.1 0-0.1-0.1-0.1z"/>
		</g>
	</g>
</svg>