<svg version="1.2" xmlns="http://www.w3.org/2000/svg" viewBox="0 0 104 112" width="104" height="112" style="transform:rotate(90deg)">
	<title>planets</title>
	<style>
		.s0 { opacity: .5;fill: #58c6d5 } 
		.s1 { opacity: .4;mix-blend-mode: overlay;fill: #f9f9f9 } 
		.s2 { opacity: .6;mix-blend-mode: overlay;fill: #f9f9f9 } 
		.s3 { fill: #507b7a } 
		.s4 { opacity: .6;mix-blend-mode: multiply;fill: #507b7a } 
		.s5 { opacity: .4;mix-blend-mode: screen;fill: #7dafac } 
		.s6 { fill: #f9f9f9 } 
		.s7 { opacity: .7;fill: #f9f9f9 } 
	</style>
	<g id="planets">
		<g id="-e-">
			<g id="&lt;Group&gt;">
				<g id="&lt;Group&gt;">
					<path id="&lt;Path&gt;" class="s0" d="m87.1 95c7.1 1.5 2.2 8.3-4.1 6.8-1.1-0.3-2.2-1.6-3.3-1.8-0.9-0.1-1.4 0.5-2.3 0.5-2.6-0.2-3.7 1.4-6-2 0.4-0.2 0.7-0.1 1-0.2-1.5-2.7-5.4-3.6-7.9-5-4.4-2.5-9.3-5.5-12.4-9.5 3.6 0.1 6.6 3.8 10.3 4.1 0.5-2.8-8.9-8.6-10.8-11.4 2.9 1.3 5.7 3.5 8.9 4.2-0.4-2-2.3-3-3.9-4.3-4.7-4.1-9.1-8.4-13.6-12.8-5.5-5.3-18.2-13.2-20.2-21 4.3 2.6 9.2 5.5 13 8.8-0.6-2.2-2.2-3.9-3.5-5.7 0.9 0.9 2.1 1.3 3.1 1.9-1.1-5.8-9.2-11.8-13.2-15.4-8.2-7.2-16.2-14.2-22.7-23 6.9 7 13.5 10.6 19.3 13.2-1.5-3.5-4.4-6.2-6.3-9.5 3.9 2 8 4.9 11.1 7.9-3.9-8.1-10.5-13.8-16.6-20.2 8 0.8 15.1 10.3 22.2 13.8-0.7-3.1-3.8-6-5.9-8.5 5.5 2.9 10.2 6.3 14.7 10.5 3.2 3.1 6.6 8 10 10.1-2.6-7.2-9.7-11.9-12.9-18.5 9.3 4.6 17.8 16 23 24.6 3.2 5.4 5.6 11.1 8.3 16.7 1.1 2.3 2.5 6.3 5.1 7.4 0.6-3.6-2.8-7.7-4.3-10.7-2.3-4.7-4.4-9.4-6.5-14.1 3.8 3.3 5.9 8.3 9.4 12.1-0.1-4.1-2.4-8.2-4.5-11.6 10.1 12.1 18.3 26.2 26 39.9 2.4 4.2 5.7 9.3 5.5 14.3-0.1 4.4-2.9 7.2-10 8.4z"/>
					<path id="&lt;Path&gt;" class="s1" d="m61.4 64.4c3.6 4.8 5.4 10.8 11.1 13.6 5 2.5 5.5-2.4 3.9-6-2.4-5.6-8-6.8-11.5-10.8 2.1-0.8 0.1-3.5-1-4.6 4.7-2.4-5.7-10.7-7.6-12.5 8.3-2-6.6-13.9-9.3-14.9-2.9-1.1-5.7-2.1-8-4.5-1.9-2.1-2.2-5.2-5.6-5.4 0.2 0.9 0.1 2.1 0.5 3-7.5-2.2-9.8-12.3-16.9-15.4 0.8 3.8 4.7 6.9 7 9.9 3.2 4.4 6.5 9.2 9.2 13.9-2.7-1.4-5.5-5.2-8.2-5.9 0.1 4.9 10 10 13.1 13.2 2.7 2.8 5.2 5.7 7.9 8.4 0-1.8-1.8-3.3-3.2-4.3-1.1 3.7 3.8 7.8 6.9 8.9-1.1-0.7-2.4-1-3.7-0.8 0.4 4.6 11.3 9 15.4 14.2z"/>
					<path id="&lt;Path&gt;" class="s2" d="m63.2 85.7c2.6 1.7 7.5 6.5 8.7 1.2 1.2-5.7-7.9-8.6-10.5-12.2 0.7 0.2 1.2 0.1 1.7 0.2-0.3-3-4.6-5.2-6.9-6.7-4.6-3.1-8.6-6.1-12-10.5 1.1 0.9 2.1 1 3.3 0.9-0.1-6.9-10.8-16.9-15.8-20.9 3.1 5.4 7.2 10.7 10 16.5-2-0.8-4-1.9-6.1-2.1 0.6 3.7 8.1 10.5 10.9 13.2 4.7 4.4 9.8 8.4 13.9 13.4-0.3-0.3-0.7-0.6-1-0.8 0.9 2.7 4.1 3.7 5.9 5.8-0.8 0.3-1.5 1.1-2.5 1.3 0.7 0.9 1.7 1.6 0.4 0.7z"/>
					<path id="&lt;Path&gt;" class="s2" d="m73.3 85.7c-6.8-0.9-16.4-10.1-19.4-15.9 1.9 0.6 3.9 1.7 5.8 2.1-0.6-2.9-4-4-5-6.7 1.4 0.1 2.7 0.4 4 0.7q0.5-0.2 0.3-0.7c-5.9-5.1-11.5-10.1-16.6-15.9 2.8 1.9 6.1 4.1 9.6 4.5-1.9-4-6.4-6.6-8.9-10.4 2.6 0.5 5.7 2.1 8.3 3 0.2-5.9-14.2-15.5-18.7-18.6 5.8-1.3 9.2 4.4 14 6.1 0.1-3.4-3.9-5.8-5.7-8.4 3.2-0.8 8.7 5.4 10.8 7.4 0.2-1.9-1.4-4.1-2.2-6.1 4.6 3.8 7.1 9.5 9.7 14.7 6.7 13.2 15.3 24.9 24.2 36.7z"/>
					<path id="&lt;Path&gt;" class="s2" d="m85.3 77.4c1.2 1.2 2.9 2.2 4.2 3.3 2-4.2-5.2-13.5-8.1-16.2 4.5 2.6-0.5-5.4-1-6.1-3.2-4.8-6.5-9.6-9.8-14.4-0.1 4.6 4.4 9.2 5.5 13.7-0.1-0.3-2.2-2.9-3.2-3.8-0.1 3.4 3.4 6.6 3.2 10.4-2.7-1-6-5.2-7.3-7.9 2 8.9 13.3 16.6 16.5 21z"/>
					<path id="&lt;Path&gt;" class="s2" d="m70.9 89.5q0.2 0.6 0.1 1.1c-2.9 1.2-4.9 0.5-6.6-2-3.2-5 0.2-2.5 1.6-4.2 3.1-3.9-2-4.2-3.8-8-1.1-2.2-1-3.7 2.2-3.1 0.3-2-1.6-4.1-2.8-5.7 3-0.5 4.9 2.3 7.8 2.4 0.4-3.3-1.7-7-2.8-10.2 1.8 1.1 3.5 2.7 5.2 4 1.6-3.1-1.5-7.5-1.7-10.9 2.6 2.5 4.1 6.2 7.2 8.1 0-2.5-1.5-5.5-1-7.8 9.7 6.8 14.1 18.4 16 29.6z"/>
					<g id="&lt;Group&gt;">
						<path id="&lt;Path&gt;" class="s3" d="m87.6 78.8c1.7-2.3 6.5 0.3 7.9 1.8 2.1 2.4 2.5 5.3 0.5 8 1.3 1.3 1.9 4.4-0.4 5 0.7 3.5 0.3 7.1-2.3 9.7-2.5 2.4-8.5 3.8-9.5-0.9-0.6 1.1-2.5 1.9-3.3 0.8-5.3 4.9-15.4-6.2-10.1-11.4-1 0-2.9-0.4-2.2-1.7-6.9-1.5-2.3-16.4 5.5-12-0.5-1.2 0.9-2.2 1.3-1.4 0-3.8 2.9-9.8 7.4-9 2.9 0.4 5.8 3.2 5.9 6.2 0 1.8-0.1 3.2-0.7 4.9z"/>
						<path id="&lt;Path&gt;" class="s4" d="m70.2 97.5c0.8 2.7 5.2 4.9 7.5 2.4 1-1.3 1.3-7.7-1.1-6.2 1.1-3-3.1-5.2-3.1-2.3-2.2-2.8-4 4.9-3.3 6.1z"/>
						<path id="&lt;Path&gt;" class="s4" d="m89.7 97.9c-1.1-1.6-5.1 2.8-1.6 4 1.3 0.4 2.7-0.8 3.4-1.8 0.6-0.8 1.2-2.9-0.5-2.2 0.7-0.4 0.9-1.3 0.3-2-1.1-1.1-1.4 1.5-1.8 2.2z"/>
						<path id="&lt;Path&gt;" class="s4" d="m93 98c3.1-1.6 0.7-4.2-0.2-0.5z"/>
						<path id="&lt;Path&gt;" class="s4" d="m85.7 86.1c-2.2-1.7-5.8-0.4-5.9 2.7-0.2 4.1 6.4 5.7 8.5 2.4 1.6 0.6 3.1 1.4 4.1-0.8 0.7-1.6-0.7-3.8-2.5-2.4 1-0.8 0.4-1.8-0.8-1.6 3.4-4.4-5.2-3.9-3.4-0.3z"/>
						<path id="&lt;Path&gt;" class="s4" d="m74.3 83.4c0.6 2.9 4.9-0.7 2.1-0.5 1.7-1.5-2.8-2.9-3.8-2.8-4.8 0.4-1.4 6.3 1.4 3.4z"/>
						<path id="&lt;Path&gt;" class="s4" d="m72.2 87.1c1 0.1 3.2 0.3 2.9-1.3-0.3-1.4-2.9-1-2.7 0.5z"/>
						<path id="&lt;Path&gt;" class="s4" d="m82 77.4c-0.2 1.2-2 2.4-3 1.7-1.7-1.2 0.2-3.6 1.7-3.5-2.3-1.5-0.8-4.2 1.6-4 2.3 0.2 4.7 4 3 5.9 0.9-0.1 0.8 1.8 0.3 2.5-1.5 2.5-3.1 0.1-3.7-1.5z"/>
						<path id="&lt;Path&gt;" class="s4" d="m81.7 81.8c-0.8 0.8-2.8 0.4-1.5-1 1-1 2.7-0.2 1.7 1.2z"/>
						<path id="&lt;Path&gt;" class="s4" d="m90.7 81.5c0.6 0.3 1.9 0.5 2.3 1.3 0.4 1.2-0.9 1.9-0.7 3 0.4 2.6 3.8 0.4 2.6-1.6 3.1-0.9-1.8-3.7-3-3.9-0.6-3.6-7.2 2.1-0.7 1z"/>
						<path id="&lt;Path&gt;" class="s4" d="m86 95.6c-3.1-1.9-5.9 4-2.8 3.5-1 0.4-5 2.7-2.4 3.3 1.7 0.4 4.9-3.3 5.7-4.6 0-0.1-0.2-0.1-0.3-0.2 0.9-0.4 2.9-0.3 3.2-1.5 0.7-2.8-3-0.5-3.4-0.5z"/>
						<path id="&lt;Path&gt;" class="s4" d="m67.6 86.3c-1.3 1.7 1.1 2.5 1.9 1.2-0.1 0.4 0 1.1 0 1.6 2.8 0-0.9-3.7-1.9-4.1 0.5-0.3 0.9-1.8 0.3-2.3-1.4-1-2.6 2.9-0.5 3.8z"/>
						<path id="&lt;Path&gt;" class="s5" d="m72 101c0 1.8 4.5 3.4 4.5 1.5 2.1 1.4 4.3-2.1 2.3-3.6 2.2-1 3.4-4.3 0.4-4.9 0.4-1.2-0.3-2.4-1.7-2.2 0.8-2.7-3.7-4.8-3.6-3 0 0.4 1.7 1.3 1.9 1.9 0.3 0.6-0.2 1.8 0.2 2.3 0.4 0.6 1.5 0.3 1.9 0.8 0.9 0.8 0.5 1.9 0.2 3-0.8 3.3-2.1 5.3-6.1 4.2z"/>
						<path id="&lt;Path&gt;" class="s5" d="m85.4 101.9c-1.9 1.7 0.8 3.4 2.3 1.8 0.7 0.6 4 0.4 3.4-1.1-0.3-0.9-3.3-0.1-4 0.2 0-1-1-1.7-1.9-1.8-0.2 0.2-0.1 0.2-0.2 0.5q0.2 0.3 0.6 0.2z"/>
						<path id="&lt;Path&gt;" class="s5" d="m84.2 93.5c-0.7-0.3-3.4-1.3-3.2 0.3 0.2 2 3.5 0.9 4.3 0.1 0.9 0.9 4.2 0.8 4.8-0.7 1.1-3.1-4.5 0.1-5.1 0.4z"/>
						<path id="&lt;Path&gt;" class="s5" d="m79.3 83.4c-4.6-1.5 1.3 5.7 2.3 1.1q0-0.2-0.1 0c0.9 1 3 0.2 2.9-1.1-0.2-2.5-3.9-0.4-4.9 0.2z"/>
						<path id="&lt;Path&gt;" class="s5" d="m68.6 80.7c-1 0.7-0.1 2.3 1.1 1.9-0.4 0.6-0.3 1.5-0.4 2.3 0.3 0 0.5 0.3 0.9 0.3-1 0.9-0.8 3.6 0.9 3.3 1.9-0.5 0.3-3.2-0.5-3.9 1.2-0.9-0.6-6.1-2-3.9z"/>
						<path id="&lt;Path&gt;" class="s5" d="m75.9 79.7c-0.6-0.4-1.2-0.9-1.9-1 0.1 0.3 0.1 0.7 0.2 1-1.7-1-5.1-2-5.2 1q-1.1-1-2.3-1.1c-2.6 3.4-2.8 9.6 1.5 10.5-0.7 1.3 1.2 1.7 2.2 1.7-4.8 4.6 2.8 13.9 8.2 12.5 0.9-0.9 1.6-2.3 2.2-3.7 0.6 0.7-0.5 3.2 1.4 2.7 1-0.2 2.2-3.8 3-1.9 0.3 0.7-0.8 1.5 0.1 2.6 1 1.3 3 0.9 4.2 0.1 3.3-1.9 4.8-9.3-1-8 0.5-0.2 0.6-0.6 0.9-0.9-2.2-1.2-4.4-1.1-6.9-1 0.7-0.8 0.6-1.8-0.2-2.5 3.4-1 4-3.3 2.4-6.5-1.3-2.8-3.1-2.3-5.7-1.4 1-2.6 6.3-5.1 2.9-8.6-2.6-2.7-6.4 1.6-6 4.5z"/>
						<path id="&lt;Compound Path&gt;" fill-rule="evenodd" class="s4" d="m82.4 67.7c2.9 0.4 5.8 3.2 5.9 6.2 0 1.8-0.1 3.2-0.7 4.9 1.7-2.3 6.5 0.3 7.9 1.8 2.1 2.4 2.5 5.3 0.5 8 1.3 1.3 1.9 4.4-0.4 5 0.7 3.5 0.3 7.1-2.3 9.7q-0.2 0.1-0.4 0.3c0.4-1.1 0.5-2.2 0.4-3.4-0.1-1.4-0.7-3.6-2.4-3.7 1.9-1.4 1.6-4.9-1.2-4.1 0.2-2.4-2.2-1.8-3.7-1.8 0.4-3.3 0-6.9-3.2-7.6q0.2 0.7 0.2 1.4c0.2 1.3 0 3.8-1.9 3.6 2.3-5.2-7.1-6.8-6.1-3.4-1.4-1.4-5.4-2.7-5.5 0.5-0.2 3.5 4.5 3 5.5 5.3 1.2 2.5-1 2.3-2.2 2.3-1.3 0.1-1.6 0.2-2.6 1.2-0.9 0.8-0.5 1.3-1.3 1.3 0-1.3 0.5-2.5 1.5-3.4-1 0-2.9-0.4-2.2-1.7-6.9-1.5-2.3-16.4 5.5-12-0.5-1.2 0.9-2.2 1.3-1.4 0-3.8 2.9-9.8 7.4-9zm-7.9 11.3c1.3 0.3 2.8-0.1 4.1 0.1 1.2 0.1 2.1 0.6 2.8 1.4 0.2-2.3-0.1-4.6-2.9-5.1-2.9-0.4-3.2 1.8-4 3.6z"/>
						<path id="&lt;Path&gt;" class="s4" d="m71.9 96.7c0.1 0 0.2-0.1 0.2-0.1-1.3-1.8 2-2.6 2.5-1.1 0.3 0.6 0 1.4 0.1 2.1 0.1 0 0.2 0.1 0.2 0 0.2-0.9 1.1-0.7 1.6-0.2 0.5 0.3 0.8 0.8 0.7 1.3-0.1 1.4-1.5 2-2.7 2.1-2.5 0.1-3.9-2.2-4-4.4q0-0.1 0 0c0 1.8 0.9 3.7 2.7 4.3 1.4 0.5 3.5 0.1 4.1-1.5 0.3-1.1-0.7-2.7-2-2.4-0.2 0-0.3 0.1-0.4 0.3q0 0-0.1 0.1c0.1-0.3 0.1-0.6 0.1-0.7 0-0.6 0.1-1.2-0.5-1.6-1.2-0.9-3.8 0.2-2.5 1.8z"/>
						<path id="&lt;Path&gt;" class="s4" d="m86.8 100c-0.3 0.8 0.4 1.6 1.2 1.9 1.6 0.5 4.1-1.3 3.9-3.1 0-0.2-0.2-0.1-0.3 0 0 1.5-1.9 3.1-3.4 2.8-1.3-0.2-1.4-1.5-0.7-2.3 0.4-0.6 1-1 1.5-1.5q0-0.1 0-0.1c-0.8 0.7-1.9 1.3-2.2 2.3z"/>
						<path id="&lt;Path&gt;" class="s4" d="m87.8 96c0.3 1.1-1 0.9-1.6 1.4-0.8 0.6-1.2 1.7-1.8 2.4-0.7 0.9-1.5 1.9-2.6 2.3-0.2 0.1-0.8 0.3-1 0.2-0.4-0.3 0-0.8 0.2-1.1 0.3-0.5 0.9-0.9 1.4-1.3 0 0 0-0.1-0.1-0.1-1 0.6-2 1.4-1.9 2.6 0 0 0 0.1 0.1 0.1 2.2 0.2 3.7-1.8 4.8-3.4 0.4-0.6 0.8-1.4 1.4-1.6 0.3-0.2 0.7-0.2 1-0.3 0.6-0.3 0.6-0.8 0.3-1.3-0.1-0.1-0.2 0-0.2 0.1z"/>
						<path id="&lt;Path&gt;" class="s4" d="m89.9 88.8c0.7 0.5 2.1 1.5 0.6 2-0.7 0.3-1.7 0.2-2.1-0.5-0.1-0.2-0.3-0.1-0.3 0-0.5 1-1.7 2-2.8 2.4-0.4 0.1-2.3 0.3-1.7-0.7 0.3-0.5 1.1-0.5 1.6-0.3 0.1 0 0.1-0.1 0-0.1-0.5-0.3-1.3-0.3-1.8 0.2-0.2 0.4-0.2 0.8 0.2 1 1.5 1.1 3.8-0.8 4.6-2.2 0.7 0.8 2 0.9 2.8 0.4 1.3-0.8-0.1-2-1-2.4-0.1-0.1-0.2 0.1-0.1 0.2z"/>
						<path id="&lt;Path&gt;" class="s4" d="m72.9 86.6c-0.2 0.4 0.1 0.8 0.5 0.9 0.8 0.3 2-0.5 1.6-1.4-0.1-0.1-0.2 0-0.2 0.1 0.3 0.6-0.6 1.2-1.2 1.1-0.3 0-0.7-0.3-0.5-0.7 0.2-0.3 0.5-0.5 0.9-0.5 0.1 0 0.1-0.2 0-0.2-0.5 0.1-1 0.3-1.1 0.7z"/>
						<path id="&lt;Path&gt;" class="s4" d="m66.2 83.9c-0.1 0.5 0.1 1 0.3 1.5 0.2 0.4 0.7 0.9 0.7 1.3 0 0.3-0.2 0.2-0.1 0.6q0.2 0.5 0.7 0.8c0.4 0.2 1 0.2 1.4-0.1 0.1 0.9 1.4 1.2 1.3 0 0 0-0.1 0-0.1 0 0 0.4-0.3 0.9-0.8 0.6-0.3-0.3-0.2-0.7-0.1-1 0-0.1-0.2-0.2-0.3-0.1-0.4 1-2 0.3-1.8-0.6 0.1-0.2 0.2-0.2 0.2-0.4-0.1-0.2-0.6-0.7-0.7-1-0.2-0.3-0.3-0.5-0.4-0.9-0.1-0.5 0-1.8 1-1.5 0.1 0.1 0.2-0.2 0.1-0.2-0.8-0.3-1.2 0.3-1.4 1z"/>
						<path id="&lt;Path&gt;" class="s4" d="m70.8 83.4c0.9 1.1 2.3 0.7 3.3-0.1 0.4 1 1.6 1.4 2.6 0.6 0.6-0.4 0.7-1.1 0.1-1.3 0.9-0.8-1.2-1.6-2.1-1.6-0.1 0-0.1 0.2 0 0.2 0.4 0.2 2.7 0.8 1.6 1.4-0.2 0-0.2 0.3 0 0.3 1.2 0-0.1 1-0.4 1-0.8 0.2-1.4-0.2-1.6-0.9-0.1-0.2-0.2-0.2-0.3-0.1-0.8 0.8-2.1 1.3-3.1 0.3-0.6-0.7-0.6-1.6 0.3-2.1 0 0 0-0.1-0.1-0.1-1 0.4-1 1.6-0.3 2.4z"/>
						<path id="&lt;Path&gt;" class="s4" d="m93.1 84.1c-0.5 0.5-1.1 1.1-0.9 1.9 0.1 0.5 0.6 0.8 1.2 0.8 0.9-0.2 2-1.5 1-2.3-0.1 0-0.2 0.1-0.2 0.2 0.3 0.3 0.4 0.7 0.1 1.1-0.2 0.3-0.5 0.6-0.9 0.7-0.5 0.1-1-0.2-1-0.8-0.1-0.5 0.4-1.1 0.7-1.5 0-0.1 0-0.1 0-0.1z"/>
						<path id="&lt;Path&gt;" class="s4" d="m93.4 96.3c-0.4 0.4-0.5 0.9-0.6 1.5 0 0.1 0.1 0.1 0.2 0.1 0.4-0.3 0.9-0.8 1.1-1.2 0.1-0.1 0-0.1 0-0.1-0.2 0.1-0.4 0.3-0.6 0.5q-0.2 0.3-0.5 0.5c0.1-0.4 0.2-0.9 0.4-1.3q0.1 0 0 0z"/>
						<path id="&lt;Path&gt;" class="s4" d="m84.7 77.9c0.4 0.5 1.3 1.5 0.6 2.2-0.9 1-2.4-0.1-2.9-0.9 0-0.1-0.1-0.1-0.1 0 0.3 1.2 2.1 2 3.1 1.2 0.9-0.7 0.2-2.2-0.6-2.7-0.1 0-0.2 0.1-0.1 0.2z"/>
						<path id="&lt;Path&gt;" class="s4" d="m78.7 78.8c0.6 0.9 2.3 0.6 2.3-0.5q0-0.1 0 0c-0.2 0.3-0.4 0.6-0.9 0.8-0.5 0.2-1.1-0.1-1.2-0.6-0.4-1 0.5-2.1 1.3-2.5 0.1 0 0.1-0.2 0-0.2-1.1 0.2-2 1.9-1.5 3z"/>
						<path id="&lt;Path&gt;" class="s4" d="m73 97.7c-0.3 0.4-0.1 1 0.2 1.3 0.4 0.3 1.2 0.7 1.6 0.2 0.3-0.4-0.1-1.1-0.6-1.2-0.5-0.1-0.6 0.3-0.3 0.6 0.1 0.1 0.2 0 0.2-0.1-0.3-0.4 0.2-0.3 0.4-0.1 0.1 0.2 0.2 0.5 0.1 0.7-0.1 0.1-0.4 0.1-0.5 0.1-0.5-0.1-1.2-0.6-1-1.2 0.1-0.7 0.9-0.5 1.4-0.2 0.4 0.3 0.7 0.7 0.8 1.2 0.1 1.1-0.9 1.6-1.8 1.3-0.8-0.3-2-1.3-1.2-2.1q0-0.1 0-0.1c-1 0.9 0.4 2 1.2 2.3 1.1 0.4 2.2-0.3 2-1.5-0.2-0.9-1.8-2.4-2.5-1.2z"/>
						<path id="&lt;Compound Path&gt;" fill-rule="evenodd" class="s4" d="m90.9 98.1c1.2 0.5-0.3 1.7-0.8 2.1-0.4 0.3-1.8 1.3-2.3 0.7-0.2-0.3 0.1-0.9 0.3-1.2 0.4-0.5 0.9-1 1.5-1.2 0.4-0.3 0.9-0.5 1.3-0.4zm-1 0.5q0.2 0 0.4 0c0.1 0 0.1 0.1 0.1 0.2-0.4 0.5-1 1.3-1.8 1.2 0 0-0.1-0.1 0-0.1 0.1-0.4 0.4-0.9 0.9-1.3-0.4 0.2-0.9 0.6-1.2 1-0.3 0.4-0.7 1.5 0.2 1.3 0.6-0.2 1.2-0.7 1.7-1.1 0.3-0.2 0.9-0.6 0.9-1 0-0.7-0.7-0.4-1.2-0.2zm-0.4 0.3c-0.3 0.3-0.8 0.7-0.7 0.9 0.1 0.2 0.9-0.6 1.2-1-0.1 0.1-0.2 0.2-0.3 0.3-0.1 0-0.2-0.1-0.2-0.2z"/>
						<path id="&lt;Path&gt;" class="s4" d="m81 88.9c-0.8 1.2 0.8 1.5 1.6 1 0.4-0.2 1-0.9 0.5-1.3-0.4-0.3-1 0.1-1 0.6 0 0.1 0.1 0.1 0.2 0q0-0.2 0.2-0.4 1 0 0.2 0.8c-0.2 0.2-0.6 0.3-0.8 0.3-0.4 0.1-1-0.1-0.8-0.6 0-0.2 0.2-0.3 0.3-0.5 0.7-0.7 3-1.1 2.6 0.6-0.3 0.9-1.2 1.4-2.1 1.3-1.1-0.1-1.7-0.8-1.8-1.8q0-0.1-0.1 0c0 1.2 1.1 2.1 2.3 2 1-0.1 2.5-1.3 1.8-2.4-0.6-1.1-2.5-0.4-3.1 0.4z"/>
						<path id="&lt;Compound Path&gt;" fill-rule="evenodd" class="s4" d="m75 81.3c0.4 0.3 0.4 0.8 0 1.2-0.4 0.3-1.1 0.3-1.6 0.3q0 0 0 0c-0.6 0.2-1.5 0.3-2-0.1-0.4-0.4-0.5-1 0-1.4 0.9-0.9 2.7-0.8 3.6 0zm-0.6-0.1c-0.9-0.4-1.9-0.4-2.7 0.1-0.8 0.4-0.5 1.4 0.4 1.6 0.4 0 0.8 0 1.2-0.1-0.4-0.1-1-0.2-1.1-0.6-0.2-0.5 0.4-0.7 0.8-0.7 0.3-0.1 1.4-0.3 1.4 0.3 0 0.6-0.8 0.4-1 0.2-0.1-0.1 0-0.2 0-0.1 0.4 0.1 0.5-0.1 0.3-0.3 0 0-0.3 0-0.4 0.1-0.2 0-0.6 0-0.8 0.2-0.4 0.5 0.7 0.6 1 0.6 0.3 0.1 0.8 0.1 1.2-0.1 0.8-0.4 0.2-1-0.3-1.2z"/>
						<path id="&lt;Path&gt;" class="s4" d="m96.3 85c1.1 0.8-0.2 1.8-1.1 1.9 0 0-0.1 0.1 0 0.2 0.4 0.5 0.3 1.2-0.4 1.4-0.1 0-0.1 0.1-0.1 0.2 0.6 0.5-0.1 0.9-0.4 1q-0.1 0.1 0 0.2c0.2 0.5 0.6 0.6 1 0.9 0.7 0.4 0.9 1.1 0.2 1.7-0.3 0.2-0.6 0.3-0.9 0.5 0 0 0 0.1 0.1 0.1 0.7-0.4 2-1.1 1.2-2.2-0.2-0.2-0.4-0.3-0.7-0.4-0.1-0.1-0.3-0.2-0.4-0.3-0.4-0.4-0.2-0.4 0.1-0.6 0.1-0.1 0.3-0.3 0.3-0.5 0.1-0.1-0.1-0.3-0.1-0.4 0-0.2 0.6-0.5 0.6-0.9 0-0.2-0.1-0.3-0.1-0.5-0.1-0.2-0.2-0.1-0.1-0.2 0 0 0.4-0.1 0.5-0.2 0.8-0.4 1.5-1.5 0.4-2.1-0.1 0-0.2 0.1-0.1 0.2z"/>
						<path id="&lt;Path&gt;" class="s4" d="m92.3 87.5c-0.1 0.1-0.1 0.2 0 0.2 0.3 0 0.5 0 0.7 0.1 0.4 0.2 1.2 0.8 0.3 1.3-0.1 0-0.2 0.1-0.1 0.2q0.7 0.4 0.2 1.3c-0.1 0.1-0.1 0.2 0 0.2 1.6 0.7 0.7 2.7-0.8 2.5q-0.1 0 0 0c0.8 0.3 1.6-0.1 1.8-1 0.1-0.3 0.1-0.7-0.1-1-0.1-0.2-0.3-0.3-0.4-0.5q-0.1-0.2-0.1-0.2c0 0 0 0 0.1-0.2 0-0.2 0-0.3 0-0.5 0-0.2-0.3-0.5-0.3-0.7 0-0.1 0.3-0.3 0.3-0.6 0-0.7-1-1.3-1.6-1.1z"/>
						<path id="&lt;Path&gt;" class="s4" d="m80.4 68.8c-1.7 0.4-2.5 2.1-2.2 3.7-0.9-0.6-2 0.8-1.3 1.8 0.1 0.1 0.2 0 0.2-0.1-0.5-0.7 0.3-2.4 1.2-1.3 0.1 0.1 0.3 0 0.2-0.1-0.4-1.3 0-2.8 1.3-3.5 1.3-0.8 2.6-0.1 3.3 1.2 0 0.1 0.1 0.1 0.2 0.1 0.6-0.3 1.2-0.4 1.5 0.3 0.1 0.4 0.2 0.9 0.3 1.3q0 0.1 0.1 0.1c1.4 0 1.8 0.9 2 2.1 0.2 1.5 0.1 2.9-0.7 4.1-0.1 0.1-0.1 0.1 0 0.2 0.6 0.4 0.9 1.4 0.2 1.9-0.1 0-0.1 0.1 0 0.2 0.5 0.4-0.1 1-0.4 1.3 0 0 0 0.2 0.1 0.2 1.1-0.2 2.3-0.6 3.4-0.4 2.1 0.4 2.1 2.9 0.7 4.1q0 0 0 0c1.2-0.8 1.8-2.7 0.5-3.8-1.1-0.9-2.9-0.5-4.2-0.2 0.2-0.2 0.4-0.5 0.4-0.7 0-0.3-0.2-0.5-0.2-0.6 0-0.3 0.3-0.6 0.3-0.9 0-0.4-0.2-0.7-0.4-1-0.1-0.2-0.1-0.2-0.1-0.4 0.1-0.3 0.4-0.6 0.5-0.9q0.2-0.8 0.2-1.7c0.1-0.9 0-2.2-0.5-3q-0.3-0.3-0.6-0.5c-0.5-0.3-1-0.1-1.2-0.6-0.2-0.6-0.2-1.4-0.9-1.6-0.3-0.1-0.8 0.2-1.1 0.1-0.1-0.1-0.3-0.5-0.4-0.6q-0.2-0.2-0.5-0.4c-0.5-0.4-1.2-0.6-1.9-0.4z"/>
						<path id="&lt;Path&gt;" class="s5" d="m69.4 96.9c0 1.2 1.2 2.6 1.9 3.5 1.1 1.2 2.2 2.4 3.8 2.9 1.3 0.4 2.7 0.1 3.6-0.9 1.4-1.6 1.1-2.9 0.6-4.8 3.1 1 2.6-2.5 1.6-4.4-0.8-1.7-2.3-3.9-4.5-3.4-1.8 0.4-1.5 2.5-1.4 3.9-1.1-0.2-1.9-1.1-3.1-0.9-1.7 0.2-2.5 2-2.5 4.1z"/>
						<path id="&lt;Path&gt;" class="s5" d="m86 99.9c-2.4 1.2-2 4.5 0.6 5.1 1.8 0.5 4.2-0.5 5.3-1.9 0.7-1 0.7-2.6 0.2-3.7-1.3-3-4.3-1.5-6.1 0.5z"/>
						<path id="&lt;Path&gt;" class="s5" d="m65.4 87.4c0.7 1.8 3.7 2.5 5 0.9 0.7-0.9-0.4-2.8-1.2-3.2-1.3-0.7-3.3 0.6-3.8 2.3z"/>
						<path id="&lt;Path&gt;" class="s5" d="m69 91.2c0.8 0 4-0.3 4.1-1.4 0.1-2-4.7 0.4-4.1 1.4z"/>
						<path id="&lt;Path&gt;" class="s5" d="m81.7 77.6c0.8 0.9 0 2.7-0.7 3.5-1.6 1.8-3.7 0-4.4-1.7-1.1-2.3-0.4-5.1 1.2-7 2.5-2.8 4.9 1.4 3.9 5.2z"/>
						<path id="&lt;Path&gt;" class="s5" d="m89 84.5c-0.7 1-2 1-2.3 2.5-0.2 1.4 0.3 2.2 1.8 2.3 1.9 0.1 4.1-1.2 5.1-2.7 1.9-2.6-0.8-3.9-3.2-3.5z"/>
						<path id="&lt;Path&gt;" class="s5" d="m92.2 92.3c0.3 0.5 2.4 1 3 0.5 0.3-0.2 0.5-0.7 0.4-1.1-0.5-1.2-2.3-0.2-2.9 0.2z"/>
						<path id="&lt;Path&gt;" class="s5" d="m74 76.9c-0.2 0.6 0.1 2.3 0.9 2.4 1.4 0.1-0.1-3.4-0.8-2.2z"/>
					</g>
					<path id="&lt;Path&gt;" class="s2" d="m17.5 8.5c5.6 12.2 17.6 20.2 23.8 32 0.7 1.3 0.3 2.3 1.8 3.6 1 0.9 2.2 0.7 3.1 1.3 2.3 1.5 5 4.4 7.4 6.7 5.7 5.4 8.8 13.3 13.5 19.5 2.3 3 5.4 9.8 9.2 10.9-0.5-5-6.3-10.9-9.2-14.7-4-5.4-7.8-11.1-12.2-16.1 0.6 0.4 1.6 0.4 2.3 0.7 2.3-5.8-11.4-12.5-13.5-15.8-6.9-10.3-17.4-19-26.2-28.1z"/>
					<path id="&lt;Path&gt;" class="s2" d="m48.4 74.6c2.2 5.6 10.6 2.9 2.9-3.4 1.5 0.8 2.9 0.6 3.5-1 0.9-2.3-3.1-5.2-4.4-6.4-7.6-6.3-17.4-9.6-23.6-17.6 0.9 0.7 2.1 0.9 3 1.4 1.1-3.2-2.3-6.3-4.3-8.3 4 1.9 13 4.3 8.2-2.9-4.5-6.9-15.7-13.3-23.5-16 4.3 5.7 13.6 8.4 16.8 15.2-3.9 0.6-8.1-3.4-12-1.6-1.2 5.2 5.9 6.4 8 9.8-0.8-0.1-1.6 0.4-2.3 0.4-0.7 5.8 10.6 11.9 14.6 14.8 4.2 3.1 11 8.5 13.1 15.6z"/>
					<path id="&lt;Path&gt;" class="s2" d="m73.9 90.9c-9.7-1.1 2.7 18.7 8 9-2 8.1 10.6 11.3 10.2 4.2 5.3 4 6.3-8 1.4-10.7 2.4-0.2 2.7-2.4 2.2-4.5 8.8-3.8-4.6-16.2-8.9-9.2 5.8-3.6-2.5-5.4-4.6-6.1-2.9-0.9-3.3-2.8-6.6-0.2-4.2 3.3-1.5 10.8-1.7 17.5z"/>
					<path id="&lt;Path&gt;" class="s2" d="m67.6 92.9c-4.1 1.5-4.1 7.4-0.4 9.5 8.9 4.9 12.7-14.5-0.3-9.4z"/>
					<path id="&lt;Path&gt;" class="s2" d="m89.2 70.4c-2.8-6.3-9.5 0.1-5.1 1.5-2.5 6.9 10.8 5.7 8 0.5 0.6 1.5 1.9 2.2 3.3 1.3 3.9-2.6-3.1-7.1-4.7-7.9z"/>
					<path id="&lt;Path&gt;" class="s2" d="m86.4 108.1c0.8-2.4-2.1-2.8-4.1-2.3-2.9 0.7-2.7 3.8-0.3 3 0 0-1.1-0.7-1.1-0.7-1.4 5.5 9.6 4.3 10-0.6 4.4 2.5 10.5-3.1 6.1-5.2 0.2-0.4 0.4 0.3 0.5-0.7-1.9-3.4-7 0.2-6.5 3.5-1.6-3.5-5-0.5-3.5 2.5z"/>
					<path id="&lt;Path&gt;" class="s2" d="m99.1 84.1c-3.4-1.9-4.8 3.8-0.6 2.6-2-0.7-2.9 2.5-2 4.2-5.2 2.1 6.5 8.8 5 0.5 5.5-0.5 0.2-6.8-0.6-8.7-0.8-2 1.4-3.6-1.3-6.1-1.3-1.3-2.5-1.8-2.9-1.1-4.1-2.7-1.1 5.4-0.3 6.6z"/>
				</g>
				<path id="&lt;Path&gt;" class="s6" d="m42.9 43.9c0.5 2.6 3.4 4.2 5.3 5.7 0.8 0.6 2.7 2 2.7 3.1 0.1 1.8-1 1.1-1.5 0.8-0.2-0.1-0.5-0.3-0.7-0.4-0.5-0.2-0.8-0.2-1.2-0.1-0.2 0.1-0.2 0.2-0.2 0.3 1.3 3.9 4.2 6.8 7.6 9 1 0.7 2.2 1.3 3.2 2.1 0.2 0.2 0.7 0.5 0.8 0.8 0.4 0.8-0.6 1-1.3 1-0.9-0.1-1.7-0.5-2.6-0.6-0.1 0-0.1 0.1-0.1 0.2 0.1 1.2 1.1 2.2 2 3 0.4 0.3 3.4 2 2.5 2.6-0.7 0.4-2.9-0.7-3.5-1-0.7-0.2-1.5-0.6-2.1-0.4-0.1 0.1-0.1 0.1-0.1 0.2 0.8 2.4 3.1 4 4.8 5.6 2 1.9 4.8 3.2 6.3 5.5-1.2-2.5-4.2-3.9-6.2-5.7-1.1-1.1-2.4-2.1-3.4-3.3-0.2-0.3-1.3-1.5-1.2-1.9 0.2-0.4 1.3 0.1 1.6 0.2 0.8 0.3 3.5 1.7 4.2 0.9 0.9-0.9-1.9-2.4-2.4-2.7q-0.8-0.6-1.4-1.4c-0.3-0.3-0.9-1-0.3-1.4 0.1-0.1 0.9 0.3 1.1 0.3 0.7 0.2 2 0.6 2.6-0.2 0.7-1.2-1.5-2.4-2.2-2.9-2.6-1.6-5-3.2-7-5.5q-0.8-1-1.4-2.2c-0.3-0.4-1.5-2.2-0.3-2 0.8 0.1 1.4 1.2 2.4 0.7 1.8-0.9-0.9-3.7-1.7-4.4-1.3-1.1-2.7-2-3.9-3.1-0.6-0.5-1.6-1.3-1.7-2.1-0.1-0.6 0.2-0.3 0.7-0.2 0.4 0.2 0.8 0.4 1.2 0.5 0.2 0 0.2-0.2 0.1-0.2-0.8-0.5-1.5-0.9-2.4-1.1-0.2 0-0.3 0.1-0.3 0.3z"/>
				<path id="&lt;Path&gt;" class="s6" d="m68.8 62c-0.9-0.8-2.2-2.2-3.6-2-0.1 0-0.2 0.1-0.2 0.2 0.5 1.7 1.4 3.1 2.3 4.6 0.7 1.3 2 2.7 2.1 4.2 0 1.4-1.2 0.6-2 0.2-0.7-0.3-1.4-0.7-2.1-1.1-1.1-0.6-2.3-1.1-3.6-1-0.2 0-0.2 0.2-0.2 0.3 2.2 3.8 5.9 7.7 10.1 9 0.1 0.1 0.1-0.1 0.1-0.1-4-1.5-7.5-5.1-9.7-8.8 2.7 0 4.8 2.4 7.4 2.8 0 0 0.1 0 0.2-0.1 0.5-1.1 0-2.3-0.6-3.3-0.8-1.5-1.8-3-2.6-4.5-0.2-0.3-1-1.5-0.9-1.9q-0.2-0.2 0.1-0.1 0.3 0 0.6 0.2c0.7 0.2 1.4 0.9 2 1.4 0.9 0.8 1.8 1.9 3 2.4 0.1 0.1 0.3 0.1 0.3-0.1 0.5-0.8-0.1-1.6-0.5-2.4 1.5 1.2 3.1 2.4 4.8 3.3 0.1 0.1 0.2-0.1 0.1-0.2-1.7-1.4-3.6-2.6-5.4-4-0.1-0.1-0.4 0.1-0.3 0.3 0.2 0.4 1.4 2.6 0.9 2.6-0.6 0-1.9-1.5-2.3-1.9z"/>
				<path id="&lt;Path&gt;" class="s6" d="m32.3 27.8c-0.1 0-0.2 0.1-0.1 0.2 0.4 1.4 2.2 2 3.3 2.4 1.9 0.7 4.3 1 5.6 2.7 0.7 0.9 0.8 2.1 1.3 3.1 0.4 1 1.2 1.8 1.9 2.6 1.8 1.8 3.8 3.3 5.8 4.8 1.9 1.4 3.8 2.8 5.4 4.5 0.6 0.6 1.3 1.3 1.7 2.1 0.4 0.7 0.5 1-0.4 1.6-0.2 0.1-0.3 0.1-0.5 0.2-0.9 0.9 0.5 2.8 0.9 3.4 1.4 1.9 3.4 3.4 3.7 5.8q0 0 0.1 0c-0.2-1.7-1.1-3-2.2-4.2-0.5-0.7-1.1-1.4-1.6-2.2-0.2-0.4-0.5-0.9-0.6-1.3-0.2-0.5-0.5-0.8 0.3-1.3 0.1 0 0.2 0 0.3 0 0.8-0.6 0.9-1 0.5-1.9-0.5-1.1-1.5-2.1-2.4-3-3.3-3.2-7.4-5.5-10.7-8.9-0.9-0.9-1.7-1.9-2.2-3.2-0.3-0.9-0.4-1.8-1.1-2.5-1-1.2-2.5-1.6-3.9-2.1-0.9-0.2-1.8-0.6-2.7-0.9-0.4-0.3-2.7-1.4-1.5-1.6 0.9-0.2 2.4 0.4 3.3 0.7 0.9 0.3 1.7 0.7 2.6 1 0.2 0.1 0.3-0.2 0.1-0.3-1.9-1-4.7-2.2-6.9-1.7z"/>
				<path id="&lt;Path&gt;" class="s6" d="m31.1 37.7c-0.1 0.1-0.2 0.2-0.1 0.3 1.4 4.8 6 7.8 8.8 11.8q0.7 1 1.4 2.1c0.4 0.6 1.6 2.4 0.2 2.4-0.7 0.1-2.1-0.9-2.8-1.3-1-0.5-1.8-1.2-2.9-1q-0.2 0-0.2 0.2c-0.1 3.6 3.7 6.5 6.2 8.5 1.6 1.3 3.2 2.4 4.7 3.8 2.1 1.9 3.9 4.1 6 6.1q0.1 0 0.1-0.1c-2.9-3.1-5.7-6.3-9.1-8.9-2.7-2.1-6.4-4.7-7.4-8.1-0.1-0.6-0.4-1.1 0.4-1.2 0.5 0 1.1 0.5 1.5 0.8q1.1 0.6 2.1 1.1c0.6 0.2 1.9 1.1 2.4 0.3 0.4-0.6-0.2-1.6-0.5-2.1-0.5-1.2-1.3-2.2-2-3.2-1.3-1.7-2.7-3.2-4.2-4.8-0.9-0.9-1.7-1.9-2.5-3q-0.5-0.7-0.9-1.4c-0.1-0.1-1.5-2.6-0.1-1.8 0.1 0.1 0.3-0.1 0.2-0.2-0.5-0.4-0.7-0.4-1.3-0.3z"/>
				<path id="&lt;Path&gt;" class="s6" d="m58.4 81.8c0.5 2.2 3.1 3 4.4 4.5 0.4 0.4 1.2 1.5 0.8 2-0.3 0.4-2.1 0-2.6-0.1-1.8-0.4-3.5-1-5.1-1.8-0.1-0.1-0.3 0.1-0.1 0.2 3.4 2.8 7.2 5.4 11.5 6.7 0.1 0 0.1-0.1 0-0.1-3.8-1.6-7.2-3.5-10.4-6.1q-0.1 0-0.1 0 0.3 0.1 0.5 0.2 1 0.4 2 0.7c1.5 0.5 3 0.8 4.6 0.6q0.1 0 0.1-0.1c-0.1-2.6-2.6-3.6-4.2-5.1-0.1 0-1.3-1.3-1.1-1.4 0.2-0.2 1.9 0.7 2.1 0.8 0.7 0.3 1.6 0.6 2.2 0 0.1-0.1 0-0.3-0.1-0.2-1.1 0.9-3.2-0.7-4.3-0.9-0.2-0.1-0.2 0-0.2 0.1z"/>
				<path id="&lt;Path&gt;" class="s6" d="m48.6 34.1c0.5 1.2 1.8 2.4 2.9 2.9 1.3 0.5 2.3-0.1 1.2-1.4-0.7-0.8-2.5-0.7-1.2 0.2 0.1 0.1 0.2-0.1 0.1-0.2q0-0.2 0.1-0.3 0.6 0.1 0.8 0.7c0.3 0.4 0.4 0.8-0.1 0.9-0.4 0.1-1.1-0.4-1.4-0.6-0.7-0.4-1.3-1.1-1.8-1.7-0.3-0.6-0.7-1.2 0.1-1.5 0.5-0.3 1.5 0.1 1.9 0.3 1.2 0.5 2.1 1.4 3 2.3 0.7 0.7 1.4 1.5 1.9 2.4 0.3 0.5 0.6 1.1 0.6 1.7 0.2 0.9-0.8 1.2-1.6 0.9-2-0.7-3.2-3-5.5-3.4q-0.1-0.1-0.1 0.1c-0.6 1.9 2.5 4.2 3.7 5.3 1 0.9 2.1 1.7 3.3 2.5 0.6 0.5 1.3 1.1 1.9 1.7 0.4 0.4 1.6 1.6 0.4 1.5-0.1 0-0.2 0.2-0.1 0.3 0.9 1.1 2.2 1.7 3.1 2.7 0.7 0.7 1 1.5 1 2.4-0.1 0.8-0.5 2.8-2 1.8 0-0.1-0.1 0 0 0.1 1.4 1.1 2.2-0.8 2.2-2.1 0.1-0.9-0.4-1.8-1.1-2.5-0.4-0.5-1-0.9-1.6-1.3q-0.4-0.3-0.8-0.7c-0.4-0.3-0.6-0.3 0.1-0.5q0.1 0 0.1-0.2c-0.5-1.9-2.7-3.2-4.3-4.2-1.6-1.2-3.2-2.6-4.5-4.2-0.3-0.4-0.6-0.8-0.9-1.2-0.3-0.6-0.7-1.5 0.4-1 1.3 0.6 2.2 1.7 3.3 2.5 0.8 0.6 2.7 1.6 3.3 0.3 0.6-1.4-1-3.3-1.8-4.3-1.3-1.5-3.1-3.3-5.1-3.5-1-0.2-2 0.2-1.5 1.3z"/>
				<path id="&lt;Path&gt;" class="s6" d="m28.8 10c0.3 2.1 2.7 3.2 4.4 4.1 0.5 0.3 1.1 0.6 1.6 0.9 0.2 0.2 1.1 0.9 1 1.1-0.2 0.6-1.1 0-1.4-0.1-1.1-0.6-1.8-1.7-3.1-1.7-0.1 0-0.2 0-0.2 0.1-0.3 2.2 1.5 3.1 3.3 3.8 1.1 0.4 2.2 0.6 3.2 1.2 1.8 1.1 3.4 3 3.2 5.1 0 0.1 0.1 0.1 0.1 0 0.6-2.6-1.9-5-4.2-5.9-1.1-0.4-2.2-0.7-3.3-1.2-0.7-0.3-1.4-0.7-1.8-1.4-0.3-0.6-0.5-1.3 0.6-1.2 0.4 0 0.9 0.6 1.2 0.8 0.4 0.3 1.9 1.6 2.5 1 0.5-0.3 0-0.9-0.3-1.3-1.9-1.9-6.1-2.3-6.5-5.3 0-0.2-0.3-0.2-0.3 0z"/>
				<path id="&lt;Path&gt;" class="s6" d="m23.7 18.7c0.4 0.4 2.8 2.7 1.2 2.7-0.2 0-0.2 0.1-0.2 0.2 0.4 0.8 1.1 1.3 1.7 1.9 0.6 0.5 2.5 1.9 1.9 2.6-0.4 0.5-0.7 0.1-1.2-0.3-0.3-0.2-0.6-0.4-0.9-0.5-0.5-0.3-1-0.5-1.5-0.3 0 0-0.1 0.1-0.1 0.2 0.7 3.7 4.3 6.3 7.2 8.3 2.5 1.8 7.9 3.9 7.6 7.7q0 0 0.1 0c0.7-2.6-2.6-4.7-4.4-5.9-3.1-1.9-6.4-4-8.6-6.9-0.5-0.7-1.2-1.6-1.3-2.4-0.2-1.4 1.1-0.2 1.6 0.1 0.5 0.3 1.3 1 1.8 0.7 1.7-0.9-2.6-4.1-3-4.6-0.8-0.8-0.3-0.2 0.1-0.7 0.2-0.1 0.3-0.3 0.2-0.6-0.1-0.9-1.4-1.9-2.1-2.4-0.1-0.1-0.3 0-0.1 0.2z"/>
				<path id="&lt;Path&gt;" class="s6" d="m71.5 45.8c0.1 1.7 1.3 3.3 2.4 4.5 0.6 0.7 1.2 1.2 1.7 1.9 0.3 0.4 0.7 0.8 0.8 1.3 0.3 0.8 0.3 0.9-0.6 0.6-0.1-0.1-0.3 0-0.3 0.2 0 1.5 2.1 2.8 3 3.8 1.1 1.3 2.1 3.2 1.8 4.9-0.4 2.3-2.5 1.4-3.2-0.1q-0.1 0-0.1 0c0.7 2.2 3.3 2.5 3.6 0 0.2-1.7-0.6-3.6-1.7-4.9-0.8-0.9-2.7-2.1-3-3.5q0.4 0.2 0.8 0.3c0.1 0 0.2-0.1 0.2-0.2 0.4-1.2-0.7-2.4-1.5-3.2-1.4-1.7-3.2-3.3-3.7-5.6 0-0.2-0.2-0.2-0.2 0z"/>
			</g>
			<path id="&lt;Path&gt;" class="s0" d="m72.8 71.3c0 0.5 0.8 0.5 0.7 0 0-0.5-0.8-0.4-0.7 0z"/>
			<path id="&lt;Path&gt;" class="s0" d="m71.6 69c0 0.2 0.3 0.2 0.3 0-0.1-0.2-0.4-0.2-0.3 0z"/>
			<path id="&lt;Path&gt;" class="s0" d="m63.2 61.1c0 0.5 0.8 0.4 0.8-0.1-0.1-0.5-0.9-0.5-0.8 0.1z"/>
			<path id="&lt;Path&gt;" class="s0" d="m61.2 58.5c0 0.2 0.5 0.2 0.4-0.1 0-0.3-0.4-0.2-0.4 0.1z"/>
			<path id="&lt;Path&gt;" class="s0" d="m54.4 58.1c0.5 0.5 1.4 0.1 1.4-0.6q0-0.1-0.1-0.1c0-0.4-0.3-0.7-0.7-0.7q0 0-0.1 0c-0.7 0.1-1 1-0.5 1.4z"/>
			<path id="&lt;Path&gt;" class="s0" d="m52.5 53.3c-0.2 0.5 0 1 0.3 1.4 0.3 0.4 0.8 0.5 1.2 0.2 0.4-0.2 0.5-0.8 0.2-1.2-0.3-0.4-0.7-0.8-1.2-0.8-0.2 0.1-0.5 0.2-0.5 0.4z"/>
			<path id="&lt;Path&gt;" class="s0" d="m51.7 55.6c0.2 0 0.3-0.1 0.4-0.2 0.2-0.2 0.2-0.4 0-0.6-0.2-0.1-0.3-0.1-0.4-0.1-0.6 0-0.5 0.9 0 0.9z"/>
			<path id="&lt;Path&gt;" class="s0" d="m69.8 75c0 0.7 1.1 0.6 1-0.1 0-0.6-1-0.6-1 0.1z"/>
			<path id="&lt;Path&gt;" class="s0" d="m67.9 73c0 0.6 0.9 0.5 0.9-0.1 0-0.6-1-0.5-0.9 0.1z"/>
			<path id="&lt;Path&gt;" class="s0" d="m64.9 74.8c-0.9 0.6 0 1.9 0.9 1.4 0.8-0.6-0.1-1.9-0.9-1.4z"/>
			<path id="&lt;Path&gt;" class="s0" d="m58.6 73.4c0 0.9 1.3 0.8 1.3-0.1-0.1-0.8-1.4-0.7-1.3 0.1z"/>
			<path id="&lt;Path&gt;" class="s0" d="m77.5 88.3c0 0.5 0.9 0.5 0.8-0.1 0-0.5-0.8-0.5-0.8 0.1z"/>
			<path id="&lt;Path&gt;" class="s0" d="m76.1 86.5c0.1 0.6 0.9 0.5 0.8 0 0-0.5-0.8-0.5-0.8 0z"/>
			<path id="&lt;Path&gt;" class="s0" d="m77.8 85.9c0.1 1.4 2.3 1.2 2.2-0.2-0.1-1.4-2.3-1.3-2.2 0.2z"/>
			<path id="&lt;Path&gt;" class="s0" d="m81.1 94.5c0 0.6 0.8 0.5 0.8 0 0-0.6-0.9-0.5-0.8 0z"/>
			<path id="&lt;Path&gt;" class="s7" d="m71.7 96.5c0 0.7 0.7 1.3 1.4 1.2 0.8 0 1.3-0.7 1.3-1.4-0.1-0.7-0.7-1.4-1.5-1.3-0.7 0.1-1.3 0.7-1.2 1.5z"/>
			<path id="&lt;Path&gt;" class="s7" d="m73.8 99.5q0.1 0 0.1-0.1c0.1 0 0.1-0.2 0-0.2q-0.1-0.1-0.1-0.1c-0.5-0.3-0.4 0.7 0 0.4z"/>
			<path id="&lt;Path&gt;" class="s7" d="m76.7 96.1c0 0.6 0.9 0.5 0.9 0-0.1-0.6-0.9-0.5-0.9 0z"/>
			<path id="&lt;Path&gt;" class="s7" d="m76 94.9c0 0.4 0.6 0.3 0.5 0 0-0.4-0.6-0.4-0.5 0z"/>
			<path id="&lt;Path&gt;" class="s7" d="m92.8 95.7c0.1 0.6 0.9 0.5 0.9 0-0.1-0.6-0.9-0.5-0.9 0z"/>
			<path id="&lt;Path&gt;" class="s7" d="m94 99.8q0.1 0 0.1 0c0.1 0.2 0.4 0.1 0.4-0.1q0-0.1 0-0.1 0-0.1-0.1-0.2c-0.3-0.2-0.6 0.2-0.4 0.4z"/>
			<path id="&lt;Path&gt;" class="s7" d="m83.6 96.8c0.1 0.6 1.1 0.6 1.1-0.1-0.1-0.7-1.1-0.6-1.1 0.1z"/>
			<path id="&lt;Path&gt;" class="s7" d="m85.2 96.4c0 0.5 0.9 0.5 0.8 0 0-0.6-0.8-0.5-0.8 0z"/>
			<path id="&lt;Path&gt;" class="s7" d="m76 85.8c0 0.3 0.6 0.3 0.5-0.1 0-0.3-0.6-0.3-0.5 0.1z"/>
			<path id="&lt;Path&gt;" class="s7" d="m76.9 85c0.1 0.4 0.6 0.3 0.6 0 0-0.4-0.6-0.4-0.6 0z"/>
			<path id="&lt;Path&gt;" class="s7" d="m76.8 67.7c0 0.6 0.6 1.2 1.2 1.1 0.6-0.1 1.1-0.6 1-1.2 0-0.6-0.6-1.2-1.2-1.1-0.6 0.1-1.1 0.6-1 1.2z"/>
			<path id="&lt;Path&gt;" class="s7" d="m77.4 64.9q0 0 0 0.1c0 0.3 0.5 0.3 0.4 0q0-0.1 0-0.1c-0.1-0.2-0.4-0.2-0.4 0z"/>
			<path id="&lt;Path&gt;" class="s7" d="m72.2 73.8c0.1 1.2 1.9 1.1 1.8-0.1-0.1-1.2-1.9-1-1.8 0.1z"/>
			<path id="&lt;Path&gt;" class="s7" d="m71.2 71.5c-0.2 0.4 0.4 0.6 0.5 0.2 0.1-0.3-0.4-0.4-0.5-0.2z"/>
			<path id="&lt;Path&gt;" class="s7" d="m64.1 62.4c0 0.5 0.8 0.4 0.7-0.1 0-0.5-0.8-0.4-0.7 0.1z"/>
			<path id="&lt;Path&gt;" class="s7" d="m62.8 59.5c0.1 0 0.1 0 0.1 0 0-0.1-0.1-0.1-0.1 0z"/>
			<path id="&lt;Path&gt;" class="s7" d="m53 68.7c0 0.3 0.5 0.3 0.5-0.1 0-0.3-0.5-0.3-0.5 0.1z"/>
			<path id="&lt;Path&gt;" class="s7" d="m51.2 66.8q0 0-0.1 0c-0.4 0.3 0.3 0.9 0.5 0.4q0 0 0 0c0.2-0.3-0.2-0.6-0.4-0.4z"/>
			<path id="&lt;Path&gt;" class="s7" d="m59.9 53.2c0 0.5 0.5 0.9 1 0.8 0.5 0 0.9-0.5 0.9-1-0.1-0.5-0.5-0.9-1.1-0.8-0.5 0-0.9 0.5-0.8 1z"/>
			<path id="&lt;Path&gt;" class="s7" d="m59.5 51q0.1 0 0.1 0.1c0.2 0.2 0.5-0.1 0.2-0.2q-0.1-0.1-0.1-0.1c-0.1-0.1-0.3 0.1-0.2 0.2z"/>
			<path id="&lt;Path&gt;" class="s7" d="m57.9 52.3c-0.5 0.1-0.9 0.6-0.9 1.1-0.1 0.8 0.5 1.3 1.2 1.5q0.1 0.1 0.3 0c0.4 0 0.7-0.2 0.8-0.5 0.3-0.5 0.4-1.2 0-1.7-0.3-0.4-0.9-0.6-1.4-0.4z"/>
			<path id="&lt;Path&gt;" class="s7" d="m53.4 49.8c0 0.5 0.9 0.4 0.8-0.1 0-0.5-0.8-0.5-0.8 0.1z"/>
			<path id="&lt;Path&gt;" class="s7" d="m42.7 40.1c-0.1 0.3-0.1 0.5-0.1 0.7-0.1 0.4 0.2 0.7 0.5 0.9 0.1 0.3 0.3 0.6 0.5 0.8 0.5 0.7 1.5 1.1 2.3 0.8 0.4-0.2 0.8-0.6 0.7-1-0.3-1.4-1.6-2.8-3-2.8-0.4 0-0.7 0.3-0.9 0.6z"/>
			<path id="&lt;Path&gt;" class="s7" d="m42.2 42.7c0.1 0.4 0.7 0.3 0.6-0.1 0-0.3-0.6-0.3-0.6 0.1z"/>
			<path id="&lt;Path&gt;" class="s7" d="m50.6 25.3c0.2 0.4 0.2 1.1 0.8 1.1 0.1 0 0.2-0.1 0.2-0.2-0.1-0.5-0.7-0.6-0.9-1-0.1 0-0.1 0-0.1 0.1z"/>
			<path id="&lt;Path&gt;" class="s7" d="m64.3 47.2q0 0 0 0.1c-0.2 0.2 0.1 0.6 0.4 0.6 0.3-0.1 0.5-0.4 0.3-0.7q-0.1 0-0.1-0.1c-0.2-0.2-0.5-0.1-0.6 0.1z"/>
			<path id="&lt;Path&gt;" class="s7" d="m49 24.1q0.1 0 0.1 0c0.1-0.1 0.1-0.2 0-0.2q0 0-0.1 0c-0.3-0.2-0.2 0.4 0 0.2z"/>
			<path id="&lt;Path&gt;" class="s7" d="m49.2 25.8q0.1 0.1 0.1 0.2c0.2 0.1 0.3-0.1 0.2-0.2q-0.1 0-0.2-0.1c0 0-0.1 0.1-0.1 0.1z"/>
			<path id="&lt;Path&gt;" class="s7" d="m50.9 23.5c-0.5 0-0.6 0.8-0.1 0.9q0.1 0 0.1 0c0.7 0.1 0.7-1 0.1-0.9q-0.1 0-0.1 0z"/>
			<path id="&lt;Path&gt;" class="s7" d="m46.4 19c0 0.1 0 0.1 0 0 0 0 0 0 0 0z"/>
			<path id="&lt;Path&gt;" class="s7" d="m41.2 18.1q0 0.1-0.1 0.1c-0.1 0.1 0 0.3 0.1 0.4q0 0 0 0c0.2 0.2 0.6 0 0.6-0.3 0-0.2-0.4-0.4-0.6-0.2z"/>
			<path id="&lt;Path&gt;" class="s7" d="m39.3 15.3c0.1 0.1 0.1 0 0.1 0 0 0-0.1 0-0.1 0z"/>
			<path id="&lt;Path&gt;" class="s7" d="m37.3 13.4c0 0 0 0 0 0 0 0 0 0 0 0z"/>
			<path id="&lt;Path&gt;" class="s7" d="m32.1 10.2c0.1 0.7 1 0.6 1 0-0.1-0.7-1-0.6-1 0z"/>
			<path id="&lt;Path&gt;" class="s7" d="m29.6 7.7c0 0.4 0.7 0.4 0.6-0.1 0-0.4-0.7-0.4-0.6 0.1z"/>
			<path id="&lt;Path&gt;" class="s7" d="m27.4 5.4c0 0.5 0.8 0.5 0.8 0-0.1-0.5-0.8-0.5-0.8 0z"/>
			<path id="&lt;Path&gt;" class="s7" d="m31.9 7.5c0 0.5 0.8 0.5 0.8-0.1-0.1-0.5-0.8-0.4-0.8 0.1z"/>
			<path id="&lt;Path&gt;" class="s7" d="m31.1 8.5c-0.4 0.1-0.7 0.5-0.5 0.8 0.1 0.2 0.2 0.3 0.4 0.4 0.4 0.3 0.9-0.1 0.9-0.5 0-0.4-0.4-0.9-0.8-0.7z"/>
			<path id="&lt;Path&gt;" class="s7" d="m43.7 10.8c0 0.4 0.8 0.4 0.8-0.1-0.1-0.5-0.8-0.4-0.8 0.1z"/>
			<path id="&lt;Path&gt;" class="s7" d="m40 7.9c0 0.1 0 0.1 0 0 0 0-0.1 0 0 0z"/>
			<path id="&lt;Path&gt;" class="s7" d="m39 7.3c0 0.1 0.1 0.1 0.1 0 0 0-0.1 0-0.1 0z"/>
			<path id="&lt;Path&gt;" class="s7" d="m40.3 7.6c0 0 0 0 0 0 0-0.1 0-0.1 0 0z"/>
			<path id="&lt;Path&gt;" class="s7" d="m65.5 45.8c0.1 0.6 1 0.5 0.9-0.1 0-0.6-0.9-0.5-0.9 0.1z"/>
			<path id="&lt;Path&gt;" class="s7" d="m63.8 41.9c0 0.6 0.9 0.5 0.9-0.1-0.1-0.6-1-0.5-0.9 0.1z"/>
			<path id="&lt;Path&gt;" class="s7" d="m58.8 31.7c0 0.8 1.2 0.7 1.2 0-0.1-0.8-1.3-0.7-1.2 0z"/>
			<path id="&lt;Path&gt;" class="s7" d="m60.5 41c0.1 0.7 1.2 0.6 1.1-0.1 0-0.7-1.1-0.6-1.1 0.1z"/>
			<path id="&lt;Path&gt;" class="s7" d="m76.1 51.9c0 0.5 0.5 0.9 1.1 0.9 0.5 0 0.9-0.5 0.9-1.1-0.1-0.5-0.6-0.9-1.1-0.9-0.5 0-0.9 0.5-0.9 1.1z"/>
			<path id="&lt;Path&gt;" class="s7" d="m72.3 41.6c0.1 0.7 1.2 0.7 1.2-0.1-0.1-0.7-1.2-0.6-1.2 0.1z"/>
			<path id="&lt;Path&gt;" class="s7" d="m69.8 35.6c0 0.8 1.3 0.7 1.2-0.1-0.1-0.7-1.3-0.7-1.2 0.1z"/>
			<path id="&lt;Path&gt;" class="s7" d="m28.9 33.2c0 0.7 1 0.6 0.9 0 0-0.6-1-0.6-0.9 0z"/>
			<path id="&lt;Path&gt;" class="s7" d="m27.1 30.5c0 0.1 0 0.1 0 0 0 0 0 0 0 0z"/>
			<path id="&lt;Path&gt;" class="s7" d="m12.8 18.6q0 0.1 0.1 0.2c0.1 0.1 0.2 0.2 0.3 0.2 0.5 0.1 0.8-0.5 0.4-0.8-0.3-0.3-0.8 0-0.8 0.4z"/>
			<path id="&lt;Path&gt;" class="s7" d="m9.4 15.4c0 0.5 0.7 0.5 0.7 0 0-0.5-0.7-0.4-0.7 0z"/>
			<path id="&lt;Path&gt;" class="s7" d="m7.6 17.2c0 0.4 0.7 0.4 0.7-0.1-0.1-0.4-0.7-0.4-0.7 0.1z"/>
			<path id="&lt;Path&gt;" class="s7" d="m10.4 16.6c-0.4 0.4-0.2 1.1 0.3 1.4 0.9 0.5 1.6-0.6 1.2-1.3q0 0 0 0c-0.4-0.5-1.1-0.6-1.5-0.1z"/>
			<path id="&lt;Path&gt;" class="s7" d="m7.3 15.4c0.1 0.3 0.5 0.2 0.5-0.1 0-0.3-0.5-0.2-0.5 0.1z"/>
			<path id="&lt;Path&gt;" class="s7" d="m5.6 13.8c0 0.4 0.6 0.3 0.5-0.1 0-0.3-0.6-0.3-0.5 0.1z"/>
			<path id="&lt;Path&gt;" class="s7" d="m28.3 44.6q0.1 0 0.1 0c0.1 0.1 0.3 0.1 0.4 0q0 0 0.1 0c0.4-0.3 0.1-1-0.4-1-0.5 0.1-0.6 0.8-0.2 1z"/>
			<path id="&lt;Path&gt;" class="s7" d="m31 45.1q0 0.1 0 0.1c0 0.9 1.6 0.8 1.4-0.1q0 0 0-0.1c-0.1-0.9-1.4-0.8-1.4 0.1z"/>
			<path id="&lt;Path&gt;" class="s7" d="m30.3 43.4c0 0.6 0.8 0.5 0.8 0-0.1-0.5-0.8-0.5-0.8 0z"/>
			<path id="&lt;Path&gt;" class="s7" d="m27.1 41.7c0 0.6 0.6 1.1 1.1 1 0.6-0.1 1.1-0.5 1-1.1 0-0.6-0.6-1.1-1.1-1-0.6 0.1-1 0.5-1 1.1z"/>
			<path id="&lt;Path&gt;" class="s7" d="m22.3 39.6c0.1 0.5 0.9 0.4 0.8-0.1 0-0.5-0.8-0.5-0.8 0.1z"/>
			<path id="&lt;Path&gt;" class="s7" d="m21.6 36.2c0 0.2 0.2 0.1 0.2 0 0-0.2-0.3-0.2-0.2 0z"/>
			<path id="&lt;Path&gt;" class="s7" d="m25.7 38.1c0 0 0.1 0 0 0 0-0.1 0-0.1 0 0z"/>
			<path id="&lt;Path&gt;" class="s7" d="m28.1 48.6c0.1 0.6 0.9 0.5 0.9 0-0.1-0.5-0.9-0.5-0.9 0z"/>
			<path id="&lt;Path&gt;" class="s7" d="m33.9 51.4c0.1 0.7 1.2 0.7 1.1-0.1 0-0.7-1.1-0.6-1.1 0.1z"/>
			<path id="&lt;Path&gt;" class="s7" d="m16.9 35.8c0.1 0.5 0.8 0.5 0.8 0-0.1-0.5-0.8-0.4-0.8 0z"/>
			<path id="&lt;Path&gt;" class="s7" d="m19 35.4c0.1 1.1 1.8 1 1.7-0.1-0.1-1.1-1.8-1-1.7 0.1z"/>
			<path id="&lt;Path&gt;" class="s7" d="m19.8 39c0.6 0.3 1-0.7 0.3-0.9-0.5-0.1-0.8 0.7-0.3 0.9z"/>
			<path id="&lt;Path&gt;" class="s7" d="m14.6 5.4c-0.4 0.5-0.2 1.2 0.3 1.5h0.1c0.8 0.4 1.6-0.5 1.1-1.3v-0.1c-0.3-0.5-1.1-0.5-1.5-0.1z"/>
			<path id="&lt;Path&gt;" class="s7" d="m12.1 4c0.1 0.6 1 0.5 0.9 0 0-0.6-0.9-0.5-0.9 0z"/>
			<path id="&lt;Path&gt;" class="s7" d="m12.8 1.3c0 0.4 0.6 0.4 0.5 0 0-0.3-0.5-0.3-0.5 0z"/>
			<path id="&lt;Path&gt;" class="s7" d="m19.2 5.9c0.1 0.7 1.2 0.7 1.2-0.1-0.1-0.7-1.2-0.6-1.2 0.1z"/>
			<path id="&lt;Path&gt;" class="s7" d="m22 7.6q0 0 0 0c-0.2 0.1-0.3 0.4-0.2 0.6q0 0 0 0.1c0.2 0.3 0.7 0.4 0.9 0q0 0 0-0.1c0.3-0.4-0.3-0.9-0.7-0.6z"/>
			<path id="&lt;Path&gt;" class="s7" d="m17.6 4.2c0 0.5 0.8 0.4 0.7-0.1 0-0.4-0.7-0.4-0.7 0.1z"/>
			<path id="&lt;Path&gt;" class="s7" d="m21.4 5.8q0 0-0.1 0.1c-0.2 0.6 0.2 1.3 0.9 1.2 0.7 0 1-0.8 0.6-1.3q0-0.1 0-0.1c-0.3-0.5-1.2-0.5-1.4 0.1z"/>
			<path id="&lt;Path&gt;" class="s7" d="m17.8 14c0.1 0.6 0.9 0.5 0.8 0 0-0.6-0.8-0.5-0.8 0z"/>
			<path id="&lt;Path&gt;" class="s7" d="m14.8 11.8c0.1 0.8 1.3 0.7 1.2 0 0-0.8-1.2-0.7-1.2 0z"/>
			<path id="&lt;Path&gt;" class="s7" d="m10.3 13c0.1 1.1 1.8 1 1.7-0.1-0.1-1.1-1.8-1-1.7 0.1z"/>
			<path id="&lt;Path&gt;" class="s7" d="m8.1 8.8q-0.2 0.1-0.2 0.3c-0.2 0.2-0.1 0.5 0.2 0.6q0 0 0 0c0.2 0.1 0.3 0.1 0.5 0 0.6-0.3 0.1-1.3-0.5-0.9z"/>
			<path id="&lt;Path&gt;" class="s7" d="m11.6 10.1c0.1 0.5 0.8 0.4 0.8 0-0.1-0.5-0.8-0.4-0.8 0z"/>
			<path id="&lt;Path&gt;" class="s7" d="m44.5 20.1c0.1 0.8 1.3 0.7 1.2-0.1 0-0.8-1.3-0.7-1.2 0.1z"/>
			<path id="&lt;Path&gt;" class="s7" d="m41.6 15.4c0.1 1 1.8 0.9 1.7-0.2-0.1-1-1.7-0.9-1.7 0.2z"/>
			<path id="&lt;Path&gt;" class="s7" d="m35.5 7.2c0.1 1.1 1.8 1 1.7-0.1-0.1-1.1-1.7-1-1.7 0.1z"/>
			<path id="&lt;Path&gt;" class="s7" d="m39.3 10v0.1c0.8 0.7 1.9-0.7 1.1-1.3q0 0-0.1 0c-0.8-0.7-1.8 0.5-1 1.2z"/>
			<path id="&lt;Path&gt;" class="s7" d="m38.2 7.2c0 0.5 0.8 0.4 0.7-0.1 0-0.5-0.8-0.5-0.7 0.1z"/>
			<path id="&lt;Path&gt;" class="s7" d="m46.1 14.9c0 0.8 1.2 0.7 1.2-0.1-0.1-0.7-1.3-0.7-1.2 0.1z"/>
			<path id="&lt;Path&gt;" class="s7" d="m48.3 17.5c0 0.9 1.4 0.8 1.3-0.1-0.1-0.8-1.4-0.7-1.3 0.1z"/>
			<path id="&lt;Path&gt;" class="s7" d="m23.9 29.8c0.1 0.7 1.1 0.6 1 0 0-0.7-1-0.6-1 0z"/>
			<path id="&lt;Path&gt;" class="s7" d="m21.7 27.6c0.1 0.8 1.3 0.7 1.2-0.1 0-0.8-1.3-0.7-1.2 0.1z"/>
			<path id="&lt;Path&gt;" class="s7" d="m17.7 31.4c0.1 1.3 2.1 1.1 2-0.1-0.1-1.3-2.1-1.1-2 0.1z"/>
			<path id="&lt;Path&gt;" class="s7" d="m14.7 29.5h-0.1c-0.1 0.3 0.1 0.6 0.3 0.5 0.3 0 0.5-0.3 0.3-0.5l-0.1-0.1c-0.1-0.1-0.3-0.1-0.4 0.1z"/>
			<path id="&lt;Path&gt;" class="s7" d="m14.7 27.5c0 0.5 0.8 0.5 0.8 0 0-0.5-0.8-0.5-0.8 0z"/>
			<path id="&lt;Path&gt;" class="s7" d="m18.4 28.6c0.1 1 1.6 0.9 1.6-0.1-0.1-1-1.7-0.9-1.6 0.1z"/>
			<path id="&lt;Path&gt;" class="s7" d="m43.5 70.2c0.1 0.2 0.2 0.3 0.4 0.4 0.4 0.2 0.9-0.1 0.9-0.6 0-0.3-0.3-0.7-0.7-0.6-0.4 0-0.7 0.4-0.6 0.8z"/>
			<path id="&lt;Path&gt;" class="s7" d="m43 66.5q0 0-0.1 0c-0.1 0.1-0.2 0.2-0.2 0.3q0 0.1 0 0.1c-0.1 0.5 0.5 0.8 0.9 0.4 0.3-0.4-0.1-0.9-0.6-0.8z"/>
			<path id="&lt;Path&gt;" class="s7" d="m49.2 72.8q0 0 0 0c-0.3 0.2-0.1 0.6 0.2 0.6 0.3-0.1 0.3-0.5 0.1-0.6q-0.1 0-0.1 0-0.1-0.1-0.2 0z"/>
			<path id="&lt;Path&gt;" class="s7" d="m49.3 73.4c-0.4 0.6-0.4 1.5 0.2 1.9 0.5 0.4 1.1 0.6 1.7 0.4 0.6-0.2 1.1-0.8 1-1.4 0-0.7-0.4-1.2-1-1.5-0.7-0.3-1.5 0-1.9 0.6z"/>
			<path id="&lt;Path&gt;" class="s7" d="m48.5 70.5q0 0.1 0.1 0.1c0.1 0.3 0.6 0.2 0.7-0.1q0 0 0-0.1c0.2-0.3 0-0.7-0.4-0.7-0.4 0.1-0.6 0.5-0.4 0.8z"/>
			<path id="&lt;Path&gt;" class="s7" d="m51.4 71.3c0 0.6 1 0.6 0.9-0.1 0-0.6-1-0.5-0.9 0.1z"/>
			<path id="&lt;Path&gt;" class="s7" d="m63.5 73.2c0.1 0.6 1 0.5 1-0.1-0.1-0.6-1-0.6-1 0.1z"/>
			<path id="&lt;Path&gt;" class="s7" d="m61.7 70.2c0 0.1 0.1 0 0.1 0 0 0-0.1 0-0.1 0z"/>
			<path id="&lt;Path&gt;" class="s7" d="m68.1 74.3c0 0.5 0.7 0.4 0.7 0 0-0.5-0.8-0.5-0.7 0z"/>
			<path id="&lt;Path&gt;" class="s7" d="m89.8 68c0 0.2 0.3 0.2 0.3 0 0-0.1-0.3-0.1-0.3 0z"/>
			<path id="&lt;Path&gt;" class="s7" d="m91.5 67.8q0 0 0 0c-0.3 0.2-0.2 0.7 0.2 0.7 0.3-0.1 0.4-0.5 0.1-0.7q0 0 0 0c-0.1-0.1-0.2 0-0.3 0z"/>
			<path id="&lt;Path&gt;" class="s7" d="m90.1 65.5c0 0 0 0 0 0 0-0.1 0 0 0 0z"/>
			<path id="&lt;Path&gt;" class="s7" d="m92.3 73c0 0.9 1.4 0.8 1.3-0.1-0.1-0.9-1.4-0.8-1.3 0.1z"/>
			<path id="&lt;Path&gt;" class="s7" d="m95 76.5c0.1 0.7 1.2 0.6 1.2-0.1-0.1-0.8-1.2-0.7-1.2 0.1z"/>
			<path id="&lt;Path&gt;" class="s7" d="m98.1 88.8c0.1 0.9 1.4 0.8 1.4-0.1-0.1-0.8-1.4-0.7-1.4 0.1z"/>
			<path id="&lt;Path&gt;" class="s7" d="m97.6 91c-0.2 0.1-0.3 0.5-0.1 0.6 0.2 0.2 0.5 0.1 0.6-0.2q0 0 0 0c0.1-0.1 0.1-0.3-0.1-0.4q-0.2 0-0.4 0z"/>
			<path id="&lt;Path&gt;" class="s7" d="m97.5 93.9c0 0 0.1 0 0.1 0 0 0-0.1 0-0.1 0z"/>
			<path id="&lt;Path&gt;" class="s7" d="m97.8 94c0 0 0 0 0 0 0 0 0 0 0 0z"/>
			<path id="&lt;Path&gt;" class="s7" d="m99.4 94.3c0 0.1 0.1 0.1 0.1 0 0 0-0.1 0-0.1 0z"/>
			<path id="&lt;Path&gt;" class="s7" d="m100.3 91.9c0 0.5 0.9 0.5 0.9-0.1-0.1-0.5-0.9-0.5-0.9 0.1z"/>
			<path id="&lt;Path&gt;" class="s7" d="m101.8 89.7c0 0 0.1 0 0.1 0 0 0-0.1 0-0.1 0z"/>
			<path id="&lt;Path&gt;" class="s7" d="m100.9 88.5c0.1 1 1.5 0.9 1.5-0.1-0.1-1-1.6-0.9-1.5 0.1z"/>
			<path id="&lt;Path&gt;" class="s7" d="m100.1 86c0.1 0.7 1.1 0.6 1.1 0-0.1-0.7-1.1-0.6-1.1 0z"/>
			<path id="&lt;Path&gt;" class="s7" d="m100 90.1c0 0.3 0.6 0.3 0.6-0.1-0.1-0.4-0.7-0.3-0.6 0.1z"/>
			<path id="&lt;Path&gt;" class="s7" d="m98.3 81.8c0.1 1.2 1.9 1.1 1.8-0.1-0.1-1.2-1.9-1.1-1.8 0.1z"/>
			<path id="&lt;Path&gt;" class="s7" d="m97 79.6c0 0.8 1.2 0.7 1.1 0 0-0.8-1.2-0.7-1.1 0z"/>
			<path id="&lt;Path&gt;" class="s7" d="m99.1 78.5q-0.1 0.1-0.1 0.1c-0.1 0.3 0.1 0.5 0.3 0.5 0.3 0 0.4-0.3 0.3-0.5q0-0.1-0.1-0.1c-0.1-0.2-0.4-0.2-0.4 0z"/>
			<path id="&lt;Path&gt;" class="s7" d="m97.1 93.6c0 0.8 1.2 0.7 1.2-0.1-0.1-0.8-1.3-0.7-1.2 0.1z"/>
			<path id="&lt;Path&gt;" class="s7" d="m96 86.3c0.1 0.9 1.4 0.8 1.3 0-0.1-0.9-1.3-0.8-1.3 0z"/>
			<path id="&lt;Path&gt;" class="s7" d="m95.6 102.3c0 0.3 0.4 0.2 0.4 0 0-0.3-0.5-0.3-0.4 0z"/>
			<path id="&lt;Path&gt;" class="s7" d="m95.2 100.1c0 0.6 0.9 0.6 0.9 0-0.1-0.6-1-0.5-0.9 0z"/>
			<path id="&lt;Path&gt;" class="s7" d="m90.8 105.5c0.1 0.5 0.8 0.4 0.8-0.1-0.1-0.4-0.8-0.4-0.8 0.1z"/>
			<path id="&lt;Path&gt;" class="s7" d="m86.8 106.7q0 0 0 0c-0.3 0.3-0.2 0.7 0.2 0.7 0.4 0 0.4-0.5 0.1-0.7q0 0 0 0c-0.1-0.1-0.2 0-0.3 0z"/>
			<path id="&lt;Path&gt;" class="s7" d="m86.7 105.8c0 0 0.1 0 0.1 0 0-0.1-0.1 0-0.1 0z"/>
			<path id="&lt;Path&gt;" class="s7" d="m84.4 108.3c0 0.3 0.5 0.3 0.5-0.1 0-0.3-0.5-0.3-0.5 0.1z"/>
			<path id="&lt;Path&gt;" class="s7" d="m82.7 106.4q0 0 0 0c-0.1 0.1-0.1 0.2 0 0.3q0 0 0 0c0.3 0.3 0.8 0.2 0.7-0.2 0-0.4-0.5-0.5-0.7-0.1z"/>
			<path id="&lt;Path&gt;" class="s7" d="m86.3 109.8c0.1 0.6 0.6 1.1 1.2 1 0.6 0 1-0.5 1-1.1-0.1-0.6-0.6-1.1-1.2-1-0.6 0-1 0.5-1 1.1z"/>
			<path id="&lt;Path&gt;" class="s7" d="m81.8 109.3c0 0.5 0.9 0.5 0.9-0.1-0.1-0.6-1-0.5-0.9 0.1z"/>
			<path id="&lt;Path&gt;" class="s7" d="m92.5 105.3c0.1 0.9 1.6 0.8 1.5-0.1-0.1-1-1.6-0.9-1.5 0.1z"/>
			<path id="&lt;Path&gt;" class="s7" d="m95.1 105.2c0.1 0.8 1.3 0.7 1.3-0.1-0.1-0.8-1.3-0.7-1.3 0.1z"/>
			<path id="&lt;Path&gt;" class="s7" d="m68.4 100.6c0.1 0.6 1 0.5 0.9 0 0-0.6-0.9-0.6-0.9 0z"/>
			<path id="&lt;Path&gt;" class="s7" d="m67.5 98.2c0 0.5 0.8 0.4 0.8-0.1 0-0.5-0.9-0.5-0.8 0.1z"/>
			<path id="&lt;Path&gt;" class="s7" d="m69.6 97.8q0 0 0 0c-0.5 0.4-0.2 1.2 0.4 1.2 0.7-0.1 0.8-0.9 0.2-1.2q0-0.1 0-0.1c-0.2-0.1-0.4 0-0.6 0.1z"/>
			<path id="&lt;Path&gt;" class="s7" d="m68.6 94.5c0 0.1 0.1 0.1 0.1 0 0 0-0.1 0-0.1 0z"/>
			<path id="&lt;Path&gt;" class="s7" d="m64.8 99.4c0 0.5 0.5 1 1.1 0.9 0.5 0 1-0.5 0.9-1.1 0-0.5-0.5-0.9-1.1-0.9-0.5 0-0.9 0.5-0.9 1.1z"/>
			<path id="&lt;Path&gt;" class="s7" d="m65.9 95.5c0.1 0.5 0.8 0.5 0.8 0 0-0.5-0.8-0.5-0.8 0z"/>
			<path id="&lt;Path&gt;" class="s7" d="m77.8 105.9c0.1 0.8 1.3 0.7 1.2-0.1 0-0.8-1.3-0.7-1.2 0.1z"/>
			<path id="&lt;Path&gt;" class="s7" d="m74.1 105.5c0 1.1 1.8 1 1.7-0.2 0-1.1-1.8-1-1.7 0.2z"/>
			<path id="&lt;Path&gt;" class="s7" d="m95 71.9c0 0.8 1.3 0.7 1.2-0.1 0-0.8-1.3-0.7-1.2 0.1z"/>
			<path id="&lt;Path&gt;" class="s7" d="m91.8 75.4c0 0.4 0.6 0.4 0.6 0 0-0.4-0.6-0.3-0.6 0z"/>
			<path id="&lt;Path&gt;" class="s7" d="m89.5 72.3c0.1 1 1.6 0.9 1.5-0.1-0.1-1-1.6-0.9-1.5 0.1z"/>
			<path id="&lt;Path&gt;" class="s7" d="m92.3 69.4q0 0 0 0.1c-0.1 0.4 0.2 0.9 0.7 0.8 0.4 0 0.7-0.5 0.6-0.9q0 0-0.1-0.1c-0.1-0.6-1.2-0.5-1.2 0.1z"/>
			<path id="&lt;Path&gt;" class="s7" d="m89.1 76.8h0.1c0.1 0.1 0.4 0.1 0.5 0q0.1 0 0.1-0.1c0.5-0.4 0.2-1.2-0.4-1.2-0.7 0.1-0.8 1-0.3 1.3z"/>
			<path id="&lt;Path&gt;" class="s7" d="m86.6 67.5c0 0.2 0.4 0.2 0.4-0.1 0-0.2-0.4-0.2-0.4 0.1z"/>
			<path id="&lt;Path&gt;" class="s7" d="m84.5 63.8c0 0.6 0.9 0.6 0.9 0 0-0.6-0.9-0.5-0.9 0z"/>
			<path id="&lt;Path&gt;" class="s7" d="m83.1 66.3c0 0.2 0 0.4 0.1 0.6 0.1 0.5 0.7 0.7 1.1 0.6 0.5-0.2 0.7-0.6 0.6-1.1-0.1-0.4-0.3-0.7-0.7-0.8-0.5-0.1-1 0.2-1.1 0.7z"/>
			<path id="&lt;Path&gt;" class="s7" d="m63.1 94.5c0 0.8 1.3 0.7 1.3-0.1-0.1-0.8-1.4-0.7-1.3 0.1z"/>
			<path id="&lt;Path&gt;" class="s7" d="m60.1 93.1c0 0.6 0.9 0.5 0.9-0.1-0.1-0.5-0.9-0.5-0.9 0.1z"/>
			<path id="&lt;Path&gt;" class="s7" d="m59.8 94.9q0 0.1 0 0.1c-0.1 0.8 0.4 1.4 1.2 1.3 0.8-0.2 1-1 0.7-1.7q0 0-0.1 0c-0.4-0.8-1.8-0.5-1.8 0.3z"/>
			<path id="&lt;Path&gt;" class="s7" d="m56.5 90.7c0.1 0.7 1.1 0.6 1 0 0-0.7-1-0.6-1 0z"/>
			<path id="&lt;Path&gt;" class="s7" d="m54.2 88.6c0.1 0.5 0.8 0.4 0.8 0-0.1-0.5-0.8-0.5-0.8 0z"/>
		</g>
	</g>
</svg>