<svg version="1.2" xmlns="http://www.w3.org/2000/svg" viewBox="0 0 36 36" width="36" height="36">
	<title>planets</title>
	<style>
		.s0 { fill: #b4c4bd } 
		.s1 { opacity: .5;mix-blend-mode: multiply;fill: #87acc8 } 
		.s2 { opacity: .5;fill: #87acc8 } 
		.s3 { opacity: .5;mix-blend-mode: soft-light;fill: #e8cadd } 
		.s4 { opacity: .5;mix-blend-mode: overlay;fill: #87acc8 } 
		.s5 { opacity: .4;mix-blend-mode: multiply;fill: #678b82 } 
		.s6 { opacity: .5;mix-blend-mode: multiply;fill: #678b82 } 
		.s7 { opacity: .5;mix-blend-mode: multiply;fill: #8cb0ac } 
		.s8 { opacity: .7;fill: #e8cadd } 
		.s9 { opacity: .7;mix-blend-mode: multiply;fill: #678b82 } 
		.s10 { mix-blend-mode: overlay;fill: #e8cadd } 
		.s11 { opacity: .4;mix-blend-mode: overlay;fill: #e8cadd } 
		.s12 { opacity: .6;mix-blend-mode: overlay;fill: #e8cadd } 
		.s13 { opacity: .5;fill: #74d2e8 } 
	</style>
	<g id="planets">
		<g id="a">
			<g id="&lt;Group&gt;">
				<g id="-e-">
					<g id="&lt;Group&gt;">
						<path id="&lt;Path&gt;" class="s0" d="m32.7 19.1c0 0 2.8 0.8 1.3-3.6-1.4-4-2.3-2.6-2.3-2.6 0 0-0.8-2.3-1.7-4-1.4-2.6-5.8-4.1-8.4-4.9-3-0.9-6.1-0.9-9.1 0-2.5 0.8-3 2.4-4.7 3.9-0.9 0.7-2.1 0.3-3 1-0.8 0.6-0.8 1.4-1 2.3-0.6 1.7-2.6 3.7-0.4 5-0.9 1.7-1.2 5.3-0.3 8.1 0.5 1.8 2.3 3.4 2.8 4.6 0.9 2.9 2.3 3 4.4 4.2 0.4 0.2-1.6 2 0.9 2.8 0.7 0.3 4.7 0.3 5.5 0.2 1.5-0.1 0.3-1.6 1.7-1.3 2.5 0.6 8.2-2.1 9.6-3.5 6-5.9 4.7-12.2 4.7-12.2z"/>
						<path id="&lt;Path&gt;" class="s1" d="m33.2 14.1c-0.2-0.6-0.6-1.5-1.1-0.8-0.3 0.5 0 1.4 0.1 2 0.2 0.6 1.1 4.3 1.9 2.7 0.5-0.9-0.3-2.6-0.9-3.9z"/>
						<path id="&lt;Path&gt;" class="s1" d="m16.6 35.2c0.3 0 0.6 0.2 0.6 0.5-0.3 0.3-1.3 0.1-1.8 0.1-0.6 0-1.3 0-1.9-0.1-0.8-0.1-2.9 0.2-3.1-0.8 1.5-0.7 4 0 6.2 0.3z"/>
						<path id="&lt;Path&gt;" class="s1" d="m5.2 9.2c0.9 0.9-0.6 4.3-1.3 5.2-0.9 1-1.2 0.2-1-0.8 0.2-0.8 0.8-1.4 1.1-2.2 0.3-0.7 0.1-2.2 1.1-2.3 0.1 0 0.1 0.1 0.1 0.1z"/>
						<path id="&lt;Path&gt;" class="s1" d="m25.9 11.6c3.5-1.2-0.4-6.8-3.2-5.2-0.6 0.4-1 1.6-0.4 2.3-1.1-0.1-0.3 0.8-0.3 1.3 0.1 0.8-0.5 1.2 0.2 2.1 0.5 0.7 1.4 1 2.2 1 0.6-0.1 1.8-0.5 1.5-1.5z"/>
						<path id="&lt;Path&gt;" class="s1" d="m19.5 6.1c1.5 0.1 2 3.3-0.1 2.5-0.6-0.2-1.3-0.9-1.4-1.5-0.2-0.8 0.5-1.5 1.3-1z"/>
						<path id="&lt;Path&gt;" class="s1" d="m7 23.8c-1.8-2.1-1.8-5.7 1-6.1 3.5-0.6 5.3 5.9 2.6 8-0.5 0.5-1.2 0.4-1.8 0.1-0.8-0.4-0.9-1.2-1.8-2z"/>
						<path id="&lt;Path&gt;" class="s1" d="m22.1 28.6c-1.8 0.3-0.7-1.7-0.1-2.5 1-1.2 2.4-1.7 4-1.9 0.6-0.1 3 0.3 3.2 0.8 0.3 1.2-0.7 2.4-2.4 3.1-0.7 0.3-0.5 0.1-1 0.6-0.4 0.3-0.6 0.7-1.1 1-1.5 1-2.2 0.3-2.6-1.1z"/>
						<path id="&lt;Path&gt;" class="s1" d="m16.8 16.6c2.7 0.7 4-2.6 1.8-4.3-2.1-1.6-5 0.1-4.6 2.6 0.2 1.2 1.5 2.1 2.8 1.7z"/>
						<path id="&lt;Path&gt;" class="s1" d="m23.2 18.7c-1.6-0.9 1.3-3.1 2.6-2.7 2 0.6 2.7 2.9 0.7 3.9-1 0.5-2.1 0.4-3.3-1.2z"/>
						<path id="&lt;Path&gt;" class="s1" d="m12.3 9.7c0.5-1.2 0.6-3.4-1.5-2.9-1.9 0.5-1.2 3.4 0.9 3z"/>
						<path id="&lt;Path&gt;" class="s1" d="m11.3 27.4c1.9-1.4 9.5 1.5 7.9 3.9-0.3 0.5-1.1 1-1.7 1-0.6 0-0.8-0.6-1.4-0.7-1-0.2-2 1-3.3 0.9-1.8-0.1-5.1-2.7-1.5-5.1z"/>
						<path id="&lt;Path&gt;" class="s1" d="m19.1 22.5c0.8-0.2 2.3-0.6 1.8-1.8-0.2-0.8-1.9-1-1.6 0.1-0.8-0.4-2.3 0.5-2.5 1.3-0.5 1.3 1.8 2.4 2.4 1.2z"/>
						<path id="&lt;Path&gt;" class="s1" d="m8.4 13.9c-0.8-0.8 1-1.5 1.6-0.3 0.4 1.1-1 2.1-1.5 0.9z"/>
						<path id="&lt;Path&gt;" class="s1" d="m30.5 20.5c-0.7-1.4 1.5-1.2 1.4 0.5 0 0.4-0.2 1-0.7 1.1-0.7 0.1-0.6-0.8-0.6-1.3z"/>
						<path id="&lt;Path&gt;" class="s1" d="m6.3 25.8c-0.1-1.1-1.6-2.1-1.1-0.5 0.1 0.4 0.4 0.6 0.4 1.2 0 0.4-0.2 0.6 0 1.2 0.2 0.5 1 1.5 1.7 1.3 1.2-0.3 0.4-2-0.2-2.6z"/>
						<path id="&lt;Path&gt;" class="s1" d="m29.8 14.4c-0.4-0.5-1.3-1.8-0.8-2.5 0.8-0.9 1.4 0.6 1.5 1.3 0.1 0.5 0 0.8 0.2 1.3 0.1 0.3 0.7 0.9 0.6 1.2-0.1 1.8-1.3-0.8-1.4-1.2z"/>
						<path id="&lt;Path&gt;" class="s1" d="m21.6 33c-0.1-0.4 0-0.8 0.3-1.1 0.6-0.4 0.8 0.1 1.2 0.2 0.6 0 0.4 0.1 1-0.3 0.3-0.2 0.7-0.7 1.1-0.6 1.2 0.1 0 1.2-0.5 1.5-0.8 0.5-2.1 1.1-3.1 0.3z"/>
						<path id="&lt;Path&gt;" class="s1" d="m3.4 19.8c-0.1-0.5-0.3-1.6 0.1-2.1 0.9-1 0.5 0.3 0.5 0.8 0 0.6 0.2 1.3 0.1 2-0.2 1.3-0.5 1.4-0.9 0.1z"/>
						<path id="&lt;Path&gt;" class="s2" d="m15.1 8.3c-1.6-0.4-0.7-2.3 0.7-1.7 1.4 0.5 1.1 3.1-0.4 2.2z"/>
						<path id="&lt;Path&gt;" class="s2" d="m23.5 31.3c-0.2-0.5 0.6-1 0.7-0.5 0.2 0.5-0.5 0.7-0.8 0.6z"/>
						<path id="&lt;Path&gt;" class="s2" d="m12 16.6c-0.5-0.2-0.8-0.6-0.7-1.1 0.6-0.4 1.4 0 1.8 0.5 0.6 0.9-0.1 1.5-0.9 0.8z"/>
						<path id="&lt;Path&gt;" class="s2" d="m7.8 10.1c-0.7-0.3 0.1-1.3 0.8-0.6 0.6 0.5 0.2 1.9-0.5 1.2z"/>
						<path id="&lt;Path&gt;" class="s2" d="m27.9 22c-0.3-0.2-1-0.5-1.1-0.9 0-0.6 1-0.8 1.4-0.7 1.1 0.1 2.2 2 0.5 1.8z"/>
						<path id="&lt;Path&gt;" class="s2" d="m22.4 18.8c0.5 0 1.2 0.7 0.8 1.1-0.6 0.5-1.2-0.3-1.1-0.8z"/>
						<path id="&lt;Path&gt;" class="s2" d="m14.7 25.3c-1.3-0.8-0.9-2.4 0.6-2.3 1.5 0 3.8 2.5 1.3 2.9z"/>
						<path id="&lt;Path&gt;" class="s2" d="m5.6 16.4c-0.4-1 0.3-1.8 0.8-0.7 0.4 0.8-0.6 1.7-1 0.6z"/>
						<path id="&lt;Path&gt;" class="s2" d="m9.5 25.3c-1.5-0.1-2.7-2.4-3-3.9-0.2-1 0.1-1.7 0.8-2.3 1-0.8 2-0.2 2.7 1 0.5 0.8 0.9 1.7 1 2.5 0.2 1.1-0.2 1.6-1.5 2.7z"/>
						<path id="&lt;Path&gt;" class="s2" d="m22.8 27.8c-0.5-0.5-0.6-1.4 0.3-2.1 0.9-0.6 2.2-0.8 2.6-0.2 0.2-0.9 3.8-0.7 2.2 1.1-0.7 0.7-1.5 0.8-2.3 1.3-0.7 0.5-0.4 1-1.1 1.5-1.2 1-1.4-0.7-1.7-1.6z"/>
						<path id="&lt;Path&gt;" class="s2" d="m12.4 30c-0.8-0.3-0.9-1.5-0.1-1.9 0.9-0.6 2.2-0.3 2.6 0.6 1.1-0.9 3.9 0.7 3.7 2.1-0.2 1.6-3.1 0.3-3.7-0.2-0.2 0.7-1.1 1.4-1.8 1.6-1.5 0.3-2.3-2.1-0.7-2.2z"/>
						<path id="&lt;Path&gt;" class="s2" d="m15.5 14.6c-0.6-0.5-0.1-1.6 0.4-2 0.7-0.6 1.4 0 2.1 0.4 0.8 0.4 1.8 1.2 1 2.2-0.4 0.5-1.7 1.2-2.3 1.3-1 0.1-2.1-0.9-1.2-1.9z"/>
						<path id="&lt;Path&gt;" class="s2" d="m23.2 9.1c-0.6-0.9 0.2-2.1 1.2-1.9 1 0.2 2 1.4 2 2.3 0.7 0.1 0.7 0.9 0.2 1.3-0.6 0.3-1.4 0-1.9 0 0.5 0.8 0.5 1.5-0.6 1.6-1.5 0.2-2.1-1.4-0.9-3.3z"/>
						<path id="&lt;Path&gt;" class="s2" d="m33.9 16.1c0.2 0.5 0.4 1.1 0.2 1.7-0.4 0.6-0.7 0.4-1-0.2-0.2-0.2-0.7-1.3-0.5-1.7 0.4-0.7 0.7 0.9 1.3 0.3z"/>
						<path id="&lt;Path&gt;" class="s2" d="m4.9 11.6c0.1 0.8-0.6 2.1-1.1 2.7-1.2 1.2-0.8-1.1-0.3-1.7 0.4-0.6 1.1-0.7 1.4-1z"/>
						<path id="&lt;Path&gt;" class="s2" d="m11.5 34.9c0.9 0.2 1.9 0.3 2.8 0.3 0.8 0 1.8-0.3 2.6 0.3-0.4 0.6-1.8 0.3-2.4 0.3-1.3 0-2.6 0.1-3-0.9z"/>
						<path id="&lt;Path&gt;" class="s3" d="m9.4 11.9c0.2-0.6 0.8-0.8 0.6-1.5-0.1-0.4-0.9-0.7-1.1-1.1-0.5-0.7-0.6-1.5-0.4-2.1 1.2-1.2 1.9-2.5 4-3.2 3-0.9 6.1-0.9 9.1 0 2.6 0.8 7 2.3 8.4 4.9 0.5 0.9 0.9 1.9 1.2 2.7-0.1 0.4-0.2 0.7-0.5 0.9 0.2 0.2 0.3 0.7 0.4 1-1.3 0.6 1.4 3.3-0.8 3.7 0.1 1.2 1 1.6 0.3 2.8-0.6 0.9-2.2 1.4-3.2 1.6-1.3 0.4-2.6 0.5-3.9 0-1.7-0.6-1.8-1.9-2.8-3-1.4-1.5-3.8-0.1-5.6-0.3-2.5-0.3-6.1-3.6-5.7-6.4z"/>
						<path id="&lt;Path&gt;" class="s3" d="m14.9 7.7c-1.5-2.9 2.4-3.3 4.3-2.6 1.4 0.6 1.4 0 3-0.2 1.3-0.2 2.6 0.3 3 1.6 3.2-0.9 6.4 6.4 2 7.5 1 1-0.3 2.3-1.4 2.5-1.5 0.3-3.2-0.9-4.1-2-1-1.1-1.6-2.1-3.1-2.2-1.4-0.2-2.7 0.4-4.1-0.3-1.4-0.8-1.7-3.3 0.4-4.3z"/>
						<path id="&lt;Path&gt;" class="s4" d="m5.9 28.9c-0.5-1.2-2.3-2.8-2.8-4.6-0.9-2.8-0.6-6.4 0.3-8.1-2.2-1.3-0.2-3.3 0.4-5 0.2-0.9 0.2-1.7 1-2.3 0.9-0.7 2.1-0.3 3-1q0.4-0.4 0.8-0.9c0.5 0.5 0.9 1.2 1.3 1.9 0.6 1.2 1 2.3 0.8 3.7-0.1 1.1-0.9 2 0.1 2.9 0.8 0.9 2.4 0.8 3.3 1.6 1.2 1.1 1.3 2.6 1.5 4 1.5-0.7 2.6-2.9 4.6-1.8 2 1.1 1.7 2.5 1.6 4.2 0 0.8 0.3 2.2 1.5 2.1 1.1-0.1 0.9-1.3 1.5-1.8 1.1-0.9 3.1-0.8 4.1 0 0.7 0.4 1.1 0.9 1.4 1.7 0.1 0.3 0.1 1.3 0.1 1.3q0.2 0.5 0.5 0.8c-0.7 1.2-1.6 2.5-2.9 3.7-1.4 1.4-7.1 4.1-9.6 3.5-1.4-0.3-0.2 1.2-1.7 1.3-0.8 0.1-4.8 0.1-5.5-0.2-2.5-0.8-0.5-2.6-0.9-2.8-2.1-1.2-3.5-1.3-4.4-4.2z"/>
						<path id="&lt;Path&gt;" class="s5" d="m3.3 16.5c1.1 0.4 3.5-0.2 4 0.7 2.4-0.2 4.1-0.8 5.8 1.6 0.6 0.9 0.8 2.3 0.8 3.3 0 0.9-0.7 2.2-0.3 3 0.6 1.1 2.2 0.6 3.1 0.8 1 0.3 1.4 1.5 2.5 1.6 1.7 0.2 1.1-2 1.6-3.1 1-2 2.4-1.3 4.1-1.1 1.4 0.2 2.7-1.2 4.1-0.6 0.9 0.4 1.1 1.5 2.1 1.6 0.5 0.1 0.9 0 1.2-0.2-0.5 2.1-1.7 4.7-4.3 7.2-1.4 1.4-7.1 4.1-9.6 3.5-1.4-0.3-0.2 1.2-1.7 1.3-0.8 0.1-4.8 0.1-5.5-0.2-2.5-0.8-0.5-2.6-0.9-2.8-2.1-1.2-3.5-1.3-4.4-4.2-0.5-1.2-2.3-2.8-2.8-4.6-0.8-2.6-0.7-5.9 0.2-7.8z"/>
						<path id="&lt;Path&gt;" class="s5" d="m5.9 28.9c-0.5-1.2-2.3-2.8-2.8-4.6-0.8-2.4-0.7-5.5 0-7.4 1.5-0.3 2.4 1.2 2.6 2.6 0.2 1.8-0.3 3 1 4.6 0.9 1.1 2.1 2 2.9 3.1 0.9 1.1 0 0.5-0.1 1.8 0 0.7 0.6 1.6 1.1 2.1 0.6 0.6 1.3 1.2 2.1 1.4 1.4 0.4 1.2-0.2 2.3-0.5 2.5-0.7 3 2.6 5.2-0.2 0.9-1.1 0.9-1.4 2.2-1.4 0.8 0 1.4 0.2 2.2 0 1-0.2 1.4-0.9 2.2-1.4 1.2-0.9 2.8-1.4 4.1-1.3-0.7 1.2-1.6 2.4-2.9 3.6-1.4 1.4-7.1 4.1-9.6 3.5-1.4-0.3-0.2 1.2-1.7 1.3-0.8 0.1-4.8 0.1-5.5-0.2-2.5-0.8-0.5-2.6-0.9-2.8-2.1-1.2-3.5-1.3-4.4-4.2z"/>
						<path id="&lt;Path&gt;" class="s6" d="m31.2 17c0.1-0.8 0.4-1.1 0.1-1.8-0.1-0.4-0.3-0.7-0.3-1 0-0.4 0.3-0.6 0.2-1 0.6-0.5 0.7 0.3 0.7 0.6 0 0.7 0.1 1.4 0.2 2 0.2 1 0.6 2.2 1.4 2.8 0.3 0.2 0.5 0.1 0.7 0-0.5 0.8-1.5 0.5-1.5 0.5q0 0 0 0.1c-0.3-0.2-0.6-0.5-0.8-0.6-0.6-0.4-0.8-1-0.7-1.6z"/>
						<path id="&lt;Path&gt;" class="s6" d="m2.6 13.9c-0.1 0.5 0 0.9 0.4 1.2 0.8 0.4 1.8-1.6 2.1-2.2 0.2-0.3 0.3-0.9 0.6-1.1 0.4-0.4 0.7 0.2 0.6 0.6-0.1 1.2-1 2.5-1.8 3.3-0.3 0.3-0.7 0.4-1.1 0.4-1.1-0.6-1.1-1.4-0.8-2.2z"/>
						<path id="&lt;Path&gt;" class="s6" d="m10.3 33.1c0.3 0 0.6 0.1 0.9 0 0.8 0 1.7-0.3 2.5 0 0.5 0.2 0.5 0.5 0.2 0.9-0.1 0.3 0.1 0.2-0.3 0.3-0.2 0-0.5 0-0.7 0-0.7 0-2.4-0.2-2.7 0.7q0 0 0 0c0.2 0.4 0.3 0.6 0.8 0.7 1 0.2 2.1 0.2 3.1 0.3 0.4 0.1 2.2-0.1 2.8 0.1q-0.1 0-0.2 0c-0.8 0.1-4.8 0.1-5.5-0.2-2.5-0.7-0.6-2.6-0.9-2.8z"/>
						<path id="&lt;Path&gt;" class="s7" d="m15.6 12.6c-0.1-0.9 1.8-0.6 2.2-0.4 0.9 0.5 1.5 1.3 1.6 2.2 0 1-0.6 1.8-1.6 1.9-0.4 0.1-1 0-1.1-0.5-0.1-0.4 0.4-0.6 0.6-1 0.5-1.3-1.6-1-1.7-2.2z"/>
						<path id="&lt;Path&gt;" class="s7" d="m27.3 17.9c-0.2-1-1.5-2.9-2.7-1.4-0.6 0.7 0.3 0.8 0.7 1.3 0.5 0.7-0.4 1.4 0.4 1.6 0.7 0.3 1.7-0.5 1.6-1.5z"/>
						<path id="&lt;Path&gt;" class="s7" d="m24 6.6c1.2 0 2.1 1.2 2.6 2.1 0.3 0.4 0.6 1 0.4 1.5-0.2 0.6-0.7 0.6-1.1 1-0.5 0.6-0.5 2.2-2 1.6-0.4-0.1-1-0.6-1-1-0.1-0.7 0.7-0.9 1.1-1.3 0.5-0.6 0.7-1.4 0.5-2.1-0.3-0.7-0.7-1.1-0.5-1.8z"/>
						<path id="&lt;Path&gt;" class="s7" d="m18.6 31.6c0.9-1 0.6-1.7-0.5-2.5-1-0.7-2.4-1.3-3.6-1.5-1.4-0.3-2.3-0.4-3.5 0.5-1.5 1.2 0 1.7 1.4 1.7 1.9-0.1 5.5-0.5 6.2 1.8z"/>
						<path id="&lt;Path&gt;" class="s7" d="m9.1 25.5c1 0.9 2.4-1.3 2.5-2.1 0.2-1.2-0.2-3.4-1-4.3-0.4-0.5-3-2.3-3.3-0.9-0.2 0.5 1 1.6 1.3 2 0.5 0.6 0.8 1.2 0.1 1.6-0.8 0.6-1.5 0.5-1 1.7 0.3 0.6 0.7 1.9 1.4 2z"/>
						<path id="&lt;Path&gt;" class="s7" d="m29 24.9c0.5 0.7-0.5 2.1-1.2 2.4-0.9 0.5-1.8-0.8-2.6-0.3-0.3 0.2-0.6 0.7-1 1-0.3 0.2-1 0.4-1.4 0.4-1.3-0.1-1-1.8-0.4-2.5 0.5-0.6 1.3-1 2-1.2 1.5-0.6 2.8-0.7 4.6 0.2z"/>
						<path id="&lt;Path&gt;" class="s7" d="m5.1 9.8c0.2 1-0.4 4.6-1.8 4.8-0.3-0.5 0.8-2.1 0.9-2.7 0.2-0.6 0.2-2.4 0.8-2.7 0 0 0 0.1 0.1 0.6z"/>
						<path id="&lt;Path&gt;" class="s7" d="m32.4 13.4c0.6 0.5 0.8 1.7 1 2.4 0.1 0.7 0.6 1.9 0.2 2.5-0.9-0.5-2.1-4.2-1.3-5 0 0.1 0.1 0.2 0.1 0.1z"/>
						<path id="&lt;Path&gt;" class="s7" d="m13.7 34.8c1.1 0.3 2.9 0.3 3.2 0.7 0.5 0.6-2.9 0-3.4-0.1-0.7-0.1-2.9-0.2-2.6-0.5 0.4-0.3 1.6-0.1 2.8-0.1z"/>
						<path id="&lt;Path&gt;" class="s7" d="m10.6 8c-0.6-0.6 0.3-1.3 1-1.1 0.7 0.3 0.7 1.1 0.6 1.7 0 0.7 0.2 1.3-0.8 1-1-0.2-0.6-0.7-0.7-1.4z"/>
						<path id="&lt;Path&gt;" class="s6" d="m10.1 27.7c-1.5 0.2-1.2 2.2-0.6 3.1 0.5 0.6 1.9 2.3 2.9 1.9-0.7-0.3-2-1.2-2.4-2-0.3-0.5-0.4-1.2-0.2-1.7 0.1-0.5 0.5-0.8 0.3-1.3z"/>
						<g id="&lt;Group&gt;">
							<path id="&lt;Path&gt;" class="s2" d="m19.1 5.7z"/>
							<path id="&lt;Compound Path&gt;" class="s2" d="m18.8 5.7q0.2 0.1 0.4 0.1 0.1 0.1 0.2 0.1 0.1 0 0.2-0.1 0 0 0 0c0.2-0.1 0.2-0.4 0.1-0.5-0.2 0-0.4-0.1-0.5-0.1q-0.1-0.1-0.1 0-0.2 0-0.3 0c-0.2 0.1-0.2 0.3 0 0.5z"/>
						</g>
						<path id="&lt;Path&gt;" class="s2" d="m16.3 6c0.3 0 0.4 0.4 0.1 0.5-0.3 0.1-0.4-0.4-0.1-0.5z"/>
						<path id="&lt;Path&gt;" class="s2" d="m26.7 11.9q0-0.1 0-0.1 0-0.1 0-0.1c0 0 0 0 0 0q0.1-0.2 0.2-0.2 0.2-0.1 0.4 0.1 0 0.1 0 0.2c0 0 0 0.2 0 0q0 0.1 0 0.2-0.1 0-0.1 0.1 0 0-0.1 0 0 0 0 0c-0.1 0.1-0.2 0.1-0.3 0.1q-0.2-0.1-0.1-0.3z"/>
						<path id="&lt;Path&gt;" class="s2" d="m23.2 13.8q0.3-0.1 0.6 0.2c0.2 0.1 0.3 0.3 0.2 0.5 0 0.1-0.1 0.2-0.2 0.1q-0.1 0-0.1 0c-0.1 0-0.3 0-0.4-0.1q-0.2-0.1-0.2-0.3c-0.1-0.1-0.1-0.4 0.1-0.4z"/>
						<path id="&lt;Path&gt;" class="s2" d="m19.1 9.9c0.2-0.1 0.4 0.3 0.1 0.4-0.3 0.1-0.4-0.3-0.1-0.4z"/>
						<path id="&lt;Path&gt;" class="s2" d="m11.1 11.5c0-0.2 0.3-0.3 0.4-0.1q0.1 0.1 0.1 0.1 0.2 0.3 0.1 0.6c-0.1 0.2-0.4 0.2-0.4 0-0.1-0.2-0.2-0.4-0.2-0.6z"/>
						<path id="&lt;Path&gt;" class="s8" d="m28.5 14.6c0.1-0.2 0.2-0.2 0.4-0.2q0.2 0.1 0.4 0.4c0 0.1 0.1 0.3 0.1 0.4 0 0.1-0.1 0.3-0.2 0.3q-0.1 0-0.1 0-0.1 0-0.2 0c-0.3-0.1-0.5-0.5-0.4-0.9z"/>
						<path id="&lt;Path&gt;" class="s8" d="m29.3 16.5q0.1 0 0.2 0 0.1 0.1 0.1 0.2 0 0.1-0.1 0.2c0 0.1-0.1 0.1-0.2 0.1q-0.1-0.1-0.1-0.2c-0.1-0.1 0-0.2 0.1-0.3z"/>
						<path id="&lt;Path&gt;" class="s8" d="m14.6 9.8c0.5-0.1 1 0 1.3 0.4q0.1 0.1 0 0.2 0.1 0 0.1 0c0 0.2-0.1 0.4-0.3 0.3-0.5-0.1-0.9-0.1-1.2-0.5-0.1-0.2 0-0.4 0.1-0.4z"/>
						<path id="&lt;Path&gt;" class="s8" d="m13.3 6c0.1-0.1 0.2 0 0.3 0.1q0 0 0 0.1c0 0.1-0.1 0.2-0.2 0.2q-0.2 0.1-0.3-0.1 0 0 0-0.1c0-0.1 0.1-0.2 0.2-0.2z"/>
						<path id="&lt;Path&gt;" class="s8" d="m12.6 13c-0.1-0.2-0.1-0.3 0-0.4q0-0.2 0.1-0.2c0.1-0.1 0.3-0.2 0.4-0.1q0.2 0.2 0.3 0.4 0.1 0.1 0.2 0.2c0.1 0.3-0.1 0.6-0.4 0.7-0.1 0.1-0.2 0-0.3-0.1q0 0 0-0.1-0.3-0.1-0.3-0.4z"/>
						<g id="&lt;Group&gt;">
							<path id="&lt;Compound Path&gt;" class="s8" d="m20.8 16.1q0.1 0 0.1 0 0 0.1 0.1 0.1 0 0 0.1 0.1c0 0 0 0 0 0 0.1 0 0.3-0.1 0.3-0.2q0-0.1 0-0.2-0.1-0.1-0.3-0.2-0.1 0-0.2 0.1c-0.1 0-0.1 0.2-0.1 0.3z"/>
							<path id="&lt;Path&gt;" class="s8" d="m21.1 16.3q0 0 0 0-0.1 0 0 0z"/>
						</g>
						<path id="&lt;Path&gt;" class="s8" d="m15.4 17.5c0.2-0.7 1.1-0.7 1.5-0.1q0 0.1 0 0.1c0.1 0.2 0 0.3-0.1 0.3-0.4 0.3-0.8 0.2-1.2 0-0.1 0-0.2-0.2-0.2-0.3z"/>
						<path id="&lt;Path&gt;" class="s8" d="m24.5 20.6q0.1-0.1 0.2 0c0.3 0.1 0.6 0.3 0.8 0.6 0 0.1-0.1 0.2-0.2 0.3q-0.1 0.1-0.2 0c-0.3 0-0.7-0.2-0.8-0.5-0.1-0.2 0-0.5 0.2-0.4z"/>
						<path id="&lt;Path&gt;" class="s8" d="m30.5 22.4c0.1 0 0.2-0.1 0.3 0 0.1 0.1 0.2 0.3 0.2 0.4 0 0.1 0 0.2-0.1 0.3-0.1 0-0.2 0-0.3 0q-0.1-0.2-0.2-0.4c0 0 0-0.2 0.1-0.3z"/>
						<path id="&lt;Path&gt;" class="s9" d="m31.2 17c0.1-0.4 0.2-0.8 0.2-1.2 0-0.3-0.2-0.6-0.3-1-0.1-0.5 0.2-1 0.2-1.6q0-0.1 0.1 0c0.2 0.4-0.1 0.8-0.1 1.2 0 0.6 0.3 1.1 0.3 1.6-0.1 0.7-0.3 1.4 0 2.1 0.2 0.3 0.7 1 1.1 0.9 0.2 0 0.2 0.2 0.1 0.2-0.4 0.2-0.9-0.3-1.1-0.6q-0.6-0.7-0.5-1.6z"/>
						<path id="&lt;Path&gt;" class="s9" d="m31.8 14.1c0.3 0.6 0.3 1.2 0.4 1.8q0.1 0.7 0.4 1.2 0.2 0.6 0.6 1c0.1 0.2 0.2 0.3 0.4 0.4 0.1 0.1 0.3 0.1 0.4 0.2 0.1 0 0.1 0 0.1 0.1-0.6 0.4-1.4-1-1.5-1.3-0.2-0.4-0.4-0.8-0.5-1.2-0.2-0.7-0.2-1.5-0.3-2.2z"/>
						<path id="&lt;Path&gt;" class="s9" d="m32 14.3c0-0.3 0-0.7 0.2-1 0.3-0.5 0.7-0.1 0.9 0.3 0.2 0.3 0.3 0.8 0.4 1.2q0.3 0.6 0.5 1.2c0.3 0.6 0.5 1.4 0.2 2-0.1 0.1-0.1 0-0.1 0 0.1-0.7 0.1-1.2-0.1-1.8q-0.4-0.8-0.7-1.6c-0.1-0.3-0.2-0.6-0.4-0.9-0.1-0.3-0.5-0.7-0.6-0.2-0.2 0.7 0.1 1.3 0.1 1.9 0 0.1-0.1 0.1-0.1 0-0.2-0.3-0.2-0.7-0.3-1.1z"/>
						<path id="&lt;Path&gt;" class="s9" d="m33.7 17.5q0-0.4-0.2-0.8c-0.2-0.3-0.3-0.6-0.3-1-0.1-0.7-0.2-1.6-0.7-2.1q0 0 0 0c0.5 0.3 0.6 1.2 0.7 1.7 0 0.3 0.1 0.6 0.2 0.9 0.1 0.3 0.2 0.5 0.3 0.7 0.2 0.4 0.1 0.8 0 1.1q0 0 0 0 0-0.2 0-0.5z"/>
						<path id="&lt;Path&gt;" class="s9" d="m21.5 11.1q0-0.3 0.1-0.6c0-0.4-0.1-0.7-0.2-1-0.1-0.2-0.3-0.7-0.1-0.9 0.1-0.1 0.2 0 0.3-0.1 0.2-0.1 0-0.3 0-0.5-0.1-0.4-0.1-0.7 0.1-1 0.2-0.3 0.4-0.7 0.7-0.7 0.1 0 0.1 0.1 0 0.2-0.3 0.2-0.6 0.6-0.7 1 0 0.2 0 0.4 0.1 0.7 0 0 0.1 0.1 0.1 0.2-0.1 0.4-0.5 0.2-0.4 0.7 0.1 0.4 0.3 0.8 0.3 1.3-0.1 0.5-0.3 1.1 0 1.6 0.2 0.4 0.7 0.8 1.1 1 0.4 0.2 0.9 0.4 1.4 0.3 0.5 0 0.9-0.3 1.4-0.5q0 0 0 0c-0.3 0.7-1.3 0.8-1.9 0.7-0.8-0.1-1.6-0.6-2-1.2-0.3-0.3-0.4-0.7-0.3-1.2z"/>
						<path id="&lt;Path&gt;" class="s9" d="m22.4 8.7c0.3-0.3 0-0.7 0-1q0-0.3 0.1-0.6c0.5-0.8 1.6-0.7 2.3-0.5 1 0.4 1.7 1.3 2.1 2.2 0.2 0.4 0.3 0.9 0.2 1.3-0.2 0.5-0.5 0.6-0.9 0.8-0.1 0-0.1 0-0.1-0.1 0.1-0.1 0.3-0.1 0.4-0.2q0.3-0.3 0.4-0.7c0.1-0.4-0.2-1-0.4-1.4-0.4-0.7-1-1.5-1.9-1.7-0.7-0.2-2-0.1-2 0.9 0.1 0.3 0.3 0.7 0.1 1-0.1 0.3-0.5 0.2-0.5 0.6 0 0-0.1 0.1-0.2 0-0.1-0.4 0.2-0.4 0.4-0.6z"/>
						<path id="&lt;Path&gt;" class="s9" d="m18.7 6.1c0.2 0 0.3 0.1 0.5 0.2 0.1 0.1 0.1 0.2 0.3 0.1 0 0 0-0.1 0-0.1 0.1 0 0.1 0 0.2 0 0.4-0.1 0.7 0.5 0.8 0.8 0.1 0.3 0.3 1 0 1.2q0 0.1 0 0c0-0.3 0.1-0.6-0.1-1-0.1-0.2-0.4-0.9-0.7-0.8-0.1 0-0.1 0.1-0.2 0.1q-0.1 0-0.2 0c-0.2-0.1-0.3-0.3-0.5-0.3-0.4 0-0.4 0.4-0.4 0.7 0 0-0.1 0.1-0.1 0-0.3-0.3 0-0.8 0.4-0.9z"/>
						<path id="&lt;Path&gt;" class="s9" d="m17.7 6.5c0.1-0.4 0.4-0.8 0.8-0.8 0 0 0.1 0.1 0 0.1-0.3 0.2-0.6 0.3-0.6 0.8-0.1 0.4 0.1 0.8 0.3 1.2 0.3 0.4 0.6 0.7 1 0.9q0.3 0.1 0.7 0.1c0.2 0 0.4-0.1 0.6-0.1 0 0 0.1 0 0 0-0.2 0.4-0.9 0.3-1.2 0.2-0.5-0.3-0.9-0.7-1.2-1.1-0.2-0.4-0.4-0.9-0.4-1.3z"/>
						<path id="&lt;Path&gt;" class="s9" d="m3.5 16c0.6 0.1 1-0.4 1.4-0.8 0.5-0.4 0.6-1 0.9-1.6 0.2-0.3 0.3-0.6 0.4-0.9 0.1-0.4 0.2-0.8 0.3-1.1 0-0.4 0.2-0.8 0.2-1.3 0.1-0.4 0-0.8 0.1-1.2q0-0.1 0 0c0 0.4 0.1 0.8 0 1.3 0 0.4-0.2 0.9-0.2 1.4-0.1 0.4-0.1 0.8-0.3 1.2-0.1 0.4-0.3 0.7-0.5 1.1-0.1 0.3-0.2 0.6-0.4 0.9-0.2 0.3-0.5 0.5-0.7 0.7-0.3 0.2-0.9 0.7-1.2 0.4-0.1-0.1 0-0.2 0-0.1z"/>
						<path id="&lt;Path&gt;" class="s9" d="m3 14.6c0.3 0.1 0.5 0 0.7-0.2q0.2-0.2 0.3-0.5 0.5-0.7 0.8-1.6c0.2-0.6 0.3-1.2 0.3-1.9q0.1-0.4 0.1-0.8c-0.1-0.2 0-0.5-0.4-0.2-0.1 0.1-0.1 0.1-0.2 0.2q0 0 0-0.1c-0.1-0.1 0.1-0.4 0.3-0.4 0.3-0.1 0.4 0.2 0.4 0.3 0.1 0.5 0 0.9 0 1.3-0.1 0.5-0.1 0.9-0.2 1.4-0.2 0.7-0.6 1.5-1 2.1-0.2 0.3-0.9 1-1.2 0.5 0-0.1 0.1-0.2 0.1-0.1z"/>
						<path id="&lt;Path&gt;" class="s9" d="m2.6 13.8c0 0.4 0 0.8 0.3 1.1 0.4 0.4 0.8 0.2 1.1-0.2 0.5-0.5 0.8-1 1.1-1.6q0 0 0 0.1c0 0.4-0.4 0.8-0.6 1.1-0.2 0.4-0.5 0.8-0.9 0.9-0.3 0.1-0.6 0-0.8-0.3-0.3-0.3-0.3-0.7-0.2-1.1z"/>
						<path id="&lt;Path&gt;" class="s9" d="m10.5 34.9c0-0.2 0.3-0.3 0.5-0.3 0.9-0.2 1.9 0 2.8 0.1 0.9 0.2 1.8 0.3 2.7 0.4 0.2 0.1 0.9 0.2 0.6 0.6 0 0.1-0.1 0-0.1 0 0.1-0.5-0.7-0.4-1-0.4-0.6-0.1-1.1-0.2-1.7-0.3-0.7-0.2-1.5-0.3-2.2-0.3-0.3 0-0.7 0-1 0-0.1 0.1-0.3 0.1-0.3 0.2-0.2 0.1 0.1 0.2 0.2 0.3 0.1 0 0 0.2-0.1 0.1-0.1 0-0.5-0.2-0.4-0.4z"/>
						<path id="&lt;Path&gt;" class="s9" d="m10.2 33.7c0.1-0.8 1-0.5 1.6-0.6 0.5-0.1 0.9-0.2 1.4-0.2 0.4 0.1 0.8 0.2 1.2 0.4 0.2 0.1 0.4 0.2 0.7 0.3 0.2 0.1 0.5 0.1 0.7 0.1q0.5 0.1 0.9 0.3c0.3 0.1 1.2 0.5 0.9 1 0 0-0.1 0-0.1-0.1 0.1-0.5-0.7-0.8-1.1-0.9-0.4-0.1-0.7-0.1-1.1-0.1-0.3-0.1-0.6-0.2-0.9-0.3-0.8-0.4-1.5-0.5-2.4-0.4-0.3 0.1-0.5 0.1-0.9 0.1-0.1 0-0.3 0-0.4 0-0.2 0.1-0.3 0.3-0.4 0.5 0 0.1-0.2 0-0.1-0.1z"/>
						<path id="&lt;Path&gt;" class="s9" d="m10.2 29c0.2-0.8 1.1-1.6 2-1.7 1-0.2 2.2 0.1 3.1 0.5 1.1 0.3 2.1 0.8 3 1.4 0.4 0.3 1.4 1.2 0.8 1.8 0 0.1-0.1 0.1-0.1 0 0.3-1-0.8-1.7-1.6-2.1-1-0.6-2-1.1-3.2-1.3-1.2-0.3-2.5-0.4-3.3 0.7-0.4 0.4-0.6 0.8-0.5 1.4 0.1 0.5 0.5 0.9 0.8 1.3 0.1 0 0 0.1-0.1 0.1-0.6-0.5-1.1-1.3-0.9-2.1z"/>
						<path id="&lt;Path&gt;" class="s9" d="m9.9 28.2c0 0 0.1 0 0 0.1-0.6 0.7-0.4 1.9 0.2 2.6 0.5 0.8 1.4 1.5 2.4 1.8q0.8 0.2 1.5-0.2c0.6-0.3 1.1-0.5 1.7-0.7 0.3 0 0.6 0.1 0.9 0.2 0.4 0.2 0.8 0.4 1.3 0.3q0 0 0 0.1c-0.6 0.4-1.2-0.4-1.8-0.4-0.6-0.1-1.3 0.3-1.8 0.5-0.3 0.3-0.7 0.4-1.1 0.4-0.8 0.1-1.5-0.3-2.1-0.7-0.6-0.5-1.2-1.1-1.5-1.8-0.3-0.7-0.4-1.6 0.3-2.2z"/>
						<path id="&lt;Path&gt;" class="s9" d="m8.8 25.2c1.8 1.1 2.6-1.6 2.6-2.9-0.1-0.8-0.3-1.6-0.6-2.4-0.4-0.7-0.9-1.2-1.5-1.7q0 0 0 0c1.6 0.7 2.4 2.9 2.3 4.5-0.1 0.9-0.3 1.9-0.9 2.5-0.5 0.5-1.4 0.7-2 0.1 0-0.1 0-0.2 0.1-0.1z"/>
						<path id="&lt;Path&gt;" class="s9" d="m5.2 20.5c-0.1-0.8 0.1-1.8 0.8-2.3 0.1 0 0.1 0 0.1 0.1-0.5 0.7-0.9 1.4-0.7 2.3 0.1 1 0.5 1.9 1 2.7 0.2 0.4 0.5 0.8 0.9 1.1 0.2 0.3 0.4 0.7 0.7 1 0.5 0.6 1.5 1.1 2.3 0.7 0.1 0 0.1 0.1 0.1 0.1-0.6 0.5-1.6 0-2.2-0.3-0.4-0.3-0.6-0.7-0.9-1.1-0.3-0.4-0.7-0.8-1.1-1.3-0.5-0.8-0.9-1.9-1-3z"/>
						<path id="&lt;Path&gt;" class="s9" d="m24.9 16.2c0.5-0.2 1.2-0.2 1.7 0.1 0.4 0.3 0.7 0.8 0.8 1.4 0.1 0.4 0.1 1.2-0.4 1.3q-0.1 0.1-0.1 0c0.1-0.2 0.2-0.3 0.3-0.5q0.1-0.4 0-0.8c-0.1-0.5-0.3-0.9-0.7-1.2-0.4-0.3-1-0.3-1.4-0.2q-0.4 0.2-0.7 0.4c-0.3 0.2-0.4 0.5-0.6 0.8 0 0-0.1 0-0.1-0.1-0.1-0.6 0.7-1 1.2-1.2z"/>
						<path id="&lt;Path&gt;" class="s9" d="m22.5 18.2c-0.1-0.6 0.2-1.1 0.7-1.4 0.1 0 0.1 0 0.1 0-0.3 0.5-0.7 0.8-0.6 1.4 0 0.3 0 0.5 0.2 0.6 0.1 0.1 0.2 0.1 0.3 0.2 0.2 0.1 0.3 0.3 0.4 0.5 0.7 1 2 1.1 3.1 0.7 0-0.1 0 0 0 0-0.4 0.4-1.1 0.4-1.6 0.3q-1-0.1-1.6-0.8c-0.1-0.2-0.2-0.4-0.3-0.5-0.2-0.2-0.3-0.2-0.4-0.3-0.2-0.2-0.3-0.4-0.3-0.7z"/>
						<path id="&lt;Path&gt;" class="s9" d="m17.1 12c0.6 0 1.2 0.3 1.6 0.8 0.7 0.7 1.2 2.3 0.1 3q0 0 0 0c0.3-0.4 0.5-0.9 0.4-1.4 0-0.5-0.2-1-0.6-1.4-0.3-0.4-0.7-0.7-1.2-0.8-0.4-0.1-1.3-0.1-1.5 0.3-0.1 0-0.1 0-0.1 0 0-0.6 0.9-0.5 1.3-0.5z"/>
						<path id="&lt;Path&gt;" class="s9" d="m13.7 13.9c0-0.3 0.1-0.7 0.2-1 0.1-0.3 0.4-0.5 0.7-0.7 0 0 0 0.1 0 0.1-0.1 0.2-0.4 0.4-0.6 0.7-0.1 0.2-0.1 0.6-0.2 0.9-0.1 0.7 0 1.4 0.4 2 0.4 0.6 1.1 1 1.9 1 0.4 0 0.9-0.3 1.3 0-0.4-0.2-0.8 0-1.2 0.1q-0.4 0-0.8-0.1c-0.7-0.1-1.2-0.6-1.5-1.2-0.3-0.5-0.3-1.2-0.2-1.8z"/>
						<path id="&lt;Path&gt;" class="s9" d="m10.6 7.1c0.4-0.3 1.1-0.4 1.4 0 0.3 0.2 0.4 0.6 0.4 0.9 0 0.2-0.1 0.4-0.1 0.6 0 0.3 0 0.6 0 0.9 0 0-0.1 0.1-0.1 0q-0.2-0.4-0.1-0.9c0.1-0.4 0.2-0.7 0-1.1-0.3-0.7-1-0.5-1.5-0.3q0 0 0-0.1z"/>
						<path id="&lt;Path&gt;" class="s9" d="m9.7 7.2c0 0 0 0 0 0.1-0.1 0.3-0.3 0.6-0.3 1 0 0.4 0.2 0.8 0.4 1q0.4 0.4 0.9 0.6c0.3 0.1 0.6 0.2 1 0.2q0 0 0 0.1c-0.6 0.3-1.7-0.5-2.1-1-0.3-0.5-0.5-1.5 0.1-2z"/>
						<path id="&lt;Path&gt;" class="s9" d="m7.4 17.7c0.4-0.2 1-0.4 1.5-0.4 0.5 0.1 0.9 0.3 1.3 0.5 0.9 0.5 1.7 1.4 2.1 2.4 0.6 1.1 0.5 2.2 0.3 3.4 0 0.5-0.1 0.9-0.4 1.3-0.4 0.4-0.9 0.5-1.3 0.8 0 0.1-0.1 0-0.1-0.1 0.2-0.3 0.6-0.4 0.9-0.6 0.4-0.3 0.6-0.8 0.7-1.2 0.2-1.2 0.3-2.4-0.2-3.5-0.5-0.9-1.1-1.8-2-2.3-0.4-0.2-0.9-0.5-1.4-0.5-0.5 0-0.9 0.2-1.4 0.3-0.1 0-0.1-0.1 0-0.1z"/>
						<path id="&lt;Path&gt;" class="s9" d="m21.4 26.8q0.2-0.5 0.5-1c0.4-0.7 1.2-1.1 1.9-1.5 0.8-0.4 1.9-0.7 2.8-0.7 0.5 0 0.8 0.2 1.1 0.5 0.5 0.3 1 0.5 1.5 0.8 0.1 0 0 0.1 0 0.1-0.4-0.1-0.9-0.4-1.2-0.6-0.4-0.2-0.7-0.5-1.2-0.6-0.4-0.1-0.9 0-1.3 0.1q-0.8 0.2-1.5 0.5c-0.7 0.4-1.5 0.7-1.9 1.4-0.3 0.5-0.6 1.2-0.6 1.8 0 0.1-0.1 0.1-0.2 0-0.1-0.2 0-0.6 0.1-0.8z"/>
						<path id="&lt;Path&gt;" class="s9" d="m21.1 27.8c0 0 0.1 0 0 0-0.1 0.3 0.1 1.2 0.6 1.1q0.1-0.1 0.1 0c0.3 0.6 0.5 1.3 1.2 1.5 0.8 0.3 1.5-0.2 2.1-0.6 0.5-0.5 1-0.9 1.6-1.2 0.7-0.4 1.3-0.9 2-1.3q0 0 0 0c-0.4 0.4-0.9 0.8-1.5 1.2-0.5 0.3-1 0.6-1.5 1-0.7 0.6-1.5 1.4-2.5 1.2-0.5-0.1-0.9-0.4-1.1-0.8q-0.2-0.3-0.3-0.6c-0.1-0.1-0.1-0.2-0.1-0.2 0-0.1-0.2 0-0.2-0.1-0.4 0-0.9-0.9-0.4-1.2z"/>
						<path id="&lt;Path&gt;" class="s9" d="m19.2 22.3c0.2-0.2 0.7-0.3 0.9-0.4 0.4-0.2 0.8-0.5 0.7-0.9 0-0.3-0.3-0.6-0.5-0.8-0.2-0.1-0.4-0.1-0.5-0.1-0.1 0-0.2 0.2-0.3 0.2q0 0 0 0c-0.1-0.3 0.4-0.4 0.6-0.4 0.4 0.1 0.7 0.4 0.9 0.8 0.1 0.4-0.1 0.9-0.4 1.1-0.3 0.3-1 0.6-1.4 0.6 0-0.1 0-0.1 0-0.1z"/>
						<path id="&lt;Path&gt;" class="s9" d="m5.3 24.6c0.4-0.2 0.8 0.3 0.9 0.6 0.1 0.2 0.2 0.4 0.3 0.7 0.2 0.2 0.5 0.4 0.8 0.6 0.4 0.5 1.2 1.8 0.3 2.2 0 0.1-0.1 0-0.1 0 0.2-0.2 0.3-0.4 0.3-0.6 0.1-0.2 0-0.5-0.1-0.7-0.2-0.3-0.4-0.7-0.7-0.9-0.2-0.2-0.4-0.3-0.6-0.5-0.1-0.1-0.1-0.3-0.2-0.5q-0.1-0.3-0.4-0.5c-0.1-0.2-0.3-0.2-0.5-0.3 0 0 0-0.1 0-0.1z"/>
						<path id="&lt;Path&gt;" class="s9" d="m3.7 21.3c0-0.1 0.1-0.1 0.1-0.2q0.1-0.3 0.1-0.5 0.1-0.5 0.1-1c-0.1-0.4-0.1-0.7-0.1-1 0-0.4 0.1-0.8 0-1.2 0 0 0.1-0.1 0.1 0 0.2 0.3 0 0.7 0 1.1 0 0.4 0.1 0.8 0.2 1.2 0 0.5 0 1.5-0.5 1.7 0 0 0 0 0-0.1z"/>
						<path id="&lt;Path&gt;" class="s9" d="m8.6 13.1q-0.1 0 0 0c0.2-0.4 0.8-0.2 1 0 0.3 0.2 0.6 0.6 0.6 0.9-0.1 0.4-0.5 1.6-1 1 0-0.1 0-0.1 0.1-0.1 0.2 0.1 0.4 0 0.5-0.3 0.1-0.2 0.2-0.4 0.2-0.6 0-0.3-0.3-0.6-0.5-0.8-0.3-0.1-0.6-0.1-0.9-0.1z"/>
						<path id="&lt;Path&gt;" class="s9" d="m7.6 9.4c0.2-0.3 0.6-0.2 0.9-0.1 0.2 0.1 0.5 0.5 0.5 0.8 0 0.2-0.1 0.6-0.3 0.7-0.2 0.2-0.4 0.1-0.4-0.1q0-0.1 0-0.1c0.2 0.1 0.3 0.2 0.4 0 0-0.2 0.1-0.4 0.1-0.6-0.1-0.2-0.2-0.4-0.4-0.5-0.3-0.2-0.5-0.1-0.8 0q0-0.1 0-0.1z"/>
						<path id="&lt;Path&gt;" class="s9" d="m15.1 6.4c0.3-0.1 0.7 0.1 1 0.3 0.6 0.4 1 1.5 0.2 2q0 0 0 0c0.2-0.3 0.4-0.6 0.3-1.1q-0.1-0.5-0.5-0.8c-0.3-0.2-0.5-0.3-0.9-0.3-0.4 0.1-0.5 0.4-0.6 0.7q-0.1 0-0.1 0c0-0.4 0.3-0.7 0.6-0.8z"/>
						<path id="&lt;Path&gt;" class="s9" d="m30.8 19.6c0.2-0.1 0.5 0.2 0.6 0.3 0.5 0.4 0.7 1.4 0.1 1.9q0 0 0-0.1c0.2-0.5 0.4-1 0-1.5q-0.1-0.2-0.4-0.3c-0.2-0.2-0.4-0.2-0.6 0.1 0-0.2 0.1-0.4 0.3-0.4z"/>
						<path id="&lt;Path&gt;" class="s9" d="m22.5 31.9c0.3 0 0.6 0.1 0.9 0.1 0.4-0.1 0.7-0.3 1-0.5 0.2-0.2 0.8-0.6 1.1-0.2 0.2 0.2 0.1 0.5-0.2 0.7q0 0 0 0c0.1-0.2 0.3-0.4 0.2-0.6-0.2-0.3-0.6-0.1-0.8 0.1-0.4 0.2-0.6 0.4-0.9 0.6-0.7 0.2-1.6-0.5-2 0.3 0 0-0.1 0-0.1-0.1 0.1-0.3 0.4-0.4 0.8-0.4z"/>
						<path id="&lt;Path&gt;" class="s9" d="m14.1 23.6c0.3-0.8 1.8-0.4 2.3-0.2 0.5 0.3 0.9 0.7 1.1 1.2 0.1 0.2 0.3 0.7-0.1 0.8q0 0 0-0.1c0.3-0.2 0.1-0.6-0.1-0.9-0.3-0.4-0.7-0.7-1.1-0.9-0.5-0.3-1.7-0.5-2.1 0.1 0 0 0 0 0 0z"/>
						<path id="&lt;Path&gt;" class="s10" d="m22.1 11.8c0.4 0.2 0.7 0.6 1.1 0.9 0.4 0.3 0.9 0.4 1.5 0.3 0.5-0.1 1.1-0.5 1.2-1 0.1-0.4 0.3-0.6 0.6-0.7 1-0.6 1.1-1.6 0.7-2.6-0.3-0.9-0.9-1.5-1.7-2q0-0.1 0-0.1c0.7 0.2 1.2 0.9 1.6 1.4 0.4 0.6 0.6 1.4 0.5 2.1-0.1 0.4-0.3 0.8-0.6 1.1-0.2 0.1-0.3 0.2-0.5 0.3-0.2 0.2-0.3 0.3-0.4 0.6-0.1 0.4-0.4 0.6-0.7 0.9-0.4 0.2-0.9 0.3-1.3 0.3-0.8-0.1-1.7-0.7-2.1-1.5 0 0 0.1-0.1 0.1 0z"/>
						<path id="&lt;Path&gt;" class="s10" d="m21.9 10.5c0.1-0.3 0.2-0.5 0.1-0.8 0-0.3-0.1-0.5 0-0.7 0.1-0.2 0.3-0.3 0.4-0.5 0.1-0.3-0.1-0.5-0.1-0.8q0-0.4 0.2-0.7c0.2-0.3 0.6-0.7 1-0.7q0 0.1 0 0.1c-0.1 0.1-0.4 0.2-0.6 0.4-0.2 0.2-0.5 0.5-0.4 0.9 0 0.3 0.2 0.7 0 1-0.2 0.2-0.4 0.3-0.3 0.6 0 0.2 0.1 0.4 0.1 0.6 0 0.4-0.2 0.8-0.3 1.2 0 0.1-0.1 0.1-0.1 0-0.1-0.2 0-0.4 0-0.6z"/>
						<path id="&lt;Path&gt;" class="s10" d="m32.1 14.9c-0.1-0.5-0.2-1-0.2-1.5 0.1-0.3 0.2-0.7 0.5-0.6 0.1 0 0.1 0.1 0 0.1-0.4 0.1-0.3 0.7-0.3 1 0.1 0.6 0.2 1.3 0.4 1.9q0.2 0.8 0.5 1.5 0.1 0.3 0.2 0.5c0.2 0.4 0.4 0.8 0.9 0.7 0.1 0 0.1 0.1 0 0.2-0.9 0.4-1.4-1.4-1.6-2q-0.2-0.9-0.4-1.8z"/>
						<path id="&lt;Path&gt;" class="s10" d="m34.1 18.3c0.2-0.3 0.3-0.5 0.2-0.8 0-0.5-0.1-0.9-0.3-1.4-0.2-0.7-0.6-1.4-0.6-2.1 0.4 0.8 0.7 1.7 0.9 2.5 0.1 0.5 0.3 0.9 0.2 1.3 0 0.2-0.1 0.6-0.4 0.5 0 0 0 0 0 0z"/>
						<path id="&lt;Path&gt;" class="s10" d="m30.4 20.3c-0.1-0.4-0.1-0.6 0.1-0.9 0.1 0 0.2 0.1 0.1 0.1-0.2 0.3-0.1 0.5 0 0.8 0 0.3 0 0.5-0.1 0.8 0 0.3 0.1 0.6 0.4 0.9 0.3 0.3 0.6 0.2 0.9-0.2 0 0 0.1 0 0.1 0-0.2 0.8-1.2 0.4-1.4-0.1-0.3-0.5 0-0.9-0.1-1.4z"/>
						<path id="&lt;Path&gt;" class="s10" d="m22.6 18.1c-0.1-0.6 0.5-1.4 1-1.6 0.1 0 0.1 0.1 0.1 0.1-0.3 0.5-1.1 0.9-0.8 1.6 0.1 0.3 0.4 0.3 0.6 0.5 0.3 0.3 0.3 0.6 0.5 0.8 0.5 0.5 1.4 0.7 2.1 0.5 0.7-0.2 1.2-0.6 1.5-1.2q0 0 0 0c-0.1 0.7-0.8 1.2-1.5 1.4-0.7 0.2-1.5 0-2.1-0.5-0.3-0.2-0.4-0.7-0.8-1-0.3-0.2-0.5-0.2-0.6-0.6z"/>
						<path id="&lt;Path&gt;" class="s10" d="m14 13.7c0.2-0.5 0.5-1.8 1.3-1.6q0 0 0 0c-0.4 0.2-0.6 0.4-0.8 0.8q-0.2 0.5-0.3 1c-0.2 0.8 0 1.7 0.6 2.2 0.3 0.3 0.7 0.5 1.1 0.5q0.5 0.1 0.9 0c0.1 0 0.3-0.1 0.4-0.1 0.2 0.1 0.3 0.2 0.5 0.2 0.2 0 0.4 0 0.5-0.1 0.4-0.1 0.7-0.3 0.9-0.5-0.2 0.6-1.1 0.9-1.7 0.7-0.3-0.1-0.6 0-0.9 0q-0.4 0.1-0.8 0-0.7-0.2-1.1-0.7c-0.7-0.7-0.8-1.6-0.6-2.4z"/>
						<path id="&lt;Path&gt;" class="s10" d="m16.4 11.9c1.2-0.3 2.2 0.4 2.8 1.3 0.6 0.9 0.6 2.3-0.5 2.8-0.1 0.1-0.1 0-0.1-0.1 0.4-0.3 0.7-0.5 0.8-1 0.1-0.6-0.1-1.2-0.4-1.7-0.3-0.4-0.7-0.8-1.2-1-0.4-0.3-0.9-0.3-1.4-0.3q0 0 0 0z"/>
						<path id="&lt;Path&gt;" class="s10" d="m18 6.5c0-0.3 0.4-0.7 0.7-0.6q0 0 0 0c-0.2 0.3-0.5 0.3-0.6 0.7 0 0.5 0.2 0.9 0.5 1.3 0.4 0.5 1.2 1 1.8 0.6 0.1 0 0.1 0 0.1 0-0.2 0.3-0.6 0.3-0.9 0.2-0.5-0.1-0.9-0.4-1.2-0.8-0.3-0.4-0.5-0.9-0.4-1.4z"/>
						<path id="&lt;Path&gt;" class="s10" d="m19.3 6c0.5-0.1 1.1 0.2 1.4 0.6 0.3 0.5 0.5 1.3 0.1 1.8q0 0-0.1 0c0-0.2 0.1-0.3 0.1-0.5 0.1-0.3 0-0.8-0.2-1.1-0.3-0.5-0.8-0.6-1.3-0.7q-0.1-0.1 0-0.1z"/>
						<path id="&lt;Path&gt;" class="s10" d="m14.4 6.8c0 0 0.1 0 0.1 0 0 0.4-0.3 0.6 0 1 0.1 0.3 0.4 0.3 0.7 0.5q0 0.1 0.1 0.2c0.1 0.2 0.3 0.4 0.5 0.4 0.4 0.1 0.8-0.1 0.9-0.5q0 0 0 0c0.2 0.2-0.1 0.5-0.4 0.6-0.3 0.1-0.8 0.1-1-0.2-0.1-0.1-0.1-0.2-0.2-0.3-0.1-0.1-0.2-0.1-0.3-0.2q-0.3-0.1-0.4-0.4c-0.3-0.3-0.3-0.8 0-1.1z"/>
						<path id="&lt;Path&gt;" class="s10" d="m9.5 8.1c0-0.4 0.1-1 0.5-1q0.1 0 0.1 0c-0.6 0.5-0.5 1.6 0 2.1 0.4 0.4 0.9 0.7 1.5 0.6 0.3-0.1 0.7-0.1 0.9-0.5 0.1-0.2 0.1-0.5 0.2-0.7 0-0.1 0.1 0 0.1 0 0 0.3-0.1 0.8-0.3 1.1-0.2 0.2-0.5 0.2-0.7 0.2q-1.1 0.2-1.8-0.5c-0.4-0.4-0.5-0.9-0.5-1.3z"/>
						<path id="&lt;Path&gt;" class="s10" d="m10.4 6.9c0.1-0.3 0.5-0.3 0.7-0.3 0.4-0.1 0.8 0 1.1 0.1 0.4 0.3 0.9 1 0.4 1.4q0 0.1 0 0c0.1-0.6-0.1-1.1-0.7-1.3-0.2-0.1-0.5-0.1-0.8 0-0.2 0-0.4 0.1-0.7 0.1q0 0 0 0z"/>
						<path id="&lt;Path&gt;" class="s10" d="m7.5 9.9c0.2 0.2 0.4 0.4 0.5 0.6 0 0.2 0 0.3 0.3 0.4 0.1 0.1 0.2 0 0.3 0v0.1c-0.1 0.2-0.4 0-0.5-0.2-0.1-0.1-0.2-0.2-0.3-0.4-0.1-0.2-0.3-0.2-0.3-0.5 0 0 0 0 0 0z"/>
						<path id="&lt;Path&gt;" class="s10" d="m4.2 14c0.1-0.2 0.3-0.4 0.5-0.6 0.2-0.3 0.4-0.6 0.5-1 0.2-0.5 0.3-1.1 0.3-1.8q0.1-0.5 0-0.9c0-0.2 0-0.4-0.1-0.6-0.2-0.1-0.3-0.1-0.4-0.2 0.2-0.3 0.5 0 0.6 0.2 0.2 0.4 0.2 0.9 0.1 1.3 0 0.7-0.1 1.3-0.2 1.9q-0.2 0.4-0.5 0.9c-0.2 0.3-0.5 0.6-0.8 0.9q0 0 0-0.1z"/>
						<path id="&lt;Path&gt;" class="s10" d="m6 12.4c0.3-1.2 0.7-2.5 0.5-3.8 0.3 0.6 0.2 1.4 0.1 2.1q-0.1 0.5-0.2 1.1c-0.1 0.2-0.1 0.5-0.4 0.6 0 0.1 0 0 0 0z"/>
						<path id="&lt;Path&gt;" class="s10" d="m5.9 13.9c0.4-0.8 0.7-1.7 0.8-2.6q0.2-0.7 0.2-1.5c0.1-0.4 0-0.9 0-1.4 0 0 0 0 0 0 0.4 0.9 0.1 2.1 0 3q-0.1 0.8-0.4 1.5c-0.1 0.4-0.2 0.8-0.5 1.1 0 0-0.1-0.1-0.1-0.1z"/>
						<path id="&lt;Path&gt;" class="s10" d="m3 12.9c0.2-0.3 0.4-0.6 0.6-0.9 0.3-0.4 0.4-0.7 0.4-1.1 0.1-0.4 0.1-0.8 0.3-1.2q0 0 0 0c-0.1 0.8 0 1.5-0.4 2.2-0.4 0.7-0.9 1.2-1.1 2 0 0 0 0 0 0 0-0.4 0-0.7 0.2-1z"/>
						<path id="&lt;Path&gt;" class="s10" d="m3.2 13.3c0.2-0.1 0.3 0.2 0.1 0.2-0.1 0.1-0.2-0.2-0.1-0.2z"/>
						<path id="&lt;Path&gt;" class="s10" d="m3 13.9c0.1-0.1 0.2-0.1 0.2 0q0 0 0 0 0.1 0 0.1 0.1 0 0.1 0 0.2 0 0.1 0 0.2c0 0.1-0.1 0.1-0.1 0.1-0.3-0.1-0.3-0.4-0.2-0.6z"/>
						<path id="&lt;Path&gt;" class="s10" d="m3.1 20c0.1-0.3-0.1-0.6-0.1-1q0-0.3 0.1-0.7c0.1-0.4 0.4-0.9 0.8-1 0 0 0.1 0 0 0-0.7 0.5-0.9 1.4-0.6 2.2 0.1 0.3 0 0.6-0.1 0.9-0.1 0.3-0.1 0.6 0.1 0.8 0 0.1 0.2 0.3 0.3 0.3 0.1 0 0.3-0.1 0.4-0.2 0.1 0 0.1 0 0.1 0.1-0.2 0.4-0.6 0.4-0.9 0.1-0.3-0.4-0.3-1-0.1-1.5z"/>
						<path id="&lt;Path&gt;" class="s10" d="m8.3 17.5c0.6-0.2 1.5 0.4 1.9 0.8 0.8 0.6 1.2 1.5 1.6 2.4 0.3 1 0.4 2.1 0.3 3.1-0.1 0.6-0.4 1.7-1.2 1.8 0 0-0.1 0 0-0.1 0.2-0.2 0.5-0.4 0.7-0.7q0.2-0.5 0.3-1.1c0.1-1 0-1.9-0.3-2.8-0.3-0.9-0.7-1.7-1.3-2.3-0.5-0.5-1.3-1-2-1 0 0 0-0.1 0-0.1z"/>
						<path id="&lt;Path&gt;" class="s10" d="m5.6 21.2c-0.1-0.7-0.3-1.8 0.3-2.4q0 0 0 0c-0.3 0.8-0.2 1.5-0.1 2.3q0.1 1.5 1.1 2.6c0.2 0.2 0.5 0.5 0.7 0.7 0.2 0.3 0.4 0.6 0.6 0.9 0.2 0.3 0.6 0.6 1 0.7 0.4 0.2 0.8 0.1 1.2 0 0 0 0.1 0 0.1 0.1-0.6 0.5-1.6 0.1-2.1-0.3-0.3-0.2-0.5-0.6-0.7-0.9-0.2-0.5-0.7-0.7-1-1.1q-0.9-1.2-1.1-2.6z"/>
						<path id="&lt;Path&gt;" class="s10" d="m13.8 23.8q0 0 0 0c0 0.5 0.3 1 0.6 1.3 0.2 0.1 0.4 0.2 0.6 0.3 0.2 0.1 0.4 0 0.6 0.1 0.4 0.1 0.7 0.4 1.1 0.3 0.2 0 0.9-0.2 1-0.5 0 0 0 0 0 0 0 0.3-0.4 0.5-0.6 0.6q-0.3 0.1-0.7 0.1c-0.3-0.1-0.5-0.3-0.8-0.4-0.2-0.1-0.5 0-0.8-0.1q-0.4-0.2-0.6-0.5c-0.3-0.3-0.6-0.8-0.4-1.2z"/>
						<path id="&lt;Path&gt;" class="s10" d="m16.8 21.6c0.4-0.7 1.5-1.3 2.4-1.1 0 0.1 0 0.1 0 0.2-0.5 0-1 0-1.4 0.3-0.4 0.2-0.7 0.5-0.9 0.8-0.4 0.9 0.3 1.8 1.3 1.9 0.2 0.1 0.6 0 0.9-0.2 0.2-0.2 0-0.6 0.1-0.9 0.1-0.1 0.2-0.2 0.3-0.2 0.5-0.2 0.9-0.3 1.3-0.5 0.1 0 0.1 0.1 0 0.1q-0.3 0.2-0.6 0.4c-0.2 0.1-0.6 0.1-0.7 0.2-0.1 0.2-0.1 0.4-0.1 0.6q0 0.2-0.1 0.4c-0.5 0.6-1.5 0.4-2 0.1-0.7-0.5-1-1.3-0.5-2.1z"/>
						<path id="&lt;Path&gt;" class="s10" d="m21.4 26.4c0.1-0.1 0.1 0 0.1 0-0.2 0.4-0.3 0.9-0.3 1.4 0 0.3 0.3 0.9 0.8 0.7 0 0 0.1 0 0.1 0.1 0.3 0.8 0.8 1.7 1.8 1.5 1-0.2 1.4-1.2 2.2-1.6 0.6-0.3 1.3-0.5 1.9-0.9 0.6-0.5 1.1-1 1.3-1.7 0-0.1 0.1-0.1 0.1 0-0.1 0.7-0.6 1.3-1.2 1.8q-0.5 0.3-1.1 0.6c-0.4 0.2-0.9 0.3-1.3 0.7-0.7 0.6-1.3 1.4-2.4 1.3-0.8-0.1-1.2-0.8-1.4-1.5-0.5 0.1-0.8-0.3-1-0.7-0.2-0.6 0.1-1.2 0.4-1.7z"/>
						<path id="&lt;Path&gt;" class="s10" d="m21.7 26.3c0-0.6 0.8-1 1.2-1.2 0.9-0.4 1.7-0.7 2.6-1.1 0.3-0.1 0.7-0.3 1.1-0.2 0.4 0 0.7 0.2 1.1 0.4 0.6 0.2 1.3 0.2 1.6 0.9-0.4-0.6-1.2-0.6-1.8-0.8-0.3-0.1-0.6-0.3-0.9-0.3-0.5-0.1-0.9 0.1-1.4 0.3-0.6 0.3-1.3 0.6-2 0.9q-0.4 0.2-0.7 0.4c-0.3 0.2-0.4 0.4-0.6 0.7 0 0.1-0.2 0.1-0.2 0z"/>
						<path id="&lt;Path&gt;" class="s10" d="m21.7 32.1q0 0 0 0c-0.1 0.4-0.2 0.6 0.1 0.9q0.2 0.3 0.5 0.4c0.4 0.1 0.9 0 1.3-0.1q0.7-0.2 1.3-0.6c0.3-0.3 0.9-0.7 0.9-1.2 0 0 0 0 0 0 0.1 0.5-0.4 0.9-0.7 1.2q-0.8 0.6-1.8 0.8c-0.5 0.1-1.1 0.1-1.5-0.2-0.3-0.2-0.5-0.9-0.1-1.2z"/>
						<path id="&lt;Path&gt;" class="s10" d="m12.5 33.4q0.8-0.1 1.6 0.1c0.6 0.2 1.2 0.4 1.8 0.5 0.4 0.1 0.9 0.1 1.3 0.4 0.3 0.2 0.5 0.6 0.3 1 0 0-0.1 0-0.1 0 0-0.3 0-0.5-0.2-0.8-0.2-0.2-0.4-0.3-0.6-0.3-0.5-0.1-0.9-0.2-1.4-0.3q-0.6-0.2-1.2-0.4c-0.5-0.2-1-0.1-1.5-0.2q0 0 0 0z"/>
						<path id="&lt;Path&gt;" class="s10" d="m11.4 35.5c0.6 0.1 1.3 0.3 1.9 0.4q0.7 0.1 1.4 0.1 0.8 0.1 1.6 0c0.3 0 0.7 0 0.9-0.3q0 0 0.1 0c0.3 0.6-2.1 0.5-2.2 0.5-1.3-0.1-2.6-0.2-3.7-0.7 0 0 0 0 0 0z"/>
						<path id="&lt;Path&gt;" class="s10" d="m5.2 25.8c-0.2-0.4-0.4-0.9-0.2-1.3 0 0.5 0.2 0.9 0.4 1.3 0.1 0.4 0.1 0.9 0.2 1.3 0.1 0.5 0.2 1 0.6 1.3q0.2 0.3 0.5 0.4c0.2 0.2 0.5 0.2 0.8 0.2 0.1 0 0.1 0.1 0.1 0.1-0.4 0.2-0.9-0.1-1.2-0.3-0.4-0.3-0.7-0.8-0.9-1.2-0.2-0.6-0.1-1.2-0.3-1.8z"/>
						<path id="&lt;Path&gt;" class="s10" d="m5.2 16.3c0.1-0.1 0.2-0.1 0.2-0.2 0-0.1-0.1-0.3-0.1-0.4 0.1-0.3 0.2-0.6 0.5-0.6 0 0 0 0.1 0 0.1-0.3 0.2-0.2 0.5-0.2 0.9 0 0.1 0 0.1-0.1 0.2 0 0-0.1 0-0.1 0-0.1 0.2 0.1 0.4 0.3 0.4 0.1 0.1 0.4 0.1 0.5 0.1 0.1 0 0.1 0 0 0-0.3 0.2-1.1 0-1-0.5z"/>
						<path id="&lt;Path&gt;" class="s10" d="m7.9 13.4c0.1-0.2 0.3-0.5 0.5-0.4q0.1 0 0 0c-0.2 0.3-0.4 0.5-0.1 0.9 0.1 0.1 0.1 0.1 0.1 0.2 0.1 0.3 0.1 0.6 0.3 0.8 0.2 0.2 0.5 0.2 0.7 0.2 0.1 0 0.1 0.1 0 0.1-0.1 0.2-0.5 0.1-0.7 0-0.3-0.2-0.3-0.6-0.4-0.9 0-0.4-0.5-0.5-0.4-0.9z"/>
						<path id="&lt;Path&gt;" class="s10" d="m10.1 28.1q1-1.2 2.6-1.2 1.3-0.1 2.7 0.2c0.8 0.3 1.7 0.6 2.4 1.2 0.7 0.4 1.4 1.1 1.7 1.8q0 0.1-0.1 0.1c-0.2-0.4-0.4-0.7-0.7-1.1q-0.5-0.4-1-0.8c-0.7-0.5-1.5-0.8-2.4-1q-1.2-0.3-2.5-0.3c-0.5 0.1-1 0.1-1.4 0.3-0.5 0.3-0.8 0.6-1.2 0.9-0.1 0-0.1-0.1-0.1-0.1z"/>
						<path id="&lt;Path&gt;" class="s10" d="m9.8 30c0-0.1 0.1-0.1 0.2 0 0.3 0.8 0.9 1.4 1.7 1.8 0.6 0.4 1.4 0.6 2.2 0.4 0.6-0.2 1.1-0.8 1.8-0.8 0.8-0.1 1.4 0.6 2.1 0.8-0.9-0.1-1.6-1-2.5-0.5-0.4 0.1-0.7 0.4-1 0.6q-0.6 0.2-1.1 0.2c-0.8-0.1-1.5-0.4-2.1-0.8-0.5-0.4-1.2-1-1.3-1.7z"/>
						<path id="&lt;Path&gt;" class="s10" d="m15.8 34.6c0.1-0.2 0.4-0.2 0.6-0.2 0.1 0 0.4 0.1 0.4 0.3h0.1c0 0 0 0.1-0.1 0.2-0.3 0.2-0.7 0-1-0.1 0-0.1-0.1-0.2 0-0.2z"/>
						<path id="&lt;Path&gt;" class="s10" d="m14.6 34.1c0.2 0 0.2 0.2 0.1 0.3-0.2 0-0.2-0.2-0.1-0.3z"/>
						<path id="&lt;Path&gt;" class="s10" d="m31.6 13.2c0.1-0.3 0.3-0.5 0.5-0.6 0.1 0 0.1 0.1 0.1 0.2-0.1 0.1-0.3 0.1-0.3 0.3q-0.1 0.2-0.1 0.5c0 0.1 0 0.3 0 0.4q-0.1 0-0.2 0c-0.2-0.2-0.1-0.6 0-0.8z"/>
						<path id="&lt;Path&gt;" class="s10" d="m31 16.9c0-0.3 0.2-0.6 0.2-0.9 0.1-0.4-0.1-0.8-0.2-1.2-0.2-0.4-0.1-0.8 0-1.3 0-0.2 0.1-0.8 0.5-0.6q0 0 0 0c-0.3 0.2-0.3 0.6-0.4 1 0 0.2-0.1 0.5 0 0.7 0.1 0.3 0.2 0.5 0.3 0.7 0.1 0.5 0 0.9-0.1 1.3q-0.2 0.4-0.1 0.9c0.1 0.3 0.3 0.5 0.5 0.8 0 0 0 0.1-0.1 0.1-0.4-0.3-0.6-1-0.6-1.5z"/>
						<path id="&lt;Path&gt;" class="s10" d="m28.5 8q0-0.1 0-0.2 0 0 0.1-0.1c0-0.1 0.1-0.1 0.2 0q0.1 0 0.2 0.1c0.2 0.2 0.4 0.5 0.3 0.8q0 0 0 0 0 0 0 0-0.1 0.1-0.1 0.1c0 0.1-0.2 0.1-0.3 0-0.1-0.2-0.3-0.5-0.4-0.7z"/>
						<path id="&lt;Path&gt;" class="s10" d="m28.1 7.2q0.1 0 0.1 0c0.1 0 0.2 0.2 0 0.3q0 0 0 0c-0.1 0-0.2-0.2-0.1-0.3z"/>
						<g id="&lt;Group&gt;">
							<path id="&lt;Compound Path&gt;" class="s10" d="m20.7 5.4c0.2 0.8 1.5 1 1.8 0.2 0.1-0.5-0.3-0.9-0.7-1.1q-0.3 0-0.5 0c-0.3 0-0.5 0.2-0.6 0.4-0.1 0.1-0.1 0.3 0 0.5z"/>
							<path id="&lt;Path&gt;" class="s10" d="m21.7 4.8z"/>
						</g>
						<path id="&lt;Path&gt;" class="s10" d="m20.3 4.3c0.3-0.1 0.4 0.2 0.1 0.3-0.2 0.1-0.3-0.3-0.1-0.3z"/>
						<path id="&lt;Path&gt;" class="s10" d="m20.2 17.3c0-0.2 0.1-0.3 0.3-0.3q0.3 0 0.5 0.2c0.1 0.1 0.2 0.3 0.2 0.5q0 0.1 0 0.1c0.1 0.2-0.1 0.4-0.3 0.3-0.3-0.1-0.6-0.4-0.7-0.8z"/>
						<path id="&lt;Path&gt;" class="s10" d="m21.6 17.6c0.3-0.1 0.4 0.3 0.2 0.4-0.3 0.1-0.4-0.3-0.2-0.4z"/>
						<path id="&lt;Path&gt;" class="s10" d="m20 11.2c0.2 0.1 0.5 0.3 0.7 0.5 0.1 0.1 0.2 0.2 0.2 0.4 0.1 0.5-0.6 0.4-0.8 0.2-0.3-0.1-0.7-0.4-0.8-0.7-0.1-0.4 0.4-0.6 0.7-0.4z"/>
						<path id="&lt;Path&gt;" class="s10" d="m20.3 11.3q0 0 0 0c0-0.1 0-0.2 0-0.2h0.1-0.1q0.1-0.1 0.2 0 0.1 0 0.1 0.1c0 0.1-0.2 0.2-0.3 0.1z"/>
						<path id="&lt;Path&gt;" class="s10" d="m25.7 15c0.1-0.2 0.2-0.3 0.4-0.3 0.2 0 0.3 0.1 0.4 0.3q0 0.1 0 0.2 0 0.2-0.1 0.2c-0.2 0.1-0.4 0.1-0.5 0-0.2-0.1-0.2-0.3-0.2-0.4z"/>
						<path id="&lt;Path&gt;" class="s10" d="m27.8 16.6q0 0 0 0c-0.1-0.2 0.3-0.3 0.4-0.1q0 0 0 0c0.1 0.1 0 0.3-0.1 0.3-0.2 0.1-0.3 0-0.3-0.2z"/>
						<path id="&lt;Path&gt;" class="s10" d="m28.2 19.5c0.2-0.2 0.4-0.3 0.6-0.2q0.1 0 0.2 0.1 0 0 0.1 0.1c0.1 0.1 0.1 0.2 0.1 0.4-0.1 0.1-0.2 0.2-0.4 0.2-0.2 0-0.4-0.1-0.5-0.3-0.1-0.1-0.1-0.2-0.1-0.3z"/>
						<path id="&lt;Path&gt;" class="s10" d="m29 18.9q0 0 0 0c0.1-0.1 0.2 0 0.2 0.1 0.1 0.1 0 0.2-0.1 0.2h-0.1c-0.1-0.1-0.1-0.2 0-0.3z"/>
						<path id="&lt;Path&gt;" class="s10" d="m10.9 13.6c0-0.3 0.3-0.5 0.6-0.3 0.2 0.1 0.4 0.5 0.2 0.8q-0.1 0.1-0.2 0.1 0 0 0 0c-0.4 0.3-0.6-0.3-0.6-0.6z"/>
						<path id="&lt;Path&gt;" class="s10" d="m16.8 10.4c0.2-0.1 0.4 0.3 0.1 0.3-0.2 0.1-0.3-0.2-0.1-0.3z"/>
						<path id="&lt;Path&gt;" class="s10" d="m11.5 14.5c0-0.1 0.2-0.2 0.2-0.1q0 0 0.1 0c0 0.2-0.2 0.3-0.3 0.1q0 0 0 0z"/>
						<path id="&lt;Path&gt;" class="s10" d="m13.2 4.4q0-0.1 0.1-0.2c0.3-0.4 1.1 0.1 1.1 0.5 0.1 0.2 0 0.3-0.1 0.3-0.4 0.1-1-0.1-1.1-0.5q0-0.1 0-0.1z"/>
						<path id="&lt;Path&gt;" class="s10" d="m14.2 4c0-0.1 0.1-0.1 0.2-0.1 0.1 0.1 0.1 0.2 0.1 0.3q-0.1 0.1-0.2 0.1c-0.1-0.1-0.2-0.2-0.1-0.3z"/>
						<path id="&lt;Path&gt;" class="s10" d="m5.6 8.7c0.1-0.1 0.2-0.2 0.3-0.1q0.1 0.1 0.2 0.2 0.1 0 0.1 0c0.1 0.1 0.2 0.3 0.1 0.4q0 0 0 0.1 0 0 0 0c0 0.1-0.2 0.2-0.4 0.1q-0.1-0.1-0.2-0.3c-0.1-0.1-0.2-0.3-0.1-0.4z"/>
						<path id="&lt;Path&gt;" class="s10" d="m6 9.8c0.1-0.2 0.4 0 0.3 0.2q0 0 0 0c-0.1 0.2-0.4 0-0.3-0.2z"/>
						<path id="&lt;Path&gt;" class="s10" d="m13.4 26.6c1.2-0.4 2.6 0.1 3.7 0.6 0.9 0.4 2.4 1.2 2.4 2.3 0 0.2-0.1 0.2-0.2 0.2-0.4-0.4-0.6-0.9-1.1-1.3-0.5-0.3-1-0.6-1.6-0.8-0.6-0.3-1.2-0.5-1.9-0.6-0.5 0-0.9 0-1.4-0.2-0.1 0 0-0.2 0.1-0.2z"/>
						<path id="&lt;Path&gt;" class="s10" d="m4.1 20.7c0.1-0.6 0.2-1 0.1-1.6-0.1-0.6 0-1.2-0.1-1.8q0 0 0 0c0.4 0.5 0.1 1.4 0.2 2 0.1 0.5 0.2 1.1-0.2 1.5 0 0-0.1 0 0-0.1z"/>
						<path id="&lt;Path&gt;" class="s10" d="m24.1 16.2c0.7-0.6 1.8-1 2.6-0.4 0.4 0.3 1.7 1.6 1.1 2.1q0 0 0 0c-0.2-0.2-0.2-0.5-0.3-0.8-0.2-0.3-0.5-0.7-0.8-0.9-0.8-0.7-1.7-0.3-2.5 0.2-0.1 0-0.2-0.1-0.1-0.2z"/>
						<path id="&lt;Path&gt;" class="s10" d="m19.2 20.1c0-0.4 0.5-0.5 0.8-0.6 0.3 0 0.6 0 0.8 0.2 0.3 0.3 0.8 1.1 0.4 1.5-0.1 0-0.1 0-0.1-0.1-0.1-0.4-0.1-0.8-0.5-1.1-0.2-0.2-0.4-0.2-0.7-0.1-0.2 0-0.4 0.2-0.6 0.3-0.1 0-0.1-0.1-0.1-0.1z"/>
						<path id="&lt;Path&gt;" class="s10" d="m14.9 6.2c0.3-0.5 1.1 0.1 1.4 0.4q0 0-0.1 0c-0.4-0.1-0.8-0.6-1.3-0.4q0 0 0 0z"/>
						<path id="&lt;Path&gt;" class="s10" d="m10.2 13.5c-0.2-0.4-0.6-0.6-1-0.8 0.9 0.1 1.6 1.3 0.9 2.1-0.1 0-0.1 0-0.1-0.1 0.2-0.4 0.4-0.7 0.2-1.2z"/>
						<path id="&lt;Path&gt;" class="s10" d="m21.9 31.9c0.1-0.5 0.6-0.4 1-0.4 0.6 0.1 0.9 0 1.4-0.3 0.2-0.2 0.4-0.3 0.7-0.3q0.1 0 0 0.1c-0.5 0.1-0.7 0.6-1.3 0.8-0.6 0.1-1.1-0.3-1.7 0.2-0.1 0-0.1-0.1-0.1-0.1z"/>
						<path id="&lt;Path&gt;" class="s10" d="m14.9 23c0.4-0.3 1.3-0.4 1.6 0.1q0 0.1 0 0.1c-0.3-0.1-0.5-0.3-0.8-0.3-0.3 0-0.5 0.1-0.8 0.1q0 0 0 0z"/>
						<path id="&lt;Path&gt;" class="s10" d="m5.3 24.3c0.4-0.1 0.7 0.1 1 0.4 0.1 0.2 0.2 0.5 0.3 0.7 0.2 0.2 0.4 0.4 0.6 0.6 0.7 0.5 1.4 1.6 0.9 2.5 0 0-0.1 0-0.1 0 0-0.6-0.1-1.1-0.4-1.6-0.2-0.5-0.6-0.7-1-1-0.1-0.2-0.2-0.3-0.3-0.5-0.2-0.3-0.3-0.6-0.5-0.8-0.2-0.1-0.3-0.2-0.5-0.3q0 0 0 0z"/>
						<path id="&lt;Path&gt;" class="s10" d="m31.3 19.5c0 0 0 0 0 0 0.3 0 0.5 0.2 0.6 0.6 0.2 0.2 0.3 0.7 0.1 1q0 0 0-0.1c0-0.3-0.1-0.5-0.3-0.8-0.1-0.2-0.2-0.5-0.4-0.7z"/>
						<path id="&lt;Path&gt;" class="s2" d="m32.2 17.4c0.3-0.1 0.5 0.2 0.5 0.5 0 0.2 0 0.3-0.1 0.5 0 0.1-0.2 0.1-0.3 0-0.3-0.2-0.6-0.8-0.1-1z"/>
						<path id="&lt;Path&gt;" class="s2" d="m32.8 18.7c0-0.1 0.1-0.2 0.2-0.2 0.1-0.1 0.2 0 0.2 0.1q0 0 0 0c0.1 0.3-0.3 0.4-0.4 0.1q0 0 0 0z"/>
						<path id="&lt;Path&gt;" class="s2" d="m4.9 13.9q0.1-0.2 0.2-0.1c0.1-0.1 0.1-0.1 0.2 0q0 0 0.1 0 0 0.1 0.1 0.2 0 0.2-0.1 0.5c0 0.2-0.1 0.5-0.3 0.6-0.1 0.1-0.3 0.1-0.3-0.1-0.2-0.3-0.1-0.8 0.1-1.1z"/>
						<path id="&lt;Path&gt;" class="s2" d="m4.2 14.9c0.2 0 0.3 0.1 0.3 0.2 0.1 0.1 0 0.2-0.1 0.2-0.1 0.1-0.3 0-0.3-0.1 0-0.1 0-0.2 0.1-0.3z"/>
						<path id="&lt;Path&gt;" class="s2" d="m2.9 15.6c0-0.2 0.1-0.3 0.2-0.3 0.2-0.1 0.4-0.1 0.5 0q0.2 0.1 0.3 0.1c0.1 0.1 0.2 0.3 0.1 0.4-0.4 0.3-1 0.2-1.1-0.2z"/>
						<path id="&lt;Path&gt;" class="s2" d="m11.2 33.7c0-0.1 0.1-0.2 0.2-0.1q0.2-0.1 0.3-0.1c0.2 0 0.5 0 0.6 0.2 0.1 0.1 0 0.3-0.1 0.3-0.3 0.1-0.6 0.1-0.9 0-0.1 0-0.2-0.1-0.1-0.3z"/>
						<path id="&lt;Path&gt;" class="s2" d="m10.2 34.9c0.1-0.7 0.9-0.8 1.6-0.7 0.7 0 2-0.3 2.5 0.2q0.1 0 0 0.1c-0.3 0-0.7-0.1-1-0.1-0.4 0-0.7 0.1-1.1 0.1-0.6-0.1-1.5-0.2-1.8 0.5-0.1 0.1-0.2 0-0.2-0.1z"/>
						<path id="&lt;Path&gt;" class="s2" d="m15.1 19.9c0-0.4-0.1-0.9 0-1.3 0.2-0.4 0.6-0.4 0.9-0.5 0.4-0.1 0.9-0.2 1.3 0q0 0 0 0c-0.6 0-1.8-0.1-2 0.6-0.1 0.4 0 0.8 0.1 1.2q0.1 0.3 0.2 0.5c0.1 0.3 0.2 0.3 0.4 0.2 0.5-0.2 1-0.5 1.3-0.8 0.3-0.3 0.9-0.8 0.4-1.1-0.4-0.1-0.9 0-1.3 0.1-0.3 0.1-0.6 0.2-0.5 0.7q0.1 0.2 0.2 0.5 0.4-0.2 0.8-0.4c0.1-0.1 0.4-0.4 0-0.4-0.2 0-0.4 0.1-0.5 0.3 0 0.2-0.2 0.1-0.2 0 0.1-0.4 1-0.8 1.1-0.3 0.2 0.6-0.8 0.9-1.2 1q-0.1 0.1-0.1 0c-0.2-0.3-0.5-0.8-0.3-1.2 0.2-0.4 0.7-0.5 1.1-0.5 0.4-0.1 0.9-0.1 1.2 0.2 0.3 0.2 0.1 0.5-0.1 0.8-0.3 0.4-0.7 0.8-1.2 1-0.2 0.2-0.7 0.6-1.1 0.4-0.3-0.2-0.4-0.7-0.5-1z"/>
						<path id="&lt;Path&gt;" class="s2" d="m26.9 13.8c0.2-0.5 0.2-0.9 0.6-1.3 0.2-0.2 0.6-0.5 0.9-0.4 0.3 0.1 0.3 0.6 0.2 0.8-0.2 0.4-0.7 0.6-1.1 0.7 0 0-0.1-0.1-0.1-0.1 0.2-0.3 0.3-0.7 0.6-0.9 0.1 0 0.2 0.1 0.1 0.2-0.2 0.2-0.3 0.4-0.5 0.6 0.5-0.1 1-0.3 1-0.8 0-0.7-0.8-0.2-1 0.1-0.3 0.2-0.4 0.6-0.4 1-0.1 0.2 0 0.2 0.2 0.2q0.2 0 0.4-0.1c0.6-0.3 1.4-0.9 1.1-1.6-0.2-0.5-0.8-0.5-1.2-0.2-0.3 0.1-0.5 0.4-0.8 0.6 0 0 0 0 0-0.1 0.3-0.4 0.8-0.9 1.3-0.9 0.5 0 0.9 0.5 0.9 1-0.1 0.5-0.5 0.9-0.9 1.2-0.4 0.2-0.9 0.4-1.3 0.1q0 0 0-0.1z"/>
						<path id="&lt;Path&gt;" class="s2" d="m3.4 23.4c0-0.4 0.3-1.3 0.9-1 0.3 0.2 0.3 0.6 0.2 0.9 0 0.3-0.3 0.4-0.6 0.3q-0.1 0-0.1 0 0-0.4 0.1-0.8 0-0.1 0.1-0.1c0.1 0 0.2 0 0.3 0.1 0 0.1 0 0.2-0.1 0.1-0.2-0.1-0.3 0.3-0.2 0.4 0 0.3 0.2 0.3 0.4 0.1q0-0.1 0.1-0.3c0-0.2-0.1-0.4-0.2-0.5-0.3-0.2-0.6-0.1-0.7 0.2-0.2 0.4-0.1 0.9 0.2 1.1 0.2 0.1 0.4 0.1 0.6 0 0.1 0 0.3 0 0.4-0.1 0.3-0.2 0.1-0.9 0-1.2-0.2-0.2-0.3-0.4-0.6-0.5-0.2 0-0.4 0-0.7 0.1q0 0 0-0.1c0.4-0.4 1 0 1.3 0.3q0.3 0.4 0.3 0.8c0 0.2 0 0.6-0.2 0.7 0 0-0.2 0-0.2 0q-0.2 0.1-0.3 0.1-0.2 0.1-0.4 0.1c-0.4 0-0.5-0.3-0.6-0.7z"/>
						<path id="&lt;Path&gt;" class="s2" d="m26.5 31c0-0.2 0.2-0.4 0.3-0.5 0.2-0.3 0.7-0.9 1.1-0.8 0.3 0.2 0.3 0.7 0.1 0.9-0.2 0.3-0.7 0.8-1 0.8q-0.1 0-0.1 0c0-0.4 0.3-0.8 0.6-1 0.1-0.1 0.2 0 0.1 0.1q-0.3 0.2-0.5 0.5c0 0-0.1 0.2-0.1 0.3 0.1 0 0.3-0.2 0.3-0.2 0.3-0.2 0.8-0.6 0.6-1-0.1-0.6-0.8 0.3-1 0.5-0.2 0.2-0.3 0.4-0.2 0.7 0 0.1 0 0.2 0 0.3 0.2 0.1 0.3 0 0.5-0.1 0.4-0.2 0.8-0.6 1-1 0.2-0.3 0.3-0.9 0-1.2-0.7-0.6-1.6 0.8-1.8 1.3q-0.1 0-0.1 0c0.2-0.5 0.5-1 0.9-1.3 0.3-0.3 0.9-0.5 1.2-0.1 0.3 0.4 0.1 1-0.1 1.4-0.3 0.6-0.9 1.1-1.6 1.2q0 0 0 0c-0.1-0.3-0.2-0.5-0.2-0.8z"/>
						<path id="&lt;Path&gt;" class="s2" d="m10.7 5.8c0-0.3 0.2-0.7 0.5-0.9 0.2-0.2 0.6-0.3 0.9-0.1 0.3 0.2 0.3 0.6 0.4 0.9q0 0.1-0.1 0.1c-0.3 0.1-0.8 0.4-1.1 0.1q0 0 0-0.1c0.1-0.2 0.1-0.4 0.2-0.6q0 0 0 0 0.2 0 0.4 0c0.1 0.1 0.1 0.2 0 0.2-0.1-0.1-0.3-0.1-0.3 0-0.1 0-0.1 0.2-0.1 0.3 0 0.1-0.1 0.1 0 0.2 0 0 0.2 0 0.2 0q0.2 0 0.5-0.1c0.1-0.1 0.1-0.1 0.1-0.2-0.1-0.3-0.2-0.7-0.6-0.7-0.4-0.1-0.7 0.4-0.8 0.7-0.2 0.7 1.1 0.7 1.5 0.5 0.2 0 0.2-0.2 0.3-0.4 0-0.2 0-0.5-0.1-0.6-0.2-0.5-0.7-0.5-1.1-0.4q0 0 0 0c0.2-0.3 0.7-0.2 0.9 0 0.4 0.2 0.4 0.6 0.4 1 0 0.3-0.1 0.5-0.4 0.5-0.3 0.1-0.7 0.2-1.1 0.1-0.2 0-0.5-0.2-0.6-0.5z"/>
						<path id="&lt;Path&gt;" class="s8" d="m27.1 12.9c0.1-0.3 0.4-0.8 0.7-0.7 0.1 0 0.1 0 0 0.1-0.4 0.2-1 0.9-0.9 1.5 0.2 0.5 0.9 0.3 1.2 0.1 0.3-0.2 0.6-0.6 0.9-0.8-0.1 0.4-0.7 0.9-1.2 1-0.3 0.2-0.8 0.2-0.9-0.2-0.2-0.3 0-0.8 0.2-1z"/>
						<path id="&lt;Path&gt;" class="s8" d="m28.1 13.2c0-0.1 0-0.1 0.1-0.1q0.1-0.1 0.2-0.3 0.1-0.3-0.2-0.5c0-0.1 0-0.1 0.1-0.1 0.6 0.1 0.1 1.2-0.2 1.1q0-0.1 0-0.1z"/>
						<path id="&lt;Path&gt;" class="s8" d="m27.4 13.3c0-0.3 0.3-0.5 0.5-0.6q0 0 0 0c-0.2 0.1-0.3 0.3-0.4 0.5 0 0.1-0.1 0.2 0 0.3 0 0.1 0.2 0 0.3 0.1q0 0 0 0c-0.2 0.2-0.5-0.1-0.4-0.3z"/>
						<path id="&lt;Path&gt;" class="s11" d="m27.2 12.5q0 0 0 0c0 0.3-0.2 0.6-0.3 0.8 0 0.2 0 0.4 0.1 0.6 0.1 0.1 0.2 0.2 0.4 0.3 0 0 0 0.1-0.1 0.1-0.9 0-0.5-1.4-0.1-1.8z"/>
						<path id="&lt;Path&gt;" class="s11" d="m28.2 13.1c0.1-0.1 0.1-0.1 0.2-0.2q0.1-0.1 0.1-0.3 0-0.1-0.1-0.2c0-0.1-0.1-0.1-0.2-0.1q-0.1 0 0-0.1c0.2-0.2 0.4 0.2 0.4 0.4 0.1 0.2-0.1 0.6-0.3 0.6q-0.1 0-0.1-0.1z"/>
						<path id="&lt;Path&gt;" class="s11" d="m28 11.9c0-0.2 0.4-0.1 0.6 0 0.2 0.1 0.3 0.4 0.2 0.6 0 0.1 0 0 0 0 0-0.2-0.1-0.4-0.3-0.6q-0.1 0-0.3 0c0 0-0.1 0.1-0.2 0.1q0 0 0-0.1z"/>
						<path id="&lt;Path&gt;" class="s11" d="m10.8 5.4c0-0.1 0-0.1 0 0 0 0.2-0.1 0.5 0.1 0.7 0.2 0.2 0.4 0.2 0.6 0.2 0.5 0.1 0.9-0.1 1.3-0.2 0 0 0.1 0.1 0 0.1-0.2 0.1-0.5 0.2-0.8 0.2-0.2 0.1-0.5 0.1-0.8 0-0.4-0.1-0.7-0.6-0.4-1z"/>
						<path id="&lt;Path&gt;" class="s11" d="m12 4.7c0.3 0 0.5 0.1 0.6 0.3 0.1 0.3 0.1 0.6 0 0.8q0 0 0 0c-0.1-0.2 0-0.4-0.1-0.6-0.1-0.2-0.2-0.4-0.5-0.5z"/>
						<path id="&lt;Path&gt;" class="s11" d="m11.8 4.9c0.3 0.1 0.4 0.4 0.4 0.7 0-0.2-0.2-0.5-0.4-0.6q-0.2 0-0.3 0.1c-0.1 0-0.2 0.1-0.3 0.1q0 0 0 0c0-0.3 0.4-0.4 0.6-0.3z"/>
						<path id="&lt;Path&gt;" class="s11" d="m11.3 6q0-0.2 0-0.4c0-0.1 0.1-0.3 0.1-0.4 0.1 0 0.1 0 0.1 0 0 0.2 0 0.3-0.1 0.4q0 0.2 0 0.4c0.2 0 0.5-0.1 0.8-0.1q0 0 0 0c-0.3 0.2-0.6 0.2-0.9 0.2q0-0.1 0-0.1z"/>
						<path id="&lt;Path&gt;" class="s11" d="m11.7 5.3c0.1 0 0.2 0 0.2 0 0.1 0 0 0.1 0 0.1q-0.1-0.1-0.1 0 0 0 0 0-0.1 0-0.1 0 0-0.1 0-0.1z"/>
						<path id="&lt;Path&gt;" class="s11" d="m11.3 15.4c0.1 0.3 0 0.7 0.3 1q0.3 0.3 0.6 0.4c0.3 0.2 1 0.5 1.1 0 0 0 0.1 0 0.1 0 0.2 0.7-0.8 0.4-1.1 0.2-0.5-0.3-1.5-0.9-1-1.6z"/>
						<path id="&lt;Path&gt;" class="s11" d="m3.6 22.5c0.1 0 0.1 0 0.1 0-0.2 0.3-0.3 0.6-0.3 0.9 0.1 0.4 0.3 0.8 0.7 0.7 0.3 0 0.7-0.3 0.9 0q0 0 0 0c-0.4-0.1-0.6 0.1-0.9 0.1q-0.3 0.1-0.6-0.2c-0.2-0.3-0.2-1.2 0.1-1.5z"/>
						<path id="&lt;Path&gt;" class="s11" d="m3.7 22.1c0.4-0.1 0.7 0.1 0.9 0.4 0.2 0.3 0.5 0.9 0.3 1.1q0 0.1-0.1 0c0-0.1 0-0.2 0-0.3q-0.1-0.2-0.2-0.5c-0.2-0.4-0.4-0.6-0.8-0.6q-0.1 0-0.1-0.1z"/>
						<path id="&lt;Path&gt;" class="s2" d="m17.8 26.5c0.5 0.4 0.8 0.9 1.4 0.9 0.3 0.1 0.6 0 0.9-0.2 0.2-0.1 0.2-0.4 0.3-0.7 0.2-0.9 0.2-2.1 1-2.8 0.9-0.9 2.3-0.5 3.5-0.5 0.7 0 1.3-0.2 2-0.4 0.5-0.2 1.1-0.4 1.7-0.3 0.7 0.1 1.1 0.6 1.5 1.1 0.3 0.3 0.6 0.6 1 0.7 0.4 0.1 0.8 0 1.2-0.1 0 0 0.1 0.1 0 0.1-0.5 0.2-1.1 0.3-1.6 0.1-0.6-0.3-0.8-1-1.3-1.4-1.3-1-2.8 0.3-4.2 0.4-1.3 0.1-3.2-0.6-4 0.8-0.3 0.5-0.4 1.1-0.5 1.6-0.1 0.5-0.1 1.1-0.3 1.5-0.3 0.4-1 0.4-1.5 0.3-0.5-0.1-0.8-0.6-1.1-1 0-0.1 0-0.1 0-0.1z"/>
						<path id="&lt;Path&gt;" class="s2" d="m10.2 17c0.5-0.2 1.2 0.1 1.5 0.3q0.8 0.5 1.3 1.1c0.4 0.6 0.8 1.2 0.9 1.8 0.2 0.7 0.3 1.5 0.1 2.2 0 0.1-0.1 0.1-0.1 0-0.1-0.6 0-1.3-0.1-1.9q-0.3-1-0.9-1.8c-0.3-0.5-0.7-0.9-1.2-1.1q-0.4-0.3-0.8-0.4c-0.2 0-0.4-0.1-0.7-0.2q0 0 0 0z"/>
						<path id="&lt;Path&gt;" class="s2" d="m8.9 26.3c0.3 0.1 0.6 0.4 0.8 0.7 0.1 0.1 0.4 0.5 0.2 0.7 0 0-0.1 0.1-0.1 0-0.1-0.1-0.1-0.2-0.1-0.3q-0.2-0.3-0.3-0.5c-0.2-0.2-0.5-0.3-0.5-0.6q0 0 0 0z"/>
						<path id="&lt;Path&gt;" class="s2" d="m17.3 32.5c0.3 0.1 0.6 0.3 0.9 0.3 0.4 0.1 0.8 0 1.1-0.3 0.4-0.3 0.7-0.8 1-1.2 0.5-0.4 1.5-1.4 2.2-0.8l-0.1 0.1c-1.1-0.1-1.8 0.7-2.5 1.6-0.3 0.4-0.7 0.8-1.2 0.9-0.5 0.1-1.1-0.1-1.4-0.4-0.1-0.1 0-0.2 0-0.2z"/>
						<path id="&lt;Path&gt;" class="s2" d="m17 17.8c0.4 0.1 0.8 0.1 1.3 0.1 0.4-0.1 0.8-0.1 1.2 0 0.9 0.2 1.4 1.1 1.9 1.8 0.7 0.9 1.4 1.6 2.5 1.9q0.8 0.3 1.6 0.3c0.5 0 0.9-0.1 1.4-0.1q0 0 0 0c-0.7 0.5-1.9 0.3-2.7 0.1-1-0.2-1.8-0.7-2.5-1.4-0.7-0.8-1.1-2.1-2.2-2.4-0.5-0.1-1 0-1.4 0-0.4 0.1-0.9 0.1-1.2-0.1 0-0.1 0-0.2 0.1-0.2z"/>
						<path id="&lt;Path&gt;" class="s2" d="m10 14.6c0.4 0.3 0.6 0.8 0.9 1.2 0.3 0.4 0.7 0.8 1.1 1.2 0.5 0.3 1 0.6 1.5 0.7q0.7 0.3 1.4 0.5 0 0 0 0.1c-1-0.3-2-0.4-2.9-1.1-0.4-0.3-0.7-0.7-1.1-1.1-0.3-0.5-0.7-0.9-1-1.5 0 0 0 0 0.1 0z"/>
						<path id="&lt;Path&gt;" class="s10" d="m25.4 6.3c0.5-0.2 1.2 0.1 1.6 0.3 0.6 0.3 1 0.8 1.4 1.3q0.6 0.8 0.9 1.7 0.1 0.4 0.2 0.9c0 0.4 0 1-0.1 1.4-0.1 0-0.1 0-0.2 0 0-0.4 0.1-0.8 0.1-1.2q0-0.5-0.2-0.9-0.3-0.9-0.8-1.6c-0.3-0.5-0.8-1-1.3-1.3q-0.3-0.3-0.7-0.4c-0.3-0.1-0.6-0.1-0.9-0.1q0 0 0-0.1z"/>
						<path id="&lt;Path&gt;" class="s10" d="m27 15.9c0.2-0.2 0.4-0.3 0.5-0.7 0.1-0.3 0-0.6 0-0.9q0-0.1 0 0c0.4 0.4 0.2 1.6-0.5 1.7 0 0-0.1 0 0-0.1z"/>
						<path id="&lt;Path&gt;" class="s10" d="m16.6 4.8q0.8-0.2 1.6 0 0.5 0.1 1.1 0.3c0.3 0 0.6 0.1 1 0.2q0 0.1-0.1 0.1c-0.5 0-1.1-0.3-1.6-0.4q-0.9-0.2-1.7-0.1c-0.5 0.1-0.9 0.2-1.3 0.4-0.4 0.2-0.6 0.5-0.7 0.9 0 0.1-0.1 0.1-0.1 0-0.4-0.9 1.2-1.3 1.8-1.4z"/>
						<path id="&lt;Path&gt;" class="s10" d="m22.9 4.9c0.5-0.1 1.1-0.1 1.5 0.2 0.2 0.1 0.3 0.3 0.4 0.6q0.1 0.3 0.4 0.4c0.2 0.1 0.3 0.1 0.4 0.2 0 0 0 0.1-0.1 0.1-0.4 0-0.7-0.3-0.9-0.7-0.1-0.2-0.1-0.3-0.3-0.5q-0.3-0.1-0.5-0.2c-0.3 0-0.6-0.1-0.9-0.1 0 0 0 0 0 0z"/>
						<path id="&lt;Path&gt;" class="s10" d="m9.5 11.5c0.1-0.2 0.3-0.4 0.4-0.6 0.3-0.4 0-0.9-0.3-1.2-0.4-0.3-1-0.5-1.2-1-0.2-0.4-0.1-1 0.1-1.4q0.1 0 0.1 0c-0.2 0.6-0.3 1.3 0.3 1.7 0.4 0.3 0.8 0.5 1.1 0.9 0.3 0.4 0.3 0.8 0.1 1.2-0.1 0.2-0.3 0.3-0.4 0.4-0.2 0.3-0.2 0.4-0.1 0.7 0 0.1-0.1 0.2-0.1 0.1-0.4-0.2-0.2-0.6 0-0.8z"/>
						<path id="&lt;Path&gt;" class="s10" d="m30.6 19.3c0.2-0.1 0.3-0.1 0.3-0.3 0-0.2-0.1-0.3-0.1-0.5q-0.2-0.3-0.4-0.7c-0.1-0.1-0.3-0.3-0.1-0.5 0-0.1 0.1-0.1 0.2-0.2q0.3-0.2 0.5-0.5-0.2 0.4-0.4 0.7c-0.2 0.1-0.3 0.1-0.2 0.3 0.1 0.3 0.3 0.5 0.5 0.7 0.1 0.3 0.4 1.2-0.2 1.1-0.1 0-0.1 0-0.1-0.1z"/>
						<path id="&lt;Path&gt;" class="s10" d="m21.7 22.4c0-0.2 0-0.4 0-0.7 0-0.3-0.1-0.6-0.1-0.9 0.2 0.4 0.3 0.9 0.3 1.4-0.1 0.3 0 0.8 0.5 0.7 0.1 0 0.3-0.1 0.5-0.2 0.5-0.1 0.9 0.2 1.3 0.3 0.4 0.1 0.7 0.1 1-0.1 0.2-0.1 0.3-0.2 0.5-0.3 0.2-0.1 0.4 0 0.6-0.1q0.5 0 0.9 0c0.5-0.1 1-0.2 1.6-0.2 0.7 0 1.4 0.3 1.6 1.1 0 0.1-0.1 0.1-0.1 0.1-0.3-0.5-0.5-0.8-1-0.9-0.5-0.2-1-0.1-1.5 0q-0.9 0.1-1.7 0.2c-0.5 0-0.8 0.4-1.3 0.4-0.6 0.1-1-0.2-1.5-0.3-0.3 0-0.5 0-0.8 0.1-0.1 0.1-0.2 0.1-0.3 0.1-0.3 0-0.5-0.4-0.5-0.7z"/>
						<path id="&lt;Path&gt;" class="s10" d="m16.5 17c0.4-0.1 0.5 0.1 0.8 0.3 0.4 0.5 0.7 0.3 1.3 0.2 0.8-0.1 1.4 0.4 2.1 0.9 0 0 0 0.1-0.1 0-0.3-0.1-0.6-0.4-0.9-0.6-0.5-0.2-1-0.2-1.5-0.1-0.2 0.1-0.5 0.1-0.7 0-0.2-0.1-0.3-0.2-0.4-0.4-0.2-0.2-0.3-0.2-0.6-0.3-0.1 0-0.1 0 0 0z"/>
						<path id="&lt;Path&gt;" class="s5" d="m19.8 33.7c0.1 0 0.4-0.1 0.4 0.1 0.1 0.2-0.1 0.3-0.2 0.4-0.1 0-0.1-0.1-0.1-0.1 0-0.1 0.2-0.2 0.2-0.2 0-0.1-0.2-0.1-0.2 0-0.2 0-0.4 0.3-0.4 0.5-0.1 0.4 0.6 0 0.8-0.1 0.3-0.3 0.7-1 0-1.2-0.4-0.1-0.8 0.3-1.1 0.5 0.1-0.5 0.9-0.8 1.3-0.6 0.5 0.2 0.4 0.9 0.1 1.3-0.2 0.1-0.4 0.3-0.6 0.3-0.2 0.1-0.4 0.2-0.5 0.1-0.5-0.1 0-0.9 0.3-1z"/>
						<path id="&lt;Path&gt;" class="s5" d="m8.2 30.1c0.6 0 0.8 0.9 0.1 0.9 0 0.1 0 0 0 0 0.1-0.1 0.3-0.1 0.3-0.3q0-0.2-0.1-0.3c-0.2-0.1-0.4-0.1-0.4 0.1-0.1 0.3 0.1 0.8 0.2 1.1 0.2-0.1 0.5-0.1 0.7-0.3 0.2-0.2 0.1-0.5 0-0.7-0.1-0.4-0.6-1.2-1.1-0.8 0 0-0.1 0 0 0 0.5-0.6 1.1 0.2 1.3 0.6 0.1 0.3 0.2 0.7 0 1-0.2 0.3-0.6 0.3-0.9 0.4q-0.1 0-0.1-0.1c-0.2-0.3-0.7-1.5 0-1.6z"/>
						<path id="&lt;Path&gt;" class="s5" d="m14.5 24c0.3-0.4 0.9-0.3 1.3-0.2 0.3 0.1 0.9 0.3 1 0.6 0.1 0.4-0.4 0.6-0.6 0.6-0.4 0.1-1 0-1.2-0.3q0-0.1 0-0.1c0.2-0.3 0.4-0.4 0.7-0.2 0.1 0 0.1 0.1 0 0.1-0.2-0.1-0.8 0.1-0.4 0.3q0.2 0.1 0.5 0.1c0.2 0 0.7-0.1 0.8-0.3 0.2-0.3-0.5-0.5-0.7-0.6-0.3-0.1-0.8-0.2-1.2 0-0.6 0.3 0 0.9 0.4 1.1 0.4 0.1 0.8 0.2 1.2 0.2 0.3-0.1 0.7-0.2 0.7-0.5 0-0.2-0.1-0.5-0.3-0.6-0.5-0.6-1.2-0.8-2-0.7 0 0 0 0 0 0 0.7-0.5 1.8 0.1 2.2 0.6 0.2 0.3 0.4 0.6 0.3 0.9-0.2 0.3-0.6 0.4-1 0.4-0.5 0.1-1.1-0.1-1.5-0.4-0.3-0.2-0.5-0.7-0.2-1z"/>
						<path id="&lt;Path&gt;" class="s5" d="m14.9 6.8c0.6-0.1 1.5 0.5 1.4 1.1q0 0-0.1 0c-0.4 0.1-1-0.1-1.3-0.4q0 0 0 0c0.2-0.3 0.4-0.4 0.7-0.2 0 0 0 0.2-0.1 0.1-0.1 0-0.5-0.1-0.5 0.1 0 0 0.2 0.1 0.2 0.1q0.2 0.1 0.5 0.2c0.1 0 0.4 0.1 0.4-0.1 0-0.2-0.2-0.4-0.3-0.5-0.3-0.2-0.9-0.4-1.1 0.1-0.1 0.2 0 0.4 0.1 0.5 0.2 0.2 0.3 0.2 0.5 0.2q0.3 0.1 0.5 0.3c0.1 0.2 0.1 0.4 0.4 0.3 0.2-0.1 0.3-0.3 0.3-0.5 0-0.8-0.7-1.3-1.4-1.5 0 0 0 0 0 0 0.7-0.1 1.2 0.5 1.4 1.1 0.2 0.4 0.2 1-0.4 1.1-0.3 0-0.3-0.2-0.5-0.4-0.2-0.3-0.5-0.2-0.8-0.4-0.4-0.3-0.4-1 0.1-1.2z"/>
						<path id="&lt;Path&gt;" class="s5" d="m23.4 17.9c0.3-0.5 0.7-1.3 1.3-1.6 0.6-0.3 1.2-0.1 1.6 0.4 0.6 0.8 0.8 2.6-0.5 2.9-1.1 0.3-2.5-0.5-1.8-1.7 0.2-0.4 1-1.2 1.6-1 0.4 0.1 0.5 1 0.6 1.4 0 0.7-0.4 1.1-1.1 0.8-0.8-0.2-0.4-1.1 0.1-1.5q0-0.1 0.1 0c0.3 0.3 0.5 0.6 0.5 0.9 0 0.1-0.1 0.2-0.1 0.1q-0.2-0.5-0.5-0.8c-0.1 0.2-0.3 0.4-0.4 0.6-0.1 0.4 0.4 0.6 0.7 0.6 0.6 0 0.5-0.8 0.4-1.2-0.1-0.2-0.1-0.4-0.2-0.6-0.2-0.3-0.5-0.1-0.7 0-0.5 0.3-1.1 0.8-1 1.4 0.1 0.9 1.6 1.1 2.2 0.6 0.7-0.7 0.4-2-0.3-2.5-1.1-1-1.7 0.7-2.4 1.3-0.1 0-0.1 0-0.1-0.1z"/>
						<path id="&lt;Path&gt;" class="s5" d="m5.7 25.3c-0.1-0.2-0.2-0.3-0.1-0.5q0 0 0 0c0.1 0.1 0.2 0.3 0.2 0.4q0.2 0.3 0.3 0.5c0.2 0.4 0.1 0.8 0.2 1.2 0.2 0.4 0.9 1.5 1.5 1 0.1-0.1 0.2 0.1 0.1 0.2-0.6 0.5-1.3-0.3-1.6-0.8-0.2-0.3-0.3-0.7-0.3-1.1 0-0.3-0.2-0.6-0.3-0.9z"/>
						<path id="&lt;Path&gt;" class="s5" d="m8.2 17.5c0.1 0 0.2 0.1 0.1 0.2q-1.1 0.4-1.3 1.6c-0.2 0.8-0.1 1.6 0.1 2.3q0.3 0.8 0.8 1.4c0.2 0.3 0.3 0.5 0.4 0.9 0.2 0.5 0.4 0.8 0.9 1 0.4 0.3 0.9 0.4 1.3 0.1 0.1-0.1 0.2 0 0.2 0.1-0.6 0.7-1.7 0.1-2.2-0.3-0.4-0.4-0.3-0.9-0.6-1.4-0.1-0.2-0.4-0.4-0.5-0.7q-0.2-0.3-0.4-0.7c-0.5-1.4-0.7-4.1 1.2-4.5z"/>
						<path id="&lt;Path&gt;" class="s5" d="m6.1 21.6c-0.3-0.8-0.3-1.7 0-2.5 0.3-0.8 0.9-1.5 1.7-1.5 0.1 0 0.1 0.1 0 0.2q-1.2 0.3-1.6 1.6c-0.2 0.8-0.1 1.5 0.1 2.3 0.2 0.6 0.3 1.2 0.7 1.7 0.3 0.4 0.7 0.7 1 1.2 0.2 0.3 0.5 0.7 0.9 1 0.3 0.2 0.7 0.2 1.1 0.4 0.1 0 0.1 0 0 0.1-0.9 0.2-1.6-0.5-2.1-1.2-0.2-0.3-0.3-0.6-0.6-0.9-0.2-0.2-0.4-0.3-0.5-0.5-0.5-0.6-0.6-1.3-0.7-1.9z"/>
						<path id="&lt;Path&gt;" class="s5" d="m21.3 26.9c0 0 0.1 0 0.1 0.1 0.1 0.4-0.2 1.2 0.4 1.4 0.3 0 0.6-0.2 0.8 0 0.1 0.1 0.2 0.3 0.3 0.4 0.2 0.3 0.5 0.3 0.8 0.3q0.8-0.1 1.4-0.6c0.4-0.3 0.8-0.6 1.2-0.9 0.4-0.3 0.8-0.5 1.1-0.9 0.5-0.5 1-1.5 0.6-2.1q0-0.1 0-0.1c0.6 0.1 0.3 1.1 0.1 1.5-0.3 0.8-0.9 1.3-1.6 1.8-0.8 0.6-1.5 1.3-2.5 1.5-0.3 0-0.8 0.1-1.1-0.1q-0.2-0.1-0.3-0.3c-0.1-0.2-0.1-0.4-0.4-0.3-0.4 0.1-0.7 0-0.9-0.4-0.2-0.3-0.3-0.9 0-1.3z"/>
						<path id="&lt;Path&gt;" class="s5" d="m11 28c0.1-0.1 0.2 0 0.1 0 0 0.3-0.2 0.5-0.3 0.8q-0.1 0.4 0 0.9c0.2 0.6 0.6 1.1 1.1 1.5 0.4 0.4 1.1 0.7 1.7 0.6 0.9 0 1.2-0.7 1.7-1.2q0.1 0 0.2 0c0.3 0.3 0.7 0.4 1 0.5 0.4 0.2 0.7 0.5 1.1 0.4 0.4 0 0.8-0.2 1-0.5 0.2-0.3 0.2-0.7 0.3-1 0-0.1 0-0.1 0.1-0.1 0.4 0.8-0.4 1.7-1.1 1.8-0.4 0.2-0.8 0-1.2-0.2-0.4-0.2-0.9-0.4-1.3-0.6-0.5 0.5-0.8 1.1-1.6 1.2-0.8 0.1-1.5-0.2-2-0.7-0.6-0.4-1-1-1.2-1.7-0.2-0.6-0.1-1.3 0.4-1.7z"/>
						<path id="&lt;Path&gt;" class="s5" d="m14.4 13.9c0.1-0.6 0.6-1.9 1.4-1.6 0.1 0.1 0 0.1 0 0.2-0.2 0-0.4 0-0.5 0.2-0.2 0.1-0.3 0.2-0.4 0.4q-0.3 0.5-0.3 1.1c0 0.4 0.2 0.8 0.5 1.1 0.3 0.2 0.7 0 1 0.1 0.3 0.1 0.5 0.3 0.8 0.4 0.4 0.1 0.7 0.1 1.1 0 0.6-0.3 1-0.9 1.2-1.5 0-0.1 0.1-0.1 0.1 0 0 0.7-0.5 1.4-1.3 1.7-0.3 0.2-0.8 0.2-1.2 0-0.2 0-0.3-0.1-0.5-0.2-0.3-0.2-0.5-0.2-0.8-0.2-0.9 0-1.2-1-1.1-1.7z"/>
						<path id="&lt;Path&gt;" class="s5" d="m22.5 9.2c0 0 0 0 0 0.1 0.1 0.4 0 0.9 0.1 1.4 0.1 0.5 0.4 1 0.9 1.3 0.9 0.6 1.9-0.3 2.5-1q0 0 0 0.1c-0.3 0.9-1.6 1.7-2.5 1.1-1-0.5-1.5-2-1-3z"/>
						<path id="&lt;Path&gt;" class="s5" d="m3.9 12.7c0.4-0.5 0.5-0.9 0.7-1.4q0.1-0.5 0.2-1.1c0.1-0.2 0.1-0.5 0.3-0.8 0 0 0 0 0 0.1 0 0.3-0.1 0.6-0.1 0.8q-0.1 0.5-0.2 0.9c-0.1 0.4-0.2 0.9-0.4 1.3-0.5 0.6-1.3 1.2-0.8 2.1 0 0.1-0.1 0.2-0.2 0.1-0.6-0.7 0.1-1.5 0.5-2z"/>
						<path id="&lt;Path&gt;" class="s5" d="m10.8 34.9c0-0.1 0.1-0.2 0.1-0.1 0.2 0.1 0.3 0.3 0.5 0.4q0.3 0.1 0.7 0.2c0.6 0.1 1.1 0.1 1.6 0.1 0.6 0 1.1 0.1 1.6 0.1q0.4 0.1 0.9 0 0.2 0 0.4-0.1c0.1 0 0.2-0.1 0.3-0.1q0.1 0 0 0.1c-0.1 0.4-1.1 0.4-1.4 0.3-0.6 0-1.2 0-1.9 0-0.5-0.1-1.1-0.1-1.7-0.2-0.3-0.1-1.1-0.3-1.1-0.7z"/>
						<path id="&lt;Path&gt;" class="s5" d="m17 21.7q0 0 0.1 0c0.1 0.1 0.1 0.3 0.1 0.5q0.1 0.4 0.5 0.7c0.2 0.1 0.5 0.2 0.8 0.1 0.3-0.1 0.4-0.3 0.5-0.6q0 0 0 0c0.3 0.6-0.6 0.9-1.1 0.8-0.3-0.1-0.6-0.3-0.8-0.6-0.1-0.3-0.2-0.7-0.1-0.9z"/>
						<path id="&lt;Path&gt;" class="s5" d="m19.4 21.6c0.2-0.1 0.5-0.2 0.8-0.3 0.3-0.3 0.5-0.6 0.4-1q0 0 0 0c0.4 0.4 0.1 0.9-0.3 1.2-0.3 0.1-0.7 0.2-1 0.4-0.2 0.2-0.1 0.6-0.3 0.9-0.1 0-0.1 0-0.1-0.1-0.1-0.3 0.1-0.9 0.5-1.1z"/>
						<path id="&lt;Path&gt;" class="s5" d="m3.5 19.7c0.1-0.4-0.1-1.5 0.4-1.7q0.1 0 0.1 0c0 0.3-0.2 0.5-0.2 0.7-0.1 0.3 0 0.6 0 0.8-0.1 0.4-0.4 1.2 0.1 1.4 0.1 0 0.1 0.2-0.1 0.2-0.5-0.2-0.4-0.9-0.3-1.4z"/>
						<path id="&lt;Path&gt;" class="s5" d="m8.8 14c-0.1-0.2-0.2-0.5-0.1-0.7 0.1-0.2 0.2-0.4 0.4-0.4q0.1 0 0.1 0c-0.1 0.1-0.2 0.2-0.3 0.3q-0.1 0.1 0 0.3c0 0.2 0 0.4 0.1 0.5 0 0.2 0 0.4 0 0.5 0.1 0.3 0.3 0.3 0.5 0.4q0.1 0.1 0 0.1c-0.2 0.1-0.4 0-0.5-0.2-0.2-0.2-0.2-0.5-0.2-0.8z"/>
						<path id="&lt;Path&gt;" class="s5" d="m5.7 16.3c0.1-0.1 0.2-0.2 0.2-0.3 0-0.1-0.1-0.2-0.1-0.3 0-0.2 0-0.3 0.2-0.4q0 0 0 0c-0.1 0.2-0.1 0.3 0 0.5q0 0.2 0 0.3c-0.1 0.1-0.2 0.3-0.2 0.4 0.1 0.2 0.4 0.1 0.5 0 0.2-0.3-0.2-0.8-0.3-1.1 0-0.1 0-0.1 0.1-0.1 0.2 0.1 0.4 0.5 0.4 0.8 0 0.2 0 0.6-0.3 0.6-0.3 0.1-0.6 0-0.5-0.4z"/>
						<path id="&lt;Path&gt;" class="s5" d="m5.5 16.4c0-0.2 0.1-0.4 0.1-0.7-0.1-0.2-0.1-0.4 0.1-0.6q0 0 0.1 0c0.1 0.1 0.2 0.1 0.2 0.2q0 0 0 0c-0.1 0-0.2 0-0.2 0-0.1 0.1-0.1 0.3-0.1 0.3 0 0.2 0.1 0.3 0 0.5q0 0.2-0.1 0.3c0 0.1 0 0.2 0 0.2 0 0 0.2 0 0.2 0 0.1 0 0.1 0.1 0.1 0.1-0.3 0.2-0.6 0-0.4-0.3z"/>
						<path id="&lt;Path&gt;" class="s5" d="m30.6 20q0 0 0 0c0.5-0.1 0.8 0.5 1 0.8 0.1 0.3 0.2 1.2-0.2 1.4-0.1 0-0.1-0.1-0.1-0.1 0-0.2 0.2-0.3 0.2-0.4q0-0.4-0.1-0.7c-0.1-0.5-0.3-0.9-0.8-1z"/>
						<path id="&lt;Path&gt;" class="s5" d="m21.7 32.2c0-0.1 0.2-0.1 0.2 0 0 0.4 0.2 0.5 0.5 0.5 0.3 0.1 0.7 0.1 1 0 0.9-0.2 1.6-0.7 2-1.5 0 0 0 0 0 0.1-0.1 0.9-1.3 1.5-2.2 1.6-0.4 0.1-1.8 0.1-1.5-0.7z"/>
						<path id="&lt;Path&gt;" class="s12" d="m7.3 23.3q0 0 0 0 0-0.1 0-0.1c-0.1-0.1 0-0.2 0.1-0.1 0.3 0.1 0.5 0.5 0.5 0.8 0 0.1-0.1 0.2-0.1 0.1-0.3-0.1-0.4-0.3-0.6-0.5 0-0.1 0-0.2 0.1-0.2z"/>
						<path id="&lt;Path&gt;" class="s12" d="m6.1 19.7c0-0.1 0.2-1.1 0.5-0.8 0.3 0.2 0.1 0.8 0.1 1.1 0 0.6 0.2 1.1 0.3 1.7 0 0.1 0 0.2-0.1 0.3-0.1 0.1-0.1 0.1-0.3 0.1-0.1 0-0.2-0.1-0.2-0.2-0.2-0.7-0.4-1.5-0.3-2.2z"/>
						<path id="&lt;Path&gt;" class="s12" d="m8.1 24.1q0.1 0 0.1 0c0.1 0 0.2 0.1 0.2 0.2 0.1 0.1 0.1 0.3 0.3 0.4q0.1 0.2 0.3 0.3c0.1 0 0.2 0.1 0.3 0.2q0 0 0 0c-0.3 0.2-0.7 0-0.8-0.2-0.1-0.2-0.2-0.4-0.3-0.5 0-0.1-0.1-0.3-0.1-0.4z"/>
						<path id="&lt;Path&gt;" class="s12" d="m6 27.1c-0.1-0.5-0.2-0.9-0.4-1.3-0.1-0.3-0.3-0.5-0.3-0.9 0-0.1 0.2-0.1 0.2 0 0.3 0.4 0.5 0.8 0.5 1.4 0.1 0.2 0 0.7 0.2 0.9 0 0.1 0.1 0.1 0.2 0.2 0.2 0.2 0.2 0.7 0.6 0.9 0.1 0.1 0.4 0 0.5 0.2q0 0 0 0c0.1 0.1 0 0.2 0 0.3-0.7 0.6-1.2-0.5-1.4-1-0.1-0.3-0.1-0.5-0.1-0.7z"/>
						<path id="&lt;Path&gt;" class="s12" d="m14.6 15.3q0-0.1 0.1-0.1c0.4 0 0.6 0.6 0.9 0.6 0.2 0 0.4-0.2 0.6-0.2 0.8 0.1 1.3 0.8 2 0.5q0.1 0 0.1 0c-0.2 0.3-0.5 0.3-0.8 0.2-0.5-0.1-0.8-0.4-1.4-0.1-0.2 0.2-0.4 0.3-0.8 0.1-0.3-0.1-0.7-0.6-0.7-1z"/>
						<path id="&lt;Path&gt;" class="s12" d="m22.1 10.2c0.1-0.1 0.2-0.1 0.2-0.1 0.1 0.3 0.1 0.6 0.2 0.8 0.1 0.4 0.3 0.7 0.6 1 0.5 0.6 1.3 0.7 2 0.4q0 0 0 0.1c-0.2 0.3-0.4 0.4-0.8 0.4-0.5-0.1-0.7-0.4-1.1-0.6-0.7-0.4-1.4-1.2-1.1-2z"/>
						<path id="&lt;Path&gt;" class="s12" d="m24 18.9c0.4 0.2 0.7 0.5 1.2 0.6 0.6 0.1 1 0 1.5-0.2 0.1-0.1 0.1 0 0.1 0-0.5 1-2.6 0.7-2.9-0.3 0-0.1 0-0.1 0.1-0.1z"/>
						<path id="&lt;Path&gt;" class="s12" d="m23.1 29.3c0.2 0 0.4 0.2 0.6 0.2 0.2 0 0.5 0 0.6-0.1q0.1 0 0.1 0c-0.2 0.3-0.4 0.4-0.7 0.5-0.3 0-0.7-0.1-0.8-0.3 0-0.1 0-0.3 0.2-0.3z"/>
						<path id="&lt;Path&gt;" class="s12" d="m22 28.5q0.1 0 0.1-0.1h0.1q0-0.1 0.1-0.1c0-0.1 0.2-0.1 0.2-0.1 0.1 0.1 0.2 0.2 0.1 0.3 0 0.1-0.2 0.4-0.4 0.3-0.1 0-0.3-0.1-0.2-0.3z"/>
						<path id="&lt;Path&gt;" class="s12" d="m24.7 29.2c0.2-0.5 0.9-1 1.4-1.3 0.4-0.1 0.8-0.3 1.1-0.5 0.4-0.3 0.7-0.7 1-1q0-0.1 0 0c0 0.7-0.4 1.2-1 1.6-0.4 0.2-0.8 0.3-1.2 0.6-0.3 0.2-0.6 0.6-1.1 0.8-0.1 0.1-0.2 0-0.2-0.2z"/>
						<path id="&lt;Path&gt;" class="s12" d="m15.3 31.1q0-0.2 0-0.3c0-0.1 0.1-0.2 0.2-0.1 0 0 0.1 0 0.1 0.1q0.1 0 0.1 0.2c0 0.1 0.1 0.3 0 0.5 0 0.1-0.2 0.1-0.3 0-0.1-0.2 0-0.3-0.1-0.4z"/>
						<path id="&lt;Path&gt;" class="s12" d="m17.1 31.5c0.4 0 0.6 0.3 0.9 0.2 0.3-0.1 0.7-0.4 0.8-0.7q0 0 0 0c0 0.3 0 0.4-0.1 0.6q-0.2 0.3-0.5 0.4c-0.4 0.1-1.1 0.1-1.2-0.3q0-0.1 0.1-0.2z"/>
						<path id="&lt;Path&gt;" class="s12" d="m10.2 28.9c0.1 0 0.2 0 0.2 0 0.1 0.3 0.2 0.6 0.3 1 0.2 0.4 0.6 0.9 0.9 1.3 0.4 0.4 0.8 0.8 1.3 0.9 0.5 0 1 0 1.4-0.3 0 0 0 0 0 0-0.8 0.8-1.7 0.5-2.5-0.1-0.7-0.5-1.8-1.8-1.6-2.8z"/>
						<path id="&lt;Path&gt;" class="s12" d="m11.4 33.7c0.9-1.1 2.8 0.3 3.8 0.4 0.7 0.1 2.5 0.1 2.4 1.2 0 0.1-0.1 0.3-0.3 0.2-0.4-0.3-0.5-0.6-1-0.6-0.5-0.1-1-0.1-1.5-0.2-0.5-0.1-0.9-0.4-1.4-0.6-0.3-0.2-0.7-0.3-1.1-0.3-0.4 0-0.5 0.1-0.9 0 0 0 0-0.1 0-0.1z"/>
						<path id="&lt;Path&gt;" class="s12" d="m11.2 35.1c0.9 0.5 1.8 0.4 2.9 0.4 0.8 0 1.6 0.2 2.4 0 0.1-0.1 0.2 0.1 0.2 0.1-0.9 0.7-1.7 0.1-2.6 0.1-0.6 0-1 0.2-1.6 0.1-0.5-0.1-1-0.2-1.5-0.5-0.1-0.1 0-0.3 0.2-0.2z"/>
						<path id="&lt;Path&gt;" class="s12" d="m6.2 27.7c0-0.1 0.2-0.2 0.3-0.1q0 0.1 0.1 0.2 0 0.1 0.1 0.2c0 0.1 0.1 0.2 0.2 0.3 0 0 0 0.2-0.1 0.2 0 0-0.1 0-0.1 0q-0.1 0-0.1 0-0.2-0.1-0.3-0.2-0.2-0.3-0.1-0.6z"/>
						<path id="&lt;Path&gt;" class="s12" d="m5.5 25.4c0 0 0-0.1-0.1-0.2 0 0 0 0 0.1 0 0.1 0 0.1 0 0.2 0q0.1 0.1 0.2 0.2c0.1 0.2 0.2 0.4 0.1 0.5 0 0.1-0.1 0.2-0.2 0.1-0.2-0.1-0.2-0.2-0.3-0.4q0-0.1 0-0.2z"/>
						<path id="&lt;Path&gt;" class="s12" d="m3.3 19.4c0.1-0.5-0.2-1.2 0.3-1.5 0.2-0.1 0.3 0.1 0.2 0.2-0.5 0.2-0.3 0.9-0.2 1.3q0 0.3-0.1 0.6c0 0.2-0.1 0.3-0.1 0.5 0 0.2 0.1 0.4 0.1 0.6 0 0 0 0 0 0-0.6-0.2-0.3-1.3-0.2-1.7z"/>
						<path id="&lt;Path&gt;" class="s12" d="m3.2 19.5c0.1-0.1 0.2-0.1 0.3 0q0.1 0 0.1 0c0.1 0.1 0.1 0.3 0 0.4-0.1 0-0.2 0-0.3-0.1q-0.1 0-0.1-0.1 0-0.1 0-0.2z"/>
						<path id="&lt;Path&gt;" class="s12" d="m4.2 11.4q0.1 0.1 0.2 0.2 0.1 0 0 0.1c0 0.2-0.2 0.2-0.3 0.1q0 0 0-0.1c-0.2-0.1 0-0.3 0.1-0.3z"/>
						<path id="&lt;Path&gt;" class="s12" d="m10.1 8.4c0-0.3-0.3-0.5-0.2-0.8 0-0.3 0.2-0.5 0.4-0.6 0.1 0 0.2 0 0.2 0.1-0.1 0.3-0.3 0.3-0.1 0.8 0 0.1 0.1 0.2 0.1 0.4 0 0.3-0.2 0.4 0.1 0.7 0.1 0.2 0.2 0.1 0.2 0.4 0 0 0 0.1-0.1 0.1-0.2 0-0.4-0.2-0.6-0.4-0.2-0.3 0-0.4 0-0.7z"/>
						<path id="&lt;Path&gt;" class="s12" d="m33.4 15.5c0-0.1 0.1-0.2 0.2-0.1 0.1 0.1 0.2 0.3 0.1 0.4 0 0.2-0.1 0.2-0.2 0.1-0.1-0.1-0.2-0.3-0.1-0.4z"/>
						<path id="&lt;Path&gt;" class="s12" d="m21.8 27.4c0-0.3 0.1-0.5 0.3-0.7q0 0 0 0c-0.1 0.2-0.1 0.5-0.1 0.7 0 0.2 0.1 0.4 0 0.6q0 0.1 0 0.1c-0.2-0.2-0.2-0.5-0.2-0.7z"/>
						<path id="&lt;Path&gt;" class="s12" d="m22.2 33c0.4-0.1 0.8 0 1.2 0 0.6-0.1 1.1-0.4 1.6-0.8q0 0 0 0c-0.6 0.8-1.9 1.3-2.8 0.9-0.1 0 0-0.1 0-0.1z"/>
					</g>
					<path id="&lt;Path&gt;" class="s13" d="m26.9 14.8q2.9-0.6 6-1.5 0.2 0.3 0.5 0.8 0 0 0-0.1 0.2 0.4 0.3 0.8-3 0.9-5.8 1.5c-0.4-0.5-0.8-1-1-1.5z"/>
				</g>
			</g>
		</g>
	</g>
</svg>