<svg version="1.2" xmlns="http://www.w3.org/2000/svg" viewBox="0 0 40 44" width="40" height="44">
	<title>planets</title>
	<style>
		.s0 { fill: #ccb672 } 
		.s1 { opacity: .5;fill: #655538 } 
		.s2 { opacity: .5;fill: #e3dbb1 } 
		.s3 { opacity: .3;fill: #21004c } 
		.s4 { opacity: .2;fill: #21004c } 
		.s5 { opacity: .4;mix-blend-mode: overlay;fill: #ffe4a1 } 
		.s6 { opacity: .7;fill: #e6d4a3 } 
	</style>
	<g id="planets">
		<g id="-e-">
			<path id="&lt;Path&gt;" class="s0" d="m5.3 28.3c-1.7-0.6-3.5-1.5-4.3-3.3-1.2-2.5 0.8-3.4 0.8-4.9 0.2-4.2 0.7-4.8 3.1-9.3 1.9-3.6 6-6.1 10-5.7 1.9 0.2 1.5-1.9 3.1-1.5 2 0.4 2.6-0.8 4.6-0.6 0.8 0 1.3 1.8 2.2 2 0.9 0.3 2.3-0.7 3.4-0.4 1.8 0.5 4 3.3 4.4 5 6 0.4 3.4 6.3 3.9 9.7 0.2 1.7 2 2.6 2.2 4.3 0.5 3.2-1.6 3.4-2.9 5.8-1.2 2.2-0.1 4.6-3.1 6.2-1.3 0.6-2.5-0.4-3.5 0-1.2 0.5-1 1.7-1.9 2.3-2.5 1.5-10.2 4.9-11.8 1-4.8 0.8-11.9-4.8-10.2-10.6z"/>
			<path id="&lt;Path&gt;" class="s1" d="m22 7.7c2.3-2.5 7.4-2.3 8.8 1 0.7 1.8-1.1 3 0 4.6 0.6 0.9 2.8-0.1 3.9 1.5 0.8 1.3-0.1 3.5 0.2 4.9 0.3 1.7 1.4 2.7 1.2 4.7-0.3 3.6-4.8 6.4-7.4 3.2-2.3-2.8 4-8.4-1.4-8.2-0.1-1.3-0.7-1.9-0.1-3.1-2.3-0.2-4.2-1.9-3-4.2-6.1 2.2-7.3-5.1-2.2-4.4z"/>
			<path id="&lt;Path&gt;" class="s1" d="m12.6 31.4c-10.5 0.9-5.4-12.4-1.2-10.4-0.7-4.1 5.5-0.8 4.8 3 6-4.8 9.8 9.5 1.4 7.9 1.4 4.8-8 4.2-4.4-1.4z"/>
			<path id="&lt;Path&gt;" class="s1" d="m13 5.8c1.5 0.1 2.6 0.9 2 2.3-0.7 1.9-2.8 0.8-3.9 1.4-3.5 2.1-0.5 4.6-3.4 7.4-4 3.9-3.2-1.6-2.4-4.1 1.1-3.6 2.2-5.5 6.7-6.4z"/>
			<path id="&lt;Path&gt;" class="s1" d="m14.7 28.5c-4.4-5.7-9.6 8.5 0.7 4.8 0.1 3.2 3.6 4.1 5.8 1.9 2.2 2.5 6.5-0.7 8.5-2.5 3.4-3.2 4-8 2-12.1-1.8-4-6.5-7.6-11.1-5.7-3.3 1.3-5 5.4-1.5 7.7-0.4 1-0.7 2-1.1 3-2.2-0.9-3.5 0.3-3.3 2.9z"/>
			<path id="&lt;Path&gt;" class="s2" d="m29.2 30.4c-1.4 2.9-2 4-5.2 4.4-3.4 0.5-2.8 0.3-4.2-1.9-0.6-0.9 0.6-3.8-1.8-3.9-1.6-0.1-1.8 3.8-3.2 5-2.7 2.3-7 0.7-8-2.8-0.5-1.9 0.5-2.7-0.1-4.2-0.4-1-2.4-1.2-2.5-3.3-4.6 0.8 0.6-7.1 4-8.4 0-1 0.7-2 2-2.4-1.3-4 4.6-6.1 5.8-1.8 2.9-1.9 5.5 0.9 2.6 3.7-1.3 1.2-3.1 0.1-4.5 0.8-0.9 0.4-1.9 2-2.6 2.7 2.1-1.4-0.8 4.5-1.7 6.3 0.5-0.3 1.4-0.3 1.8-0.6-0.1 1.7 0.4 3.6 1 5.3 0.7 0.1 2.3-0.3 2.9-0.7-0.2-1.4 1-4.8 3-4.7 1.5 0 0.9 2.2 1.9 2.4 4.5 1.1 1.3-4.1 4.6-6.6 3.9-2.8 6.7 1.6 7.8 4.9 0.6 1.8 1.6 4.4 0.2 6.1-1.3 1.6-3.4 1.7-3.8-0.3z"/>
			<path id="&lt;Path&gt;" class="s3" d="m27.3 37.9c-2.5 1.5-10.2 4.9-11.8 1-4.8 0.8-11.9-4.8-10.2-10.6q-0.4-0.2-0.8-0.3c2.3 0.3 5.1 2.9 7 3.6 0.7-1 1.7-2 2.9-2.6 1.2 1.1 2 2.4 3 3.7 0.3-0.5 1.3-1 1.6-1.6 1.7 1.3 3 2.2 5.4 2.3 2.1 0.1 7.9-1.9 8.1-4.4 0.3-3.7-4.3-1.2-5.5-3-1.5-2.2 0.9-4.7 3.3-4.9-2.4-2 0.7-2.3 0.8-3.8 0.2-1.6-0.3-3.2-1-4.8-1.1-2.2-2.4-3.7-3.3-6.1-0.2-0.6-0.1-1.2 0.1-1.7 0.4-0.1 0.9-0.2 1.3-0.1 1.8 0.5 4 3.3 4.4 5 6 0.4 3.4 6.3 3.9 9.7 0.2 1.7 2 2.6 2.2 4.3 0.5 3.2-1.6 3.4-2.9 5.8-1.2 2.2-0.1 4.6-3.1 6.2-1.3 0.6-2.5-0.4-3.5 0-1.2 0.5-1 1.7-1.9 2.3z"/>
			<path id="&lt;Path&gt;" class="s4" d="m27.3 13.1c3.7-4.7 11.6 5.1 7.9 9.5 1.8 1.6 1.9 3.8 1 5.9-1.2 2.9-2.9 2-4.8 3.5-3 2.4-4.4 7.6-9.6 5.2-1.7 3.7-8.4 1.9-10.5-0.3-3-3.2-3.5-11.5 3.6-8.4 2.3 0.9 2.2 3.4 4.9 3 2.8-0.4 2.4-3.8 6.3-2.7 2.4 0.8 2.5 4.4 4.6-0.2 1-2.3-1.2-5.3 2.5-6-3.3-2.3-4.6-2.9-5.9-9.5z"/>
			<path id="&lt;Path&gt;" class="s5" d="m12.7 18c-1.1 2.1-3.4 3.2-5.7 3.3-1.7-2.2 0.9-5.4 3.4-6.1-2.2-1.5-0.1-3.3 1.8-4.1-1.9-2.4 5-5.3 6 1.1 2.4 0 3.3 2.2 1.3 3.7 5.3 1.4-3.9 8.7-6.5 2z"/>
			<path id="&lt;Path&gt;" class="s6" d="m4.7 12.8c0.4-1.7 0.9-3.4 2.3-4.6 1.8-1.6 4.4-2.6 6.6-3.3 0.3-0.1 0.5 0.4 0.2 0.5-3.2 2.1-6.8 2.4-8 6.5-0.4 1.3-0.7 2.7-0.7 4.1 0 1 0.3 2 1.5 1.5 0.8-0.3 1.2-1.2 1.5-2 0.7-1.6 0.6-4.1 1.8-5.5 0.8-0.7 1.9-1.1 2.8-1.6 0.7-0.3 3.1-1 2.2-2.1-0.1-0.1 0-0.2 0.2-0.2 2.7 0.7-3.4 3.5-3.8 3.7-2.9 1.7-1.1 6.7-4.2 8.3-3.5 1.9-2.8-3.6-2.4-5.3z"/>
			<path id="&lt;Path&gt;" class="s6" d="m11.4 24.4c-0.4 0.1-0.8 0.1-1.2 0.2-0.3 0.1-0.6-0.1-0.6-0.4 0.1-0.9 0.4-1.5 1.3-1.9 0.3-0.1 0.6 0.2 0.4 0.5q-0.4 0.4-0.6 0.8 0.5-0.1 1-0.2c0.3-0.2 0.6 0.2 0.6 0.4 0.1 1.2 0.2 6.7 2.4 4.7 1.3-1.1 0.1-2.6 0.9-3.9 0.2-0.4 0.5-0.5 0.8-0.8 0.2-0.1 0.5-0.1 0.6-0.3 0.6-0.7-0.1-0.9-0.7-0.8-0.1 0-0.3 0-0.4-0.1-0.5-1.5-1.6-4.8-3.6-2.9-0.1 0.1-0.3 0-0.2-0.2 0.5-1 1.3-1.4 2.3-0.7 0.5 0.4 0.9 1 1.2 1.6 0.2 0.3 0.3 0.8 0.6 1.1 0.4 0.6 0.2 0.5 1.1 0.4 0.2-0.1 0.3 0 0.4 0.1 0.3 0.6 0.5 1.2 0.2 1.8-0.5 0.9-1.5 0.7-1.6 2-0.1 0.9 0.4 1.8-0.2 2.7-0.4 0.6-1.2 1.2-1.9 1.4-2.5 0.5-2.7-3.5-2.8-5.5z"/>
			<path id="&lt;Path&gt;" class="s6" d="m24 15.1c-0.2 0-0.4-0.2-0.4-0.4-0.1-0.7-0.1-1.5-0.2-2.2-2 0.8-4.4 0.4-4.6-2.3-0.1-1.4 1.6-4.8 3.3-3 0.1 0.1 0.1 0.2 0 0.2-0.7 0.2-1.3 0-1.9 0.6-0.5 0.5-0.6 1.4-0.6 2.1 0.3 2.3 2.4 2.1 4 1.2 0.3-0.1 0.7 0 0.7 0.3 0.1 0.9 0.1 1.7 0.2 2.5 1.1 0 1.9-0.5 2.4-1.6 0.1-0.3 0.4-0.5 0.6-0.4 1.6 0.6 2.3-1.9 2.3-3 0-0.8-0.3-1.7-1.1-2.1-1.1-0.7-2.4-0.1-3.6-0.2-0.3 0-0.3-0.3-0.1-0.5 2.3-1.7 5.7 0 5.7 2.8 0.1 1.7-1 4.5-3 4.1-0.8 1.4-2 2-3.7 1.9z"/>
			<path id="&lt;Path&gt;" class="s6" d="m2.8 26.7c-0.8-0.4-1.8-1.8-1-2.6 0.1-0.1 0.3-0.1 0.3 0 0.2 0.5 0.1 0.9 0.3 1.3 0.2 0.3 0.5 0.6 0.9 0.7 1 0.3 1.7-0.4 1.8-1.3 0.1-0.9-0.2-2.5-1.4-2.6-1-0.2-1.2 1.1-1.1 1.8 0 0.2-0.2 0.3-0.3 0.1-0.4-0.8-0.3-1.9 0.6-2.4 0.9-0.4 1.8 0.1 2.3 0.8 0.7 1 0.8 2.6 0.1 3.6-0.5 0.8-1.6 1-2.5 0.6z"/>
			<path id="&lt;Path&gt;" class="s6" d="m17.6 36.3c-0.1-0.1 0-0.3 0.2-0.3 0.5 0 1 0.2 1.6 0.2 0.4 0 2.2-0.3 1.9-1 0-0.3-0.7-0.4-0.9-0.8-0.6-1.4 0.6-4-1.5-4.6-0.2-0.1-0.1-0.3 0-0.3 1.1-0.1 1.6 0.9 1.8 1.8 0.2 0.7 0.1 1.4 0.2 2.1 0 0.8 0.1 0.8 0.7 1.3 0.6 0.5 0.5 0.9-0.1 1.4-1 0.9-2.8 1.1-3.9 0.2z"/>
			<path id="&lt;Path&gt;" class="s6" d="m20.9 39.3c-1.6 0.5-3.4 1.3-4.5-0.6-0.2-0.3 0.3-0.7 0.5-0.4 0.7 0.6 1.5 0.9 2.4 0.7 0.5-0.1 0.9-0.6 1.4-0.7 0.4-0.1 0.8 0 1.3-0.1 1.7-0.1 3.1-1.3 4.9-1.4 0.1 0 0.1 0.2 0 0.3-1.2 0.7-2.4 1.3-3.7 1.8-0.8 0.3-1.6 0.2-2.3 0.4z"/>
			<path id="&lt;Path&gt;" class="s6" d="m8.1 35c-0.4-0.5-0.4-1.1-0.5-1.6-0.1-0.6-0.3-0.9-0.7-1.3-0.2-0.2-0.4-0.3-0.6-0.5-0.4-0.5-0.2-1.1 0.1-1.6 0.1-0.2 0.4 0 0.4 0.2-0.4 1.1 0.2 1.1 0.8 1.6 0.3 0.3 0.5 0.6 0.6 1 0.1 0.4 0.1 0.9 0.2 1.3 0.3 0.7 1.1 0.7 1.6 1 0.2 0.1 0.1 0.3 0 0.3-0.7 0.2-1.4 0.1-1.9-0.4z"/>
			<path id="&lt;Path&gt;" class="s6" d="m36 14.3c-0.2-0.2-0.3-0.4-0.4-0.7-0.2-0.5-0.3-0.7-0.8-0.9-0.2-0.1-0.2-0.3-0.1-0.5 0.3-0.4 0.5-1-0.2-1.2-0.3-0.1-0.9 0-1.2 0.2-0.1 0.1-0.2-0.1-0.2-0.1 0.6-0.6 1.3-1 2.1-0.5 0.6 0.4 0.5 1.1 0.2 1.7 0.6 0.5 0.8 1.1 0.9 1.9 0 0.2-0.2 0.2-0.3 0.1z"/>
			<path id="&lt;Path&gt;" class="s6" d="m19.6 4.8c-0.5 0.1-1.2 0.2-1.8 0.3 0 0-0.6-0.2-0.6-0.2 0 0.1-0.1 0-0.1 0 0.5-0.6 1-0.6 1.7-0.8 1.3-0.2 2.7-0.7 4-0.7 0.2 0 0.2 0.2 0.1 0.3-0.7 0.8-2.3 0.9-3.3 1.1z"/>
			<path id="&lt;Path&gt;" class="s6" d="m27.8 27.4c-4.6 0.2-2-7.4 1.1-6.1 0 0 0 0.1 0 0.1-1.7 0.4-3.8 2.6-2.9 4.6 0.7 1.3 2.2 0.7 3.3 0.7 1.4 0 3.1 0.4 4.3-0.6 1.1-1 1.6-3.2 1.1-4.4-0.1-0.3 0.1-0.5 0.3-0.3 1.2 1.3 0.3 3.7-0.6 4.9-1.6 1.8-4.5 1.1-6.6 1.1z"/>
		</g>
	</g>
</svg>