<svg version="1.2" xmlns="http://www.w3.org/2000/svg" viewBox="0 0 1000 1000" width="1000" height="1000">
	<title>-e-</title>
	<defs>
		<radialGradient id="g1" cx="0" cy="0" r="1" gradientUnits="userSpaceOnUse" gradientTransform="matrix(602.005,0,0,602.005,500,500)">
			<stop offset="0" stop-color="#282954"/>
			<stop offset="1" stop-color="#281d3c"/>
		</radialGradient>
	</defs>
	<style>
		.s0 { fill: url(#g1) } 
		.s1 { opacity: .3;fill: #ffffff } 
		.s2 { opacity: .2;fill: #ffffff } 
		.s3 { fill: #ffffff } 
		.s4 { opacity: .5;fill: #ffffff } 
	</style>
	<g id="-e-">
		<path id="&lt;Path&gt;" class="s0" d="m1000 1000h-1000v-1000h1000z"/>
		<g id="&lt;Group&gt;" style="opacity: .3">
			<g id="&lt;Group&gt;">
				<path id="&lt;Path&gt;" class="s1" d="m444.9 71.4l-0.1 7.6 6.3 4.4-7.3 2.3-2.2 7.3-4.4-6.2-7.6 0.2 4.5-6.2-2.5-7.2 7.2 2.4z"/>
				<path id="&lt;Path&gt;" class="s2" d="m363.3 343.4l0.1 10.6 8.7 5.9-10 3.4-3 10.1-6.3-8.5-10.5 0.3 6.1-8.6-3.6-9.9 10.1 3.2z"/>
				<path id="&lt;Path&gt;" class="s3" d="m69.3 363.5l4.7 3.9 5.9-1.5-2.4 5.6 3.4 5.2-6.1-0.5-3.9 4.7-1.4-5.9-5.7-2.2 5.2-3.2z"/>
				<path id="&lt;Path&gt;" class="s4" d="m229 51l1.5 8.1 7.6 3.4-7.3 3.9-0.8 8.2-6.1-5.6-8 1.7 3.5-7.5-4.1-7.2 8.2 1.1z"/>
				<path id="&lt;Path&gt;" class="s3" d="m317.6 66l4.9 6.3 7.9-0.4-4.5 6.6 2.8 7.5-7.6-2.3-6.3 5-0.1-8-6.7-4.4 7.5-2.6z"/>
				<path id="&lt;Path&gt;" class="s4" d="m433.6 328.3l1.1 7 6.4 3.1-6.3 3.2-0.9 7.1-5.1-5-6.9 1.3 3.2-6.4-3.4-6.2 7 1.1z"/>
				<path id="&lt;Path&gt;" class="s2" d="m143.9 76.7c0 2.8-2.3 5.1-5.2 5.1-2.8 0-5.1-2.3-5.1-5.1 0-2.8 2.3-5.1 5.1-5.1 2.9 0 5.2 2.3 5.2 5.1z"/>
				<path id="&lt;Path&gt;" class="s4" d="m282.3 365.8c0 2.8-2.3 5.1-5.1 5.1-2.9 0-5.2-2.3-5.2-5.1 0-2.9 2.3-5.1 5.2-5.1 2.8 0 5.1 2.2 5.1 5.1z"/>
				<path id="&lt;Path&gt;" class="s3" d="m361.1 445.7c0 2.8-2.3 5.1-5.1 5.1-2.9 0-5.2-2.3-5.2-5.1 0-2.9 2.3-5.2 5.2-5.2 2.8 0 5.1 2.3 5.1 5.2z"/>
				<path id="&lt;Path&gt;" class="s3" d="m361.8 297.6c0 2.6-2.1 4.8-4.7 4.8-2.6 0-4.7-2.2-4.7-4.8 0-2.6 2.1-4.7 4.7-4.7 2.6 0 4.7 2.1 4.7 4.7z"/>
				<path id="&lt;Path&gt;" class="s3" d="m80.3 119.3c0 2.4-1.9 4.4-4.3 4.4-2.4 0-4.3-2-4.3-4.4 0-2.4 1.9-4.3 4.3-4.3 2.4 0 4.3 1.9 4.3 4.3z"/>
				<path id="&lt;Path&gt;" class="s3" d="m129 399c0 1.4-1.1 2.5-2.4 2.5-1.4 0-2.5-1.1-2.5-2.5 0-1.4 1.1-2.5 2.5-2.5 1.3 0 2.4 1.1 2.4 2.5z"/>
				<path id="&lt;Path&gt;" class="s3" d="m123.9 318.9c0 2.2-1.7 3.9-3.9 3.9-2.2 0-3.9-1.7-3.9-3.9 0-2.2 1.7-3.9 3.9-3.9 2.2 0 3.9 1.7 3.9 3.9z"/>
				<path id="&lt;Path&gt;" class="s3" d="m379.7 218.3c0 1.3-1.1 2.4-2.4 2.4-1.3 0-2.3-1.1-2.3-2.4 0-1.3 1-2.4 2.3-2.4 1.3 0 2.4 1.1 2.4 2.4z"/>
				<path id="&lt;Path&gt;" class="s3" d="m221.2 323.3c0 1.3-1 2.4-2.3 2.4-1.4 0-2.4-1.1-2.4-2.4 0-1.3 1-2.4 2.4-2.4 1.3 0 2.3 1.1 2.3 2.4z"/>
				<path id="&lt;Path&gt;" class="s3" d="m157.1 362c0 2.6-2.1 4.7-4.7 4.7-2.6 0-4.8-2.1-4.8-4.7 0-2.6 2.2-4.7 4.8-4.7 2.6 0 4.7 2.1 4.7 4.7z"/>
			</g>
			<g id="&lt;Group&gt;">
				<path id="&lt;Path&gt;" class="s2" d="m752.8 893.3l-3 6.4 3.6 6-7-0.8-4.6 5.3-1.4-6.9-6.4-2.7 6.1-3.5 0.6-7 5.2 4.8z"/>
				<path id="&lt;Path&gt;" class="s3" d="m640.5 631.3l0.9 4.9 4.5 2.1-4.4 2.3-0.5 5-3.6-3.5-4.9 1 2.2-4.4-2.5-4.4 4.9 0.7z"/>
				<path id="&lt;Path&gt;" class="s4" d="m914.9 869.8l7 4.7 7.8-3.1-2.3 8.1 5.4 6.5-8.4 0.4-4.5 7.1-3-7.9-8.1-2.1 6.6-5.2z"/>
				<path id="&lt;Path&gt;" class="s4" d="m676.8 846.1l7.4 6.7 9.6-2.3-4.1 9 5.2 8.5-9.9-1-6.4 7.5-2.1-9.7-9.1-3.9 8.6-4.9z"/>
				<path id="&lt;Path&gt;" class="s4" d="m663.7 351.7l7.4 6.7 9.6-2.3-4 9.1 5.1 8.4-9.8-1-6.5 7.5-2-9.7-9.2-3.9 8.6-4.9z"/>
				<path id="&lt;Path&gt;" class="s3" d="m703.2 668.6l3.8 4 5.4-0.8-2.7 4.7 2.5 4.9-5.4-1-3.9 3.8-0.7-5.4-4.8-2.5 4.9-2.3z"/>
				<path id="&lt;Path&gt;" class="s3" d="m924.8 646.9l0.2 8.3 6.9 4.5-7.8 2.7-2.2 8-5-6.5-8.3 0.4 4.7-6.8-2.9-7.8 7.9 2.4z"/>
				<path id="&lt;Path&gt;" class="s2" d="m726.4 567.2c0 2.9-2.2 5.2-5.1 5.2-2.8 0-5.1-2.3-5.1-5.2 0-2.8 2.3-5.1 5.1-5.1 2.9 0 5.1 2.3 5.1 5.1z"/>
				<path id="&lt;Path&gt;" class="s4" d="m908.9 575.6c0 2.2-1.8 4-4 4-2.1 0-3.9-1.8-3.9-4 0-2.1 1.8-3.9 3.9-3.9 2.2 0 4 1.8 4 3.9z"/>
				<path id="&lt;Path&gt;" class="s4" d="m783.9 656.1c0 2.1-1.7 3.9-3.9 3.9-2.2 0-3.9-1.8-3.9-3.9 0-2.2 1.7-4 3.9-4 2.2 0 3.9 1.8 3.9 4z"/>
				<path id="&lt;Path&gt;" class="s2" d="m581 660.6c0 2.8-2.3 5.1-5.2 5.1-2.8 0-5.1-2.3-5.1-5.1 0-2.9 2.3-5.1 5.1-5.1 2.9 0 5.2 2.2 5.2 5.1z"/>
				<path id="&lt;Path&gt;" class="s2" d="m886.1 905c0 2.8-2.3 5.1-5.1 5.1-2.8 0-5.1-2.3-5.1-5.1 0-2.8 2.3-5.1 5.1-5.1 2.8 0 5.1 2.3 5.1 5.1z"/>
				<path id="&lt;Path&gt;" class="s2" d="m488.1 901c0 2.8-2.3 5.1-5.1 5.1-2.8 0-5.1-2.3-5.1-5.1 0-2.8 2.3-5.1 5.1-5.1 2.8 0 5.1 2.3 5.1 5.1z"/>
				<path id="&lt;Path&gt;" class="s2" d="m684.1 429c0 2.8-2.3 5.1-5.1 5.1-2.8 0-5.1-2.3-5.1-5.1 0-2.8 2.3-5.1 5.1-5.1 2.8 0 5.1 2.3 5.1 5.1z"/>
				<path id="&lt;Path&gt;" class="s3" d="m585.5 906.7c-0.1 0.9-0.9 1.4-1.8 1.3-0.8-0.2-1.4-1-1.3-1.9 0.2-0.8 1-1.4 1.9-1.2 0.8 0.1 1.4 0.9 1.2 1.8z"/>
				<path id="&lt;Path&gt;" class="s3" d="m851.3 618.1c0 1.3-1.1 2.3-2.4 2.3-1.3 0-2.3-1-2.3-2.3 0-1.3 1-2.4 2.3-2.4 1.3 0 2.4 1.1 2.4 2.4z"/>
				<path id="&lt;Path&gt;" class="s3" d="m751.5 616.5c0 1.3-1 2.4-2.3 2.4-1.3 0-2.4-1.1-2.4-2.4 0-1.3 1.1-2.4 2.4-2.4 1.3 0 2.3 1.1 2.3 2.4z"/>
				<path id="&lt;Path&gt;" class="s3" d="m670.4 733.6c0 1.3-1.1 2.4-2.4 2.4-1.3 0-2.4-1.1-2.4-2.4 0-1.3 1.1-2.3 2.4-2.3 1.3 0 2.4 1 2.4 2.3z"/>
			</g>
			<g id="&lt;Group&gt;">
				<path id="&lt;Path&gt;" class="s3" d="m71.5 504.9l5.2 5.4 7.4-1.2-3.5 6.6 3.4 6.7-7.4-1.4-5.2 5.3-1.1-7.4-6.6-3.4 6.7-3.2z"/>
				<path id="&lt;Path&gt;" class="s2" d="m279.4 901.4l-3 6.4 3.6 6-6.9-0.8-4.7 5.3-1.4-6.9-6.4-2.7 6.1-3.5 0.6-7 5.2 4.8z"/>
				<path id="&lt;Path&gt;" class="s3" d="m167.1 639.4l0.9 4.9 4.5 2.1-4.4 2.3-0.5 5-3.6-3.5-4.9 1 2.2-4.4-2.5-4.4 4.9 0.7z"/>
				<path id="&lt;Path&gt;" class="s2" d="m102.6 856.8v10.6l8.8 5.9-10.1 3.4-2.9 10.1-6.3-8.5-10.6 0.3 6.2-8.6-3.6-9.9 10.1 3.2z"/>
				<path id="&lt;Path&gt;" class="s4" d="m432.5 865.9l7 4.8 7.8-3.2-2.3 8.2 5.4 6.5-8.4 0.3-4.5 7.1-2.9-7.9-8.2-2.1 6.6-5.2z"/>
				<path id="&lt;Path&gt;" class="s4" d="m352.9 534.7l6.6 3.6 6.7-3.4-1.4 7.4 5.3 5.4-7.4 1-3.5 6.7-3.2-6.8-7.5-1.2 5.5-5.2z"/>
				<path id="&lt;Path&gt;" class="s4" d="m620.9 880.7l6.6 3.6 6.7-3.4-1.4 7.4 5.3 5.4-7.4 1-3.5 6.7-3.2-6.8-7.5-1.2 5.5-5.2z"/>
				<path id="&lt;Path&gt;" class="s3" d="m433.2 646.4l0.2 8.3 6.9 4.5-7.8 2.7-2.1 8-5.1-6.6-8.2 0.4 4.7-6.8-3-7.7 7.9 2.4z"/>
				<path id="&lt;Path&gt;" class="s3" d="m60.4 721.8l4.6 4 5.9-1.6-2.3 5.7 3.3 5.1-6.1-0.5-3.9 4.8-1.4-6-5.7-2.2 5.2-3.2z"/>
				<path id="&lt;Path&gt;" class="s4" d="m107 624.2c0 1.4-1.1 2.5-2.4 2.5-1.4 0-2.5-1.1-2.5-2.5 0-1.3 1.1-2.4 2.5-2.4 1.3 0 2.4 1.1 2.4 2.4z"/>
				<path id="&lt;Path&gt;" class="s4" d="m303.9 679c0 2.1-1.8 3.9-4 3.9-2.2 0-3.9-1.8-3.9-3.9 0-2.2 1.7-4 3.9-4 2.2 0 4 1.8 4 4z"/>
				<path id="&lt;Path&gt;" class="s4" d="m398.6 833.7c0 2.2-1.8 3.9-4 3.9-2.2 0-3.9-1.7-3.9-3.9 0-2.2 1.7-4 3.9-4 2.2 0 4 1.8 4 4z"/>
				<path id="&lt;Path&gt;" class="s2" d="m107.6 668.7c0 2.8-2.3 5.1-5.1 5.1-2.9 0-5.2-2.3-5.2-5.1 0-2.8 2.3-5.1 5.2-5.1 2.8 0 5.1 2.3 5.1 5.1z"/>
				<path id="&lt;Path&gt;" class="s3" d="m348.8 872.7c0 2.8-2.3 5.1-5.1 5.1-2.8 0-5.1-2.3-5.1-5.1 0-2.9 2.3-5.1 5.1-5.1 2.8 0 5.1 2.2 5.1 5.1z"/>
				<path id="&lt;Path&gt;" class="s3" d="m349.6 724.6c0 2.7-2.2 4.8-4.8 4.8-2.6 0-4.7-2.1-4.7-4.8 0-2.6 2.1-4.7 4.7-4.7 2.6 0 4.8 2.1 4.8 4.7z"/>
				<path id="&lt;Path&gt;" class="s3" d="m155.7 911c0 2.6-2.1 4.7-4.7 4.7-2.6 0-4.7-2.1-4.7-4.7 0-2.6 2.1-4.7 4.7-4.7 2.6 0 4.7 2.1 4.7 4.7z"/>
				<path id="&lt;Path&gt;" class="s3" d="m323.6 563.5c0 2.4-2 4.4-4.4 4.4-2.4 0-4.3-2-4.3-4.4 0-2.3 1.9-4.3 4.3-4.3 2.4 0 4.4 2 4.4 4.3z"/>
				<path id="&lt;Path&gt;" class="s3" d="m278.1 624.6c0 1.3-1 2.4-2.3 2.4-1.3 0-2.4-1.1-2.4-2.4 0-1.3 1.1-2.3 2.4-2.3 1.3 0 2.3 1 2.3 2.3z"/>
			</g>
			<g id="&lt;Group&gt;">
				<path id="&lt;Path&gt;" class="s1" d="m904.7 77.6v7.6l6.2 4.4-7.2 2.3-2.2 7.3-4.5-6.2-7.6 0.2 4.5-6.1-2.5-7.2 7.2 2.3z"/>
				<path id="&lt;Path&gt;" class="s2" d="m823.1 349.6l0.1 10.6 8.7 6-10 3.3-3 10.2-6.2-8.6-10.6 0.4 6.1-8.6-3.5-10 10 3.2z"/>
				<path id="&lt;Path&gt;" class="s3" d="m665.9 270.9l3.8 4 5.4-0.8-2.7 4.8 2.5 4.9-5.4-1.1-3.9 3.9-0.7-5.5-4.8-2.5 4.9-2.3z"/>
				<path id="&lt;Path&gt;" class="s4" d="m688.8 57.2l1.5 8.1 7.6 3.4-7.3 4-0.8 8.2-6-5.7-8.1 1.7 3.5-7.5-4.1-7.1 8.2 1.1z"/>
				<path id="&lt;Path&gt;" class="s3" d="m777.4 72.2l4.9 6.4 7.9-0.4-4.5 6.5 2.8 7.5-7.6-2.3-6.2 5-0.2-8-6.7-4.3 7.5-2.7z"/>
				<path id="&lt;Path&gt;" class="s4" d="m893.4 334.5l1.1 7.1 6.5 3-6.4 3.3-0.9 7-5-5-7 1.3 3.2-6.3-3.4-6.3 7 1.1z"/>
				<path id="&lt;Path&gt;" class="s2" d="m681.1 193c0 2.8-2.3 5.1-5.1 5.1-2.8 0-5.1-2.3-5.1-5.1 0-2.8 2.3-5.1 5.1-5.1 2.8 0 5.1 2.3 5.1 5.1z"/>
				<path id="&lt;Path&gt;" class="s2" d="m930.1 394c0 2.8-2.3 5.1-5.1 5.1-2.8 0-5.1-2.3-5.1-5.1 0-2.8 2.3-5.1 5.1-5.1 2.8 0 5.1 2.3 5.1 5.1z"/>
				<path id="&lt;Path&gt;" class="s2" d="m689.1 612c0 2.8-2.3 5.1-5.1 5.1-2.8 0-5.1-2.3-5.1-5.1 0-2.8 2.3-5.1 5.1-5.1 2.8 0 5.1 2.3 5.1 5.1z"/>
				<path id="&lt;Path&gt;" class="s2" d="m527.1 635c0 2.8-2.3 5.1-5.1 5.1-2.8 0-5.1-2.3-5.1-5.1 0-2.8 2.3-5.1 5.1-5.1 2.8 0 5.1 2.3 5.1 5.1z"/>
				<path id="&lt;Path&gt;" class="s2" d="m603.7 82.9c0 2.8-2.3 5.1-5.1 5.1-2.9 0-5.2-2.3-5.2-5.1 0-2.8 2.3-5.1 5.2-5.1 2.8 0 5.1 2.3 5.1 5.1z"/>
				<path id="&lt;Path&gt;" class="s3" d="m670.6 130.9c0 2.2-1.8 4-3.9 4-2.2 0-4-1.8-4-4 0-2.2 1.8-3.9 4-3.9 2.1 0 3.9 1.7 3.9 3.9z"/>
				<path id="&lt;Path&gt;" class="s4" d="m742.1 372c0 2.8-2.3 5.1-5.1 5.1-2.9 0-5.1-2.3-5.1-5.1 0-2.8 2.2-5.1 5.1-5.1 2.8 0 5.1 2.3 5.1 5.1z"/>
				<path id="&lt;Path&gt;" class="s3" d="m583.8 325.1c0 2.2-1.8 4-4 4-2.2 0-3.9-1.8-3.9-4 0-2.1 1.7-3.9 3.9-3.9 2.2 0 4 1.8 4 3.9z"/>
				<path id="&lt;Path&gt;" class="s3" d="m681 329.5c0 1.3-1 2.4-2.3 2.4-1.3 0-2.4-1.1-2.4-2.4 0-1.3 1.1-2.3 2.4-2.3 1.3 0 2.3 1 2.3 2.3z"/>
			</g>
		</g>
	</g>
</svg>