<svg version="1.2" xmlns="http://www.w3.org/2000/svg" viewBox="0 0 1140 900" width="1140" height="900">
	<title>Layer 1</title>
	<defs>
		<linearGradient id="g1" x2="1" gradientUnits="userSpaceOnUse" gradientTransform="matrix(0,-900,1140,0,214.115,900.036)">
			<stop offset="0" stop-color="#002045"/>
			<stop offset=".994" stop-color="#faaf3b"/>
		</linearGradient>
	</defs>
	<style>
		.s0 { fill: #0d202e } 
		.s1 { fill: #007781 } 
		.s2 { opacity: .2;mix-blend-mode: soft-light;fill: url(#g1) } 
		.s3 { opacity: .2;fill: #ffb5ff } 
		.s4 { fill: #ffb5ff } 
	</style>
	<g id="Layer 1">
		<g id="-e-">
			<g id="a">
				<path id="&lt;Path&gt;" class="s0" d="m-0.6 900v-900h1140v900z"/>
				<g id="&lt;Group&gt;" style="opacity: .2;mix-blend-mode: multiply">
					<path id="&lt;Path&gt;" class="s1" d="m625.5 0c29.3 101.3 133.2 118.4 213.7 214.3 106.6 126.9-9.1 240 34 369.4 36.4 109.2 210.2 183 266.2 197.8v-781.5z"/>
					<path id="&lt;Path&gt;" class="s1" d="m395.2 770.9c-46.4-8.1-99.9-20.9-119.6-63.6-18.4-40.3 2.4-89.7-13.7-130.9-12.8-33.1-46.4-53.2-79.6-65.5-33.3-12.3-69-19.5-98.9-38.4-44.9-28.3-70.6-79.2-84-130.6v558.1h973.4c-13.2-8.3-29.3-12.6-44.7-16.4-176.2-43.9-354-81.5-532.9-112.7z"/>
					<path id="&lt;Path&gt;" class="s1" d="m796.3 416.2c-5.4 26.1-10.7 53.3-9.8 80 0.8 23.7 5.4 55.1 25.9 70.4 5 3.7 11.2-1.5 11.6-6.7 0.7-11.9-2.4-24.8-3.4-36.8-1-13-0.5-25.9 0.4-38.9 1.8-26 7.5-51.5 12.3-77.1 4.9-25.8 8.9-52.1 7.7-78.4-1-24.4-5.9-52.3-25-69.4-4.8-4.3-15.3-1.8-14.4 6 2.8 24.8 8.5 48.2 7.1 73.4-1.4 26.2-7 51.9-12.4 77.5z"/>
					<path id="&lt;Path&gt;" class="s1" d="m792.5 209.7c-1.7-9.6-7.3-18.1-14-25.4-7.9-8.7-22-23-34.3-13.1-7.2 5.7-6.7 13.3-3.7 20.5 0.6 6.2 5.1 13.1 8.9 17.2 3.4 3.9 7.5 7.2 11.8 10 6 5 12.8 8.9 20.8 10.6 11.7 2.5 18.2-10.3 11.1-19.1q-0.3-0.4-0.6-0.7z"/>
					<path id="&lt;Path&gt;" class="s1" d="m300.4 647.2c-0.5 6.2 0 12.6 1.3 18.3 3.6 15.3 13.3 28 26.4 36.5 12.4 7.9 31.2 13.5 45.1 6.5 13.8-6.8 17.8-23.5 5.9-34.5-6.9-6.4-14.4-5.1-22.7-7.2-7-1.8-11.1-6.7-13.4-13.3-4.8-13.4 2.5-33.7-16.1-38.7-15.8-4.2-28.4 10.5-27.5 25.3 0.1 2.3 0.5 4.7 1 7.1z"/>
					<path id="&lt;Path&gt;" class="s1" d="m417.8 722.5c3.1 3.4 7.2 5.3 11.7 6.1 4.1 1.4 8.6 1.7 13.1 0.7 1.8-0.4 3.3-1.2 4.5-2.4q2.1-0.8 4-1.8c5.1-2.7 5.3-9.6 1.7-13.5-6.8-7.5-19.5-12.4-29.2-9.5-5.7 1.7-8.7 7.2-7.7 12.7-0.8 2.6-0.1 5.7 1.9 7.7z"/>
					<path id="&lt;Path&gt;" class="s1" d="m648 247.3c-6.3 17.6 6.6 32.1 19.4 42.4q21.7 17.4 45.5 31.9c2.1 1.4 4.3 2.7 6.6 4q5.1 3.2 10.7 5.8c14.9 6.9 31.2 4.7 38.7-11.4 5.8-12.8 5.4-31.3 1.1-44.5-5.4-16.4-20.1-26.9-34.6-34.8-14.7-8.1-33-15.9-50.1-17-8.1-0.5-16.8 2.2-22.8 7.4-6.3 2.6-11.4 7.6-14.5 16.2z"/>
					<path id="&lt;Path&gt;" class="s1" d="m641.7 101.5c1.7-1 2.9-2.3 3.9-3.7 15.9-11.1-2.1-37.1-22.2-54.9q-0.3-0.4-0.6-0.7c-6.7-8.8-19.7-22.3-30.2-17.4-10.6-0.6-16.6 9.3-16.7 18.9-0.2 11.1 6.2 20.9 12.6 29.3 11.2 14.6 32.5 40.6 53.2 28.5z"/>
					<path id="&lt;Compound Path&gt;" fill-rule="evenodd" class="s1" d="m661.5 120.1c-1.9-2.9-1.6-7 0-10 3.9-6.8 14.2-7 19.5-1.9 2.5 2.4 3.7 5.7 3.9 9.1 0.2 2.9-0.8 5.5-1.9 8.2-1 2.4-4.3 4-6.8 3.9-3.4-0.1-6.7-1.8-8.5-4.7-2.4-0.6-4.5-2.2-6.2-4.6zm18.5-2.6c0-0.6-0.1-1.2-0.3-1.7q0.2 0.8 0.3 1.7z"/>
					<path id="&lt;Compound Path&gt;" fill-rule="evenodd" class="s1" d="m29.5 178c-0.1-13.3-0.3-27 1.2-40.3 1.2-10.1 5.2-20 15.5-23.9 23.2-8.9 43.9 15 48.2 35.5 5.2 24.8-1.4 50.8-2.6 75.7-1.3 27.2 4 54.3 2.8 81.5-0.7 16.5-3.8 58-30.8 48.8-19.9-6.8-26.9-38-29.7-56-4-25-3.9-50.6-4.1-75.9 0-7.9-0.1-15.9 0-23.9q-0.4-10.7-0.5-21.5z"/>
					<path id="&lt;Path&gt;" class="s1" d="m78.2 387.8c-4.1-2.9-11.1-0.9-13.3 3.5-6.1 12 0.5 25 10.9 32.1 1.5 1 3.3 2.1 5.2 3.1q4.8 4.1 10.6 7.2c8.3 4.3 21.7 8.3 25.5-3.9 2.9-9.7-5.8-17.7-12.2-23.3-8.3-7.2-17.7-12.5-26.7-18.7z"/>
					<path id="&lt;Path&gt;" class="s1" d="m109.3 385.2c2 0.8 4.1 1.2 6.1 1.2 6.9 1.7 14.2-0.2 19.4-5.7 8.1-8.6 7.2-20.9 4.2-31.4-2.9-10-6.2-26.4-20.2-24.5-12.7 1.8-17.7 18.1-19.4 28.8-1.6 10.7-2.4 26.7 9.9 31.6z"/>
				</g>
				<path id="&lt;Path&gt;" class="s2" d="m-0.6 900v-900h1140v900z"/>
			</g>
			<g id="&lt;Group&gt;" style="opacity: .2;mix-blend-mode: screen">
				<g id="&lt;Group&gt;">
					<path id="&lt;Path&gt;" class="s3" d="m76.1 47c-2.7 0-5-2.2-5.2-5.1 0-1.3 0.5-2.6 1.5-3.6 1-1.1 2.3-1.7 3.7-1.7 2.8 0 5.1 2.3 5.2 5.1 0.1 1.4-0.4 2.7-1.4 3.7-1 1-2.4 1.6-3.8 1.6z"/>
					<path id="&lt;Path&gt;" class="s4" d="m76.1 45c1.7 0 3.3-1.4 3.2-3.2-0.1-1.7-1.4-3.2-3.2-3.2-1.6 0-3.2 1.5-3.2 3.2 0.1 1.8 1.4 3.2 3.2 3.2z"/>
				</g>
				<g id="&lt;Group&gt;">
					<path id="&lt;Path&gt;" class="s3" d="m52.3 88.8c-2.5 0-4.3-1.9-4.3-4.4 0-2.6 1.8-4.5 4.3-4.5 2.5 0 4.4 1.9 4.4 4.4 0 2.6-1.9 4.5-4.4 4.5z"/>
					<path id="&lt;Path&gt;" class="s4" d="m52.3 86.8c3.2 0 3.2-4.9 0-4.9-3.1 0-3.1 4.9 0 4.9z"/>
				</g>
				<g id="&lt;Group&gt;">
					<path id="&lt;Path&gt;" class="s3" d="m88.3 103.2c-2.7 0-5.1-2.5-5.1-5.2 0-2.8 2.4-5.3 5.1-5.3q0.9 0 1.7 0.3l1.2 0.5c2 0.7 3.2 2.5 3.2 4.5 0 1.9-1.2 3.7-3.2 4.4l-1.2 0.5q-0.8 0.3-1.7 0.3 0 0 0 0z"/>
					<path id="&lt;Path&gt;" class="s4" d="m90.5 95.3q-0.7-0.2-1.3-0.4c-2-0.8-4 1.1-4 3.1 0 1.9 2.1 3.8 4 3.1q0.6-0.3 1.3-0.5c2.5-1 2.5-4.3 0-5.3z"/>
				</g>
				<g id="&lt;Group&gt;">
					<path id="&lt;Path&gt;" class="s3" d="m118.7 69.9c-2.4 0-4.2-1.8-4.2-4.3 0-2.4 1.8-4.2 4.2-4.2 1.2 0 2.3 0.5 3.1 1.4 0.7 0.8 1 1.8 1 2.8 0 2.5-1.8 4.3-4.1 4.3z"/>
					<path id="&lt;Path&gt;" class="s4" d="m118.7 67.9c2.8 0 2.9-4.5 0-4.5-2.9 0-2.9 4.5 0 4.5z"/>
				</g>
				<g id="&lt;Group&gt;">
					<path id="&lt;Path&gt;" class="s3" d="m181.6 80.8c-1.5 0-2.8-0.6-3.6-1.7-0.8-0.8-1.2-2-1.2-3.3 0-2.7 2-4.9 4.8-4.9 1.4 0 2.7 0.6 3.6 1.6 0.8 0.9 1.2 2.1 1.2 3.3 0 2.8-2.1 5-4.8 5z"/>
					<path id="&lt;Path&gt;" class="s4" d="m181.6 78.8c3.7 0 3.7-5.9 0-5.9-3.8 0-3.8 5.9 0 5.9z"/>
				</g>
				<g id="&lt;Group&gt;">
					<path id="&lt;Path&gt;" class="s3" d="m156.1 157.4c-2.8 0-4.9-2.2-4.9-5 0-2.9 2.1-5 4.9-5 1.4 0 2.8 0.6 3.7 1.6 0.7 0.9 1.2 2.1 1.2 3.4 0 2.8-2.1 5-4.9 5z"/>
					<path id="&lt;Path&gt;" class="s4" d="m156.1 155.4c3.8 0 3.8-6 0-6-3.9 0-3.9 6 0 6z"/>
				</g>
				<g id="&lt;Group&gt;">
					<path id="&lt;Path&gt;" class="s3" d="m60.8 223.5c-1.7 0-3.1-1.3-3.1-3.1 0-1.7 1.4-3.1 3.1-3.1 1 0 1.8 0.4 2.4 1 0.4 0.6 0.7 1.3 0.7 2.1 0 1.8-1.3 3.1-3.1 3.1z"/>
					<path id="&lt;Path&gt;" class="s4" d="m60.8 221.5c1.5 0 1.5-2.2 0-2.2-1.4 0-1.4 2.2 0 2.2z"/>
				</g>
				<g id="&lt;Group&gt;">
					<path id="&lt;Path&gt;" class="s3" d="m42.1 185.2c-2.2 0-3.8-1.7-3.8-3.9 0-2.2 1.6-3.9 3.8-3.9 2.2 0 3.8 1.7 3.8 3.9 0 2.2-1.6 3.9-3.8 3.9z"/>
					<path id="&lt;Path&gt;" class="s4" d="m42.1 183.2c2.4 0 2.4-3.8 0-3.8-2.4 0-2.4 3.8 0 3.8z"/>
				</g>
				<g id="&lt;Group&gt;">
					<path id="&lt;Path&gt;" class="s3" d="m91.4 163.9c-1.3 0-2.4-0.5-3.3-1.4l-0.9-0.9c-1.3-1.3-1.3-3.5 0-4.9l0.9-0.8c0.9-0.9 2-1.4 3.3-1.4 2.6 0 4.8 2.1 4.8 4.7 0 1.3-0.6 2.5-1.6 3.4-0.9 0.8-2.1 1.3-3.2 1.3z"/>
					<path id="&lt;Path&gt;" class="s4" d="m89.5 157.3q-0.4 0.4-0.8 0.8c-0.6 0.6-0.6 1.6 0 2.1q0.4 0.5 0.8 0.9c1.7 1.7 4.7 0.4 4.7-1.9 0-2.3-3-3.6-4.7-1.9z"/>
				</g>
				<g id="&lt;Group&gt;">
					<path id="&lt;Path&gt;" class="s3" d="m110.1 231.2c-3.5 0-5.5-2.9-5.5-5.7 0-1.4 0.5-2.8 1.4-3.8 1-1.2 2.5-1.8 4.1-1.8 3.6 0 5.6 2.9 5.6 5.6 0 2.8-2 5.7-5.6 5.7z"/>
					<path id="&lt;Path&gt;" class="s4" d="m110.1 229.2c4.8 0 4.8-7.3 0-7.3-4.7 0-4.7 7.3 0 7.3z"/>
				</g>
				<g id="&lt;Group&gt;">
					<path id="&lt;Path&gt;" class="s3" d="m227.5 118.2c-2.7 0-4.8-2.1-4.8-4.9 0-1.3 0.4-2.4 1.2-3.3 0.9-1.1 2.2-1.6 3.6-1.6 2.7 0 4.8 2.1 4.8 4.9 0 1.2-0.4 2.4-1.2 3.3-0.9 1-2.1 1.6-3.6 1.6z"/>
					<path id="&lt;Path&gt;" class="s4" d="m227.5 116.2c3.7 0 3.8-5.8 0-5.8-3.7 0-3.7 5.8 0 5.8z"/>
				</g>
				<g id="&lt;Group&gt;">
					<path id="&lt;Path&gt;" class="s3" d="m256.4 54.5c-2.3 0-4.1-1.8-4.1-4.2 0-2.3 1.8-4.1 4.1-4.1 2.3 0 4.1 1.8 4.1 4.1 0 2.4-1.8 4.2-4.1 4.2z"/>
					<path id="&lt;Path&gt;" class="s4" d="m256.4 52.5c2.8 0 2.8-4.3 0-4.3-2.8 0-2.8 4.3 0 4.3z"/>
				</g>
				<g id="&lt;Group&gt;">
					<path id="&lt;Path&gt;" class="s3" d="m152.7 116.9c-3 0-5.3-2.3-5.3-5.3 0-3.1 2.3-5.4 5.3-5.4 3 0 5.2 2.3 5.2 5.4 0 1.3-0.4 2.6-1.3 3.6-0.9 1.1-2.3 1.7-3.9 1.7z"/>
					<path id="&lt;Path&gt;" class="s4" d="m152.7 114.9c4.3 0 4.3-6.7 0-6.7-4.4 0-4.4 6.7 0 6.7z"/>
				</g>
				<g id="&lt;Group&gt;">
					<path id="&lt;Path&gt;" class="s3" d="m42.1 38.3c-1 0-1.8-0.4-2.4-1.1-0.6-0.6-0.9-1.4-0.9-2.2 0-1.9 1.5-3.3 3.3-3.3 1.9 0 3.3 1.4 3.3 3.3 0 0.8-0.3 1.6-0.8 2.2-0.6 0.7-1.5 1.1-2.5 1.1z"/>
					<path id="&lt;Path&gt;" class="s4" d="m42.1 36.3c1.7 0 1.7-2.6 0-2.6-1.7 0-1.7 2.6 0 2.6z"/>
				</g>
				<g id="&lt;Group&gt;">
					<path id="&lt;Path&gt;" class="s3" d="m152.7 42.4c-2.3 0-3.9-1.7-3.9-4 0-1 0.3-1.9 0.9-2.6 0.8-0.9 1.8-1.3 3-1.3 2.2 0 3.9 1.7 3.9 3.9 0 1-0.4 2-1 2.7-0.7 0.8-1.8 1.3-2.9 1.3z"/>
					<path id="&lt;Path&gt;" class="s4" d="m152.7 40.4c2.5 0 2.5-3.9 0-3.9-2.6 0-2.6 3.9 0 3.9z"/>
				</g>
				<g id="&lt;Group&gt;">
					<path id="&lt;Path&gt;" class="s3" d="m54 137.5c-2.1 0-3.8-1.6-3.8-3.8 0-2.2 1.7-3.9 3.8-3.9 2.2 0 3.8 1.7 3.8 3.9 0 2.2-1.6 3.8-3.8 3.8z"/>
					<path id="&lt;Path&gt;" class="s4" d="m54 135.5c2.4 0 2.4-3.7 0-3.7-2.4 0-2.4 3.7 0 3.7z"/>
				</g>
				<g id="&lt;Group&gt;">
					<path id="&lt;Path&gt;" class="s3" d="m1072.8 64.5c-3.6 0-5.5-2.9-5.5-5.7 0-1.4 0.4-2.8 1.3-3.8 1-1.2 2.5-1.8 4.2-1.8 3.6 0 5.5 2.9 5.5 5.6 0 2.8-1.9 5.7-5.5 5.7z"/>
					<path id="&lt;Path&gt;" class="s4" d="m1072.8 62.5c4.7 0 4.7-7.3 0-7.3-4.7 0-4.7 7.3 0 7.3z"/>
				</g>
				<g id="&lt;Group&gt;">
					<path id="&lt;Path&gt;" class="s3" d="m986.1 61.8c-1.4 0-2.6-0.6-3.5-1.6-0.7-0.8-1.1-1.9-1.1-3.1 0-2.6 2-4.6 4.6-4.6 1.3 0 2.5 0.6 3.4 1.5 0.7 0.9 1.1 2 1.1 3.1 0 2.7-2 4.7-4.5 4.7z"/>
					<path id="&lt;Path&gt;" class="s4" d="m986.1 59.8c3.3 0 3.3-5.3 0-5.3-3.4 0-3.4 5.3 0 5.3z"/>
				</g>
				<g id="&lt;Group&gt;">
					<path id="&lt;Path&gt;" class="s3" d="m965.6 124.3c-1.4 0-2.5-1.1-2.5-2.5 0-0.7 0.2-1.3 0.6-1.7 0.5-0.6 1.2-0.9 1.9-0.9 1.5 0 2.6 1.1 2.6 2.6 0 0.6-0.2 1.2-0.6 1.7-0.5 0.5-1.2 0.8-2 0.8z"/>
					<path id="&lt;Path&gt;" class="s4" d="m965.6 122.3c0.8 0 0.8-1.1 0-1.1-0.7 0-0.7 1.1 0 1.1z"/>
				</g>
				<g id="&lt;Group&gt;">
					<path id="&lt;Path&gt;" class="s3" d="m1025.2 96.6c-3.1 0-5.4-2.3-5.4-5.4 0-3.2 2.3-5.5 5.4-5.5 3 0 5.3 2.3 5.3 5.5 0 3.1-2.3 5.4-5.3 5.4z"/>
					<path id="&lt;Path&gt;" class="s4" d="m1025.2 94.6c4.4 0 4.4-6.9 0-6.9-4.5 0-4.5 6.9 0 6.9z"/>
				</g>
				<g id="&lt;Group&gt;">
					<path id="&lt;Path&gt;" class="s3" d="m1025.2 163c-3.6 0-5.5-2.8-5.5-5.5 0-1.4 0.5-2.8 1.4-3.8 1-1.1 2.4-1.8 4.1-1.8 3.5 0 5.4 2.9 5.4 5.6 0 2.7-1.9 5.5-5.4 5.5z"/>
					<path id="&lt;Path&gt;" class="s4" d="m1025.2 161c4.6 0 4.6-7.1 0-7.1-4.6 0-4.6 7.1 0 7.1z"/>
				</g>
				<g id="&lt;Group&gt;">
					<path id="&lt;Path&gt;" class="s3" d="m972.4 183.6c-3.6 0-5.6-2.9-5.6-5.7 0-1.5 0.5-2.8 1.4-3.9 1-1.2 2.6-1.9 4.2-1.9 3.7 0 5.7 3 5.7 5.8 0 1.5-0.5 2.8-1.4 3.9-1.1 1.2-2.6 1.8-4.3 1.8z"/>
					<path id="&lt;Path&gt;" class="s4" d="m972.4 181.6c4.9 0 4.9-7.5 0-7.5-4.8 0-4.8 7.5 0 7.5z"/>
				</g>
				<g id="&lt;Group&gt;">
					<path id="&lt;Path&gt;" class="s3" d="m1072.8 133.1c-1.8 0-3.5-0.7-4.6-2-0.9-1.2-1.5-2.6-1.5-4.2 0-3.1 2.1-6.2 6.1-6.2 4 0 6.1 3.1 6.1 6.2 0 1.6-0.6 3-1.5 4.2-1.1 1.3-2.8 2-4.6 2z"/>
					<path id="&lt;Path&gt;" class="s4" d="m1072.8 131.1c5.4 0 5.4-8.4 0-8.4-5.4 0-5.4 8.4 0 8.4z"/>
				</g>
				<g id="&lt;Group&gt;">
					<path id="&lt;Path&gt;" class="s3" d="m1076.2 200.6c-2.2 0-3.9-1.7-3.9-4 0-1 0.3-1.9 1-2.7 0.7-0.8 1.7-1.3 2.9-1.3 1.2 0 2.2 0.5 2.9 1.3 0.7 0.8 1 1.7 1 2.7 0 2.3-1.7 4-3.9 4z"/>
					<path id="&lt;Path&gt;" class="s4" d="m1076.2 198.6c2.5 0 2.5-4 0-4-2.5 0-2.5 4 0 4z"/>
				</g>
				<g id="&lt;Group&gt;">
					<path id="&lt;Path&gt;" class="s3" d="m996.4 137.5c-1.4 0-2.8-0.5-3.9-1.5l-0.4-0.3q-0.6-0.5-1.3-1c-1-1-1.6-2.3-1.7-3.7-0.1-1.6 0.5-3.3 1.6-4.5 1-1.1 2.5-1.7 4.1-1.7 1.7 0 3.2 0.6 4.2 1.8q0.5 0.5 1 1.2l0.3 0.4c2 2.4 2 5.4 0 7.6-1 1.1-2.4 1.7-3.9 1.7z"/>
					<path id="&lt;Path&gt;" class="s4" d="m998.8 129.5q-0.7-0.8-1.4-1.6c-1.2-1.5-3.9-1.5-5.2 0-1.3 1.4-1.6 3.9 0 5.3q0.7 0.6 1.5 1.3c1.5 1.2 3.7 1.5 5.1 0 1.4-1.5 1.3-3.5 0-5z"/>
				</g>
				<g id="&lt;Group&gt;">
					<path id="&lt;Path&gt;" class="s3" d="m923.3 86.9c0.5 0 0.5-0.6 0.5-0.8 0-0.3 0-0.6-0.2-0.7 0-0.1-0.1-0.2-0.3-0.2v-4c1.4 0 2.6 0.6 3.5 1.7 0.7 0.8 1 2 1 3.2 0 2.7-1.9 4.8-4.5 4.8z"/>
					<path id="&lt;Path&gt;" class="s4" d="m923.1 83.2q-0.7 0.1-1.3 0.1c-1.5 0.1-2.8 1.2-2.8 2.8 0 1.5 1.3 2.6 2.8 2.7q0.6 0 1.3 0.1c3.6 0.2 3.7-5.9 0-5.7z"/>
				</g>
				<g id="&lt;Group&gt;">
					<path id="&lt;Path&gt;" class="s3" d="m914.6 151.5c-1.4 0-2.5-1.1-2.5-2.5 0-0.6 0.2-1.2 0.6-1.7 0.5-0.6 1.2-0.9 1.9-0.9 1.4 0 2.6 1.1 2.6 2.6 0 0.6-0.3 1.2-0.7 1.7-0.4 0.5-1.1 0.8-1.9 0.8z"/>
					<path id="&lt;Path&gt;" class="s4" d="m914.6 149.5c0.7 0 0.7-1.1 0-1.1-0.7 0-0.7 1.1 0 1.1z"/>
				</g>
				<g id="&lt;Group&gt;">
					<path id="&lt;Path&gt;" class="s3" d="m1110 95.8q-0.4 0-0.8 0-0.4-0.1-0.8-0.1c-1.3-0.2-3.2-0.4-4.5-1.8-1.4-1.7-1.4-3.8 0-5.4 1.3-1.5 3.1-1.7 4.5-1.9q0.4 0 0.8 0 0.4-0.1 0.8-0.1c2.8 0 4.9 2 4.9 4.7 0 1.3-0.5 2.6-1.5 3.4-0.9 0.8-2.1 1.2-3.4 1.2z"/>
					<path id="&lt;Path&gt;" class="s4" d="m1109.5 88.5c-1.3 0.2-3.2 0.2-4.1 1.3-0.7 0.8-0.7 1.9 0 2.7 0.9 1.1 2.8 1.1 4.1 1.3 1.7 0.2 3.4-0.7 3.4-2.6 0-1.9-1.7-2.9-3.4-2.7z"/>
				</g>
				<g id="&lt;Group&gt;">
					<path id="&lt;Path&gt;" class="s3" d="m1021.8 236.6c-1.4 0-2.8-0.8-3.6-2-0.8-1.1-0.9-2.4-0.5-3.6l0.5-1.2c0.6-1.6 2-2.5 3.6-2.5 1.5 0 2.9 0.9 3.5 2.5l0.5 1.2c0.5 1.2 0.3 2.5-0.5 3.6-0.8 1.2-2.1 2-3.5 2z"/>
					<path id="&lt;Path&gt;" class="s4" d="m1023.9 231.7q-0.2-0.6-0.4-1.2c-0.7-1.7-2.8-1.7-3.4 0q-0.3 0.6-0.5 1.2c-0.5 1.4 0.8 2.9 2.2 2.9 1.3 0 2.7-1.5 2.1-2.9z"/>
				</g>
				<g id="&lt;Group&gt;">
					<path id="&lt;Path&gt;" class="s3" d="m1067.7 272.5c-1.5 0-2.7-1.2-2.7-2.8 0-1.5 1.2-2.7 2.7-2.7 0.8 0 1.5 0.3 2.1 0.9 0.4 0.5 0.6 1.2 0.6 1.8 0 1.6-1.2 2.8-2.7 2.8z"/>
					<path id="&lt;Path&gt;" class="s4" d="m1067.7 270.5c1 0 1-1.5 0-1.5-1 0-1 1.5 0 1.5z"/>
				</g>
				<g id="&lt;Group&gt;">
					<path id="&lt;Path&gt;" class="s3" d="m904.4 47.6c-1.3 0-2.3-1-2.3-2.4 0-1.3 1-2.3 2.3-2.3 0.7 0 1.4 0.3 1.8 0.8 0.4 0.4 0.6 1 0.6 1.5 0 1.4-1.1 2.4-2.4 2.4z"/>
					<path id="&lt;Path&gt;" class="s4" d="m904.4 45.6c0.5 0 0.5-0.7 0-0.7-0.5 0-0.5 0.7 0 0.7z"/>
				</g>
				<g id="&lt;Group&gt;">
					<path id="&lt;Path&gt;" class="s3" d="m926.5 35.1c-2.9 0-5.1-2.2-5.1-5.2 0-1.3 0.5-2.5 1.3-3.5 0.9-1.1 2.3-1.7 3.8-1.7 2.9 0 5.1 2.3 5.1 5.2 0 1.3-0.4 2.6-1.2 3.5-1 1.1-2.3 1.7-3.9 1.7z"/>
					<path id="&lt;Path&gt;" class="s4" d="m926.5 33.1c4.1 0 4.1-6.4 0-6.4-4.1 0-4.1 6.4 0 6.4z"/>
				</g>
				<g id="&lt;Group&gt;">
					<path id="&lt;Path&gt;" class="s3" d="m1032 33.5c-2 0-3.6-1.5-3.6-3.6 0-0.9 0.3-1.7 0.9-2.4 0.7-0.7 1.6-1.2 2.7-1.2 2 0 3.5 1.6 3.5 3.6 0 0.9-0.3 1.8-0.9 2.4-0.6 0.8-1.6 1.2-2.6 1.2z"/>
					<path id="&lt;Path&gt;" class="s4" d="m1032 31.5c2 0 2-3.2 0-3.2-2.1 0-2.1 3.2 0 3.2z"/>
				</g>
				<g id="&lt;Group&gt;">
					<path id="&lt;Path&gt;" class="s3" d="m858.5 63.8c-1.8 0-3.2-1.5-3.2-3.3 0-0.8 0.3-1.5 0.8-2.1 0.6-0.7 1.4-1.1 2.4-1.1 1.8 0 3.2 1.4 3.2 3.2 0 0.8-0.3 1.6-0.8 2.2-0.6 0.7-1.5 1.1-2.4 1.1z"/>
					<path id="&lt;Path&gt;" class="s4" d="m858.5 61.8c1.6 0 1.6-2.5 0-2.5-1.6 0-1.6 2.5 0 2.5z"/>
				</g>
				<g id="&lt;Group&gt;">
					<path id="&lt;Path&gt;" class="s3" d="m43.8 811.7c-1.3 0-2.5-0.5-3.3-1.5-0.7-0.8-1.1-1.9-1.1-3 0-2.6 1.9-4.5 4.4-4.5 2.6 0 4.5 1.9 4.5 4.5 0 2.6-1.9 4.5-4.5 4.5z"/>
					<path id="&lt;Path&gt;" class="s4" d="m43.8 809.7c3.3 0 3.3-5 0-5-3.2 0-3.2 5 0 5z"/>
				</g>
				<g id="&lt;Group&gt;">
					<path id="&lt;Path&gt;" class="s3" d="m26.7 875.6q-0.9 0-1.8-0.5l-3.3-1.9c-1.3-0.8-2-2.2-1.6-3.7 0.4-1.5 1.8-2.6 3.4-2.6q0.7 0 1.5 0.3l3.4 1.6c1.5 0.7 2.3 2.2 1.9 3.8-0.3 1.7-1.8 3-3.5 3z"/>
					<path id="&lt;Path&gt;" class="s4" d="m27.5 870.6q-1.7-0.8-3.5-1.5c-1.6-0.8-3 1.5-1.4 2.4q1.7 0.9 3.3 1.9c1.8 1 3.5-1.9 1.6-2.8z"/>
				</g>
				<g id="&lt;Group&gt;">
					<path id="&lt;Path&gt;" class="s3" d="m77.8 878c-1.3 0-2.5-0.5-3.3-1.4-0.7-0.9-1.1-1.9-1.1-3.1 0-2.6 1.9-4.5 4.4-4.5 2.6 0 4.5 1.9 4.5 4.5 0 2.6-1.9 4.5-4.5 4.5z"/>
					<path id="&lt;Path&gt;" class="s4" d="m77.8 876c3.3 0 3.3-5 0-5-3.2 0-3.2 5 0 5z"/>
				</g>
				<g id="&lt;Group&gt;">
					<path id="&lt;Path&gt;" class="s3" d="m72.7 845.6c-1.4 0-2.6-1.2-2.6-2.7 0-1.5 1.2-2.7 2.6-2.7 1.5 0 2.7 1.2 2.7 2.7 0 1.5-1.2 2.7-2.7 2.7z"/>
					<path id="&lt;Path&gt;" class="s4" d="m72.7 843.6c0.9 0 0.9-1.4 0-1.4-0.8 0-0.8 1.4 0 1.4z"/>
				</g>
				<g id="&lt;Group&gt;">
					<path id="&lt;Path&gt;" class="s3" d="m108.4 809.3c-2.1 0-3.7-1.7-3.7-3.8 0-2.2 1.6-3.8 3.7-3.8 2.2 0 3.8 1.6 3.8 3.8 0 2.1-1.6 3.8-3.8 3.8z"/>
					<path id="&lt;Path&gt;" class="s4" d="m108.4 807.3c2.3 0 2.3-3.6 0-3.6-2.2 0-2.2 3.6 0 3.6z"/>
				</g>
				<g id="&lt;Group&gt;">
					<path id="&lt;Path&gt;" class="s3" d="m161.1 857.2q-0.7 0-1.5-0.3l-1.2-0.3c-2.3-0.7-3.9-2.7-3.9-5.2 0-2.5 1.6-4.5 3.9-5.2l1.2-0.3q0.8-0.2 1.5-0.2c3.2 0 5.8 2.6 5.8 5.7 0 1.5-0.6 3-1.7 4.1-1.1 1-2.6 1.7-4.1 1.7z"/>
					<path id="&lt;Path&gt;" class="s4" d="m160.2 847.8q-0.7 0.2-1.3 0.3c-3.2 0.9-3.2 5.7 0 6.6q0.6 0.1 1.3 0.3c2.3 0.7 4.7-1.2 4.7-3.6 0-2.4-2.4-4.3-4.7-3.6z"/>
				</g>
				<g id="&lt;Group&gt;">
					<path id="&lt;Path&gt;" class="s3" d="m76.2 843c-2.9 0-5.3-2.3-5.3-5.2 0-2.1 1.3-3.9 3.5-4.9q0.8-0.3 1.7-0.3c1 0 1.8 0.3 2.5 0.6 1.6 0.7 2.6 2.3 2.7 4.1 0.1 2-0.9 4-2.5 5-0.8 0.4-1.7 0.7-2.6 0.7z"/>
					<path id="&lt;Path&gt;" class="s4" d="m77.7 835c-0.9-0.4-1.6-0.7-2.5-0.2-1.3 0.5-2.3 1.5-2.3 3 0 2.4 2.8 4 4.8 2.8 1.9-1.2 2.3-4.5 0-5.6z"/>
				</g>
				<g id="&lt;Group&gt;">
					<path id="&lt;Path&gt;" class="s3" d="m45.5 764.8c-1.9 0-3.4-1.5-3.4-3.5 0-0.9 0.3-1.7 0.8-2.4 0.7-0.7 1.6-1.1 2.6-1.1 2 0 3.5 1.5 3.5 3.5 0 2-1.5 3.5-3.5 3.5z"/>
					<path id="&lt;Path&gt;" class="s4" d="m45.5 762.8c1.9 0 2-3 0-3-1.9 0-1.9 3 0 3z"/>
				</g>
				<g id="&lt;Group&gt;">
					<path id="&lt;Path&gt;" class="s3" d="m130.6 783.6c-2.1 0-3.9-1-4.8-2.8l-0.5-1c-1-2.1-0.9-4.1 0.1-5.9 1.1-1.8 3-3 5.2-3 2.1 0 4 1.2 5.1 3 1 1.8 1.1 3.8 0.1 5.9l-0.5 1c-0.8 1.8-2.7 2.8-4.7 2.8z"/>
					<path id="&lt;Path&gt;" class="s4" d="m133.5 780q0.2-0.6 0.5-1.1c0.6-1.3 0.7-2.7 0-4-0.7-1.2-2-2-3.4-2-1.4 0-2.8 0.8-3.5 2-0.7 1.3-0.6 2.7 0 4q0.3 0.5 0.5 1.1c1.1 2.2 4.8 2.2 5.9 0z"/>
				</g>
				<g id="&lt;Group&gt;">
					<path id="&lt;Path&gt;" class="s3" d="m193.5 798.9c-3 0-5.2-2.3-5.2-5.3 0-1.4 0.5-2.6 1.3-3.6 0.9-1.1 2.3-1.7 3.9-1.7 2.9 0 5.2 2.3 5.2 5.3 0 1.3-0.5 2.6-1.3 3.5-1 1.1-2.4 1.8-3.9 1.8z"/>
					<path id="&lt;Path&gt;" class="s4" d="m193.5 796.9c4.2 0 4.2-6.6 0-6.6-4.2 0-4.2 6.6 0 6.6z"/>
				</g>
				<g id="&lt;Group&gt;">
					<path id="&lt;Path&gt;" class="s3" d="m229.2 858.5c-2.1 0-3.6-1.6-3.6-3.7 0-2.1 1.5-3.7 3.6-3.7 2.1 0 3.6 1.6 3.6 3.7 0 2.1-1.5 3.7-3.6 3.7z"/>
					<path id="&lt;Path&gt;" class="s4" d="m229.2 856.5c2.2 0 2.2-3.4 0-3.4-2.2 0-2.2 3.4 0 3.4z"/>
				</g>
				<g id="&lt;Group&gt;">
					<path id="&lt;Path&gt;" class="s3" d="m140.8 883.1c-2.5 0-4.4-2-4.4-4.5 0-2.5 1.9-4.4 4.4-4.4 2.4 0 4.3 1.9 4.3 4.4 0 2.5-1.9 4.5-4.3 4.5z"/>
					<path id="&lt;Path&gt;" class="s4" d="m140.8 881.1c3.1 0 3.1-4.9 0-4.9-3.2 0-3.2 4.9 0 4.9z"/>
				</g>
				<g id="&lt;Group&gt;">
					<path id="&lt;Path&gt;" class="s3" d="m35.3 700.7c-1.2 0-2.3-0.5-3-1.3-0.6-0.8-1-1.7-1-2.8 0-2.3 1.7-4 4-4 1.2 0 2.3 0.4 3 1.3 0.7 0.7 1 1.7 1 2.7 0 2.3-1.7 4.1-4 4.1z"/>
					<path id="&lt;Path&gt;" class="s4" d="m35.3 698.7c2.7 0 2.7-4.1 0-4.1-2.6 0-2.6 4.1 0 4.1z"/>
				</g>
				<g id="&lt;Group&gt;">
					<path id="&lt;Path&gt;" class="s3" d="m1093.2 753.7c-3.9 0-5.9-3-5.9-6 0-3 2-6.1 5.9-6.1 1.8 0 3.4 0.7 4.4 2 1 1.1 1.5 2.5 1.5 4.1 0 3-2 6-5.9 6z"/>
					<path id="&lt;Path&gt;" class="s4" d="m1093.2 751.7c5.2 0 5.2-8.1 0-8.1-5.2 0-5.2 8.1 0 8.1z"/>
				</g>
				<g id="&lt;Group&gt;">
					<path id="&lt;Path&gt;" class="s3" d="m1094.9 840.7c-1.4 0-2.6-0.5-3.4-1.5-0.7-0.8-1.1-1.9-1.1-3.1 0-2.6 1.9-4.6 4.5-4.6 2.6 0 4.5 2 4.5 4.6 0 2.6-1.9 4.6-4.5 4.6z"/>
					<path id="&lt;Path&gt;" class="s4" d="m1094.9 838.7c3.4 0 3.4-5.2 0-5.2-3.4 0-3.4 5.2 0 5.2z"/>
				</g>
				<g id="&lt;Group&gt;">
					<path id="&lt;Path&gt;" class="s3" d="m1048.9 864.6q-0.5 0-1.1-0.1l-1.3-0.3c-1.9-0.5-3.2-2.2-3.2-4.3 0-2.1 1.3-3.8 3.2-4.2l1.3-0.4q0.6-0.1 1.1-0.1c2.7 0 4.8 2.1 4.8 4.7 0 1.3-0.5 2.5-1.5 3.4-0.9 0.8-2 1.3-3.3 1.3z"/>
					<path id="&lt;Path&gt;" class="s4" d="m1048.3 857.3q-0.7 0.1-1.3 0.3c-2.3 0.5-2.3 4.1 0 4.6q0.6 0.2 1.3 0.3c1.7 0.4 3.4-0.8 3.4-2.6 0-1.8-1.7-3-3.4-2.6z"/>
				</g>
				<g id="&lt;Group&gt;">
					<path id="&lt;Path&gt;" class="s3" d="m1040.5 818.4c-2.5 0-4.4-1.9-4.4-4.4 0-1.1 0.4-2.2 1.1-3 0.8-0.9 2-1.4 3.3-1.4 2.5 0 4.3 1.9 4.3 4.4 0 2.5-1.8 4.4-4.3 4.4z"/>
					<path id="&lt;Path&gt;" class="s4" d="m1040.5 816.4c3.1 0 3.1-4.8 0-4.8-3.2 0-3.2 4.8 0 4.8z"/>
				</g>
				<g id="&lt;Group&gt;">
					<path id="&lt;Path&gt;" class="s3" d="m1084.7 863.5c-2 0-3.5-1.5-3.5-3.6 0-2 1.5-3.6 3.5-3.6 2 0 3.5 1.6 3.5 3.6 0 2.1-1.5 3.6-3.5 3.6z"/>
					<path id="&lt;Path&gt;" class="s4" d="m1084.7 861.5c2.1 0 2.1-3.2 0-3.2-2.1 0-2.1 3.2 0 3.2z"/>
				</g>
				<g id="&lt;Group&gt;">
					<path id="&lt;Path&gt;" class="s3" d="m1083 805.9c-2.1 0-3.7-1.7-3.7-3.8 0-1 0.3-1.9 0.9-2.5 0.7-0.9 1.7-1.3 2.8-1.3 2.1 0 3.7 1.6 3.7 3.8 0 2.1-1.6 3.8-3.7 3.8z"/>
					<path id="&lt;Path&gt;" class="s4" d="m1083 803.9c2.3 0 2.3-3.6 0-3.6-2.3 0-2.3 3.6 0 3.6z"/>
				</g>
				<g id="&lt;Group&gt;">
					<path id="&lt;Path&gt;" class="s3" d="m987.8 855.8c-4 0-6-3-6-6.1 0-3 2-6.1 6-6.1 1.8 0 3.4 0.7 4.5 2 0.9 1.1 1.4 2.5 1.4 4.1 0 3-2 6.1-5.9 6.1z"/>
					<path id="&lt;Path&gt;" class="s4" d="m987.8 853.8c5.3 0 5.3-8.2 0-8.2-5.4 0-5.4 8.2 0 8.2z"/>
				</g>
				<g id="&lt;Group&gt;">
					<path id="&lt;Path&gt;" class="s3" d="m996.3 810.8c-2.1 0-3.6-1.6-3.6-3.6 0-0.9 0.3-1.8 0.9-2.4 0.7-0.8 1.6-1.2 2.7-1.2 2 0 3.5 1.5 3.5 3.6 0 0.9-0.3 1.7-0.9 2.4-0.6 0.8-1.6 1.2-2.6 1.2z"/>
					<path id="&lt;Path&gt;" class="s4" d="m996.3 808.8c2 0 2-3.2 0-3.2-2.1 0-2.1 3.2 0 3.2z"/>
				</g>
				<g id="&lt;Group&gt;">
					<path id="&lt;Path&gt;" class="s3" d="m1025.2 844.6c-1 0-1.9-0.4-2.6-1.1-0.5-0.6-0.8-1.5-0.8-2.3 0-1.9 1.5-3.4 3.4-3.4 1 0 1.9 0.4 2.5 1.1 0.5 0.6 0.8 1.5 0.8 2.3 0 1.9-1.4 3.4-3.3 3.4z"/>
					<path id="&lt;Path&gt;" class="s4" d="m1025.2 842.6c1.8 0 1.8-2.8 0-2.8-1.8 0-1.8 2.8 0 2.8z"/>
				</g>
				<g id="&lt;Group&gt;">
					<path id="&lt;Path&gt;" class="s3" d="m941.5 831.4l-0.1-2.1v-2l2.1-0.1h2l0.1 2.1v2l-2.1 0.1z"/>
					<path id="&lt;Path&gt;" class="s4" d="m943.5 829.4c0.2 0 0.2-0.2 0-0.2-0.1 0-0.1 0.2 0 0.2z"/>
				</g>
				<g id="&lt;Group&gt;">
					<path id="&lt;Path&gt;" class="s3" d="m952 877.2c-3 0-5.2-2.3-5.2-5.4 0-3 2.2-5.4 5.2-5.4 3 0 5.3 2.4 5.3 5.4 0 3.1-2.3 5.4-5.3 5.4z"/>
					<path id="&lt;Path&gt;" class="s4" d="m952 875.2c4.4 0 4.4-6.8 0-6.8-4.3 0-4.3 6.8 0 6.8z"/>
				</g>
				<g id="&lt;Group&gt;">
					<path id="&lt;Path&gt;" class="s3" d="m950.3 837.7c-1.8 0-3.2-1.4-3.2-3.3 0-0.8 0.3-1.6 0.8-2.2 0.6-0.7 1.5-1.1 2.4-1.1 1.9 0 3.3 1.4 3.3 3.3 0 0.8-0.3 1.6-0.8 2.2-0.6 0.7-1.5 1.1-2.5 1.1z"/>
					<path id="&lt;Path&gt;" class="s4" d="m950.3 835.7c1.7 0 1.7-2.6 0-2.6-1.7 0-1.7 2.6 0 2.6z"/>
				</g>
				<g id="&lt;Group&gt;">
					<path id="&lt;Path&gt;" class="s3" d="m1047.3 784.9c-2.7 0-4.9-2.1-5-4.8-0.1-2.3 1.5-4.4 3.7-5q0.6-0.1 1.3-0.1c1.6 0 3.2 0.8 4.2 2.3l0.5 0.7c0.8 1.2 0.8 2.8 0 3.9l-0.5 0.7c-1 1.5-2.5 2.3-4.2 2.3z"/>
					<path id="&lt;Path&gt;" class="s4" d="m1049.9 781.5q0.2-0.4 0.5-0.7c0.3-0.5 0.3-1.2 0-1.6q-0.3-0.4-0.5-0.7c-0.8-1.2-2-1.8-3.4-1.4-1.2 0.3-2.3 1.6-2.2 2.9 0.1 3 3.9 3.9 5.6 1.5z"/>
				</g>
				<g id="&lt;Group&gt;">
					<path id="&lt;Path&gt;" class="s3" d="m1117 791.8c-1 0-1.8-0.4-2.5-1.1-0.5-0.6-0.8-1.4-0.8-2.2 0-1.9 1.5-3.3 3.3-3.3 1 0 1.9 0.4 2.5 1.1 0.5 0.6 0.8 1.4 0.8 2.2 0 1.9-1.4 3.3-3.3 3.3z"/>
					<path id="&lt;Path&gt;" class="s4" d="m1117 789.8c1.7 0 1.7-2.6 0-2.6-1.7 0-1.7 2.6 0 2.6z"/>
				</g>
				<g id="&lt;Group&gt;">
					<path id="&lt;Path&gt;" class="s3" d="m962.2 789.4c-0.7 0-1.5-0.3-1.9-0.9-0.5-0.5-0.7-1.1-0.7-1.7 0-1.5 1.2-2.7 2.6-2.7 0.8 0 1.5 0.3 2 0.9 0.4 0.5 0.7 1.1 0.7 1.8 0 1.5-1.2 2.6-2.7 2.6z"/>
					<path id="&lt;Path&gt;" class="s4" d="m962.2 787.4c0.9 0 0.9-1.3 0-1.3-0.8 0-0.8 1.3 0 1.3z"/>
				</g>
				<g id="&lt;Group&gt;">
					<path id="&lt;Path&gt;" class="s3" d="m897.6 806.1c-3 0-5.2-2.9-5.4-5.6 0-1.5 0.6-3 1.7-4.1 1-1.1 2.4-1.8 3.8-1.8q0.2 0 0.5 0.1l1.3 0.1c3.2 0.4 5.2 2.5 5.4 5.5 0.1 3.3-2.6 5.3-5.4 5.6l-1.2 0.2c-0.3 0-0.5 0-0.7 0z"/>
					<path id="&lt;Path&gt;" class="s4" d="m899.3 796.8q-0.7-0.1-1.3-0.1c-2-0.3-3.9 1.8-3.8 3.7 0.1 1.8 1.7 3.9 3.8 3.7q0.6-0.1 1.3-0.2c1.9-0.2 3.7-1.4 3.6-3.5-0.1-2.1-1.6-3.3-3.6-3.6z"/>
				</g>
				<g id="&lt;Group&gt;">
					<path id="&lt;Path&gt;" class="s3" d="m855.1 851.9c-0.7 0-1.4-0.2-1.9-0.5l-1.3-0.8c-0.9-0.5-1.5-1.5-1.5-2.6 0-1.1 0.6-2.1 1.5-2.6l1.3-0.8c0.5-0.3 1.2-0.5 1.9-0.5 2.1 0 3.9 1.8 3.9 3.9 0 1.1-0.5 2.1-1.2 2.8-0.8 0.7-1.7 1.1-2.7 1.1z"/>
					<path id="&lt;Path&gt;" class="s4" d="m854.1 846.4q-0.6 0.3-1.2 0.7c-0.7 0.4-0.7 1.4 0 1.8q0.6 0.4 1.2 0.7c1.3 0.7 2.9-0.2 2.9-1.6 0-1.4-1.6-2.3-2.9-1.6z"/>
				</g>
				<g id="&lt;Group&gt;">
					<path id="&lt;Path&gt;" class="s3" d="m824.5 762.6c-1.7 0-3-1.3-3-3 0-1.7 1.3-3.1 3-3.1 1.7 0 3 1.4 3 3.1 0 0.7-0.3 1.4-0.8 2-0.5 0.6-1.3 1-2.2 1z"/>
					<path id="&lt;Path&gt;" class="s4" d="m824.5 760.6c1.3 0 1.3-2.1 0-2.1-1.3 0-1.3 2.1 0 2.1z"/>
				</g>
				<g id="&lt;Group&gt;">
					<path id="&lt;Path&gt;" class="s3" d="m355.1 852.3c-3.9 0-5.9-3-5.9-6 0-1.5 0.5-3 1.4-4.1 1.1-1.2 2.7-1.9 4.5-1.9 3.8 0 5.9 3 5.9 6 0 3-2.1 6-5.9 6z"/>
					<path id="&lt;Path&gt;" class="s4" d="m355.1 850.3c5.2 0 5.2-8 0-8-5.2 0-5.2 8 0 8z"/>
				</g>
				<g id="&lt;Group&gt;">
					<path id="&lt;Path&gt;" class="s3" d="m300.6 810.8c-2.9 0-5.1-2.3-5.1-5.3 0-1.4 0.4-2.6 1.2-3.6 1-1.1 2.4-1.7 3.9-1.7 3 0 5.2 2.3 5.2 5.3 0 1.3-0.4 2.6-1.3 3.5-0.9 1.2-2.3 1.8-3.9 1.8z"/>
					<path id="&lt;Path&gt;" class="s4" d="m300.6 808.8c4.3 0 4.3-6.6 0-6.6-4.2 0-4.2 6.6 0 6.6z"/>
				</g>
				<g id="&lt;Group&gt;">
					<path id="&lt;Path&gt;" class="s3" d="m414.6 798c-2.5 0-4.4-1.9-4.4-4.4 0-2.6 1.9-4.5 4.4-4.5 2.5 0 4.3 1.9 4.3 4.5 0 2.5-1.8 4.4-4.3 4.4z"/>
					<path id="&lt;Path&gt;" class="s4" d="m414.6 796c3.1 0 3.1-4.9 0-4.9-3.1 0-3.2 4.9 0 4.9z"/>
				</g>
				<g id="&lt;Group&gt;">
					<path id="&lt;Path&gt;" class="s3" d="m460.5 851.9c-2.2 0-3.8-1.7-3.8-3.9 0-2.2 1.6-3.9 3.8-3.9 2.2 0 3.8 1.7 3.8 3.9 0 2.2-1.6 3.9-3.8 3.9z"/>
					<path id="&lt;Path&gt;" class="s4" d="m460.5 849.9c2.4 0 2.4-3.8 0-3.8-2.4 0-2.4 3.8 0 3.8z"/>
				</g>
				<g id="&lt;Group&gt;">
					<path id="&lt;Path&gt;" class="s3" d="m254.7 522.8c-2.6 0-4.6-2.1-4.6-4.7 0-2.7 2-4.8 4.6-4.8 1.4 0 2.6 0.6 3.5 1.6 0.7 0.8 1.1 2 1.1 3.1 0 2.7-1.9 4.8-4.6 4.8z"/>
					<path id="&lt;Path&gt;" class="s4" d="m254.7 520.8c3.5 0 3.5-5.5 0-5.5-3.5 0-3.5 5.5 0 5.5z"/>
				</g>
				<g id="&lt;Group&gt;">
					<path id="&lt;Path&gt;" class="s3" d="m283.6 470c-1.6 0-2.9-1.3-2.9-3 0-1.6 1.3-2.9 2.9-2.9 1.7 0 2.9 1.3 2.9 2.9 0 1.7-1.2 3-2.9 3z"/>
					<path id="&lt;Path&gt;" class="s4" d="m283.6 468c1.2 0 1.2-1.9 0-1.9-1.2 0-1.2 1.9 0 1.9z"/>
				</g>
				<g id="&lt;Group&gt;">
					<path id="&lt;Path&gt;" class="s3" d="m351.7 531.8c-2.1 0-3.6-1.5-3.6-3.5 0-2.1 1.5-3.6 3.6-3.6 2 0 3.5 1.5 3.5 3.6 0 2-1.5 3.5-3.5 3.5z"/>
					<path id="&lt;Path&gt;" class="s4" d="m351.7 529.8c2 0 2-3.1 0-3.1-2.1 0-2.1 3.1 0 3.1z"/>
				</g>
				<g id="&lt;Group&gt;">
					<path id="&lt;Path&gt;" class="s3" d="m564 316.1l-0.1-2.1v-2l2.1-0.1h2l0.1 2.1v2l-2.1 0.1z"/>
					<path id="&lt;Path&gt;" class="s4" d="m566 314.1c0.1 0 0.1-0.2 0-0.2-0.2 0-0.2 0.2 0 0.2z"/>
				</g>
				<g id="&lt;Group&gt;">
					<path id="&lt;Path&gt;" class="s3" d="m569.4 332.4q-0.7 0-1.4-0.2l-1.2-0.4c-1.9-0.6-3.2-2.3-3.2-4.2 0-2 1.3-3.7 3.2-4.3l1.2-0.4q0.7-0.2 1.4-0.2c2.6 0 4.8 2.2 4.8 4.9 0 1.2-0.5 2.4-1.5 3.4-0.9 0.9-2.1 1.4-3.3 1.4z"/>
					<path id="&lt;Path&gt;" class="s4" d="m568.6 324.9q-0.6 0.1-1.2 0.3c-2.3 0.7-2.3 4 0 4.7q0.6 0.2 1.2 0.4c1.8 0.5 3.6-1 3.6-2.7 0-1.8-1.8-3.3-3.6-2.7z"/>
				</g>
				<g id="&lt;Group&gt;">
					<path id="&lt;Path&gt;" class="s3" d="m637.5 291.6c-2.3 0-4.3-1.5-4.8-3.6-0.4-1.4-0.1-3 0.8-4.2 0.9-1.2 2.4-2 3.9-2q0.7 0 1.3 0.2c1.6 0.4 2.9 1.8 3.6 3.5 0.5 1.5-0.1 2.8-0.5 3.5l-0.1 0.2c-0.9 1.5-2.4 2.4-4.2 2.4z"/>
					<path id="&lt;Path&gt;" class="s4" d="m639.9 288.2c0.3-0.6 0.8-1.2 0.5-2-0.4-1-1.2-2-2.2-2.3-2.2-0.5-4.2 1.5-3.6 3.6 0.6 2.4 4.1 2.9 5.3 0.7z"/>
				</g>
				<g id="&lt;Group&gt;">
					<path id="&lt;Path&gt;" class="s3" d="m583 228.3c-2.6 0-4.5-1.9-4.5-4.5 0-2.6 1.9-4.5 4.5-4.5 1.3 0 2.5 0.5 3.3 1.5 0.7 0.8 1.1 1.9 1.1 3 0 2.6-1.9 4.5-4.4 4.5z"/>
					<path id="&lt;Path&gt;" class="s4" d="m583 226.3c3.2 0 3.2-5 0-5-3.3 0-3.3 5 0 5z"/>
				</g>
				<g id="&lt;Group&gt;">
					<path id="&lt;Path&gt;" class="s3" d="m853.4 493.9c-1.4 0-2.6-0.6-3.5-1.6-0.7-0.8-1.1-2-1.1-3.2 0-2.7 2-4.7 4.6-4.7 1.4 0 2.6 0.6 3.5 1.6 0.7 0.8 1.1 1.9 1.1 3.1 0 2.7-2 4.8-4.6 4.8z"/>
					<path id="&lt;Path&gt;" class="s4" d="m853.4 491.9c3.5 0 3.5-5.5 0-5.5-3.5 0-3.5 5.5 0 5.5z"/>
				</g>
				<g id="&lt;Group&gt;">
					<path id="&lt;Path&gt;" class="s3" d="m696.6 542.3l-0.1-2.1v-2l2.1-0.1h2l0.1 2.1v2l-2.1 0.1z"/>
					<path id="&lt;Path&gt;" class="s4" d="m698.6 540.3c0.2 0 0.2-0.2 0-0.2-0.1 0-0.1 0.2 0 0.2z"/>
				</g>
				<g id="&lt;Group&gt;">
					<path id="&lt;Path&gt;" class="s3" d="m659.5 554.5c-3.7 0-5.7-3-5.7-5.8 0-2.9 2-5.9 5.7-5.9 3.7 0 5.7 3 5.7 5.9 0 2.8-2 5.8-5.7 5.8z"/>
					<path id="&lt;Path&gt;" class="s4" d="m659.5 552.5c5 0 5-7.7 0-7.7-4.9 0-5 7.7 0 7.7z"/>
				</g>
				<g id="&lt;Group&gt;">
					<path id="&lt;Path&gt;" class="s3" d="m586.4 519.9c-1.2 0-2.4-0.6-3-1.5-0.7-0.8-0.8-1.9-0.5-3.1l0.1-0.3c0.2-0.7 0.5-1.7 1.4-2.5 0.6-0.5 1.3-0.8 2-0.8 0.7 0 1.4 0.3 1.9 0.8 1 0.8 1.2 1.8 1.4 2.5l0.1 0.3c0.4 1.2 0.2 2.3-0.4 3.1-0.7 0.9-1.8 1.5-3 1.5z"/>
					<path id="&lt;Path&gt;" class="s4" d="m587.9 515.9c-0.2-0.7-0.3-1.4-0.9-1.9-0.4-0.4-0.9-0.4-1.3 0-0.5 0.5-0.7 1.2-0.9 1.9-0.8 2.6 3.9 2.6 3.1 0z"/>
				</g>
				<g id="&lt;Group&gt;">
					<path id="&lt;Path&gt;" class="s3" d="m1094.9 489.3c-2.9 0-5.2-2.3-5.2-5.3 0-1.3 0.5-2.6 1.3-3.5 1-1.1 2.3-1.7 3.9-1.7 3 0 5.2 2.2 5.2 5.2 0 3-2.2 5.3-5.2 5.3z"/>
					<path id="&lt;Path&gt;" class="s4" d="m1094.9 487.3c4.2 0 4.2-6.5 0-6.5-4.2 0-4.2 6.5 0 6.5z"/>
				</g>
				<g id="&lt;Group&gt;">
					<path id="&lt;Path&gt;" class="s3" d="m907.8 263c-1.9 0-3.4-1.5-3.4-3.5 0-2 1.5-3.5 3.4-3.5 1.1 0 2 0.4 2.6 1.2 0.6 0.6 0.9 1.5 0.9 2.3 0 2-1.5 3.5-3.5 3.5z"/>
					<path id="&lt;Path&gt;" class="s4" d="m907.8 261c1.9 0 2-3 0-3-1.9 0-1.9 3 0 3z"/>
				</g>
				<g id="&lt;Group&gt;">
					<path id="&lt;Path&gt;" class="s3" d="m873.8 165.8c-1.3 0-2.5-0.9-3-2.1l-0.7-1.6c-0.4-1-0.3-2.3 0.4-3.3 0.8-1.1 2-1.8 3.3-1.8 1.3 0 2.5 0.7 3.3 1.8 0.7 1 0.8 2.3 0.4 3.4l-0.7 1.5c-0.5 1.3-1.7 2.1-3 2.1z"/>
					<path id="&lt;Path&gt;" class="s4" d="m872 161.4q0.3 0.7 0.6 1.5c0.5 1.2 1.9 1.2 2.4 0q0.3-0.8 0.6-1.5c0.5-1.2-0.7-2.4-1.8-2.4-1.1 0-2.3 1.2-1.8 2.4z"/>
				</g>
				<g id="&lt;Group&gt;">
					<path id="&lt;Path&gt;" class="s3" d="m822.8 263c-2 0-3.5-1.5-3.5-3.5 0-2 1.5-3.5 3.5-3.5 1 0 1.9 0.4 2.6 1.2 0.5 0.6 0.8 1.5 0.8 2.3 0 2-1.5 3.5-3.4 3.5z"/>
					<path id="&lt;Path&gt;" class="s4" d="m822.8 261c1.9 0 1.9-3 0-3-2 0-2 3 0 3z"/>
				</g>
				<g id="&lt;Group&gt;">
					<path id="&lt;Path&gt;" class="s3" d="m224.1 284.7c-2.6 0-4.6-2.1-4.6-4.8 0-2.6 2-4.7 4.6-4.7 1.4 0 2.6 0.6 3.5 1.6 0.7 0.8 1.1 1.9 1.1 3.1 0 2.7-2 4.8-4.6 4.8z"/>
					<path id="&lt;Path&gt;" class="s4" d="m224.1 282.7c3.5 0 3.5-5.5 0-5.5-3.5 0-3.5 5.5 0 5.5z"/>
				</g>
				<g id="&lt;Group&gt;">
					<path id="&lt;Path&gt;" class="s3" d="m57.4 295.1c-1.4 0-2.7-0.6-3.6-1.7-0.8-0.8-1.2-2-1.2-3.3 0-2.8 2.1-4.9 4.8-4.9 1.5 0 2.8 0.6 3.6 1.6 0.8 0.9 1.2 2.1 1.2 3.3 0 2.8-2 5-4.8 5z"/>
					<path id="&lt;Path&gt;" class="s4" d="m57.4 293.1c3.8 0 3.8-5.9 0-5.9-3.7 0-3.7 5.9 0 5.9z"/>
				</g>
				<g id="&lt;Group&gt;">
					<path id="&lt;Path&gt;" class="s3" d="m50.6 461.2c-2.4 0-4.2-1.9-4.2-4.4 0-2.5 1.8-4.3 4.2-4.3 2.5 0 4.3 1.8 4.3 4.3 0 2.5-1.8 4.4-4.3 4.4z"/>
					<path id="&lt;Path&gt;" class="s4" d="m50.6 459.2c3 0 3-4.7 0-4.7-3 0-3 4.7 0 4.7z"/>
				</g>
				<g id="&lt;Group&gt;">
					<path id="&lt;Path&gt;" class="s3" d="m336.4 262.1c-1.1 0-2-0.7-2.4-1.7l-0.7-1.5c-0.4-1-0.3-2 0.2-2.8 0.6-0.9 1.7-1.4 2.8-1.4 1.2 0 2.3 0.5 2.9 1.4 0.5 0.8 0.6 1.8 0.2 2.8l-0.7 1.5c-0.4 1-1.3 1.7-2.3 1.7z"/>
					<path id="&lt;Path&gt;" class="s4" d="m335.2 258.2q0.3 0.7 0.6 1.5c0.2 0.5 0.9 0.5 1.1 0q0.3-0.8 0.6-1.5c0.8-2-3.1-2-2.3 0z"/>
				</g>
				<g id="&lt;Group&gt;">
					<path id="&lt;Path&gt;" class="s3" d="m270 210.6c-1.3 0-2.5-0.7-3.1-1.7-0.7-1.2-0.8-2.6-0.2-3.9l0.6-1.3c0.5-1 1.6-1.6 2.7-1.6 1.2 0 2.2 0.6 2.7 1.6l0.7 1.3c0.6 1.3 0.5 2.7-0.2 3.9-0.7 1-1.9 1.7-3.2 1.7z"/>
					<path id="&lt;Path&gt;" class="s4" d="m271.6 205.9q-0.4-0.7-0.7-1.3c-0.3-0.7-1.4-0.7-1.8 0q-0.3 0.6-0.6 1.3c-0.6 1.2 0.1 2.7 1.5 2.7 1.4 0 2.1-1.5 1.6-2.7z"/>
				</g>
				<g id="&lt;Group&gt;">
					<path id="&lt;Path&gt;" class="s3" d="m491.1 26.7c-2 0-3.5-1.5-3.5-3.6 0-2 1.5-3.6 3.5-3.6 2 0 3.6 1.6 3.6 3.6 0 2.1-1.6 3.6-3.6 3.6z"/>
					<path id="&lt;Path&gt;" class="s4" d="m491.1 24.7c2.1 0 2.1-3.2 0-3.2-2 0-2 3.2 0 3.2z"/>
				</g>
				<g id="&lt;Group&gt;">
					<path id="&lt;Path&gt;" class="s3" d="m589.8 38.5c-2 0-3.5-1.5-3.5-3.5 0-2 1.5-3.5 3.5-3.5 1 0 1.9 0.4 2.6 1.2 0.5 0.6 0.8 1.5 0.8 2.3 0 2-1.5 3.5-3.4 3.5z"/>
					<path id="&lt;Path&gt;" class="s4" d="m589.8 36.5c1.9 0 1.9-3 0-3-2 0-2 3 0 3z"/>
				</g>
				<g id="&lt;Group&gt;">
					<path id="&lt;Path&gt;" class="s3" d="m577.9 132.3c-3.1 0-5.4-2.3-5.4-5.4 0-3.1 2.3-5.5 5.4-5.5 1.6 0 3 0.6 4 1.8 0.8 1 1.3 2.3 1.3 3.7 0 3.1-2.3 5.4-5.3 5.4z"/>
					<path id="&lt;Path&gt;" class="s4" d="m577.9 130.3c4.4 0 4.4-6.9 0-6.9-4.5 0-4.5 6.9 0 6.9z"/>
				</g>
				<g id="&lt;Group&gt;">
					<path id="&lt;Path&gt;" class="s3" d="m77.8 559.7c-2.3 0-4.1-1.8-4.1-4.2 0-2.5 1.8-4.3 4.1-4.3 1.3 0 2.4 0.5 3.2 1.4 0.6 0.8 1 1.8 1 2.9 0 2.4-1.8 4.2-4.2 4.2z"/>
					<path id="&lt;Path&gt;" class="s4" d="m77.8 557.7c2.9 0 2.9-4.5 0-4.5-2.9 0-2.9 4.5 0 4.5z"/>
				</g>
				<g id="&lt;Group&gt;">
					<path id="&lt;Path&gt;" class="s3" d="m54 575.7c-0.9 0-1.8-0.4-2.4-1.1-0.5-0.6-0.8-1.3-0.8-2.1 0-1.8 1.4-3.2 3.2-3.2 1 0 1.8 0.3 2.4 1 0.5 0.6 0.8 1.4 0.8 2.2 0 1.8-1.4 3.2-3.2 3.2z"/>
					<path id="&lt;Path&gt;" class="s4" d="m54 573.7c1.6 0 1.6-2.4 0-2.4-1.5 0-1.5 2.4 0 2.4z"/>
				</g>
				<g id="&lt;Group&gt;">
					<path id="&lt;Path&gt;" class="s3" d="m606.8 788c-2.6 0-4.6-2-4.6-4.6 0-2.7 2-4.7 4.6-4.7 1.3 0 2.6 0.6 3.4 1.6 0.7 0.8 1.1 1.9 1.1 3.1 0 2.6-1.9 4.6-4.5 4.6z"/>
					<path id="&lt;Path&gt;" class="s4" d="m606.8 786c3.4 0 3.4-5.3 0-5.3-3.4 0-3.4 5.3 0 5.3z"/>
				</g>
				<g id="&lt;Group&gt;">
					<path id="&lt;Path&gt;" class="s3" d="m618.7 846.5c-3 0-5.2-2.3-5.2-5.3 0-1.3 0.5-2.6 1.3-3.6 0.9-1.1 2.3-1.7 3.9-1.7 1.5 0 2.9 0.6 3.9 1.7 0.8 1 1.3 2.3 1.3 3.6 0 3-2.3 5.3-5.2 5.3z"/>
					<path id="&lt;Path&gt;" class="s4" d="m618.7 844.5c4.2 0 4.2-6.6 0-6.6-4.2 0-4.2 6.6 0 6.6z"/>
				</g>
			</g>
		</g>
	</g>
</svg>